<svg width="32" height="32" viewBox="0 0 32 32" fill="none" xmlns="http://www.w3.org/2000/svg">
  <rect width="32" height="32" rx="16" fill="#52525B" />
  <path
    d="M21.2264 20.2656C20.453 18.9286 19.2612 17.9698 17.8703 17.5153C18.5583 17.1057 19.0928 16.4817 19.3918 15.7389C19.6908 14.9961 19.7377 14.1757 19.5253 13.4037C19.3129 12.6317 18.8529 11.9508 18.2161 11.4655C17.5792 10.9802 16.8007 10.7174 16 10.7174C15.1993 10.7174 14.4208 10.9802 13.7839 11.4655C13.1471 11.9508 12.6871 12.6317 12.4747 13.4037C12.2623 14.1757 12.3092 14.9961 12.6082 15.7389C12.9072 16.4817 13.4417 17.1057 14.1297 17.5153C12.7388 17.9693 11.547 18.9281 10.7736 20.2656C10.7452 20.3119 10.7264 20.3633 10.7183 20.417C10.7101 20.4706 10.7128 20.5253 10.7261 20.5779C10.7395 20.6305 10.7632 20.6799 10.7959 20.7231C10.8287 20.7664 10.8697 20.8027 10.9167 20.8298C10.9637 20.8569 11.0156 20.8744 11.0694 20.8811C11.1233 20.8879 11.1779 20.8838 11.2301 20.869C11.2823 20.8543 11.3311 20.8293 11.3735 20.7954C11.4159 20.7616 11.451 20.7196 11.4769 20.6719C12.4336 19.0184 14.1246 18.0313 16 18.0313C17.8754 18.0313 19.5664 19.0184 20.5231 20.6719C20.549 20.7196 20.5841 20.7616 20.6265 20.7954C20.6689 20.8293 20.7177 20.8543 20.7699 20.869C20.8221 20.8838 20.8767 20.8879 20.9306 20.8811C20.9844 20.8744 21.0363 20.8569 21.0833 20.8298C21.1303 20.8027 21.1713 20.7664 21.2041 20.7231C21.2368 20.6799 21.2605 20.6305 21.2739 20.5779C21.2872 20.5253 21.2899 20.4706 21.2817 20.417C21.2736 20.3633 21.2548 20.3119 21.2264 20.2656ZM13.1563 14.375C13.1563 13.8126 13.323 13.2628 13.6355 12.7951C13.948 12.3275 14.3921 11.963 14.9117 11.7477C15.4314 11.5325 16.0032 11.4762 16.5548 11.5859C17.1064 11.6956 17.6131 11.9665 18.0108 12.3642C18.4085 12.7619 18.6794 13.2686 18.7891 13.8202C18.8988 14.3719 18.8425 14.9436 18.6273 15.4633C18.412 15.9829 18.0476 16.427 17.5799 16.7395C17.1123 17.052 16.5624 17.2188 16 17.2188C15.246 17.218 14.5232 16.9181 13.9901 16.385C13.4569 15.8518 13.1571 15.129 13.1563 14.375Z"
    fill="#F4F4F5" />
</svg>