<svg width="252" height="100" viewBox="0 0 252 100" fill="currentColor" xmlns="http://www.w3.org/2000/svg">
  <rect x="0" y="78" width="13.875" height="22" fill="currentColor" />
  <rect x="15.875" y="64" width="13.875" height="36" fill="currentColor" />
  <rect x="31.75" y="12" width="13.875" height="88" fill="currentColor" />
  <rect x="47.625" y="75" width="13.875" height="25" fill="currentColor" />
  <rect x="63.5" y="10" width="13.875" height="90" fill="currentColor" />
  <rect x="79.375" y="26" width="13.875" height="74" fill="currentColor" />
  <rect x="95.25" y="55" width="13.875" height="45" fill="currentColor" />
  <rect x="111.125" y="5" width="13.875" height="95" fill="currentColor" />
  <rect x="127" y="17" width="13.875" height="83" fill="currentColor" />
  <rect x="142.875" y="25" width="13.875" height="75" fill="currentColor" />
  <rect x="158.75" y="25" width="13.875" height="75" fill="currentColor" />
  <rect x="174.625" y="49" width="13.875" height="51" fill="currentColor" />
  <rect x="190.5" y="55" width="13.875" height="45" fill="currentColor" />
  <rect x="206.375" y="64" width="13.875" height="36" fill="currentColor" />
  <rect x="222.25" y="4" width="13.875" height="96" fill="currentColor" />
  <rect x="238.125" y="13" width="13.875" height="87" fill="currentColor" />
</svg>