<svg width="74" height="40" viewBox="0 0 74 40" fill="none" xmlns="http://www.w3.org/2000/svg">
  <path
    d="M0.790136 35.2727L8.06541 18.95H11.7963L19.0949 35.2727H15.1308L9.16136 20.8621H10.6537L4.66095 35.2727H0.790136ZM4.42777 31.775L5.43045 28.9068H13.825L14.851 31.775H4.42777ZM20.7651 35.2727V17.9706H24.4027V35.2727H20.7651ZM33.3052 35.4593C32.2636 35.4593 31.3309 35.2572 30.507 34.853C29.6986 34.4488 29.069 33.8348 28.6182 33.0108C28.1674 32.1714 27.942 31.1065 27.942 29.8163V22.7275H31.5796V29.2799C31.5796 30.3215 31.7972 31.091 32.2325 31.5884C32.6833 32.0703 33.3129 32.3113 34.1213 32.3113C34.6809 32.3113 35.1784 32.1947 35.6137 31.9615C36.0489 31.7128 36.3909 31.3397 36.6397 30.8423C36.8884 30.3293 37.0127 29.6919 37.0127 28.9302V22.7275H40.6504V35.2727H37.1993V31.8216L37.8289 32.8243C37.4092 33.6948 36.7873 34.3555 35.9634 34.8063C35.1551 35.2416 34.269 35.4593 33.3052 35.4593ZM50.1531 39.983C48.9716 39.983 47.829 39.8353 46.7253 39.5399C45.6371 39.2601 44.7277 38.8326 43.9971 38.2574L45.4428 35.6458C45.9714 36.0811 46.6398 36.4231 47.4482 36.6718C48.2721 36.9361 49.0804 37.0682 49.8733 37.0682C51.1635 37.0682 52.0963 36.7806 52.6714 36.2054C53.2622 35.6303 53.5575 34.7753 53.5575 33.6404V31.7517L53.7907 28.6037L53.7441 25.4324V22.7275H57.1952V33.1741C57.1952 35.5059 56.5889 37.2237 55.3764 38.3274C54.1638 39.4311 52.4227 39.983 50.1531 39.983ZM49.5934 34.6664C48.4275 34.6664 47.3704 34.4177 46.4222 33.9203C45.4894 33.4073 44.7355 32.6999 44.1603 31.7983C43.6007 30.8811 43.3209 29.8163 43.3209 28.6037C43.3209 27.3756 43.6007 26.3108 44.1603 25.4091C44.7355 24.4919 45.4894 23.7846 46.4222 23.2872C47.3704 22.7897 48.4275 22.541 49.5934 22.541C50.6505 22.541 51.5833 22.7586 52.3916 23.1939C53.2 23.6136 53.8296 24.2743 54.2804 25.1759C54.7312 26.062 54.9566 27.2046 54.9566 28.6037C54.9566 29.9873 54.7312 31.1298 54.2804 32.0315C53.8296 32.9176 53.2 33.5783 52.3916 34.0135C51.5833 34.4488 50.6505 34.6664 49.5934 34.6664ZM50.3163 31.6817C50.9537 31.6817 51.5211 31.5573 52.0185 31.3086C52.516 31.0443 52.9046 30.679 53.1844 30.2127C53.4643 29.7463 53.6042 29.21 53.6042 28.6037C53.6042 27.9819 53.4643 27.4456 53.1844 26.9948C52.9046 26.5284 52.516 26.1708 52.0185 25.9221C51.5211 25.6578 50.9537 25.5257 50.3163 25.5257C49.6789 25.5257 49.1115 25.6578 48.6141 25.9221C48.1166 26.1708 47.7202 26.5284 47.4249 26.9948C47.145 27.4456 47.0051 27.9819 47.0051 28.6037C47.0051 29.21 47.145 29.7463 47.4249 30.2127C47.7202 30.679 48.1166 31.0443 48.6141 31.3086C49.1115 31.5573 49.6789 31.6817 50.3163 31.6817ZM68.509 35.2727V32.8243L68.2759 32.288V27.9042C68.2759 27.1269 68.0349 26.5206 67.553 26.0853C67.0866 25.6501 66.3638 25.4324 65.3844 25.4324C64.716 25.4324 64.0553 25.5413 63.4024 25.7589C62.765 25.961 62.2209 26.2408 61.7701 26.5983L60.4643 24.0567C61.1483 23.5748 61.9722 23.2017 62.936 22.9374C63.8998 22.6731 64.8792 22.541 65.8741 22.541C67.7862 22.541 69.2708 22.9918 70.3279 23.8934C71.385 24.7951 71.9135 26.2019 71.9135 28.114V35.2727H68.509ZM64.6849 35.4593C63.7055 35.4593 62.866 35.296 62.1665 34.9696C61.467 34.6276 60.9306 34.169 60.5575 33.5938C60.1845 33.0186 59.9979 32.3735 59.9979 31.6584C59.9979 30.9122 60.1767 30.2593 60.5342 29.6997C60.9073 29.14 61.4903 28.7048 62.2831 28.3938C63.0759 28.0674 64.1097 27.9042 65.3844 27.9042H68.7189V30.0261H65.7808C64.9258 30.0261 64.3351 30.166 64.0086 30.4458C63.6977 30.7257 63.5423 31.0754 63.5423 31.4952C63.5423 31.9615 63.721 32.3346 64.0786 32.6144C64.4517 32.8787 64.9569 33.0108 65.5943 33.0108C66.2005 33.0108 66.7446 32.8709 67.2265 32.5911C67.7085 32.2958 68.0582 31.8683 68.2759 31.3086L68.8355 32.9875C68.5712 33.7959 68.0893 34.4099 67.3898 34.8297C66.6902 35.2494 65.7886 35.4593 64.6849 35.4593Z"
    fill="#18181B" />
  <path
    d="M5.25425 10.2292H10.4931V12.188H5.25425V10.2292ZM5.4408 14.7063H11.3636V16.7272H2.93798V5.84542H11.1615V7.86632H5.4408V14.7063ZM18.4363 16.7272V15.095L18.2809 14.7374V11.8149C18.2809 11.2967 18.1202 10.8925 17.7989 10.6023C17.488 10.3121 17.0061 10.1671 16.3532 10.1671C15.9076 10.1671 15.4671 10.2396 15.0319 10.3847C14.6069 10.5194 14.2442 10.706 13.9437 10.9443L13.0731 9.24987C13.5291 8.9286 14.0784 8.67987 14.7209 8.50369C15.3635 8.32751 16.0164 8.23942 16.6797 8.23942C17.9544 8.23942 18.9441 8.53996 19.6489 9.14105C20.3536 9.74214 20.7059 10.6801 20.7059 11.9548V16.7272H18.4363ZM15.8869 16.8516C15.2339 16.8516 14.6743 16.7428 14.2079 16.5251C13.7416 16.2971 13.384 15.9914 13.1353 15.608C12.8866 15.2245 12.7622 14.7944 12.7622 14.3177C12.7622 13.8202 12.8814 13.385 13.1198 13.0119C13.3685 12.6388 13.7571 12.3486 14.2857 12.1413C14.8142 11.9237 15.5034 11.8149 16.3532 11.8149H18.5762V13.2295H16.6175C16.0475 13.2295 15.6537 13.3228 15.436 13.5093C15.2288 13.6959 15.1251 13.9291 15.1251 14.2089C15.1251 14.5198 15.2443 14.7685 15.4827 14.9551C15.7314 15.1312 16.0682 15.2193 16.4931 15.2193C16.8973 15.2193 17.26 15.1261 17.5813 14.9395C17.9026 14.7426 18.1358 14.4576 18.2809 14.0845L18.6539 15.2038C18.4778 15.7427 18.1565 16.1521 17.6901 16.4319C17.2238 16.7117 16.6227 16.8516 15.8869 16.8516ZM25.87 16.8516C25.1549 16.8516 24.4657 16.7687 23.8024 16.6029C23.1495 16.4267 22.6313 16.2091 22.2479 15.95L23.0562 14.2089C23.4397 14.4472 23.8905 14.6441 24.4087 14.7996C24.9372 14.9447 25.4554 15.0172 25.9632 15.0172C26.5229 15.0172 26.9167 14.9499 27.1447 14.8151C27.383 14.6804 27.5022 14.4939 27.5022 14.2555C27.5022 14.0586 27.409 13.9135 27.2224 13.8202C27.0462 13.7166 26.8079 13.6389 26.5073 13.5871C26.2068 13.5352 25.8751 13.4834 25.5124 13.4316C25.16 13.3798 24.8025 13.3124 24.4398 13.2295C24.077 13.1362 23.7454 13.0015 23.4449 12.8253C23.1443 12.6491 22.9008 12.4108 22.7142 12.1102C22.538 11.8097 22.45 11.4211 22.45 10.9443C22.45 10.4158 22.6002 9.94942 22.9008 9.54523C23.2117 9.14105 23.6573 8.82496 24.2377 8.59696C24.818 8.3586 25.5124 8.23942 26.3208 8.23942C26.8908 8.23942 27.4711 8.3016 28.0619 8.42596C28.6526 8.55032 29.1449 8.73169 29.5387 8.97005L28.7303 10.6956C28.3261 10.4572 27.9168 10.2966 27.5022 10.2137C27.098 10.1204 26.7042 10.0738 26.3208 10.0738C25.7819 10.0738 25.388 10.1463 25.1393 10.2914C24.8906 10.4365 24.7662 10.6231 24.7662 10.8511C24.7662 11.0583 24.8543 11.2138 25.0305 11.3174C25.217 11.4211 25.4606 11.504 25.7611 11.5661C26.0617 11.6283 26.3881 11.6853 26.7405 11.7371C27.1032 11.7786 27.466 11.846 27.8287 11.9392C28.1914 12.0325 28.5179 12.1672 28.808 12.3434C29.1086 12.5092 29.3521 12.7424 29.5387 13.043C29.7252 13.3331 29.8185 13.7166 29.8185 14.1933C29.8185 14.7115 29.663 15.1727 29.3521 15.5769C29.0412 15.9707 28.5904 16.2816 27.9997 16.5096C27.4193 16.7376 26.7094 16.8516 25.87 16.8516ZM32.3755 19.8674C31.9402 19.8674 31.5101 19.8001 31.0852 19.6653C30.6603 19.5306 30.3131 19.3441 30.0437 19.1057L30.9298 17.3801C31.1163 17.546 31.3288 17.6755 31.5671 17.7688C31.8158 17.8621 32.0594 17.9087 32.2978 17.9087C32.6398 17.9087 32.9092 17.8258 33.1061 17.66C33.3134 17.5045 33.4999 17.2402 33.6658 16.8671L34.101 15.8411L34.2876 15.5769L37.2878 8.36378H39.6197L35.8421 17.2402C35.5727 17.9139 35.2618 18.4424 34.9094 18.8259C34.5674 19.2093 34.1839 19.4788 33.759 19.6342C33.3445 19.7897 32.8833 19.8674 32.3755 19.8674ZM33.8057 17.0537L30.0748 8.36378H32.5776L35.469 15.3592L33.8057 17.0537Z"
    fill="#18181B" />
</svg>