<svg width="208" height="10" viewBox="0 0 208 10" fill="none" xmlns="http://www.w3.org/2000/svg">
  <g id="Detail" clip-path="url(#clip0_26_235)">
    <g id="Clip path group">
      <mask id="mask0_26_235" style="mask-type:luminance" maskUnits="userSpaceOnUse" x="0" y="0"
        width="208" height="10">
        <g id="clip0_1349_513">
          <path id="Vector" d="M207.55 0.149323H0.478699V9.60069H207.55V0.149323Z" fill="white" />
        </g>
      </mask>
      <g mask="url(#mask0_26_235)">
        <g id="Group">
          <path id="Vector_2"
            d="M45.5453 2.07396C65.2149 1.79715 84.8952 1.61919 104.575 1.5401C124.256 1.46101 143.754 1.48738 163.337 1.6126C174.463 1.6851 185.598 1.78396 196.724 1.91578L198.234 0.564646C172.835 0.834873 147.447 1.17101 122.061 1.57306C96.6734 1.9751 71.286 2.44306 45.8987 2.98351C31.6472 3.28669 17.4063 3.60306 3.15471 3.94578C2.31954 3.96556 1.06677 4.09737 0.595643 4.59829C0.156639 5.06624 0.970402 5.3101 1.64497 5.29692C28.103 4.88169 54.5823 4.84215 81.0512 5.18487C107.52 5.5276 133.967 6.25919 160.382 7.36646C175.224 7.98602 190.053 8.73078 204.86 9.59419C205.665 9.64033 206.99 9.39649 207.42 8.9417C207.89 8.44737 207.014 8.27601 206.371 8.24306C180.02 6.70737 153.605 5.54737 127.168 4.76965C100.731 3.99192 74.2521 3.60306 47.7832 3.59647C32.9107 3.59647 18.038 3.70851 3.16543 3.94578L1.65568 5.29692C27.0322 4.68397 52.4197 4.14351 77.807 3.66238C103.194 3.18782 128.581 2.7726 153.968 2.42988C168.221 2.23873 182.483 2.06078 196.734 1.90919C197.57 1.9026 198.832 1.75101 199.294 1.25669C199.755 0.762373 198.907 0.564646 198.243 0.558055C178.554 0.333964 158.883 0.195555 139.204 0.1626C119.523 0.129646 100.025 0.188964 80.4408 0.353736C69.3159 0.446009 58.1801 0.571236 47.0552 0.729419C46.2199 0.742601 44.9564 0.8876 44.496 1.38192C44.0571 1.84987 44.8707 2.09373 45.5453 2.08055V2.07396Z"
            fill="url(#paint0_linear_26_235)" />
        </g>
      </g>
    </g>
  </g>
  <defs>
    <linearGradient id="paint0_linear_26_235" x1="104.012" y1="0.153847" x2="104.012" y2="9.59974"
      gradientUnits="userSpaceOnUse">
      <stop stop-color="#1F7A8C" />
      <stop offset="0.473958" stop-color="#1A4199" />
      <stop offset="1" stop-color="#2B9943" />
    </linearGradient>
    <clipPath id="clip0_26_235">
      <rect width="207.071" height="9.45137" fill="white" transform="translate(0.478699 0.149323)" />
    </clipPath>
  </defs>
</svg>