<svg width="111" height="39" viewBox="0 0 111 39" fill="none" xmlns="http://www.w3.org/2000/svg">
<path d="M91.5133 0.500021C86.9738 0.500021 82.8096 2.0925 79.5423 4.74665C76.1606 1.99373 71.9317 0.49358 67.5712 0.500021C63.0317 0.500021 58.8674 2.0925 55.6001 4.74665C52.2184 1.99373 47.9895 0.49358 43.629 0.500021C39.0895 0.500021 34.9252 2.0925 31.6579 4.74665C28.8701 2.48435 25.4984 1.05822 21.9334 0.633462C18.3684 0.208705 14.756 0.802711 11.5147 2.34666C8.27343 3.89061 5.53593 6.32132 3.61934 9.35717C1.70276 12.393 0.685547 15.9098 0.685547 19.5C0.685547 23.0902 1.70276 26.607 3.61934 29.6428C5.53593 32.6787 8.27343 35.1094 11.5147 36.6533C14.756 38.1973 18.3684 38.7913 21.9334 38.3665C25.4984 37.9418 28.8701 36.5157 31.6579 34.2534C34.9252 36.9075 39.0895 38.5 43.629 38.5C48.1685 38.5 52.3327 36.9075 55.6001 34.2534C58.8674 36.9075 63.0317 38.5 67.5712 38.5C72.1107 38.5 76.2749 36.9075 79.5423 34.2534C81.9038 36.1698 84.6909 37.4913 87.6693 38.1068C90.6477 38.7223 93.7303 38.6139 96.6581 37.7906C99.5859 36.9672 102.273 35.4531 104.494 33.3755C106.715 31.2978 108.405 28.7174 109.422 25.851C110.438 22.9846 110.752 19.9161 110.336 16.9033C109.921 13.8905 108.788 11.0215 107.033 8.53749C105.278 6.05345 102.953 4.02695 100.252 2.62833C97.5516 1.2297 94.5547 0.499815 91.5133 0.500021ZM79.5423 28.039C77.7591 25.5491 76.802 22.5626 76.8057 19.5C76.8057 16.315 77.8216 13.368 79.5423 10.961C81.2629 13.368 82.2788 16.315 82.2788 19.5C82.2788 22.685 81.2629 25.632 79.5423 28.039ZM55.6001 28.039C53.8169 25.5491 52.8598 22.5626 52.8636 19.5C52.8636 16.315 53.8795 13.368 55.6001 10.961C57.3207 13.368 58.3366 16.315 58.3366 19.5C58.3366 22.685 57.3207 25.632 55.6001 28.039ZM31.6579 28.039C29.8747 25.5491 28.9176 22.5626 28.9214 19.5C28.9214 16.315 29.9373 13.368 31.6579 10.961C33.3785 13.368 34.3944 16.315 34.3944 19.5C34.3944 22.685 33.3785 25.632 31.6579 28.039ZM4.97922 19.5C4.9803 16.7557 5.7492 14.0663 7.19896 11.7362C8.64873 9.40602 10.7215 7.52797 13.183 6.31439C15.6444 5.10081 18.3963 4.60011 21.1274 4.86893C23.8586 5.13774 26.4601 6.16534 28.6377 7.83552C26.0359 11.1667 24.6246 15.2732 24.629 19.5C24.629 23.8976 26.13 27.9475 28.6377 31.1645C26.4601 32.8347 23.8586 33.8623 21.1274 34.1311C18.3963 34.3999 15.6444 33.8992 13.183 32.6856C10.7215 31.472 8.64873 29.594 7.19896 27.2638C5.7492 24.9337 4.9803 22.2444 4.97922 19.5ZM34.6781 31.1645C37.2799 27.8333 38.6912 23.7268 38.6868 19.5C38.6868 15.1024 37.1858 11.0525 34.6781 7.83552C37.2437 5.86035 40.3912 4.7903 43.629 4.79241C46.997 4.79241 50.0996 5.92728 52.5799 7.83552C49.9768 11.166 48.5654 15.273 48.5712 19.5C48.5712 23.8976 50.0722 27.9475 52.5799 31.1645C50.0143 33.1397 46.8668 34.2097 43.629 34.2076C40.3908 34.2121 37.2426 33.1418 34.6781 31.1645ZM58.6203 31.1645C61.2234 27.834 62.6348 23.7271 62.629 19.5C62.629 15.1024 61.128 11.0525 58.6203 7.83094C61.1006 5.92728 64.2032 4.78783 67.5712 4.78783C70.9392 4.78783 74.0418 5.9227 76.522 7.83094C73.919 11.1614 72.5075 15.2684 72.5134 19.4954C72.5134 23.8931 74.0143 27.9429 76.522 31.1599C73.9564 33.1351 70.809 34.2051 67.5712 34.203C64.3331 34.2109 61.1844 33.142 58.6203 31.1645ZM91.5133 34.2076C88.2751 34.2121 85.1269 33.1418 82.5625 31.1645C85.1637 27.833 86.5749 23.7267 86.5712 19.5C86.5712 15.1024 85.0702 11.0525 82.5625 7.83552C84.4166 6.41152 86.5835 5.45004 88.8835 5.03081C91.1835 4.61158 93.5502 4.74667 95.7876 5.42489C98.0249 6.10311 100.068 7.3049 101.748 8.93063C103.428 10.5564 104.697 12.5592 105.448 14.773C106.2 16.9868 106.412 19.3479 106.069 21.6604C105.726 23.9729 104.836 26.1702 103.474 28.0702C102.111 29.9701 100.316 31.518 98.2357 32.5853C96.1557 33.6527 93.8512 34.2088 91.5133 34.2076Z" fill="#000"/>
</svg>
