<svg width="139" height="39" viewBox="0 0 139 39" fill="none" xmlns="http://www.w3.org/2000/svg">
<path fill-rule="evenodd" clip-rule="evenodd" d="M120.97 6.89775H113.991L109.144 25.5095H116.124L117.48 20.2751C117.674 19.1123 118.643 19.3058 118.643 19.3058L120.194 13.1019H119.225L120.97 6.89775ZM131.44 6.89775L130.082 12.1323C129.888 13.2955 128.919 13.1019 128.919 13.1019L127.368 19.3058H128.337L126.593 25.5097H133.572L138.419 6.89775H131.44Z" fill="#2B9943"/>
<path fill-rule="evenodd" clip-rule="evenodd" d="M124.848 25.5097L129.695 6.89775H122.715L117.868 25.5097H124.848ZM129.889 5.92822L131.44 0.5H124.46L122.909 5.92822H129.889ZM8.91073 28.4183L0.379883 38.5H135.124L137.838 28.4183H8.91073Z" fill="#2B9943"/>
<path fill-rule="evenodd" clip-rule="evenodd" d="M25.3897 15.0407H32.7568C32.7568 15.0407 35.0834 5.92822 23.0632 5.92822C12.206 5.92822 9.29794 14.4593 9.29794 17.1735C9.10392 17.3671 8.13438 26.0908 20.1553 26.0908C30.0424 26.0908 31.9813 18.7243 31.9813 18.7243H24.2267C24.2267 18.7243 23.063 20.6632 20.5434 20.6632C18.2163 20.6632 16.6652 18.9179 17.4407 16.2037C18.2161 13.8774 20.5434 11.9383 23.063 11.9383C25.3897 11.9385 25.5837 14.0712 25.3897 15.0407ZM82.1951 6.89775H102.746L101.389 12.1325H88.5931L88.2058 13.8776H101.001L99.8375 18.5303H87.0418L86.6546 20.0819H99.2562L97.8994 25.5097H77.1542L82.1951 6.89775ZM37.9918 25.5097H29.2677L43.4202 6.89794H51.1757L54.8589 25.7045H46.3282L46.135 24.1537H39.1548L37.9918 25.5097ZM41.6751 20.2751H45.7465L45.3583 15.0407L41.6751 20.2751ZM78.3177 13.2957L70.5632 13.1021V12.3267C70.1753 11.5512 69.5936 11.163 68.2361 11.163C66.2977 11.163 65.7153 11.5512 65.7153 12.1325C65.7153 12.5204 66.1035 12.908 67.2665 13.2957C68.4301 13.6835 72.1142 14.2652 74.0523 15.0407C76.3787 15.8161 77.3482 16.9792 77.1542 19.1123C77.1542 19.1123 77.3482 22.4073 73.665 24.3465C69.7877 26.2856 65.7153 26.091 65.7153 26.091C65.7153 26.091 59.8998 25.8978 57.3794 24.1537C54.8587 22.0196 55.2471 18.7245 55.0531 18.7245H63.1957C63.1957 18.7245 62.8077 21.2451 66.2976 21.2451C68.6239 21.2451 68.8181 20.4688 69.0121 20.2753C69.0121 19.8873 69.0121 19.6938 68.0426 19.306C67.0731 19.1125 60.6753 17.3673 59.5118 16.5918C58.9301 16.0103 57.3794 14.8467 57.3794 12.714C57.5727 9.80617 60.8693 6.12262 68.0428 6.31645C75.2159 6.31645 76.9609 8.83663 77.1542 9.03066C77.3482 9.22429 78.5119 10.5815 78.3177 13.2957Z" fill="#2B9943"/>
</svg>
