<svg width="64" height="39" viewBox="0 0 64 39" fill="none" xmlns="http://www.w3.org/2000/svg">
<path d="M31.941 18.3331L34.0393 7.60603L36.1272 18.3331H31.941ZM39.4473 1.27444H28.5894L22.2579 29.6619L34.0393 20.1515L46.3231 30.4442L39.4473 1.27444ZM34.0393 22.6135L14.3931 38.5H53.0001L34.0393 22.6135ZM63.5963 1.23781V8.48513H58.1909V38.4424H55.8833L49.5099 33.1051V8.48513H44.128V1.23781H63.5963ZM18.7833 32.226C20.2171 31.0277 20.463 29.5468 20.463 28.2177V22.6396H12.6663V30.2114C12.667 30.7313 12.4613 31.2303 12.0943 31.5988C11.7274 31.9672 11.2292 32.1749 10.7092 32.1763C9.62607 32.1763 8.82024 31.2972 8.82024 30.214V8.75461C8.82024 7.67144 9.62607 6.79234 10.7092 6.79234C11.2292 6.79304 11.7277 7.00008 12.0951 7.368C12.4625 7.73593 12.6689 8.23464 12.6689 8.75461V16.3761H20.4526V8.47205C20.4526 4.10273 17.5955 0.507849 10.6412 0.5C3.50379 0.5 0.803711 4.11058 0.803711 8.4799V30.8838C0.803711 35.2139 4.24161 38.4895 8.63971 38.4895H11.052L18.7833 32.226Z" fill="#2B9943"/>
</svg>
