<svg width="102" height="39" viewBox="0 0 102 39" fill="none" xmlns="http://www.w3.org/2000/svg">
<path d="M50.9999 3.60756C25.1261 3.60756 4.15436 10.76 4.15436 19.5084C4.15436 28.2569 25.1261 35.4051 50.9999 35.4051C76.8695 35.4051 97.8413 28.2569 97.8413 19.5084C97.8413 10.7558 76.8695 3.60756 50.9999 3.60756ZM26.9417 29.9542C24.1719 29.9753 21.7357 28.2653 21.4528 25.3056C21.292 23.7633 21.7372 22.219 22.6941 20.9989C23.5175 19.9264 24.9108 19.0356 26.0888 18.816C26.4688 18.7442 26.9881 18.7907 27.2035 19.044C27.537 19.4367 27.4399 19.8631 27.1064 20.032C26.207 20.4922 25.1219 21.2776 24.5857 22.3542C24.3401 22.8108 24.2236 23.3257 24.2489 23.8435C24.2742 24.3613 24.4403 24.8624 24.7293 25.2929C25.8397 26.9691 28.9388 27.0156 31.8184 24.3429C32.5319 23.6842 33.1695 23.0593 33.8155 22.3162C35.0821 20.8638 35.5044 20.3318 37.1933 17.9927C37.2144 17.9673 37.2186 17.9336 37.2101 17.9167C37.1975 17.8871 37.1721 17.8744 37.1257 17.8744C35.9984 17.904 35.0146 18.2418 34.0646 18.9511C33.7901 19.1538 33.3933 19.1242 33.2201 18.8624C33.0259 18.5669 33.1653 18.1742 33.4819 17.9547C35.0146 16.8864 36.6908 16.6964 38.405 16.4051C38.405 16.4051 38.5233 16.4136 38.6204 16.2784C39.3255 15.3791 39.8533 14.5684 40.6048 13.6564C41.3564 12.7276 42.3359 11.8831 43.079 11.2413C44.1177 10.3462 44.7848 10.0464 45.4604 9.67911C45.6419 9.58622 45.4393 9.47222 45.3844 9.47222C41.6013 8.76289 37.6704 7.84245 33.9126 9.23578C31.3117 10.2069 30.1675 12.2673 30.7164 13.648C31.109 14.6233 32.3926 14.788 33.6001 14.1969C34.6502 13.6761 35.5412 12.8828 36.1799 11.9C36.5473 11.3342 37.3199 11.7396 36.9019 12.7233C35.8041 15.3031 33.7057 17.3551 31.147 17.4438C28.9684 17.5113 27.5624 15.9111 27.5666 13.9351C27.575 10.0338 31.9155 7.46667 36.4755 7.08667C41.9686 6.63067 47.1704 8.09578 52.6255 8.75444C56.8013 9.26111 60.8081 9.27378 65.005 8.30689C65.5033 8.20133 65.8495 8.518 65.8199 9.01622C65.7777 9.74245 65.2161 10.4391 63.8355 11.1949C62.2606 12.0562 60.6139 12.318 58.8955 12.3349C54.7408 12.3687 50.869 10.7473 46.8621 9.87755C46.8706 10.0507 46.9128 10.2618 46.765 10.3716C44.5484 12.0098 42.5428 13.6733 41.2001 16.004C41.1537 16.0589 41.179 16.1096 41.255 16.1053C42.4246 16.042 43.4717 16.0124 44.561 15.928C44.751 15.9111 44.7595 15.8647 44.7426 15.7253C44.6829 15.2936 44.7286 14.8539 44.8756 14.4437C45.0226 14.0334 45.2667 13.6648 45.587 13.3693C46.3133 12.7233 47.221 12.6516 47.8248 13.116C48.5004 13.648 48.4455 14.6064 48.0697 15.3242C47.9024 15.6394 47.6734 15.9177 47.3963 16.1426C47.1192 16.3675 46.7997 16.5343 46.4568 16.6331C46.4568 16.6331 46.3301 16.6584 46.347 16.7767C46.3724 16.9582 47.1915 17.4142 47.2633 17.5367C47.335 17.6507 47.297 17.8322 47.1746 17.9673C47.1259 18.0267 47.0647 18.0745 46.9953 18.1073C46.926 18.1402 46.8502 18.1573 46.7735 18.1573C46.6341 18.1573 46.5497 18.1067 46.3681 18.0096C45.9336 17.7791 45.5467 17.4682 45.2281 17.0933C45.1268 16.9624 45.0719 16.9582 44.8101 16.9709C43.6321 17.0427 41.7955 17.22 40.5499 17.3762C40.2501 17.41 40.2037 17.4691 40.1446 17.5747C38.1601 20.8469 36.0406 24.3724 33.7141 26.7369C31.2146 29.2702 29.1415 29.9373 26.9417 29.9542ZM80.7666 14.0533C80.3824 14.7204 72.9597 26.0191 72.491 27.1844C72.3433 27.556 72.3221 27.8389 72.4741 28.0458C72.8626 28.5693 73.7281 28.2611 74.2686 27.8853C75.8773 26.7791 76.9919 25.4364 78.2248 24.2627C78.2966 24.2078 78.419 24.1867 78.4993 24.2627C78.6808 24.4316 78.9468 24.6469 79.1326 24.8411C79.1491 24.8563 79.1624 24.8745 79.1718 24.8949C79.1812 24.9153 79.1865 24.9373 79.1872 24.9597C79.188 24.9821 79.1843 25.0044 79.1764 25.0254C79.1685 25.0463 79.1565 25.0655 79.141 25.0818C78.0131 26.4995 76.7331 27.7894 75.3241 28.9282C73.3397 30.4651 71.3595 30.8578 70.3757 29.874C70.0288 29.512 69.8196 29.0399 69.7846 28.5398C69.7761 28.2991 69.6537 28.2864 69.5397 28.3962C68.3659 29.5573 66.3308 30.8409 64.4815 29.9247C62.9361 29.1647 62.5773 27.3153 62.8644 25.7616C62.8686 25.7278 62.839 25.5082 62.649 25.6349C62.2592 25.9184 61.8332 26.1484 61.3824 26.3189C60.8976 26.5402 60.3699 26.6513 59.837 26.644C59.4539 26.6484 59.0763 26.552 58.7421 26.3645C58.4079 26.177 58.1288 25.905 57.9328 25.5758C57.6836 25.1266 57.5461 24.6241 57.5317 24.1107C57.5275 24.0642 57.4599 23.9756 57.3924 24.0896C56.1257 26.0191 54.9477 27.8853 53.6979 29.8444C53.6304 29.9373 53.5713 29.9964 53.4446 30.0007L50.9661 30.0049C50.8141 30.0049 50.7424 29.8867 50.8226 29.7389C51.2617 28.8944 53.6684 25.39 55.2981 22.4091C55.7499 21.59 55.657 21.1678 55.3784 20.9862C55.0279 20.7582 54.3313 21.1002 53.7444 21.5478C52.1441 22.7596 50.8015 24.6511 50.1175 25.4956C49.7164 25.9896 49.3364 26.7242 48.2893 27.86C46.6384 29.6544 44.447 30.6847 42.3444 29.9711C41.7889 29.7829 41.2882 29.4612 40.8863 29.0342C40.4843 28.6072 40.1934 28.088 40.039 27.5222C39.9757 27.3027 39.8533 27.2436 39.7308 27.3871C39.393 27.8093 38.6964 28.4384 38.1137 28.8311C38.0504 28.8776 37.8941 28.9704 37.759 28.9029C37.5048 28.656 37.2886 28.3729 37.1173 28.0627C37.0918 28.0064 37.0846 27.9435 37.0967 27.8829C37.1089 27.8223 37.1397 27.7671 37.1848 27.7249C38.0166 26.9944 38.4726 26.5807 38.8357 26.1204C39.1059 25.7827 39.3128 25.4027 39.5535 24.7904C40.0601 23.5153 41.2128 21.134 43.5139 19.9011C44.364 19.4198 45.2985 19.1059 46.2668 18.9764C46.689 18.9342 47.0395 18.9849 47.1661 19.3142C47.2126 19.4536 47.3308 19.7576 47.4026 19.9813C47.449 20.1164 47.4153 20.222 47.2548 20.2811C45.9037 20.7962 44.5399 21.5942 43.6026 22.8567C42.5344 24.2838 42.2473 26.0064 42.9608 26.9944C43.4801 27.7122 44.3204 27.8389 45.131 27.5813C46.3555 27.1929 47.4026 26.0487 47.943 24.782C48.5257 23.3929 48.6186 21.7547 48.1879 20.3107C48.1204 20.0616 48.1837 19.8716 48.3441 19.7364C48.6693 19.4704 49.121 19.2636 49.2519 19.196C49.3808 19.127 49.5307 19.1083 49.6726 19.1434C49.8146 19.1785 49.9384 19.2649 50.0204 19.386C50.4679 20.0489 50.7086 20.982 50.7381 21.9489C50.7635 22.1558 50.8479 22.16 50.9493 22.0544C51.7515 21.2016 52.4946 20.2896 53.3475 19.6056C54.1286 18.9849 55.1293 18.4782 56.0624 18.4993C57.2699 18.5247 57.8695 19.3438 57.8315 20.8047C57.8273 20.9904 57.9581 20.9736 58.0468 20.8511C58.3266 20.4307 58.6683 20.055 59.0601 19.7364C59.8961 19.0482 60.749 18.74 61.6399 18.7991C62.7377 18.8836 63.6159 19.8842 63.4344 21.0242C63.3906 21.3848 63.2597 21.7293 63.053 22.0279C62.8462 22.3266 62.57 22.5705 62.2479 22.7384C61.9772 22.8827 61.6693 22.9421 61.3643 22.9089C61.0593 22.8758 60.7714 22.7517 60.5379 22.5527C60.357 22.3816 60.2243 22.1658 60.1531 21.9272C60.082 21.6885 60.0749 21.4354 60.1326 21.1931C60.1537 21.0876 60.0186 20.9904 59.9046 21.1087C58.8321 22.2233 58.7519 23.6673 59.4528 24.3176C60.2255 25.0353 61.3866 24.554 62.231 24.0009C63.7764 22.9918 64.9755 21.6238 66.3646 20.5682C67.285 19.8673 68.3364 19.2424 69.5144 19.0862C70.1615 18.9873 70.8233 19.0631 71.4313 19.3058C72.2757 19.6478 72.8077 20.3613 72.8753 20.9778C72.8921 21.1593 73.0273 21.1804 73.1413 21.02C73.8084 19.9813 77.3846 14.6149 77.6801 14.0533C77.7646 13.8802 77.8659 13.8549 78.0559 13.8549H80.6146C80.7624 13.8549 80.8299 13.9393 80.7666 14.0533ZM70.971 23.3591C70.9448 23.4116 70.9403 23.4722 70.9584 23.528C70.971 23.6124 71.085 23.6969 71.1948 23.7391C71.237 23.7518 71.2581 23.7813 71.2117 23.8742C70.895 24.5498 70.6079 24.9382 70.211 25.5251C69.8603 26.0437 69.4333 26.5063 68.9444 26.8973C68.1928 27.518 67.1541 28.1936 66.2928 27.7418C65.9128 27.5433 65.7439 27.0071 65.7566 26.5764C65.7735 25.3604 66.3139 24.1107 67.3146 22.882C68.5306 21.3831 69.8775 20.6062 70.7599 21.0327C71.6719 21.4676 71.3848 22.5316 70.971 23.3591ZM45.853 15.4171C45.8213 15.1473 45.8554 14.8739 45.9525 14.6202C46.0495 14.3665 46.2067 14.1401 46.4104 13.9604C46.651 13.7493 46.9719 13.6987 47.1704 13.8676C47.3899 14.0576 47.2844 14.5304 47.0606 14.8556C46.8176 15.2216 46.45 15.4872 46.0261 15.6029C45.9501 15.6198 45.8826 15.586 45.853 15.4171ZM50.9999 0.5C22.8799 0.5 0.333252 8.93178 0.333252 19.5C0.333252 30.0049 23.0615 38.5 50.9999 38.5C78.9384 38.5 101.667 29.9711 101.667 19.5C101.667 9.02889 78.9384 0.5 50.9999 0.5ZM50.9999 36.8449C24.1846 36.8449 2.44436 29.0844 2.44436 19.5084C2.44436 9.92822 24.1888 2.16778 50.9999 2.16778C77.811 2.16778 99.547 9.92822 99.547 19.5084C99.547 29.0844 77.811 36.8449 50.9999 36.8449Z" fill="#000"/>
</svg>
