<svg width="96" height="39" viewBox="0 0 96 39" fill="none" xmlns="http://www.w3.org/2000/svg">
<path d="M17.183 0.5H24.9138V20.785C24.9138 24.2756 23.4144 31.594 12.6888 31.594C1.96323 31.5979 0.801025 24.7794 0.801025 20.9556V17.2112H8.28198V20.8723C8.28198 23.1134 9.78134 25.1959 12.6055 25.1959C15.4337 25.1959 17.179 23.6132 17.179 20.9516L17.183 0.5ZM33.8902 17.7149C33.8902 15.4659 34.8025 13.6373 37.3807 13.6373C40.0423 13.6373 41.2045 15.6325 41.2045 17.711H33.8902V17.7149ZM36.8849 8.98053C29.8165 8.98053 26.6551 15.4659 26.6551 21.0389C26.6551 26.608 30.233 32.0104 37.5473 32.0104C43.9494 32.0937 48.1897 27.9368 48.1897 24.8627H41.1212C41.1212 24.8627 40.2882 26.8539 37.7972 26.8539C35.3023 26.8539 33.8902 25.4418 33.8902 22.0345H48.273C48.273 11.3089 42.9538 8.9845 36.8849 8.9845M57.0034 17.711C57.0034 15.4659 57.9157 13.6373 60.494 13.6373C63.1555 13.6373 64.3177 15.6325 64.3177 17.711H57.0073H57.0034ZM59.9942 8.9845C52.9297 8.9845 49.7684 15.4659 49.7684 21.0349C49.7684 26.608 53.3462 32.0104 60.6606 32.0104C67.0626 32.0937 71.3029 27.9368 71.3029 24.8627H64.2344C64.2344 24.8627 63.4015 26.8539 60.9105 26.8539C58.4194 26.8539 56.9994 25.4418 56.9994 22.0345H71.3822C71.3822 11.3089 66.063 8.9845 59.9942 8.9845ZM80.2673 20.785C80.3546 16.5487 82.0166 14.8035 84.2617 14.8035C87.9188 14.8035 88.5852 17.6277 88.5852 20.5391C88.5852 23.4466 88.0854 27.2704 84.5948 27.2704C81.1043 27.2704 80.188 25.0293 80.2673 20.785ZM80.4379 38.4958V29.5988C80.7354 29.9954 80.9059 30.1858 81.4335 30.5983C82.2665 31.2449 83.6786 32.3436 86.8399 32.3436C92.5756 32.3436 95.8996 27.3577 95.8996 20.5391C95.8996 11.7254 90.3305 9.23439 86.7566 9.23439C83.1827 9.23439 81.8381 10.8924 81.3542 11.4755C80.7949 12.1498 80.6124 12.5306 80.3546 13.082V9.81351H73.2029V38.4958H80.4379ZM92.996 35.1718V37.52H93.4086V36.5918H93.7338C93.956 36.5918 94.1107 36.6196 94.1979 36.6712C94.3447 36.7584 94.4161 36.9369 94.4161 37.2067V37.3931L94.424 37.4724L94.4319 37.4962L94.4359 37.52H94.8246L94.8088 37.4922C94.7943 37.3937 94.7864 37.2943 94.785 37.1948V37.0202C94.785 36.9012 94.7413 36.7822 94.658 36.6553C94.6097 36.591 94.5483 36.5376 94.4779 36.4986C94.4075 36.4596 94.3297 36.436 94.2495 36.4292C94.3696 36.4135 94.4855 36.3744 94.5906 36.3142C94.7453 36.215 94.8207 36.0603 94.8207 35.8501C94.8207 35.5566 94.7017 35.3582 94.4597 35.2551C94.252 35.1902 94.0344 35.1633 93.8171 35.1758L92.996 35.1718ZM94.2614 35.5407C94.3645 35.6002 94.42 35.7152 94.42 35.8858C94.42 36.0682 94.3368 36.1872 94.1741 36.2507C94.0476 36.2926 93.9146 36.3114 93.7814 36.3062H93.4086V35.4534H93.7656C93.9917 35.4534 94.1583 35.4852 94.2614 35.5407ZM95.372 37.8691C95.5744 37.6719 95.7345 37.4354 95.8422 37.1742C95.95 36.9129 96.0033 36.6324 95.9987 36.3499C96.0028 36.0691 95.9493 35.7906 95.8415 35.5313C95.7337 35.2721 95.5739 35.0377 95.372 34.8426C95.1751 34.6412 94.9391 34.482 94.6786 34.375C94.4181 34.2679 94.1384 34.2151 93.8568 34.2198C93.5763 34.2153 93.2979 34.2681 93.0387 34.3752C92.7795 34.4823 92.5449 34.6414 92.3495 34.8426C92.1483 35.038 91.9893 35.2726 91.8822 35.5318C91.7751 35.791 91.7222 36.0694 91.7267 36.3499C91.7267 36.9449 91.933 37.4526 92.3455 37.8691C92.5406 38.0724 92.7755 38.2333 93.0355 38.3418C93.2955 38.4503 93.5751 38.5041 93.8568 38.4998C94.1394 38.5034 94.4197 38.449 94.6803 38.3398C94.941 38.2306 95.1764 38.069 95.372 37.8651M92.5558 35.0488C92.9167 34.6918 93.3491 34.5094 93.8568 34.5094C94.3645 34.5094 94.8008 34.6879 95.1578 35.0488C95.5148 35.4058 95.6933 35.8421 95.6933 36.3499C95.6933 36.8655 95.5148 37.3018 95.1618 37.6588C94.9936 37.8346 94.7908 37.9737 94.5662 38.0672C94.3416 38.1608 94.1001 38.2067 93.8568 38.2023C93.6144 38.2069 93.3738 38.1614 93.1499 38.0686C92.926 37.9758 92.7237 37.8376 92.5558 37.6628C92.3835 37.4917 92.2476 37.2876 92.1563 37.0626C92.0649 36.8377 92.02 36.5966 92.0242 36.3538C92.0202 36.1113 92.0655 35.8706 92.1576 35.6462C92.2497 35.4218 92.3825 35.2186 92.5558 35.0488Z" fill="#000"/>
</svg>
