<svg width="43" height="39" viewBox="0 0 43 39" fill="none" xmlns="http://www.w3.org/2000/svg">
<path fill-rule="evenodd" clip-rule="evenodd" d="M39.6492 4.61504C33.8423 1.80647 27.6628 0.500107 21.5975 0.500107L21.5991 0.5C15.5386 0.5 9.35747 1.80637 3.54955 4.61504C1.49911 9.52477 0.56543 14.5794 0.56543 19.5121C0.56543 24.4309 1.48721 29.4286 3.53776 34.3839C9.37356 37.2061 15.5295 38.5 21.5991 38.5C27.6719 38.5 33.8305 37.2061 39.6599 34.3839C41.7103 29.428 42.6346 24.4306 42.6346 19.5121C42.6346 14.5793 41.6982 9.52487 39.6492 4.61504ZM2.18564 19.5122C2.18564 24.3345 3.11402 28.9526 4.80915 33.2016C9.85401 35.5691 15.6027 36.8956 21.5972 36.8956C27.5949 36.8956 33.3441 35.5691 38.3887 33.2016C40.0859 28.9525 41.0115 24.3342 41.0115 19.5122C41.0115 14.6786 40.0805 10.055 38.378 5.79594C33.3364 3.43186 27.5896 2.10603 21.5972 2.10603C15.607 2.10603 9.86383 3.4318 4.81854 5.79594C3.11536 10.0552 2.18564 14.6787 2.18564 19.5122Z" fill="#2B9943"/>
<path d="M37.4276 32.3142C36.3672 30.5687 34.9428 29.1591 34.9274 29.1457C34.91 29.137 34.6312 29.0505 34.6312 29.0505C31.6082 28.1215 29.6268 27.423 28.7509 26.9693C27.5457 26.3432 26.2795 24.8237 26.1401 24.6528C24.7271 24.5462 23.5581 24.569 22.4334 24.705L21.7169 24.7982C20.3508 24.9745 18.9405 25.1608 17.5584 24.939C16.6381 24.7882 15.7446 24.4952 14.7974 24.1869C13.3382 23.709 11.8434 23.2184 10.1356 23.2211H10.0672L10.0967 23.2814C10.4848 24.0361 12.0177 26.3265 13.9374 26.9559C14.3611 27.0578 14.6673 27.1704 14.8001 27.2743C14.8001 27.279 15.5348 28.7737 15.7352 29.1779C14.5407 28.6357 10.8461 26.7568 7.86547 23.1298V23.1244C7.86547 23.0761 7.78839 22.3704 7.7723 22.2161C9.54723 21.5539 13.5443 21.1698 13.9947 21.1269L14.0276 21.1243L14.0416 21.0881C14.2803 18.9854 14.7783 17.3029 15.7114 15.4603C15.7382 15.4047 15.7543 15.3537 15.7543 15.3095C15.7543 15.2773 15.7449 15.2445 15.7315 15.2183C15.6792 15.1191 15.5512 15.0997 15.5458 15.0997C15.5458 15.0997 12.9652 14.6493 12.8258 14.6251C12.811 14.5796 12.5543 13.7919 12.5322 13.7263C14.4928 12.997 16.9099 12.3147 18.2934 12.0144C18.5274 11.641 18.5931 11.4379 18.5931 11.194C18.5931 10.9868 18.4932 10.8106 18.2934 10.6752C17.3128 10.0102 14.2241 10.4104 11.0994 11.6088C11.0927 11.5961 11.0927 11.5934 11.0833 11.58C11.7321 11.0947 12.8917 10.3735 13.7517 9.97401L13.7852 9.95524L13.7751 9.92306C13.5419 9.13277 12.0157 8.52822 11.8441 8.46655C11.8474 8.43974 11.8501 8.42164 11.8528 8.40086C13.4045 8.29496 14.4341 9.02086 14.7484 9.53832L14.7645 9.56379L14.7953 9.55374C14.9944 9.48939 15.6956 9.26685 16.4543 9.17703L16.4986 9.17499L16.4865 9.12875C16.2372 7.79954 14.9683 6.91207 14.536 6.64466C14.548 6.62321 14.5521 6.61516 14.5641 6.59975C16.0622 6.71571 17.4464 8.00601 17.758 9.09654L17.7667 9.12604L17.7976 9.12872C18.1997 9.14279 18.6877 9.1877 19.0142 9.24267L19.0477 9.24803L19.0597 9.21988C19.1817 8.93366 19.2414 8.62799 19.2414 8.31365C19.2414 7.3317 18.6864 6.27865 18.004 5.61308C18.0174 5.59431 18.0235 5.57689 18.0409 5.5608C20.0089 6.3075 20.5096 7.72583 20.5096 9.0463C20.5096 9.97065 20.2643 10.8507 20.1061 11.4117L20.0397 11.6443C20.0397 11.6443 22.9381 11.2944 23.1338 11.271C22.8389 11.6443 22.2034 12.3092 20.9346 13.0097C20.9346 13.003 19.6268 12.8428 19.6268 12.8428L19.5927 12.8374L19.5813 12.8709C19.4935 13.1411 18.728 15.5595 18.7239 17.3371C18.7239 17.996 18.9103 18.5074 19.2783 18.86C19.9338 19.4907 21.0197 19.5256 21.7785 19.4961C25.0045 19.3781 27.522 19.5765 29.2691 20.0933L29.3723 20.1215L29.3884 20.0973C29.497 19.9304 29.5821 19.6208 29.5821 19.2105C29.5821 18.4317 29.2704 17.2707 28.2221 15.9576C28.2335 15.9483 28.2335 15.9416 28.2469 15.9315C28.4205 16.0274 31.2504 17.6347 31.6285 20.0611C31.5621 20.0866 30.2725 20.6128 30.2725 20.6128L30.314 20.655C31.5098 21.9071 31.9227 23.4199 32.2538 24.6312C32.5173 25.591 32.8316 26.2044 33.2486 26.5643C33.7318 26.9812 35.5631 27.8553 36.1127 28.112C36.5698 28.7614 37.3554 29.9787 37.9251 30.9212V30.9192C39.1625 27.2473 39.7952 23.42 39.7952 19.5125C39.7952 15.096 38.9895 10.7837 37.4144 6.68262C32.538 4.48075 27.0785 3.31037 21.5961 3.31037C16.1131 3.31037 10.6597 4.4807 5.78211 6.68262C4.20495 10.7841 3.3999 15.0961 3.3999 19.5125C3.3999 23.9183 4.20361 28.2209 5.77273 32.3204C10.6511 34.5256 16.1107 35.6906 21.5964 35.6906C27.0847 35.6906 32.5441 34.5256 37.4216 32.3204L37.4283 32.3143L37.4276 32.3142Z" fill="#2B9943"/>
</svg>
