<svg width="39" height="39" viewBox="0 0 39 39" fill="none" xmlns="http://www.w3.org/2000/svg">
<path d="M19.8 0.5C30.2865 0.5 38.8 9.01358 38.8 19.5C38.8 29.9864 30.2865 38.5 19.8 38.5C9.31363 38.5 0.800049 29.9864 0.800049 19.5C0.800049 9.01358 9.31363 0.5 19.8 0.5ZM5.93797 28.2701C7.41694 30.6086 9.46357 32.5348 11.8873 33.8695C14.3111 35.2041 17.0331 35.9038 19.8 35.9033C25.6283 35.9033 30.752 32.857 33.6621 28.2701L19.8 22.9881L5.93797 28.2701ZM22.821 17.7552L34.3271 27.1206C35.5632 24.7709 36.2072 22.155 36.2034 19.5C36.2034 10.6698 29.2098 3.45925 20.465 3.10933L22.821 17.7552ZM19.135 3.10933C10.3903 3.45925 3.39672 10.6698 3.39672 19.5C3.39672 22.2502 4.07438 24.8422 5.27297 27.1206L16.779 17.7552L19.135 3.10933Z" fill="#000"/>
</svg>
