<svg width="38" height="39" viewBox="0 0 38 39" fill="none" xmlns="http://www.w3.org/2000/svg">
<path fill-rule="evenodd" clip-rule="evenodd" d="M21.0676 13.3778L30.3904 4.25147C30.6876 3.92553 31.0551 3.15957 30.1472 2.70325C30.0795 2.66926 30.0078 2.63266 29.9318 2.59382L29.9318 2.59381C28.7316 1.98091 26.4379 0.809667 21.6351 0.503154C20.5975 0.437966 20.338 1.39949 20.338 1.8884C20.23 5.47375 20.0948 12.6828 20.0948 12.8889C20.0948 13.1334 20.4191 13.8667 21.0676 13.3778ZM16.5525 13.3008L7.29411 4.28387C6.99891 3.96184 6.63394 3.20507 7.53563 2.75422C7.60281 2.72063 7.674 2.68447 7.74954 2.64609C8.94147 2.04054 11.2193 0.883346 15.9889 0.580509C17.0194 0.516102 17.2771 1.4661 17.2771 1.94914C17.3844 5.49149 17.5186 12.614 17.5186 12.8177C17.5186 13.0592 17.1966 13.7838 16.5525 13.3008ZM16.2305 38.4997C17.1966 38.4997 17.4917 37.963 17.5186 37.6946C17.6674 31.072 8.39368 22.8674 2.79284 17.9123C2.33401 17.5064 1.89984 17.1222 1.49751 16.7626C1.2846 16.5726 0.933968 16.6821 0.85345 17.2456C-1.61099 38.5511 14.6078 38.5044 16.1778 38.4998L16.2305 38.4997ZM20.0966 37.6916C20.1234 37.9609 20.4184 38.4995 21.3836 38.4995L21.4363 38.4996C23.0049 38.5041 39.2097 38.551 36.7474 17.1726C36.6669 16.6071 36.3166 16.4972 36.1039 16.6879C35.7019 17.0487 35.2681 17.4342 34.8097 17.8415C29.2137 22.8136 19.9479 31.0463 20.0966 37.6916ZM17.5186 27.7117C18.2481 17.0616 10.9141 10.5755 6.5955 6.75608C6.14778 6.36012 5.73247 5.99281 5.36191 5.6525C3.83226 4.20336 1.90007 9.43637 1.41702 11.2075C1.03058 12.6245 1.57804 13.6228 1.90007 13.9448L16.5525 28.0337C17.0678 28.4845 17.5004 27.9769 17.5186 27.7117ZM31.0534 6.68775C26.7407 10.516 19.4169 17.0171 20.1453 27.6918C20.1635 27.9576 20.5956 28.4665 21.1101 28.0146L35.7423 13.8931C36.0639 13.5703 36.6106 12.5697 36.2247 11.1495C35.7423 9.37424 33.8128 4.12912 32.2853 5.58161C31.9152 5.92271 31.5005 6.29087 31.0534 6.68775Z" fill="#2B9943"/>
</svg>
