<svg width="39" height="39" viewBox="0 0 39 39" fill="none" xmlns="http://www.w3.org/2000/svg">
<path d="M19.2002 8.98983L23.1189 4.19867C23.1189 4.19867 29.8402 4.34117 36.5314 7.45083C34.8182 10.0412 31.4156 11.311 31.4156 11.311C31.1844 9.03258 29.5884 8.47683 24.5218 8.47683L19.2002 38.5L13.8469 8.4705C8.81195 8.4705 7.21595 9.031 6.9832 11.3078C6.9832 11.3078 3.58536 10.0491 1.87061 7.46033C8.56019 4.34908 15.2814 4.205 15.2814 4.205L19.2002 8.98983L19.1939 8.993H19.2002V8.98983ZM19.2002 2.81642C24.6073 2.76892 30.7997 3.65242 37.1362 6.42642C37.9833 4.89375 38.2002 4.21767 38.2002 4.21767C31.2731 1.469 24.7862 0.52375 19.2002 0.5C13.6142 0.52375 7.12728 1.46583 0.200195 4.21925C0.200195 4.21925 0.508945 5.0505 1.2642 6.42958C7.6007 3.64925 13.7931 2.77208 19.2002 2.81167V2.81642Z" fill="#000"/>
</svg>
