<svg width="48" height="49" viewBox="0 0 48 49" fill="none" xmlns="http://www.w3.org/2000/svg">
<path d="M24 44.5C35.046 44.5 44 35.546 44 24.5C44 13.454 35.046 4.5 24 4.5C12.954 4.5 4 13.454 4 24.5C4 35.546 12.954 44.5 24 44.5Z" stroke="#000" stroke-width="3"/>
<path d="M7 14.5L16 37.5L22 26.5H26L32 37.5L41 14.5" stroke="#000" stroke-width="3" stroke-linecap="round" stroke-linejoin="round"/>
<path d="M16 6.5L22 19.5H26L32 6.5" stroke="#000" stroke-width="3" stroke-linecap="round" stroke-linejoin="round"/>
<path d="M44 24.5C44.0032 21.6621 43.401 18.8562 42.2336 16.2695C41.0662 13.6828 39.3603 11.375 37.23 9.50002C33.5799 6.27152 28.8731 4.49269 24 4.50002C19.1269 4.49269 14.4202 6.27152 10.77 9.50002C8.6397 11.375 6.93387 13.6828 5.76643 16.2695C4.59898 18.8562 3.99677 21.6621 4.00001 24.5" stroke="#000" stroke-width="3" stroke-linecap="round"/>
</svg>
