<svg width="48" height="49" viewBox="0 0 48 49" fill="none" xmlns="http://www.w3.org/2000/svg">
<rect y="0.5" width="48" height="48" rx="24" fill="#E4E4E7"/>
<path opacity="0.2" d="M34.5 24.125C34.5003 25.0558 34.2119 25.9638 33.6746 26.7239C33.1374 27.484 32.3776 28.0588 31.5 28.3691V29C31.5 29.9946 31.1049 30.9484 30.4016 31.6516C29.6984 32.3549 28.7446 32.75 27.75 32.75C26.7554 32.75 25.8016 32.3549 25.0983 31.6516C24.3951 30.9484 24 29.9946 24 29C24 29.9946 23.6049 30.9484 22.9016 31.6516C22.1984 32.3549 21.2446 32.75 20.25 32.75C19.2554 32.75 18.3016 32.3549 17.5983 31.6516C16.8951 30.9484 16.5 29.9946 16.5 29V28.3691C15.6217 28.0595 14.861 27.485 14.323 26.7248C13.7849 25.9647 13.496 25.0563 13.496 24.125C13.496 23.1937 13.7849 22.2853 14.323 21.5252C14.861 20.765 15.6217 20.1905 16.5 19.8809V19.25C16.5 18.2554 16.8951 17.3016 17.5983 16.5983C18.3016 15.8951 19.2554 15.5 20.25 15.5C21.2446 15.5 22.1984 15.8951 22.9016 16.5983C23.6049 17.3016 24 18.2554 24 19.25C24 18.2554 24.3951 17.3016 25.0983 16.5983C25.8016 15.8951 26.7554 15.5 27.75 15.5C28.7446 15.5 29.6984 15.8951 30.4016 16.5983C31.1049 17.3016 31.5 18.2554 31.5 19.25V19.8809C32.3776 20.1912 33.1374 20.766 33.6746 21.5261C34.2119 22.2862 34.5003 23.1942 34.5 24.125Z" fill="#18181B"/>
<path d="M35.25 24.125C35.249 23.1316 34.9667 22.1587 34.4358 21.319C33.9049 20.4794 33.147 19.8072 32.25 19.3803V19.25C32.2491 18.2836 31.9372 17.3432 31.3603 16.5679C30.7835 15.7926 29.9724 15.2236 29.0471 14.945C28.1217 14.6665 27.1313 14.6932 26.2223 15.0213C25.3134 15.3493 24.5341 15.9613 24 16.7666C23.4658 15.9613 22.6866 15.3493 21.7776 15.0213C20.8686 14.6932 19.8782 14.6665 18.9529 14.945C18.0275 15.2236 17.2164 15.7926 16.6396 16.5679C16.0628 17.3432 15.7508 18.2836 15.75 19.25V19.3803C14.8522 19.806 14.0936 20.4778 13.5624 21.3175C13.0312 22.1572 12.7493 23.1304 12.7493 24.1241C12.7493 25.1177 13.0312 26.0909 13.5624 26.9306C14.0936 27.7704 14.8522 28.4421 15.75 28.8678V29C15.7508 29.9664 16.0628 30.9068 16.6396 31.6821C17.2164 32.4574 18.0275 33.0264 18.9529 33.305C19.8782 33.5835 20.8686 33.5568 21.7776 33.2287C22.6866 32.9007 23.4658 32.2887 24 31.4834C24.5341 32.2887 25.3134 32.9007 26.2223 33.2287C27.1313 33.5568 28.1217 33.5835 29.0471 33.305C29.9724 33.0264 30.7835 32.4574 31.3603 31.6821C31.9372 30.9068 32.2491 29.9664 32.25 29V28.8678C33.1469 28.4413 33.9046 27.7694 34.4356 26.9301C34.9665 26.0907 35.2488 25.1182 35.25 24.125ZM20.25 32C19.5102 31.9999 18.7966 31.7265 18.2462 31.2323C17.6957 30.7381 17.3473 30.058 17.2678 29.3225C17.5103 29.3571 17.755 29.3746 18 29.375H18.75C18.9489 29.375 19.1396 29.296 19.2803 29.1553C19.421 29.0147 19.5 28.8239 19.5 28.625C19.5 28.4261 19.421 28.2353 19.2803 28.0947C19.1396 27.954 18.9489 27.875 18.75 27.875H18C17.1146 27.876 16.2573 27.5637 15.5801 26.9934C14.9028 26.4231 14.4492 25.6315 14.2995 24.7588C14.1499 23.8862 14.3138 22.9887 14.7624 22.2253C15.2109 21.4619 15.9151 20.8818 16.7503 20.5878C16.8964 20.5361 17.0229 20.4403 17.1124 20.3137C17.2019 20.1872 17.2499 20.036 17.25 19.8809V19.25C17.25 18.4544 17.566 17.6913 18.1287 17.1287C18.6913 16.5661 19.4543 16.25 20.25 16.25C21.0456 16.25 21.8087 16.5661 22.3713 17.1287C22.9339 17.6913 23.25 18.4544 23.25 19.25V25.6494C22.4264 24.9086 21.3577 24.4992 20.25 24.5C20.0511 24.5 19.8603 24.579 19.7196 24.7197C19.579 24.8603 19.5 25.0511 19.5 25.25C19.5 25.4489 19.579 25.6397 19.7196 25.7803C19.8603 25.921 20.0511 26 20.25 26C21.0456 26 21.8087 26.3161 22.3713 26.8787C22.9339 27.4413 23.25 28.2044 23.25 29C23.25 29.7956 22.9339 30.5587 22.3713 31.1213C21.8087 31.6839 21.0456 32 20.25 32ZM30 27.875H29.25C29.0511 27.875 28.8603 27.954 28.7196 28.0947C28.579 28.2353 28.5 28.4261 28.5 28.625C28.5 28.8239 28.579 29.0147 28.7196 29.1553C28.8603 29.296 29.0511 29.375 29.25 29.375H30C30.245 29.3746 30.4896 29.3571 30.7322 29.3225C30.6699 29.8988 30.4419 30.4446 30.076 30.8941C29.7101 31.3436 29.2217 31.6774 28.6701 31.8553C28.1184 32.0331 27.5271 32.0474 26.9675 31.8963C26.408 31.7452 25.9041 31.4352 25.517 31.0039C25.1298 30.5726 24.8759 30.0383 24.7859 29.4657C24.6959 28.8931 24.7737 28.3067 25.0099 27.7775C25.2462 27.2482 25.6306 26.7986 26.1169 26.4832C26.6031 26.1677 27.1704 25.9999 27.75 26C27.9489 26 28.1396 25.921 28.2803 25.7803C28.421 25.6397 28.5 25.4489 28.5 25.25C28.5 25.0511 28.421 24.8603 28.2803 24.7197C28.1396 24.579 27.9489 24.5 27.75 24.5C26.6423 24.4992 25.5736 24.9086 24.75 25.6494V19.25C24.75 18.4544 25.066 17.6913 25.6287 17.1287C26.1913 16.5661 26.9543 16.25 27.75 16.25C28.5456 16.25 29.3087 16.5661 29.8713 17.1287C30.4339 17.6913 30.75 18.4544 30.75 19.25V19.8809C30.75 20.036 30.7981 20.1872 30.8875 20.3137C30.977 20.4403 31.1035 20.5361 31.2497 20.5878C32.0848 20.8818 32.789 21.4619 33.2376 22.2253C33.6861 22.9887 33.8501 23.8862 33.7004 24.7588C33.5507 25.6315 33.0971 26.4231 32.4199 26.9934C31.7426 27.5637 30.8854 27.876 30 27.875ZM31.5 23C31.5 23.1989 31.421 23.3897 31.2803 23.5303C31.1397 23.671 30.9489 23.75 30.75 23.75H30.375C29.4799 23.75 28.6214 23.3944 27.9885 22.7615C27.3556 22.1286 27 21.2701 27 20.375V20C27 19.8011 27.079 19.6103 27.2196 19.4697C27.3603 19.329 27.5511 19.25 27.75 19.25C27.9489 19.25 28.1396 19.329 28.2803 19.4697C28.421 19.6103 28.5 19.8011 28.5 20V20.375C28.5 20.8723 28.6975 21.3492 29.0491 21.7008C29.4008 22.0525 29.8777 22.25 30.375 22.25H30.75C30.9489 22.25 31.1397 22.329 31.2803 22.4697C31.421 22.6103 31.5 22.8011 31.5 23ZM17.625 23.75H17.25C17.0511 23.75 16.8603 23.671 16.7196 23.5303C16.579 23.3897 16.5 23.1989 16.5 23C16.5 22.8011 16.579 22.6103 16.7196 22.4697C16.8603 22.329 17.0511 22.25 17.25 22.25H17.625C18.1223 22.25 18.5992 22.0525 18.9508 21.7008C19.3024 21.3492 19.5 20.8723 19.5 20.375V20C19.5 19.8011 19.579 19.6103 19.7196 19.4697C19.8603 19.329 20.0511 19.25 20.25 19.25C20.4489 19.25 20.6396 19.329 20.7803 19.4697C20.921 19.6103 21 19.8011 21 20V20.375C21 21.2701 20.6444 22.1286 20.0115 22.7615C19.3785 23.3944 18.5201 23.75 17.625 23.75Z" fill="#18181B"/>
</svg>
