<svg width="64" height="64" viewBox="0 0 64 64" fill="none" xmlns="http://www.w3.org/2000/svg">
<rect width="64" height="64" rx="32" fill="#E4E4E7"/>
<path d="M15.7311 22.8256C15.5671 20.3043 15.361 18.9433 15.3006 18.0481C15.2534 17.3761 15.3308 16.6477 16.2325 16.4836C17.0174 16.3865 17.3915 17.0769 17.423 17.3499C17.419 17.0874 17.423 16.4587 17.423 16.2946C17.423 16.0177 17.4335 15.0123 18.5517 15.0123C19.3392 15.0123 19.6227 15.7841 19.6017 16.1463C19.6148 16.0125 19.6319 15.603 19.6476 15.2184C19.6726 14.6488 19.9784 13.919 20.888 13.9361C21.6728 13.9886 21.9288 14.7406 21.8933 15.2184L21.7398 17.6675C21.77 17.4208 21.8736 16.7947 22.1033 15.9088C22.333 15.0228 23.0247 14.9638 23.3594 15.011C23.7873 15.0727 24.5144 15.4848 24.2112 16.6831C23.8503 18.2004 23.6035 20.1534 23.5182 20.9947C23.9382 20.8228 24.3123 20.4316 24.7743 19.95L24.7953 19.9276C25.2678 19.4355 26.0211 19.4919 26.3335 19.7898C26.81 20.097 27.0711 21.0196 26.5435 21.5486C25.9358 22.1064 23.7492 24.7051 22.6625 26.0032C22.3606 26.3865 21.3539 27.1516 19.7303 27.1516C16.8376 27.0296 15.869 24.9519 15.7311 22.8243V22.8256Z" fill="url(#paint0_radial_69_4039)"/>
<path d="M15.7311 22.8256C15.5671 20.3043 15.361 18.9433 15.3006 18.0481C15.2534 17.3761 15.3308 16.6477 16.2325 16.4836C17.0174 16.3865 17.3915 17.0769 17.423 17.3499C17.419 17.0874 17.423 16.4587 17.423 16.2946C17.423 16.0177 17.4335 15.0123 18.5517 15.0123C19.3392 15.0123 19.6227 15.7841 19.6017 16.1463C19.6148 16.0125 19.6319 15.603 19.6476 15.2184C19.6726 14.6488 19.9784 13.919 20.888 13.9361C21.6728 13.9886 21.9288 14.7406 21.8933 15.2184L21.7398 17.6675C21.77 17.4208 21.8736 16.7947 22.1033 15.9088C22.333 15.0228 23.0247 14.9638 23.3594 15.011C23.7873 15.0727 24.5144 15.4848 24.2112 16.6831C23.8503 18.2004 23.6035 20.1534 23.5182 20.9947C23.9382 20.8228 24.3123 20.4316 24.7743 19.95L24.7953 19.9276C25.2678 19.4355 26.0211 19.4919 26.3335 19.7898C26.81 20.097 27.0711 21.0196 26.5435 21.5486C25.9358 22.1064 23.7492 24.7051 22.6625 26.0032C22.3606 26.3865 21.3539 27.1516 19.7303 27.1516C16.8376 27.0296 15.869 24.9519 15.7311 22.8243V22.8256Z" fill="url(#paint1_radial_69_4039)"/>
<path d="M15.7311 22.8256C15.5671 20.3043 15.361 18.9433 15.3006 18.0481C15.2534 17.3761 15.3308 16.6477 16.2325 16.4836C17.0174 16.3865 17.3915 17.0769 17.423 17.3499C17.419 17.0874 17.423 16.4587 17.423 16.2946C17.423 16.0177 17.4335 15.0123 18.5517 15.0123C19.3392 15.0123 19.6227 15.7841 19.6017 16.1463C19.6148 16.0125 19.6319 15.603 19.6476 15.2184C19.6726 14.6488 19.9784 13.919 20.888 13.9361C21.6728 13.9886 21.9288 14.7406 21.8933 15.2184L21.7398 17.6675C21.77 17.4208 21.8736 16.7947 22.1033 15.9088C22.333 15.0228 23.0247 14.9638 23.3594 15.011C23.7873 15.0727 24.5144 15.4848 24.2112 16.6831C23.8503 18.2004 23.6035 20.1534 23.5182 20.9947C23.9382 20.8228 24.3123 20.4316 24.7743 19.95L24.7953 19.9276C25.2678 19.4355 26.0211 19.4919 26.3335 19.7898C26.81 20.097 27.0711 21.0196 26.5435 21.5486C25.9358 22.1064 23.7492 24.7051 22.6625 26.0032C22.3606 26.3865 21.3539 27.1516 19.7303 27.1516C16.8376 27.0296 15.869 24.9519 15.7311 22.8243V22.8256Z" fill="url(#paint2_linear_69_4039)"/>
<path d="M15.7311 22.8256C15.5671 20.3043 15.361 18.9433 15.3006 18.0481C15.2534 17.3761 15.3308 16.6477 16.2325 16.4836C17.0174 16.3865 17.3915 17.0769 17.423 17.3499C17.419 17.0874 17.423 16.4587 17.423 16.2946C17.423 16.0177 17.4335 15.0123 18.5517 15.0123C19.3392 15.0123 19.6227 15.7841 19.6017 16.1463C19.6148 16.0125 19.6319 15.603 19.6476 15.2184C19.6726 14.6488 19.9784 13.919 20.888 13.9361C21.6728 13.9886 21.9288 14.7406 21.8933 15.2184L21.7398 17.6675C21.77 17.4208 21.8736 16.7947 22.1033 15.9088C22.333 15.0228 23.0247 14.9638 23.3594 15.011C23.7873 15.0727 24.5144 15.4848 24.2112 16.6831C23.8503 18.2004 23.6035 20.1534 23.5182 20.9947C23.9382 20.8228 24.3123 20.4316 24.7743 19.95L24.7953 19.9276C25.2678 19.4355 26.0211 19.4919 26.3335 19.7898C26.81 20.097 27.0711 21.0196 26.5435 21.5486C25.9358 22.1064 23.7492 24.7051 22.6625 26.0032C22.3606 26.3865 21.3539 27.1516 19.7303 27.1516C16.8376 27.0296 15.869 24.9519 15.7311 22.8243V22.8256Z" fill="url(#paint3_radial_69_4039)"/>
<path d="M15.7311 22.8256C15.5671 20.3043 15.361 18.9433 15.3006 18.0481C15.2534 17.3761 15.3308 16.6477 16.2325 16.4836C17.0174 16.3865 17.3915 17.0769 17.423 17.3499C17.419 17.0874 17.423 16.4587 17.423 16.2946C17.423 16.0177 17.4335 15.0123 18.5517 15.0123C19.3392 15.0123 19.6227 15.7841 19.6017 16.1463C19.6148 16.0125 19.6319 15.603 19.6476 15.2184C19.6726 14.6488 19.9784 13.919 20.888 13.9361C21.6728 13.9886 21.9288 14.7406 21.8933 15.2184L21.7398 17.6675C21.77 17.4208 21.8736 16.7947 22.1033 15.9088C22.333 15.0228 23.0247 14.9638 23.3594 15.011C23.7873 15.0727 24.5144 15.4848 24.2112 16.6831C23.8503 18.2004 23.6035 20.1534 23.5182 20.9947C23.9382 20.8228 24.3123 20.4316 24.7743 19.95L24.7953 19.9276C25.2678 19.4355 26.0211 19.4919 26.3335 19.7898C26.81 20.097 27.0711 21.0196 26.5435 21.5486C25.9358 22.1064 23.7492 24.7051 22.6625 26.0032C22.3606 26.3865 21.3539 27.1516 19.7303 27.1516C16.8376 27.0296 15.869 24.9519 15.7311 22.8243V22.8256Z" fill="url(#paint4_radial_69_4039)"/>
<path d="M15.7311 22.8256C15.5671 20.3043 15.361 18.9433 15.3006 18.0481C15.2534 17.3761 15.3308 16.6477 16.2325 16.4836C17.0174 16.3865 17.3915 17.0769 17.423 17.3499C17.419 17.0874 17.423 16.4587 17.423 16.2946C17.423 16.0177 17.4335 15.0123 18.5517 15.0123C19.3392 15.0123 19.6227 15.7841 19.6017 16.1463C19.6148 16.0125 19.6319 15.603 19.6476 15.2184C19.6726 14.6488 19.9784 13.919 20.888 13.9361C21.6728 13.9886 21.9288 14.7406 21.8933 15.2184L21.7398 17.6675C21.77 17.4208 21.8736 16.7947 22.1033 15.9088C22.333 15.0228 23.0247 14.9638 23.3594 15.011C23.7873 15.0727 24.5144 15.4848 24.2112 16.6831C23.8503 18.2004 23.6035 20.1534 23.5182 20.9947C23.9382 20.8228 24.3123 20.4316 24.7743 19.95L24.7953 19.9276C25.2678 19.4355 26.0211 19.4919 26.3335 19.7898C26.81 20.097 27.0711 21.0196 26.5435 21.5486C25.9358 22.1064 23.7492 24.7051 22.6625 26.0032C22.3606 26.3865 21.3539 27.1516 19.7303 27.1516C16.8376 27.0296 15.869 24.9519 15.7311 22.8243V22.8256Z" fill="url(#paint5_radial_69_4039)"/>
<path d="M15.7311 22.8256C15.5671 20.3043 15.361 18.9433 15.3006 18.0481C15.2534 17.3761 15.3308 16.6477 16.2325 16.4836C17.0174 16.3865 17.3915 17.0769 17.423 17.3499C17.419 17.0874 17.423 16.4587 17.423 16.2946C17.423 16.0177 17.4335 15.0123 18.5517 15.0123C19.3392 15.0123 19.6227 15.7841 19.6017 16.1463C19.6148 16.0125 19.6319 15.603 19.6476 15.2184C19.6726 14.6488 19.9784 13.919 20.888 13.9361C21.6728 13.9886 21.9288 14.7406 21.8933 15.2184L21.7398 17.6675C21.77 17.4208 21.8736 16.7947 22.1033 15.9088C22.333 15.0228 23.0247 14.9638 23.3594 15.011C23.7873 15.0727 24.5144 15.4848 24.2112 16.6831C23.8503 18.2004 23.6035 20.1534 23.5182 20.9947C23.9382 20.8228 24.3123 20.4316 24.7743 19.95L24.7953 19.9276C25.2678 19.4355 26.0211 19.4919 26.3335 19.7898C26.81 20.097 27.0711 21.0196 26.5435 21.5486C25.9358 22.1064 23.7492 24.7051 22.6625 26.0032C22.3606 26.3865 21.3539 27.1516 19.7303 27.1516C16.8376 27.0296 15.869 24.9519 15.7311 22.8243V22.8256Z" fill="url(#paint6_radial_69_4039)"/>
<path d="M15.7311 22.8256C15.5671 20.3043 15.361 18.9433 15.3006 18.0481C15.2534 17.3761 15.3308 16.6477 16.2325 16.4836C17.0174 16.3865 17.3915 17.0769 17.423 17.3499C17.419 17.0874 17.423 16.4587 17.423 16.2946C17.423 16.0177 17.4335 15.0123 18.5517 15.0123C19.3392 15.0123 19.6227 15.7841 19.6017 16.1463C19.6148 16.0125 19.6319 15.603 19.6476 15.2184C19.6726 14.6488 19.9784 13.919 20.888 13.9361C21.6728 13.9886 21.9288 14.7406 21.8933 15.2184L21.7398 17.6675C21.77 17.4208 21.8736 16.7947 22.1033 15.9088C22.333 15.0228 23.0247 14.9638 23.3594 15.011C23.7873 15.0727 24.5144 15.4848 24.2112 16.6831C23.8503 18.2004 23.6035 20.1534 23.5182 20.9947C23.9382 20.8228 24.3123 20.4316 24.7743 19.95L24.7953 19.9276C25.2678 19.4355 26.0211 19.4919 26.3335 19.7898C26.81 20.097 27.0711 21.0196 26.5435 21.5486C25.9358 22.1064 23.7492 24.7051 22.6625 26.0032C22.3606 26.3865 21.3539 27.1516 19.7303 27.1516C16.8376 27.0296 15.869 24.9519 15.7311 22.8243V22.8256Z" fill="url(#paint7_radial_69_4039)"/>
<path d="M15.7311 22.8256C15.5671 20.3043 15.361 18.9433 15.3006 18.0481C15.2534 17.3761 15.3308 16.6477 16.2325 16.4836C17.0174 16.3865 17.3915 17.0769 17.423 17.3499C17.419 17.0874 17.423 16.4587 17.423 16.2946C17.423 16.0177 17.4335 15.0123 18.5517 15.0123C19.3392 15.0123 19.6227 15.7841 19.6017 16.1463C19.6148 16.0125 19.6319 15.603 19.6476 15.2184C19.6726 14.6488 19.9784 13.919 20.888 13.9361C21.6728 13.9886 21.9288 14.7406 21.8933 15.2184L21.7398 17.6675C21.77 17.4208 21.8736 16.7947 22.1033 15.9088C22.333 15.0228 23.0247 14.9638 23.3594 15.011C23.7873 15.0727 24.5144 15.4848 24.2112 16.6831C23.8503 18.2004 23.6035 20.1534 23.5182 20.9947C23.9382 20.8228 24.3123 20.4316 24.7743 19.95L24.7953 19.9276C25.2678 19.4355 26.0211 19.4919 26.3335 19.7898C26.81 20.097 27.0711 21.0196 26.5435 21.5486C25.9358 22.1064 23.7492 24.7051 22.6625 26.0032C22.3606 26.3865 21.3539 27.1516 19.7303 27.1516C16.8376 27.0296 15.869 24.9519 15.7311 22.8243V22.8256Z" fill="url(#paint8_radial_69_4039)"/>
<path d="M15.7311 22.8256C15.5671 20.3043 15.361 18.9433 15.3006 18.0481C15.2534 17.3761 15.3308 16.6477 16.2325 16.4836C17.0174 16.3865 17.3915 17.0769 17.423 17.3499C17.419 17.0874 17.423 16.4587 17.423 16.2946C17.423 16.0177 17.4335 15.0123 18.5517 15.0123C19.3392 15.0123 19.6227 15.7841 19.6017 16.1463C19.6148 16.0125 19.6319 15.603 19.6476 15.2184C19.6726 14.6488 19.9784 13.919 20.888 13.9361C21.6728 13.9886 21.9288 14.7406 21.8933 15.2184L21.7398 17.6675C21.77 17.4208 21.8736 16.7947 22.1033 15.9088C22.333 15.0228 23.0247 14.9638 23.3594 15.011C23.7873 15.0727 24.5144 15.4848 24.2112 16.6831C23.8503 18.2004 23.6035 20.1534 23.5182 20.9947C23.9382 20.8228 24.3123 20.4316 24.7743 19.95L24.7953 19.9276C25.2678 19.4355 26.0211 19.4919 26.3335 19.7898C26.81 20.097 27.0711 21.0196 26.5435 21.5486C25.9358 22.1064 23.7492 24.7051 22.6625 26.0032C22.3606 26.3865 21.3539 27.1516 19.7303 27.1516C16.8376 27.0296 15.869 24.9519 15.7311 22.8243V22.8256Z" fill="url(#paint9_radial_69_4039)"/>
<path d="M15.7311 22.8256C15.5671 20.3043 15.361 18.9433 15.3006 18.0481C15.2534 17.3761 15.3308 16.6477 16.2325 16.4836C17.0174 16.3865 17.3915 17.0769 17.423 17.3499C17.419 17.0874 17.423 16.4587 17.423 16.2946C17.423 16.0177 17.4335 15.0123 18.5517 15.0123C19.3392 15.0123 19.6227 15.7841 19.6017 16.1463C19.6148 16.0125 19.6319 15.603 19.6476 15.2184C19.6726 14.6488 19.9784 13.919 20.888 13.9361C21.6728 13.9886 21.9288 14.7406 21.8933 15.2184L21.7398 17.6675C21.77 17.4208 21.8736 16.7947 22.1033 15.9088C22.333 15.0228 23.0247 14.9638 23.3594 15.011C23.7873 15.0727 24.5144 15.4848 24.2112 16.6831C23.8503 18.2004 23.6035 20.1534 23.5182 20.9947C23.9382 20.8228 24.3123 20.4316 24.7743 19.95L24.7953 19.9276C25.2678 19.4355 26.0211 19.4919 26.3335 19.7898C26.81 20.097 27.0711 21.0196 26.5435 21.5486C25.9358 22.1064 23.7492 24.7051 22.6625 26.0032C22.3606 26.3865 21.3539 27.1516 19.7303 27.1516C16.8376 27.0296 15.869 24.9519 15.7311 22.8243V22.8256Z" fill="url(#paint10_radial_69_4039)"/>
<path d="M17.1357 26.6713C17.1357 26.5269 17.2539 26.4088 17.3982 26.4088H22.3989C22.4685 26.4088 22.5353 26.4365 22.5845 26.4857C22.6337 26.5349 22.6614 26.6017 22.6614 26.6713V28.9209H17.1357V26.6713Z" fill="url(#paint11_linear_69_4039)"/>
<path d="M17.1357 26.6713C17.1357 26.5269 17.2539 26.4088 17.3982 26.4088H22.3989C22.4685 26.4088 22.5353 26.4365 22.5845 26.4857C22.6337 26.5349 22.6614 26.6017 22.6614 26.6713V28.9209H17.1357V26.6713Z" fill="url(#paint12_radial_69_4039)"/>
<path d="M17.1357 26.6713C17.1357 26.5269 17.2539 26.4088 17.3982 26.4088H22.3989C22.4685 26.4088 22.5353 26.4365 22.5845 26.4857C22.6337 26.5349 22.6614 26.6017 22.6614 26.6713V28.9209H17.1357V26.6713Z" fill="url(#paint13_linear_69_4039)"/>
<path d="M37.6302 38.2515H38.9033C42.1714 38.2515 48.709 42.8452 48.709 50.064H25.1719V45.4702C25.1735 45.2949 25.1225 45.1231 25.0257 44.9769C24.9289 44.8308 24.7906 44.7169 24.6286 44.6499L20.5952 42.8452C17.3271 41.5327 16.0186 38.2515 16.0186 36.0228V29.0837C16.0186 28.3434 16.5751 27.7515 17.2418 27.7515H22.6414C23.3213 27.7515 23.8647 28.3565 23.8647 29.0837V34.314C23.8647 36.0228 25.1719 36.2827 25.1719 36.2827L33.0181 38.2515H37.6302Z" fill="url(#paint14_linear_69_4039)"/>
<path d="M37.6302 38.2515H38.9033C42.1714 38.2515 48.709 42.8452 48.709 50.064H25.1719V45.4702C25.1735 45.2949 25.1225 45.1231 25.0257 44.9769C24.9289 44.8308 24.7906 44.7169 24.6286 44.6499L20.5952 42.8452C17.3271 41.5327 16.0186 38.2515 16.0186 36.0228V29.0837C16.0186 28.3434 16.5751 27.7515 17.2418 27.7515H22.6414C23.3213 27.7515 23.8647 28.3565 23.8647 29.0837V34.314C23.8647 36.0228 25.1719 36.2827 25.1719 36.2827L33.0181 38.2515H37.6302Z" fill="url(#paint15_radial_69_4039)"/>
<path d="M37.6302 38.2515H38.9033C42.1714 38.2515 48.709 42.8452 48.709 50.064H25.1719V45.4702C25.1735 45.2949 25.1225 45.1231 25.0257 44.9769C24.9289 44.8308 24.7906 44.7169 24.6286 44.6499L20.5952 42.8452C17.3271 41.5327 16.0186 38.2515 16.0186 36.0228V29.0837C16.0186 28.3434 16.5751 27.7515 17.2418 27.7515H22.6414C23.3213 27.7515 23.8647 28.3565 23.8647 29.0837V34.314C23.8647 36.0228 25.1719 36.2827 25.1719 36.2827L33.0181 38.2515H37.6302Z" fill="url(#paint16_radial_69_4039)"/>
<path d="M35.521 38.3958L25.1864 45.2799C25.1577 45.1397 25.0948 45.0088 25.0031 44.8988C24.9115 44.7889 24.7941 44.7034 24.6614 44.6499L20.6123 42.8452C17.3311 41.5327 16.0186 38.2515 16.0186 36.0228V29.0837C16.0186 28.3434 16.5777 27.7515 17.2471 27.7515H22.6677C23.3489 27.7515 23.8936 28.3565 23.8936 29.0837V34.314C23.8936 36.0228 25.2061 36.2827 25.2061 36.2827L33.0811 38.2515L35.5197 38.3958H35.521Z" fill="url(#paint17_linear_69_4039)"/>
<path d="M35.521 38.3958L25.1864 45.2799C25.1577 45.1397 25.0948 45.0088 25.0031 44.8988C24.9115 44.7889 24.7941 44.7034 24.6614 44.6499L20.6123 42.8452C17.3311 41.5327 16.0186 38.2515 16.0186 36.0228V29.0837C16.0186 28.3434 16.5777 27.7515 17.2471 27.7515H22.6677C23.3489 27.7515 23.8936 28.3565 23.8936 29.0837V34.314C23.8936 36.0228 25.2061 36.2827 25.2061 36.2827L33.0811 38.2515L35.5197 38.3958H35.521Z" fill="url(#paint18_radial_69_4039)"/>
<path d="M35.521 38.3958L25.1864 45.2799C25.1577 45.1397 25.0948 45.0088 25.0031 44.8988C24.9115 44.7889 24.7941 44.7034 24.6614 44.6499L20.6123 42.8452C17.3311 41.5327 16.0186 38.2515 16.0186 36.0228V29.0837C16.0186 28.3434 16.5777 27.7515 17.2471 27.7515H22.6677C23.3489 27.7515 23.8936 28.3565 23.8936 29.0837V34.314C23.8936 36.0228 25.2061 36.2827 25.2061 36.2827L33.0811 38.2515L35.5197 38.3958H35.521Z" fill="url(#paint19_radial_69_4039)"/>
<path d="M35.521 38.3958L25.1864 45.2799C25.1577 45.1397 25.0948 45.0088 25.0031 44.8988C24.9115 44.7889 24.7941 44.7034 24.6614 44.6499L20.6123 42.8452C17.3311 41.5327 16.0186 38.2515 16.0186 36.0228V29.0837C16.0186 28.3434 16.5777 27.7515 17.2471 27.7515H22.6677C23.3489 27.7515 23.8936 28.3565 23.8936 29.0837V34.314C23.8936 36.0228 25.2061 36.2827 25.2061 36.2827L33.0811 38.2515L35.5197 38.3958H35.521Z" fill="url(#paint20_radial_69_4039)"/>
<path d="M35.521 38.3958L25.1864 45.2799C25.1577 45.1397 25.0948 45.0088 25.0031 44.8988C24.9115 44.7889 24.7941 44.7034 24.6614 44.6499L20.6123 42.8452C17.3311 41.5327 16.0186 38.2515 16.0186 36.0228V29.0837C16.0186 28.3434 16.5777 27.7515 17.2471 27.7515H22.6677C23.3489 27.7515 23.8936 28.3565 23.8936 29.0837V34.314C23.8936 36.0228 25.2061 36.2827 25.2061 36.2827L33.0811 38.2515L35.5197 38.3958H35.521Z" fill="url(#paint21_linear_69_4039)"/>
<path d="M35.521 38.3958L25.1864 45.2799C25.1577 45.1397 25.0948 45.0088 25.0031 44.8988C24.9115 44.7889 24.7941 44.7034 24.6614 44.6499L20.6123 42.8452C17.3311 41.5327 16.0186 38.2515 16.0186 36.0228V29.0837C16.0186 28.3434 16.5777 27.7515 17.2471 27.7515H22.6677C23.3489 27.7515 23.8936 28.3565 23.8936 29.0837V34.314C23.8936 36.0228 25.2061 36.2827 25.2061 36.2827L33.0811 38.2515L35.5197 38.3958H35.521Z" fill="url(#paint22_linear_69_4039)"/>
<path d="M36.3634 42.3281C34.6992 42.3281 33.3486 41.0353 33.3486 39.4406V36.0281C33.3486 34.4334 34.6992 33.1406 36.3634 33.1406C38.0264 33.1406 39.3769 34.4334 39.3769 36.0281V39.4406C39.3769 41.0353 38.0264 42.3281 36.3634 42.3281Z" fill="url(#paint23_linear_69_4039)"/>
<path d="M36.3634 42.3281C34.6992 42.3281 33.3486 41.0353 33.3486 39.4406V36.0281C33.3486 34.4334 34.6992 33.1406 36.3634 33.1406C38.0264 33.1406 39.3769 34.4334 39.3769 36.0281V39.4406C39.3769 41.0353 38.0264 42.3281 36.3634 42.3281Z" fill="url(#paint24_radial_69_4039)"/>
<g filter="url(#filter0_f_69_4039)">
<path d="M21.0625 28.9695V35.7564C21.0624 36.3104 21.2375 36.8503 21.5628 37.2987C21.8882 37.7471 22.347 38.0811 22.8738 38.2528L28.3626 40.0417" stroke="url(#paint25_linear_69_4039)"/>
</g>
<g filter="url(#filter1_f_69_4039)">
<path d="M17.4541 17.4969L17.6274 19.3607" stroke="url(#paint26_linear_69_4039)" stroke-width="0.075" stroke-linecap="round"/>
</g>
<g filter="url(#filter2_f_69_4039)">
<path d="M19.5967 16.2972L19.4746 19.0049" stroke="url(#paint27_linear_69_4039)" stroke-width="0.075" stroke-linecap="round"/>
</g>
<g filter="url(#filter3_f_69_4039)">
<path d="M21.7096 17.7843L21.5049 19.3632" stroke="url(#paint28_linear_69_4039)" stroke-width="0.075" stroke-linecap="round"/>
</g>
<path d="M28.9179 31.9554C30.3611 31.9554 31.5311 30.7854 31.5311 29.3422C31.5311 27.899 30.3611 26.729 28.9179 26.729C27.4747 26.729 26.3047 27.899 26.3047 29.3422C26.3047 30.7854 27.4747 31.9554 28.9179 31.9554Z" fill="url(#paint29_radial_69_4039)"/>
<g filter="url(#filter4_f_69_4039)">
<path d="M28.9183 30.9002C29.7787 30.9002 30.4762 30.2027 30.4762 29.3422C30.4762 28.4818 29.7787 27.7843 28.9183 27.7843C28.0579 27.7843 27.3604 28.4818 27.3604 29.3422C27.3604 30.2027 28.0579 30.9002 28.9183 30.9002Z" fill="url(#paint30_linear_69_4039)"/>
</g>
<g filter="url(#filter5_d_69_4039)">
<path d="M43.8095 31.9554C45.2527 31.9554 46.4227 30.7854 46.4227 29.3422C46.4227 27.899 45.2527 26.729 43.8095 26.729C42.3663 26.729 41.1963 27.899 41.1963 29.3422C41.1963 30.7854 42.3663 31.9554 43.8095 31.9554Z" fill="url(#paint31_linear_69_4039)"/>
<path d="M43.8095 31.9554C45.2527 31.9554 46.4227 30.7854 46.4227 29.3422C46.4227 27.899 45.2527 26.729 43.8095 26.729C42.3663 26.729 41.1963 27.899 41.1963 29.3422C41.1963 30.7854 42.3663 31.9554 43.8095 31.9554Z" fill="url(#paint32_radial_69_4039)"/>
</g>
<g filter="url(#filter6_f_69_4039)">
<path d="M43.8099 30.9002C44.6703 30.9002 45.3678 30.2027 45.3678 29.3422C45.3678 28.4818 44.6703 27.7843 43.8099 27.7843C42.9495 27.7843 42.252 28.4818 42.252 29.3422C42.252 30.2027 42.9495 30.9002 43.8099 30.9002Z" fill="#FFBF34"/>
<path d="M43.8099 30.9002C44.6703 30.9002 45.3678 30.2027 45.3678 29.3422C45.3678 28.4818 44.6703 27.7843 43.8099 27.7843C42.9495 27.7843 42.252 28.4818 42.252 29.3422C42.252 30.2027 42.9495 30.9002 43.8099 30.9002Z" fill="url(#paint33_radial_69_4039)"/>
<path d="M43.8099 30.9002C44.6703 30.9002 45.3678 30.2027 45.3678 29.3422C45.3678 28.4818 44.6703 27.7843 43.8099 27.7843C42.9495 27.7843 42.252 28.4818 42.252 29.3422C42.252 30.2027 42.9495 30.9002 43.8099 30.9002Z" fill="url(#paint34_radial_69_4039)"/>
</g>
<path d="M28.3663 28.3827C28.3176 27.6328 28.287 26.8819 28.2744 26.1305C28.2744 25.7131 28.4424 25.2117 28.7784 24.9624L29.0304 24.7117C29.4504 24.3783 29.6184 23.8769 29.6184 23.3756V22.0394C29.6103 21.8425 29.674 21.6493 29.7976 21.4958C29.9212 21.3423 30.0963 21.2389 30.2904 21.2047C31.2984 20.9553 33.3971 20.5366 36.4198 20.5366C39.4425 20.5366 41.5412 20.9553 42.5492 21.206C42.8852 21.2887 43.2212 21.6221 43.2212 22.0394V23.3769C43.2212 23.8782 43.4732 24.3796 43.8092 24.713C44.594 25.2642 44.5455 25.5661 44.4799 26.2158C44.4602 26.4166 44.3959 28.0861 44.3407 28.4694L43.9247 34.6657C43.674 37.4351 41.4965 39.3657 38.8991 39.3657H33.8735C31.1934 39.3657 29.1 37.4364 28.848 34.6657L28.3663 28.3827Z" fill="url(#paint35_linear_69_4039)"/>
<path d="M28.3663 28.3827C28.3176 27.6328 28.287 26.8819 28.2744 26.1305C28.2744 25.7131 28.4424 25.2117 28.7784 24.9624L29.0304 24.7117C29.4504 24.3783 29.6184 23.8769 29.6184 23.3756V22.0394C29.6103 21.8425 29.674 21.6493 29.7976 21.4958C29.9212 21.3423 30.0963 21.2389 30.2904 21.2047C31.2984 20.9553 33.3971 20.5366 36.4198 20.5366C39.4425 20.5366 41.5412 20.9553 42.5492 21.206C42.8852 21.2887 43.2212 21.6221 43.2212 22.0394V23.3769C43.2212 23.8782 43.4732 24.3796 43.8092 24.713C44.594 25.2642 44.5455 25.5661 44.4799 26.2158C44.4602 26.4166 44.3959 28.0861 44.3407 28.4694L43.9247 34.6657C43.674 37.4351 41.4965 39.3657 38.8991 39.3657H33.8735C31.1934 39.3657 29.1 37.4364 28.848 34.6657L28.3663 28.3827Z" fill="url(#paint36_linear_69_4039)"/>
<path d="M28.3663 28.3827C28.3176 27.6328 28.287 26.8819 28.2744 26.1305C28.2744 25.7131 28.4424 25.2117 28.7784 24.9624L29.0304 24.7117C29.4504 24.3783 29.6184 23.8769 29.6184 23.3756V22.0394C29.6103 21.8425 29.674 21.6493 29.7976 21.4958C29.9212 21.3423 30.0963 21.2389 30.2904 21.2047C31.2984 20.9553 33.3971 20.5366 36.4198 20.5366C39.4425 20.5366 41.5412 20.9553 42.5492 21.206C42.8852 21.2887 43.2212 21.6221 43.2212 22.0394V23.3769C43.2212 23.8782 43.4732 24.3796 43.8092 24.713C44.594 25.2642 44.5455 25.5661 44.4799 26.2158C44.4602 26.4166 44.3959 28.0861 44.3407 28.4694L43.9247 34.6657C43.674 37.4351 41.4965 39.3657 38.8991 39.3657H33.8735C31.1934 39.3657 29.1 37.4364 28.848 34.6657L28.3663 28.3827Z" fill="url(#paint37_radial_69_4039)"/>
<path d="M28.3663 28.3827C28.3176 27.6328 28.287 26.8819 28.2744 26.1305C28.2744 25.7131 28.4424 25.2117 28.7784 24.9624L29.0304 24.7117C29.4504 24.3783 29.6184 23.8769 29.6184 23.3756V22.0394C29.6103 21.8425 29.674 21.6493 29.7976 21.4958C29.9212 21.3423 30.0963 21.2389 30.2904 21.2047C31.2984 20.9553 33.3971 20.5366 36.4198 20.5366C39.4425 20.5366 41.5412 20.9553 42.5492 21.206C42.8852 21.2887 43.2212 21.6221 43.2212 22.0394V23.3769C43.2212 23.8782 43.4732 24.3796 43.8092 24.713C44.594 25.2642 44.5455 25.5661 44.4799 26.2158C44.4602 26.4166 44.3959 28.0861 44.3407 28.4694L43.9247 34.6657C43.674 37.4351 41.4965 39.3657 38.8991 39.3657H33.8735C31.1934 39.3657 29.1 37.4364 28.848 34.6657L28.3663 28.3827Z" fill="url(#paint38_radial_69_4039)"/>
<path d="M28.3663 28.3827C28.3176 27.6328 28.287 26.8819 28.2744 26.1305C28.2744 25.7131 28.4424 25.2117 28.7784 24.9624L29.0304 24.7117C29.4504 24.3783 29.6184 23.8769 29.6184 23.3756V22.0394C29.6103 21.8425 29.674 21.6493 29.7976 21.4958C29.9212 21.3423 30.0963 21.2389 30.2904 21.2047C31.2984 20.9553 33.3971 20.5366 36.4198 20.5366C39.4425 20.5366 41.5412 20.9553 42.5492 21.206C42.8852 21.2887 43.2212 21.6221 43.2212 22.0394V23.3769C43.2212 23.8782 43.4732 24.3796 43.8092 24.713C44.594 25.2642 44.5455 25.5661 44.4799 26.2158C44.4602 26.4166 44.3959 28.0861 44.3407 28.4694L43.9247 34.6657C43.674 37.4351 41.4965 39.3657 38.8991 39.3657H33.8735C31.1934 39.3657 29.1 37.4364 28.848 34.6657L28.3663 28.3827Z" fill="url(#paint39_radial_69_4039)"/>
<g filter="url(#filter7_dd_69_4039)">
<path d="M43.892 19.2019L44.564 19.5352C45.74 20.1206 46.412 21.4554 46.16 22.8755L45.236 27.6334C45.1533 28.1255 44.8291 28.4563 44.3409 28.4681C44.396 27.6806 44.4485 26.4075 44.4682 26.2067C44.5364 25.5294 44.4301 25.3299 43.808 24.7104C43.472 24.3784 43.2213 23.877 43.2213 23.3756V22.0395C43.2213 21.6221 42.8853 21.2887 42.5493 21.2047C41.5413 20.9554 39.4426 20.538 36.4199 20.538C33.3973 20.538 31.2986 20.9554 30.2906 21.2047C30.0965 21.2389 29.9213 21.3424 29.7978 21.4959C29.6742 21.6494 29.6105 21.8426 29.6186 22.0395V23.3769C29.6186 23.8783 29.4506 24.3797 29.0306 24.713L28.7786 24.9624C28.4426 25.2144 28.2732 25.7368 28.2732 26.1542C28.2956 26.3983 28.3284 27.8 28.3651 28.3841C28.1383 28.3729 27.9223 28.2841 27.7531 28.1326C27.584 27.9811 27.472 27.7762 27.4359 27.552L26.5119 22.7929C26.3439 21.4567 27.0159 20.1219 28.1919 19.5379C29.7774 18.8422 30.3575 17.7857 31.6332 16.6989C32.5572 15.8629 33.9012 15.6135 35.0759 16.1975C35.9159 16.4469 36.8399 16.4469 37.6786 16.1975C38.9386 15.7802 40.3653 16.1135 41.3733 17.0323L42.6333 18.2844C42.9693 18.7018 43.388 18.9525 43.8933 19.2032L43.892 19.2019Z" fill="#FFA91B"/>
<path d="M43.892 19.2019L44.564 19.5352C45.74 20.1206 46.412 21.4554 46.16 22.8755L45.236 27.6334C45.1533 28.1255 44.8291 28.4563 44.3409 28.4681C44.396 27.6806 44.4485 26.4075 44.4682 26.2067C44.5364 25.5294 44.4301 25.3299 43.808 24.7104C43.472 24.3784 43.2213 23.877 43.2213 23.3756V22.0395C43.2213 21.6221 42.8853 21.2887 42.5493 21.2047C41.5413 20.9554 39.4426 20.538 36.4199 20.538C33.3973 20.538 31.2986 20.9554 30.2906 21.2047C30.0965 21.2389 29.9213 21.3424 29.7978 21.4959C29.6742 21.6494 29.6105 21.8426 29.6186 22.0395V23.3769C29.6186 23.8783 29.4506 24.3797 29.0306 24.713L28.7786 24.9624C28.4426 25.2144 28.2732 25.7368 28.2732 26.1542C28.2956 26.3983 28.3284 27.8 28.3651 28.3841C28.1383 28.3729 27.9223 28.2841 27.7531 28.1326C27.584 27.9811 27.472 27.7762 27.4359 27.552L26.5119 22.7929C26.3439 21.4567 27.0159 20.1219 28.1919 19.5379C29.7774 18.8422 30.3575 17.7857 31.6332 16.6989C32.5572 15.8629 33.9012 15.6135 35.0759 16.1975C35.9159 16.4469 36.8399 16.4469 37.6786 16.1975C38.9386 15.7802 40.3653 16.1135 41.3733 17.0323L42.6333 18.2844C42.9693 18.7018 43.388 18.9525 43.8933 19.2032L43.892 19.2019Z" fill="url(#paint40_radial_69_4039)"/>
<path d="M43.892 19.2019L44.564 19.5352C45.74 20.1206 46.412 21.4554 46.16 22.8755L45.236 27.6334C45.1533 28.1255 44.8291 28.4563 44.3409 28.4681C44.396 27.6806 44.4485 26.4075 44.4682 26.2067C44.5364 25.5294 44.4301 25.3299 43.808 24.7104C43.472 24.3784 43.2213 23.877 43.2213 23.3756V22.0395C43.2213 21.6221 42.8853 21.2887 42.5493 21.2047C41.5413 20.9554 39.4426 20.538 36.4199 20.538C33.3973 20.538 31.2986 20.9554 30.2906 21.2047C30.0965 21.2389 29.9213 21.3424 29.7978 21.4959C29.6742 21.6494 29.6105 21.8426 29.6186 22.0395V23.3769C29.6186 23.8783 29.4506 24.3797 29.0306 24.713L28.7786 24.9624C28.4426 25.2144 28.2732 25.7368 28.2732 26.1542C28.2956 26.3983 28.3284 27.8 28.3651 28.3841C28.1383 28.3729 27.9223 28.2841 27.7531 28.1326C27.584 27.9811 27.472 27.7762 27.4359 27.552L26.5119 22.7929C26.3439 21.4567 27.0159 20.1219 28.1919 19.5379C29.7774 18.8422 30.3575 17.7857 31.6332 16.6989C32.5572 15.8629 33.9012 15.6135 35.0759 16.1975C35.9159 16.4469 36.8399 16.4469 37.6786 16.1975C38.9386 15.7802 40.3653 16.1135 41.3733 17.0323L42.6333 18.2844C42.9693 18.7018 43.388 18.9525 43.8933 19.2032L43.892 19.2019Z" fill="url(#paint41_linear_69_4039)"/>
<path d="M43.892 19.2019L44.564 19.5352C45.74 20.1206 46.412 21.4554 46.16 22.8755L45.236 27.6334C45.1533 28.1255 44.8291 28.4563 44.3409 28.4681C44.396 27.6806 44.4485 26.4075 44.4682 26.2067C44.5364 25.5294 44.4301 25.3299 43.808 24.7104C43.472 24.3784 43.2213 23.877 43.2213 23.3756V22.0395C43.2213 21.6221 42.8853 21.2887 42.5493 21.2047C41.5413 20.9554 39.4426 20.538 36.4199 20.538C33.3973 20.538 31.2986 20.9554 30.2906 21.2047C30.0965 21.2389 29.9213 21.3424 29.7978 21.4959C29.6742 21.6494 29.6105 21.8426 29.6186 22.0395V23.3769C29.6186 23.8783 29.4506 24.3797 29.0306 24.713L28.7786 24.9624C28.4426 25.2144 28.2732 25.7368 28.2732 26.1542C28.2956 26.3983 28.3284 27.8 28.3651 28.3841C28.1383 28.3729 27.9223 28.2841 27.7531 28.1326C27.584 27.9811 27.472 27.7762 27.4359 27.552L26.5119 22.7929C26.3439 21.4567 27.0159 20.1219 28.1919 19.5379C29.7774 18.8422 30.3575 17.7857 31.6332 16.6989C32.5572 15.8629 33.9012 15.6135 35.0759 16.1975C35.9159 16.4469 36.8399 16.4469 37.6786 16.1975C38.9386 15.7802 40.3653 16.1135 41.3733 17.0323L42.6333 18.2844C42.9693 18.7018 43.388 18.9525 43.8933 19.2032L43.892 19.2019Z" fill="url(#paint42_radial_69_4039)"/>
<path d="M43.892 19.2019L44.564 19.5352C45.74 20.1206 46.412 21.4554 46.16 22.8755L45.236 27.6334C45.1533 28.1255 44.8291 28.4563 44.3409 28.4681C44.396 27.6806 44.4485 26.4075 44.4682 26.2067C44.5364 25.5294 44.4301 25.3299 43.808 24.7104C43.472 24.3784 43.2213 23.877 43.2213 23.3756V22.0395C43.2213 21.6221 42.8853 21.2887 42.5493 21.2047C41.5413 20.9554 39.4426 20.538 36.4199 20.538C33.3973 20.538 31.2986 20.9554 30.2906 21.2047C30.0965 21.2389 29.9213 21.3424 29.7978 21.4959C29.6742 21.6494 29.6105 21.8426 29.6186 22.0395V23.3769C29.6186 23.8783 29.4506 24.3797 29.0306 24.713L28.7786 24.9624C28.4426 25.2144 28.2732 25.7368 28.2732 26.1542C28.2956 26.3983 28.3284 27.8 28.3651 28.3841C28.1383 28.3729 27.9223 28.2841 27.7531 28.1326C27.584 27.9811 27.472 27.7762 27.4359 27.552L26.5119 22.7929C26.3439 21.4567 27.0159 20.1219 28.1919 19.5379C29.7774 18.8422 30.3575 17.7857 31.6332 16.6989C32.5572 15.8629 33.9012 15.6135 35.0759 16.1975C35.9159 16.4469 36.8399 16.4469 37.6786 16.1975C38.9386 15.7802 40.3653 16.1135 41.3733 17.0323L42.6333 18.2844C42.9693 18.7018 43.388 18.9525 43.8933 19.2032L43.892 19.2019Z" fill="url(#paint43_radial_69_4039)"/>
<path d="M43.892 19.2019L44.564 19.5352C45.74 20.1206 46.412 21.4554 46.16 22.8755L45.236 27.6334C45.1533 28.1255 44.8291 28.4563 44.3409 28.4681C44.396 27.6806 44.4485 26.4075 44.4682 26.2067C44.5364 25.5294 44.4301 25.3299 43.808 24.7104C43.472 24.3784 43.2213 23.877 43.2213 23.3756V22.0395C43.2213 21.6221 42.8853 21.2887 42.5493 21.2047C41.5413 20.9554 39.4426 20.538 36.4199 20.538C33.3973 20.538 31.2986 20.9554 30.2906 21.2047C30.0965 21.2389 29.9213 21.3424 29.7978 21.4959C29.6742 21.6494 29.6105 21.8426 29.6186 22.0395V23.3769C29.6186 23.8783 29.4506 24.3797 29.0306 24.713L28.7786 24.9624C28.4426 25.2144 28.2732 25.7368 28.2732 26.1542C28.2956 26.3983 28.3284 27.8 28.3651 28.3841C28.1383 28.3729 27.9223 28.2841 27.7531 28.1326C27.584 27.9811 27.472 27.7762 27.4359 27.552L26.5119 22.7929C26.3439 21.4567 27.0159 20.1219 28.1919 19.5379C29.7774 18.8422 30.3575 17.7857 31.6332 16.6989C32.5572 15.8629 33.9012 15.6135 35.0759 16.1975C35.9159 16.4469 36.8399 16.4469 37.6786 16.1975C38.9386 15.7802 40.3653 16.1135 41.3733 17.0323L42.6333 18.2844C42.9693 18.7018 43.388 18.9525 43.8933 19.2032L43.892 19.2019Z" fill="url(#paint44_radial_69_4039)"/>
<path d="M43.892 19.2019L44.564 19.5352C45.74 20.1206 46.412 21.4554 46.16 22.8755L45.236 27.6334C45.1533 28.1255 44.8291 28.4563 44.3409 28.4681C44.396 27.6806 44.4485 26.4075 44.4682 26.2067C44.5364 25.5294 44.4301 25.3299 43.808 24.7104C43.472 24.3784 43.2213 23.877 43.2213 23.3756V22.0395C43.2213 21.6221 42.8853 21.2887 42.5493 21.2047C41.5413 20.9554 39.4426 20.538 36.4199 20.538C33.3973 20.538 31.2986 20.9554 30.2906 21.2047C30.0965 21.2389 29.9213 21.3424 29.7978 21.4959C29.6742 21.6494 29.6105 21.8426 29.6186 22.0395V23.3769C29.6186 23.8783 29.4506 24.3797 29.0306 24.713L28.7786 24.9624C28.4426 25.2144 28.2732 25.7368 28.2732 26.1542C28.2956 26.3983 28.3284 27.8 28.3651 28.3841C28.1383 28.3729 27.9223 28.2841 27.7531 28.1326C27.584 27.9811 27.472 27.7762 27.4359 27.552L26.5119 22.7929C26.3439 21.4567 27.0159 20.1219 28.1919 19.5379C29.7774 18.8422 30.3575 17.7857 31.6332 16.6989C32.5572 15.8629 33.9012 15.6135 35.0759 16.1975C35.9159 16.4469 36.8399 16.4469 37.6786 16.1975C38.9386 15.7802 40.3653 16.1135 41.3733 17.0323L42.6333 18.2844C42.9693 18.7018 43.388 18.9525 43.8933 19.2032L43.892 19.2019Z" fill="url(#paint45_radial_69_4039)"/>
</g>
<path d="M43.892 19.2019L44.564 19.5352C45.74 20.1206 46.412 21.4554 46.16 22.8755L45.236 27.6334C45.1533 28.1255 44.8291 28.4563 44.3409 28.4681C44.396 27.6806 44.4485 26.4075 44.4682 26.2067C44.5364 25.5294 44.4301 25.3299 43.808 24.7104C43.472 24.3784 43.2213 23.877 43.2213 23.3756V22.0395C43.2213 21.6221 42.8853 21.2887 42.5493 21.2047C41.5413 20.9554 39.4426 20.538 36.4199 20.538C33.3973 20.538 31.2986 20.9554 30.2906 21.2047C30.0965 21.2389 29.9213 21.3424 29.7978 21.4959C29.6742 21.6494 29.6105 21.8426 29.6186 22.0395V23.3769C29.6186 23.8783 29.4506 24.3797 29.0306 24.713L28.7786 24.9624C28.4426 25.2144 28.2732 25.7368 28.2732 26.1542C28.2956 26.3983 28.3284 27.8 28.3651 28.3841C28.1383 28.3729 27.9223 28.2841 27.7531 28.1326C27.584 27.9811 27.472 27.7762 27.4359 27.552L26.5119 22.7929C26.3439 21.4567 27.0159 20.1219 28.1919 19.5379C29.7774 18.8422 30.3575 17.7857 31.6332 16.6989C32.5572 15.8629 33.9012 15.6135 35.0759 16.1975C35.9159 16.4469 36.8399 16.4469 37.6786 16.1975C38.9386 15.7802 40.3653 16.1135 41.3733 17.0323L42.6333 18.2844C42.9693 18.7018 43.388 18.9525 43.8933 19.2032L43.892 19.2019Z" fill="url(#paint46_radial_69_4039)"/>
<path d="M43.892 19.2019L44.564 19.5352C45.74 20.1206 46.412 21.4554 46.16 22.8755L45.236 27.6334C45.1533 28.1255 44.8291 28.4563 44.3409 28.4681C44.396 27.6806 44.4485 26.4075 44.4682 26.2067C44.5364 25.5294 44.4301 25.3299 43.808 24.7104C43.472 24.3784 43.2213 23.877 43.2213 23.3756V22.0395C43.2213 21.6221 42.8853 21.2887 42.5493 21.2047C41.5413 20.9554 39.4426 20.538 36.4199 20.538C33.3973 20.538 31.2986 20.9554 30.2906 21.2047C30.0965 21.2389 29.9213 21.3424 29.7978 21.4959C29.6742 21.6494 29.6105 21.8426 29.6186 22.0395V23.3769C29.6186 23.8783 29.4506 24.3797 29.0306 24.713L28.7786 24.9624C28.4426 25.2144 28.2732 25.7368 28.2732 26.1542C28.2956 26.3983 28.3284 27.8 28.3651 28.3841C28.1383 28.3729 27.9223 28.2841 27.7531 28.1326C27.584 27.9811 27.472 27.7762 27.4359 27.552L26.5119 22.7929C26.3439 21.4567 27.0159 20.1219 28.1919 19.5379C29.7774 18.8422 30.3575 17.7857 31.6332 16.6989C32.5572 15.8629 33.9012 15.6135 35.0759 16.1975C35.9159 16.4469 36.8399 16.4469 37.6786 16.1975C38.9386 15.7802 40.3653 16.1135 41.3733 17.0323L42.6333 18.2844C42.9693 18.7018 43.388 18.9525 43.8933 19.2032L43.892 19.2019Z" fill="url(#paint47_radial_69_4039)"/>
<path d="M43.892 19.2019L44.564 19.5352C45.74 20.1206 46.412 21.4554 46.16 22.8755L45.236 27.6334C45.1533 28.1255 44.8291 28.4563 44.3409 28.4681C44.396 27.6806 44.4485 26.4075 44.4682 26.2067C44.5364 25.5294 44.4301 25.3299 43.808 24.7104C43.472 24.3784 43.2213 23.877 43.2213 23.3756V22.0395C43.2213 21.6221 42.8853 21.2887 42.5493 21.2047C41.5413 20.9554 39.4426 20.538 36.4199 20.538C33.3973 20.538 31.2986 20.9554 30.2906 21.2047C30.0965 21.2389 29.9213 21.3424 29.7978 21.4959C29.6742 21.6494 29.6105 21.8426 29.6186 22.0395V23.3769C29.6186 23.8783 29.4506 24.3797 29.0306 24.713L28.7786 24.9624C28.4426 25.2144 28.2732 25.7368 28.2732 26.1542C28.2956 26.3983 28.3284 27.8 28.3651 28.3841C28.1383 28.3729 27.9223 28.2841 27.7531 28.1326C27.584 27.9811 27.472 27.7762 27.4359 27.552L26.5119 22.7929C26.3439 21.4567 27.0159 20.1219 28.1919 19.5379C29.7774 18.8422 30.3575 17.7857 31.6332 16.6989C32.5572 15.8629 33.9012 15.6135 35.0759 16.1975C35.9159 16.4469 36.8399 16.4469 37.6786 16.1975C38.9386 15.7802 40.3653 16.1135 41.3733 17.0323L42.6333 18.2844C42.9693 18.7018 43.388 18.9525 43.8933 19.2032L43.892 19.2019Z" fill="url(#paint48_radial_69_4039)"/>
<g filter="url(#filter8_f_69_4039)">
<path d="M35.9184 29.1506L34.6335 31.811C34.476 32.3584 34.8566 32.9057 35.3987 32.9057H36.5524C37.0931 32.9057 37.4751 32.3492 37.3163 31.811L36.5366 29.1506C36.3686 28.56 36.093 28.56 35.9184 29.1506Z" fill="#F1901C"/>
</g>
<g filter="url(#filter9_f_69_4039)">
<path d="M35.7508 28.8946L34.9199 31.5551C34.8804 31.682 34.8715 31.8165 34.8938 31.9476C34.9162 32.0786 34.9692 32.2026 35.0485 32.3093C35.1278 32.416 35.2312 32.5024 35.3503 32.5616C35.4694 32.6207 35.6007 32.6509 35.7337 32.6497H36.9648C37.5423 32.6497 37.9492 32.0945 37.7786 31.5551L36.9478 28.8946C36.7693 28.3053 35.9371 28.3053 35.7508 28.8946Z" fill="#FFCC28"/>
<path d="M35.7508 28.8946L34.9199 31.5551C34.8804 31.682 34.8715 31.8165 34.8938 31.9476C34.9162 32.0786 34.9692 32.2026 35.0485 32.3093C35.1278 32.416 35.2312 32.5024 35.3503 32.5616C35.4694 32.6207 35.6007 32.6509 35.7337 32.6497H36.9648C37.5423 32.6497 37.9492 32.0945 37.7786 31.5551L36.9478 28.8946C36.7693 28.3053 35.9371 28.3053 35.7508 28.8946Z" fill="url(#paint49_linear_69_4039)"/>
<path d="M35.7508 28.8946L34.9199 31.5551C34.8804 31.682 34.8715 31.8165 34.8938 31.9476C34.9162 32.0786 34.9692 32.2026 35.0485 32.3093C35.1278 32.416 35.2312 32.5024 35.3503 32.5616C35.4694 32.6207 35.6007 32.6509 35.7337 32.6497H36.9648C37.5423 32.6497 37.9492 32.0945 37.7786 31.5551L36.9478 28.8946C36.7693 28.3053 35.9371 28.3053 35.7508 28.8946Z" fill="url(#paint50_linear_69_4039)"/>
<path d="M35.7508 28.8946L34.9199 31.5551C34.8804 31.682 34.8715 31.8165 34.8938 31.9476C34.9162 32.0786 34.9692 32.2026 35.0485 32.3093C35.1278 32.416 35.2312 32.5024 35.3503 32.5616C35.4694 32.6207 35.6007 32.6509 35.7337 32.6497H36.9648C37.5423 32.6497 37.9492 32.0945 37.7786 31.5551L36.9478 28.8946C36.7693 28.3053 35.9371 28.3053 35.7508 28.8946Z" fill="url(#paint51_linear_69_4039)"/>
</g>
<path d="M35.7508 28.8946L34.9199 31.5551C34.8804 31.682 34.8715 31.8165 34.8938 31.9476C34.9162 32.0786 34.9692 32.2026 35.0485 32.3093C35.1278 32.416 35.2312 32.5024 35.3503 32.5616C35.4694 32.6207 35.6007 32.6509 35.7337 32.6497H36.9648C37.5423 32.6497 37.9492 32.0945 37.7786 31.5551L36.9478 28.8946C36.7693 28.3053 35.9371 28.3053 35.7508 28.8946Z" fill="url(#paint52_linear_69_4039)"/>
<g filter="url(#filter10_f_69_4039)">
<path d="M36.3493 34.2405C35.5959 34.2456 34.8523 34.0696 34.1811 33.7273C33.9671 33.6184 33.7361 33.8586 33.8713 34.0541C34.1426 34.4626 34.5109 34.7975 34.9434 35.0286C35.3759 35.2597 35.859 35.3799 36.3493 35.3784C37.3901 35.3784 38.3036 34.8482 38.8273 34.0541C38.9625 33.852 38.7315 33.6184 38.5176 33.726C37.8902 34.0541 37.1526 34.2405 36.3493 34.2405Z" stroke="url(#paint53_radial_69_4039)" stroke-width="0.2"/>
</g>
<path d="M36.3493 34.2405C35.5959 34.2456 34.8523 34.0696 34.1811 33.7273C33.9671 33.6184 33.7361 33.8586 33.8713 34.0541C34.1426 34.4626 34.5109 34.7975 34.9434 35.0286C35.3759 35.2597 35.859 35.3799 36.3493 35.3784C37.3901 35.3784 38.3036 34.8482 38.8273 34.0541C38.9625 33.852 38.7315 33.6184 38.5176 33.726C37.8902 34.0541 37.1526 34.2405 36.3493 34.2405Z" fill="#8A004F"/>
<path d="M40.0872 27.1018C41.1096 27.1018 41.9732 27.8066 42.2082 28.7595C42.224 28.823 42.2251 28.8894 42.2113 28.9534C42.1976 29.0174 42.1693 29.0774 42.1288 29.1289C42.0883 29.1803 42.0365 29.2218 41.9774 29.2501C41.9184 29.2785 41.8537 29.2929 41.7882 29.2924H38.2969C38.2441 29.2925 38.1919 29.281 38.144 29.2586C38.0961 29.2362 38.0537 29.2036 38.0199 29.163C37.986 29.1224 37.9616 29.0748 37.9482 29.0237C37.9348 28.9725 37.9329 28.9191 37.9426 28.8671C38.0404 28.3701 38.3077 27.9224 38.6988 27.6005C39.0899 27.2785 39.5806 27.1023 40.0872 27.1018Z" fill="white"/>
<path d="M39.7628 27.527C39.9773 27.5273 40.189 27.577 40.3812 27.6723C40.5734 27.7677 40.7411 27.906 40.8712 28.0766C41.0013 28.2472 41.0904 28.4455 41.1315 28.6561C41.1726 28.8667 41.1646 29.084 41.1081 29.291H38.4109C38.3554 29.0835 38.3483 28.866 38.3902 28.6554C38.4321 28.4447 38.5218 28.2465 38.6524 28.0761C38.7831 27.9056 38.9511 27.7674 39.1437 27.6722C39.3362 27.577 39.548 27.5273 39.7628 27.527Z" fill="url(#paint54_radial_69_4039)"/>
<path d="M38.9639 28.9235C38.9639 28.4799 39.3183 28.1242 39.7633 28.1242C39.9009 28.1233 40.0365 28.158 40.1568 28.2251C40.277 28.2922 40.3778 28.3894 40.4493 28.507C40.5208 28.6247 40.5606 28.7589 40.5648 28.8965C40.569 29.0341 40.5375 29.1705 40.4733 29.2923H39.0584C38.9947 29.1804 38.9621 29.0522 38.9639 28.9235Z" fill="black"/>
<g filter="url(#filter11_f_69_4039)">
<path d="M39.6604 27.8223C39.7602 27.9562 39.5515 28.1176 39.3152 28.2948C39.079 28.472 38.9031 28.5967 38.8034 28.4628C38.7049 28.3302 38.8165 28.0782 39.0527 27.9024C39.289 27.7252 39.5607 27.6884 39.6604 27.8223Z" fill="#C7A7A3"/>
<path d="M39.6604 27.8223C39.7602 27.9562 39.5515 28.1176 39.3152 28.2948C39.079 28.472 38.9031 28.5967 38.8034 28.4628C38.7049 28.3302 38.8165 28.0782 39.0527 27.9024C39.289 27.7252 39.5607 27.6884 39.6604 27.8223Z" fill="url(#paint55_radial_69_4039)"/>
</g>
<g filter="url(#filter12_f_69_4039)">
<path d="M41.0074 28.7398C40.9658 28.4666 40.839 28.2135 40.6452 28.0166L40.2383 28.4629L40.422 28.8199L41.0074 28.7411V28.7398Z" fill="url(#paint56_linear_69_4039)"/>
</g>
<path d="M32.6034 27.1018C31.581 27.1018 30.7174 27.8066 30.4824 28.7595C30.4666 28.823 30.4655 28.8894 30.4793 28.9534C30.4931 29.0174 30.5213 29.0774 30.5618 29.1289C30.6024 29.1803 30.6541 29.2218 30.7132 29.2501C30.7722 29.2785 30.837 29.2929 30.9024 29.2924H34.3937C34.6168 29.2924 34.794 29.0889 34.7494 28.8671C34.6508 28.3702 34.3831 27.9228 33.9919 27.601C33.6007 27.2791 33.11 27.1027 32.6034 27.1018Z" fill="white"/>
<path d="M32.9264 27.527C32.712 27.5275 32.5005 27.5774 32.3084 27.6728C32.1164 27.7682 31.9489 27.9065 31.8189 28.0771C31.6889 28.2477 31.6 28.446 31.559 28.6565C31.518 28.867 31.526 29.0841 31.5824 29.291H34.2783C34.3117 29.1713 34.3293 29.0477 34.3308 28.9235C34.3284 28.5525 34.1794 28.1975 33.9163 27.9359C33.6532 27.6743 33.2974 27.5273 32.9264 27.527Z" fill="url(#paint57_radial_69_4039)"/>
<path d="M33.7272 28.9236C33.7272 28.4799 33.3729 28.1229 32.9266 28.1229C32.789 28.1223 32.6536 28.1572 32.5336 28.2244C32.4135 28.2916 32.3129 28.3887 32.2415 28.5063C32.1702 28.624 32.1305 28.7581 32.1263 28.8956C32.1222 29.0331 32.1537 29.1693 32.2179 29.2911H33.6314C33.6927 29.1781 33.7256 29.052 33.7272 28.9236Z" fill="black"/>
<g filter="url(#filter13_f_69_4039)">
<path d="M34.2049 28.7595C34.2049 28.308 33.8374 28.0074 33.7376 27.9169L33.2861 28.3539L33.5644 28.9183L34.2036 28.7608L34.2049 28.7595Z" fill="url(#paint58_linear_69_4039)"/>
</g>
<g filter="url(#filter14_f_69_4039)">
<path d="M32.6504 28.3967C32.9482 28.2389 33.125 27.989 33.0453 27.8384C32.9655 27.6879 32.6594 27.6938 32.3616 27.8516C32.0637 28.0094 31.8869 28.2594 31.9667 28.4099C32.0464 28.5604 32.3525 28.5545 32.6504 28.3967Z" fill="#C7A7A3" fill-opacity="0.9"/>
<path d="M32.6504 28.3967C32.9482 28.2389 33.125 27.989 33.0453 27.8384C32.9655 27.6879 32.6594 27.6938 32.3616 27.8516C32.0637 28.0094 31.8869 28.2594 31.9667 28.4099C32.0464 28.5604 32.3525 28.5545 32.6504 28.3967Z" fill="url(#paint59_radial_69_4039)"/>
</g>
<g filter="url(#filter15_d_69_4039)">
<path fill-rule="evenodd" clip-rule="evenodd" d="M39.1357 25.889C40.2618 25.784 40.985 26.2237 41.1595 26.3851C41.3038 26.5181 41.495 26.5883 41.6911 26.5803C41.8871 26.5723 42.072 26.4867 42.205 26.3424C42.3379 26.1982 42.4081 26.007 42.4001 25.8109C42.3921 25.6149 42.3066 25.43 42.1623 25.297C41.6832 24.856 40.5479 24.272 38.9979 24.4177C38.9003 24.4255 38.8053 24.4527 38.7184 24.4976C38.6315 24.5424 38.5543 24.6041 38.4914 24.6791C38.4285 24.754 38.3811 24.8407 38.3519 24.9341C38.3228 25.0275 38.3125 25.1257 38.3216 25.2231C38.3307 25.3205 38.3591 25.4152 38.4051 25.5015C38.4511 25.5879 38.5137 25.6642 38.5895 25.7262C38.6652 25.7881 38.7525 25.8344 38.8462 25.8624C38.94 25.8903 39.0384 25.8994 39.1357 25.889Z" fill="url(#paint60_radial_69_4039)"/>
</g>
<g filter="url(#filter16_f_69_4039)">
<path d="M41.6596 25.6672C41.3341 25.3653 40.4048 24.8534 39.0674 24.9794" stroke="#D76D5B" stroke-width="0.25" stroke-linecap="round"/>
</g>
<g filter="url(#filter17_d_69_4039)">
<path fill-rule="evenodd" clip-rule="evenodd" d="M33.5641 25.889C32.4367 25.784 31.7135 26.2237 31.5389 26.3851C31.4675 26.4509 31.3838 26.5019 31.2926 26.5353C31.2015 26.5687 31.1046 26.5838 31.0076 26.5798C30.8117 26.5717 30.627 26.4861 30.4942 26.3418C30.3614 26.1975 30.2913 26.0064 30.2995 25.8104C30.3076 25.6145 30.3932 25.4298 30.5375 25.297C31.0166 24.856 32.1519 24.272 33.7006 24.4177C33.8931 24.4391 34.0695 24.5352 34.1918 24.6853C34.3141 24.8354 34.3727 25.0275 34.3548 25.2203C34.3369 25.4132 34.244 25.5913 34.0961 25.7163C33.9483 25.8414 33.7572 25.9034 33.5641 25.889Z" fill="url(#paint61_radial_69_4039)"/>
</g>
<g filter="url(#filter18_f_69_4039)">
<path d="M31.0391 25.6672C31.3659 25.3653 32.2938 24.8534 33.6313 24.9794" stroke="#D76D5B" stroke-width="0.25" stroke-linecap="round"/>
</g>
<defs>
<filter id="filter0_f_69_4039" x="19.0625" y="27.4695" width="10.9551" height="14.5476" filterUnits="userSpaceOnUse" color-interpolation-filters="sRGB">
<feFlood flood-opacity="0" result="BackgroundImageFix"/>
<feBlend mode="normal" in="SourceGraphic" in2="BackgroundImageFix" result="shape"/>
<feGaussianBlur stdDeviation="0.75" result="effect1_foregroundBlur_69_4039"/>
</filter>
<filter id="filter1_f_69_4039" x="17.317" y="17.3595" width="0.448047" height="2.13872" filterUnits="userSpaceOnUse" color-interpolation-filters="sRGB">
<feFlood flood-opacity="0" result="BackgroundImageFix"/>
<feBlend mode="normal" in="SourceGraphic" in2="BackgroundImageFix" result="shape"/>
<feGaussianBlur stdDeviation="0.05" result="effect1_foregroundBlur_69_4039"/>
</filter>
<filter id="filter2_f_69_4039" x="19.3375" y="16.1598" width="0.396289" height="2.98271" filterUnits="userSpaceOnUse" color-interpolation-filters="sRGB">
<feFlood flood-opacity="0" result="BackgroundImageFix"/>
<feBlend mode="normal" in="SourceGraphic" in2="BackgroundImageFix" result="shape"/>
<feGaussianBlur stdDeviation="0.05" result="effect1_foregroundBlur_69_4039"/>
</filter>
<filter id="filter3_f_69_4039" x="21.3678" y="17.6468" width="0.479297" height="1.85393" filterUnits="userSpaceOnUse" color-interpolation-filters="sRGB">
<feFlood flood-opacity="0" result="BackgroundImageFix"/>
<feBlend mode="normal" in="SourceGraphic" in2="BackgroundImageFix" result="shape"/>
<feGaussianBlur stdDeviation="0.05" result="effect1_foregroundBlur_69_4039"/>
</filter>
<filter id="filter4_f_69_4039" x="26.8604" y="27.2843" width="4.11621" height="4.11584" filterUnits="userSpaceOnUse" color-interpolation-filters="sRGB">
<feFlood flood-opacity="0" result="BackgroundImageFix"/>
<feBlend mode="normal" in="SourceGraphic" in2="BackgroundImageFix" result="shape"/>
<feGaussianBlur stdDeviation="0.25" result="effect1_foregroundBlur_69_4039"/>
</filter>
<filter id="filter5_d_69_4039" x="40.9463" y="25.979" width="6.22656" height="6.22632" filterUnits="userSpaceOnUse" color-interpolation-filters="sRGB">
<feFlood flood-opacity="0" result="BackgroundImageFix"/>
<feColorMatrix in="SourceAlpha" type="matrix" values="0 0 0 0 0 0 0 0 0 0 0 0 0 0 0 0 0 0 127 0" result="hardAlpha"/>
<feOffset dx="0.25" dy="-0.25"/>
<feGaussianBlur stdDeviation="0.25"/>
<feComposite in2="hardAlpha" operator="out"/>
<feColorMatrix type="matrix" values="0 0 0 0 0.85098 0 0 0 0 0.560784 0 0 0 0 0.376471 0 0 0 1 0"/>
<feBlend mode="normal" in2="BackgroundImageFix" result="effect1_dropShadow_69_4039"/>
<feBlend mode="normal" in="SourceGraphic" in2="effect1_dropShadow_69_4039" result="shape"/>
</filter>
<filter id="filter6_f_69_4039" x="41.752" y="27.2843" width="4.11621" height="4.11584" filterUnits="userSpaceOnUse" color-interpolation-filters="sRGB">
<feFlood flood-opacity="0" result="BackgroundImageFix"/>
<feBlend mode="normal" in="SourceGraphic" in2="BackgroundImageFix" result="shape"/>
<feGaussianBlur stdDeviation="0.25" result="effect1_foregroundBlur_69_4039"/>
</filter>
<filter id="filter7_dd_69_4039" x="25.7363" y="14.629" width="21.2266" height="14.0891" filterUnits="userSpaceOnUse" color-interpolation-filters="sRGB">
<feFlood flood-opacity="0" result="BackgroundImageFix"/>
<feColorMatrix in="SourceAlpha" type="matrix" values="0 0 0 0 0 0 0 0 0 0 0 0 0 0 0 0 0 0 127 0" result="hardAlpha"/>
<feOffset dy="-0.5"/>
<feGaussianBlur stdDeviation="0.375"/>
<feComposite in2="hardAlpha" operator="out"/>
<feColorMatrix type="matrix" values="0 0 0 0 0.984314 0 0 0 0 0.584314 0 0 0 0 0.129412 0 0 0 1 0"/>
<feBlend mode="normal" in2="BackgroundImageFix" result="effect1_dropShadow_69_4039"/>
<feColorMatrix in="SourceAlpha" type="matrix" values="0 0 0 0 0 0 0 0 0 0 0 0 0 0 0 0 0 0 127 0" result="hardAlpha"/>
<feOffset dy="-0.25"/>
<feGaussianBlur stdDeviation="0.125"/>
<feComposite in2="hardAlpha" operator="out"/>
<feColorMatrix type="matrix" values="0 0 0 0 0.972549 0 0 0 0 0.572549 0 0 0 0 0.0156863 0 0 0 1 0"/>
<feBlend mode="normal" in2="effect1_dropShadow_69_4039" result="effect2_dropShadow_69_4039"/>
<feBlend mode="normal" in="SourceGraphic" in2="effect2_dropShadow_69_4039" result="shape"/>
</filter>
<filter id="filter8_f_69_4039" x="33.8477" y="27.9576" width="4.25488" height="5.698" filterUnits="userSpaceOnUse" color-interpolation-filters="sRGB">
<feFlood flood-opacity="0" result="BackgroundImageFix"/>
<feBlend mode="normal" in="SourceGraphic" in2="BackgroundImageFix" result="shape"/>
<feGaussianBlur stdDeviation="0.375" result="effect1_foregroundBlur_69_4039"/>
</filter>
<filter id="filter9_f_69_4039" x="34.6318" y="28.2026" width="3.43555" height="4.69714" filterUnits="userSpaceOnUse" color-interpolation-filters="sRGB">
<feFlood flood-opacity="0" result="BackgroundImageFix"/>
<feBlend mode="normal" in="SourceGraphic" in2="BackgroundImageFix" result="shape"/>
<feGaussianBlur stdDeviation="0.125" result="effect1_foregroundBlur_69_4039"/>
</filter>
<filter id="filter10_f_69_4039" x="33.6305" y="33.4988" width="5.4373" height="2.07964" filterUnits="userSpaceOnUse" color-interpolation-filters="sRGB">
<feFlood flood-opacity="0" result="BackgroundImageFix"/>
<feBlend mode="normal" in="SourceGraphic" in2="BackgroundImageFix" result="shape"/>
<feGaussianBlur stdDeviation="0.05" result="effect1_foregroundBlur_69_4039"/>
</filter>
<filter id="filter11_f_69_4039" x="38.6676" y="27.6416" width="1.11797" height="0.977466" filterUnits="userSpaceOnUse" color-interpolation-filters="sRGB">
<feFlood flood-opacity="0" result="BackgroundImageFix"/>
<feBlend mode="normal" in="SourceGraphic" in2="BackgroundImageFix" result="shape"/>
<feGaussianBlur stdDeviation="0.05" result="effect1_foregroundBlur_69_4039"/>
</filter>
<filter id="filter12_f_69_4039" x="40.0383" y="27.8166" width="1.16953" height="1.20322" filterUnits="userSpaceOnUse" color-interpolation-filters="sRGB">
<feFlood flood-opacity="0" result="BackgroundImageFix"/>
<feBlend mode="normal" in="SourceGraphic" in2="BackgroundImageFix" result="shape"/>
<feGaussianBlur stdDeviation="0.1" result="effect1_foregroundBlur_69_4039"/>
</filter>
<filter id="filter13_f_69_4039" x="33.0861" y="27.7169" width="1.31895" height="1.40146" filterUnits="userSpaceOnUse" color-interpolation-filters="sRGB">
<feFlood flood-opacity="0" result="BackgroundImageFix"/>
<feBlend mode="normal" in="SourceGraphic" in2="BackgroundImageFix" result="shape"/>
<feGaussianBlur stdDeviation="0.1" result="effect1_foregroundBlur_69_4039"/>
</filter>
<filter id="filter14_f_69_4039" x="31.8473" y="27.6292" width="1.31719" height="0.989795" filterUnits="userSpaceOnUse" color-interpolation-filters="sRGB">
<feFlood flood-opacity="0" result="BackgroundImageFix"/>
<feBlend mode="normal" in="SourceGraphic" in2="BackgroundImageFix" result="shape"/>
<feGaussianBlur stdDeviation="0.05" result="effect1_foregroundBlur_69_4039"/>
</filter>
<filter id="filter15_d_69_4039" x="37.9184" y="23.7449" width="4.88203" height="2.98604" filterUnits="userSpaceOnUse" color-interpolation-filters="sRGB">
<feFlood flood-opacity="0" result="BackgroundImageFix"/>
<feColorMatrix in="SourceAlpha" type="matrix" values="0 0 0 0 0 0 0 0 0 0 0 0 0 0 0 0 0 0 127 0" result="hardAlpha"/>
<feOffset dy="-0.25"/>
<feGaussianBlur stdDeviation="0.2"/>
<feComposite in2="hardAlpha" operator="out"/>
<feColorMatrix type="matrix" values="0 0 0 0 0.698039 0 0 0 0 0.25098 0 0 0 0 0.313726 0 0 0 1 0"/>
<feBlend mode="normal" in2="BackgroundImageFix" result="effect1_dropShadow_69_4039"/>
<feBlend mode="normal" in="SourceGraphic" in2="effect1_dropShadow_69_4039" result="shape"/>
</filter>
<filter id="filter16_f_69_4039" x="38.5424" y="24.4348" width="3.6418" height="1.75728" filterUnits="userSpaceOnUse" color-interpolation-filters="sRGB">
<feFlood flood-opacity="0" result="BackgroundImageFix"/>
<feBlend mode="normal" in="SourceGraphic" in2="BackgroundImageFix" result="shape"/>
<feGaussianBlur stdDeviation="0.2" result="effect1_foregroundBlur_69_4039"/>
</filter>
<filter id="filter17_d_69_4039" x="29.8988" y="23.7449" width="4.85957" height="2.98555" filterUnits="userSpaceOnUse" color-interpolation-filters="sRGB">
<feFlood flood-opacity="0" result="BackgroundImageFix"/>
<feColorMatrix in="SourceAlpha" type="matrix" values="0 0 0 0 0 0 0 0 0 0 0 0 0 0 0 0 0 0 127 0" result="hardAlpha"/>
<feOffset dy="-0.25"/>
<feGaussianBlur stdDeviation="0.2"/>
<feComposite in2="hardAlpha" operator="out"/>
<feColorMatrix type="matrix" values="0 0 0 0 0.698039 0 0 0 0 0.25098 0 0 0 0 0.313726 0 0 0 1 0"/>
<feBlend mode="normal" in2="BackgroundImageFix" result="effect1_dropShadow_69_4039"/>
<feBlend mode="normal" in="SourceGraphic" in2="effect1_dropShadow_69_4039" result="shape"/>
</filter>
<filter id="filter18_f_69_4039" x="30.5141" y="24.4348" width="3.6418" height="1.75728" filterUnits="userSpaceOnUse" color-interpolation-filters="sRGB">
<feFlood flood-opacity="0" result="BackgroundImageFix"/>
<feBlend mode="normal" in="SourceGraphic" in2="BackgroundImageFix" result="shape"/>
<feGaussianBlur stdDeviation="0.2" result="effect1_foregroundBlur_69_4039"/>
</filter>
<radialGradient id="paint0_radial_69_4039" cx="0" cy="0" r="1" gradientUnits="userSpaceOnUse" gradientTransform="translate(19.1161 26.2867) rotate(-68.885) scale(8.50133 10.1703)">
<stop offset="0.475" stop-color="#F4B937"/>
<stop offset="1" stop-color="#EEB32A"/>
</radialGradient>
<radialGradient id="paint1_radial_69_4039" cx="0" cy="0" r="1" gradientUnits="userSpaceOnUse" gradientTransform="translate(24.7131 23.8105) rotate(130.764) scale(12.5634 3.02422)">
<stop offset="0.147" stop-color="#C58235"/>
<stop offset="1" stop-color="#D6952A" stop-opacity="0"/>
</radialGradient>
<linearGradient id="paint2_linear_69_4039" x1="19.75" y1="27.153" x2="19.75" y2="24.9178" gradientUnits="userSpaceOnUse">
<stop offset="0.198" stop-color="#B0851E"/>
<stop offset="1" stop-color="#F6BB38" stop-opacity="0"/>
</linearGradient>
<radialGradient id="paint3_radial_69_4039" cx="0" cy="0" r="1" gradientUnits="userSpaceOnUse" gradientTransform="translate(17.444 17.3433) rotate(85.056) scale(2.97443 0.356673)">
<stop offset="0.415" stop-color="#E5A70F"/>
<stop offset="1" stop-color="#EAAA15" stop-opacity="0"/>
</radialGradient>
<radialGradient id="paint4_radial_69_4039" cx="0" cy="0" r="1" gradientUnits="userSpaceOnUse" gradientTransform="translate(19.6083 15.8156) rotate(90.788) scale(4.47113 0.349158)">
<stop offset="0.401" stop-color="#EAAA15"/>
<stop offset="1" stop-color="#EAAA15" stop-opacity="0"/>
</radialGradient>
<radialGradient id="paint5_radial_69_4039" cx="0" cy="0" r="1" gradientUnits="userSpaceOnUse" gradientTransform="translate(22.19 14.8115) rotate(99.6086) scale(5.2831 0.75499)">
<stop offset="0.652" stop-color="#EAAA15"/>
<stop offset="1" stop-color="#EAAA15" stop-opacity="0"/>
</radialGradient>
<radialGradient id="paint6_radial_69_4039" cx="0" cy="0" r="1" gradientUnits="userSpaceOnUse" gradientTransform="translate(23.954 15.5281) rotate(136.548) scale(1.61024 1.61832)">
<stop stop-color="#FFDC45"/>
<stop offset="1" stop-color="#FFDC45" stop-opacity="0"/>
</radialGradient>
<radialGradient id="paint7_radial_69_4039" cx="0" cy="0" r="1" gradientUnits="userSpaceOnUse" gradientTransform="translate(21.6577 14.3404) rotate(138.965) scale(1.46814 1.22345)">
<stop stop-color="#FFDC45"/>
<stop offset="1" stop-color="#FFDC45" stop-opacity="0"/>
</radialGradient>
<radialGradient id="paint8_radial_69_4039" cx="0" cy="0" r="1" gradientUnits="userSpaceOnUse" gradientTransform="translate(18.868 15.078) rotate(123.111) scale(1.12626 1.02216)">
<stop stop-color="#FFDC45"/>
<stop offset="1" stop-color="#FFDC45" stop-opacity="0"/>
</radialGradient>
<radialGradient id="paint9_radial_69_4039" cx="0" cy="0" r="1" gradientUnits="userSpaceOnUse" gradientTransform="translate(16.7969 16.7593) rotate(129.369) scale(1.03458 0.938966)">
<stop stop-color="#FFDC45"/>
<stop offset="1" stop-color="#FFDC45" stop-opacity="0"/>
</radialGradient>
<radialGradient id="paint10_radial_69_4039" cx="0" cy="0" r="1" gradientUnits="userSpaceOnUse" gradientTransform="translate(16.8166 17.5286) rotate(85.723) scale(3.0245 0.586674)">
<stop stop-color="#FFCC3D"/>
<stop offset="1" stop-color="#FFCC3D" stop-opacity="0"/>
</radialGradient>
<linearGradient id="paint11_linear_69_4039" x1="16.9205" y1="27.1779" x2="22.6627" y2="27.1779" gradientUnits="userSpaceOnUse">
<stop stop-color="#4B93C9"/>
<stop offset="0.743" stop-color="#3372A1"/>
</linearGradient>
<radialGradient id="paint12_radial_69_4039" cx="0" cy="0" r="1" gradientUnits="userSpaceOnUse" gradientTransform="translate(20.7661 27.0336) rotate(90) scale(1.45605 1.51758)">
<stop stop-color="#3A82C1"/>
<stop offset="1" stop-color="#3A82C1" stop-opacity="0"/>
</radialGradient>
<linearGradient id="paint13_linear_69_4039" x1="19.8986" y1="26.4088" x2="19.8986" y2="26.7474" gradientUnits="userSpaceOnUse">
<stop stop-color="#36749F"/>
<stop offset="1" stop-color="#36749F" stop-opacity="0"/>
</linearGradient>
<linearGradient id="paint14_linear_69_4039" x1="34.7584" y1="48.0191" x2="18.574" y2="27.7515" gradientUnits="userSpaceOnUse">
<stop stop-color="#2497FE"/>
<stop offset="0.197" stop-color="#2893F2"/>
</linearGradient>
<radialGradient id="paint15_radial_69_4039" cx="0" cy="0" r="1" gradientUnits="userSpaceOnUse" gradientTransform="translate(45.6653 46.3916) rotate(162.136) scale(11.9736 12.8063)">
<stop stop-color="#4AB9FF"/>
<stop offset="1" stop-color="#4AB9FF" stop-opacity="0"/>
</radialGradient>
<radialGradient id="paint16_radial_69_4039" cx="0" cy="0" r="1" gradientUnits="userSpaceOnUse" gradientTransform="translate(25.7022 50.8082) rotate(-90) scale(6.81455 3.91373)">
<stop stop-color="#489BF9"/>
<stop offset="1" stop-color="#489BF9" stop-opacity="0"/>
</radialGradient>
<linearGradient id="paint17_linear_69_4039" x1="23.8319" y1="45.6907" x2="26.4004" y2="37.443" gradientUnits="userSpaceOnUse">
<stop offset="0.1" stop-color="#4477FF"/>
<stop offset="1" stop-color="#4477FF" stop-opacity="0"/>
</linearGradient>
<radialGradient id="paint18_radial_69_4039" cx="0" cy="0" r="1" gradientUnits="userSpaceOnUse" gradientTransform="translate(15.3203 27.7515) rotate(90) scale(11.5664 7.13672)">
<stop stop-color="#47A1E2"/>
<stop offset="1" stop-color="#47A1E2" stop-opacity="0"/>
</radialGradient>
<radialGradient id="paint19_radial_69_4039" cx="0" cy="0" r="1" gradientUnits="userSpaceOnUse" gradientTransform="translate(34.643 37.4719) rotate(-167.876) scale(13.5711 5.51872)">
<stop offset="0.287" stop-color="#1E5F96"/>
<stop offset="1" stop-color="#1C72C1" stop-opacity="0"/>
</radialGradient>
<radialGradient id="paint20_radial_69_4039" cx="0" cy="0" r="1" gradientUnits="userSpaceOnUse" gradientTransform="translate(26.8309 31.5735) rotate(180) scale(7.46964 7.51879)">
<stop offset="0.132" stop-color="#387EC0"/>
<stop offset="1" stop-color="#387EC0" stop-opacity="0"/>
</radialGradient>
<linearGradient id="paint21_linear_69_4039" x1="29.4349" y1="43.0985" x2="28.465" y2="41.2663" gradientUnits="userSpaceOnUse">
<stop offset="0.213" stop-color="#398FFA"/>
<stop offset="0.732" stop-color="#398FFA" stop-opacity="0"/>
</linearGradient>
<linearGradient id="paint22_linear_69_4039" x1="20.59" y1="27.7515" x2="20.59" y2="29.1165" gradientUnits="userSpaceOnUse">
<stop stop-color="#4590CB"/>
<stop offset="1" stop-color="#4590CB" stop-opacity="0"/>
</linearGradient>
<linearGradient id="paint23_linear_69_4039" x1="34.1466" y1="37.8984" x2="36.7716" y2="42.3281" gradientUnits="userSpaceOnUse">
<stop stop-color="#D16C15"/>
<stop offset="1" stop-color="#FFC436"/>
</linearGradient>
<radialGradient id="paint24_radial_69_4039" cx="0" cy="0" r="1" gradientUnits="userSpaceOnUse" gradientTransform="translate(36.3634 38.6361) rotate(90) scale(1.51758 3.42896)">
<stop stop-color="#E97E36"/>
<stop offset="1" stop-color="#E97E36" stop-opacity="0"/>
</radialGradient>
<linearGradient id="paint25_linear_69_4039" x1="20.611" y1="29.9932" x2="28.1579" y2="40.862" gradientUnits="userSpaceOnUse">
<stop stop-color="#56A6FF"/>
<stop offset="1" stop-color="#56A6FF" stop-opacity="0"/>
</linearGradient>
<linearGradient id="paint26_linear_69_4039" x1="17.4541" y1="17.4969" x2="17.6536" y2="19.4867" gradientUnits="userSpaceOnUse">
<stop stop-color="#BB7401"/>
<stop offset="1" stop-color="#EDAD18"/>
</linearGradient>
<linearGradient id="paint27_linear_69_4039" x1="19.5363" y1="16.4613" x2="20.1702" y2="19.2333" gradientUnits="userSpaceOnUse">
<stop stop-color="#BB7401"/>
<stop offset="1" stop-color="#EDAD18"/>
</linearGradient>
<linearGradient id="paint28_linear_69_4039" x1="21.6073" y1="17.8801" x2="21.7424" y2="19.5706" gradientUnits="userSpaceOnUse">
<stop stop-color="#BB7401"/>
<stop offset="1" stop-color="#EDAD18"/>
</linearGradient>
<radialGradient id="paint29_radial_69_4039" cx="0" cy="0" r="1" gradientUnits="userSpaceOnUse" gradientTransform="translate(26.3034 29.3422) scale(2.74697 4.80721)">
<stop offset="0.351" stop-color="#E6962B"/>
<stop offset="1" stop-color="#CA8F29"/>
</radialGradient>
<linearGradient id="paint30_linear_69_4039" x1="28.9183" y1="29.778" x2="27.9155" y2="29.778" gradientUnits="userSpaceOnUse">
<stop stop-color="#BD6A1E"/>
<stop offset="1" stop-color="#D77A1C"/>
</linearGradient>
<linearGradient id="paint31_linear_69_4039" x1="45.5092" y1="27.6333" x2="44.2282" y2="31.6023" gradientUnits="userSpaceOnUse">
<stop stop-color="#FFE446"/>
<stop offset="1" stop-color="#FFC339"/>
</linearGradient>
<radialGradient id="paint32_radial_69_4039" cx="0" cy="0" r="1" gradientUnits="userSpaceOnUse" gradientTransform="translate(44.3909 28.9274) rotate(-36.0604) scale(1.60079 1.82709)">
<stop offset="0.543" stop-color="#FFC532"/>
<stop offset="1" stop-color="#FFC532" stop-opacity="0"/>
</radialGradient>
<radialGradient id="paint33_radial_69_4039" cx="0" cy="0" r="1" gradientUnits="userSpaceOnUse" gradientTransform="translate(43.7443 30.6272) rotate(-61.4669) scale(2.69137 1.57528)">
<stop offset="0.69" stop-color="#F4A51A" stop-opacity="0"/>
<stop offset="1" stop-color="#F4A51A"/>
</radialGradient>
<radialGradient id="paint34_radial_69_4039" cx="0" cy="0" r="1" gradientUnits="userSpaceOnUse" gradientTransform="translate(43.8099 29.3422) rotate(44.7076) scale(0.571091 0.736207)">
<stop stop-color="#E59B1F"/>
<stop offset="1" stop-color="#E59B1F" stop-opacity="0"/>
</radialGradient>
<linearGradient id="paint35_linear_69_4039" x1="42.6673" y1="29.9512" x2="30.713" y2="31.7322" gradientUnits="userSpaceOnUse">
<stop stop-color="#FFE833"/>
<stop offset="1" stop-color="#FFAC1B"/>
</linearGradient>
<linearGradient id="paint36_linear_69_4039" x1="27.903" y1="34.1709" x2="31.5229" y2="33.6997" gradientUnits="userSpaceOnUse">
<stop stop-color="#D19C3A"/>
<stop offset="1" stop-color="#D19C3A" stop-opacity="0"/>
</linearGradient>
<radialGradient id="paint37_radial_69_4039" cx="0" cy="0" r="1" gradientUnits="userSpaceOnUse" gradientTransform="translate(39.5186 27.0926) rotate(96.0928) scale(13.7858 20.2914)">
<stop offset="0.559" stop-color="#FDA42B" stop-opacity="0"/>
<stop offset="0.799" stop-color="#E5883F"/>
<stop offset="1" stop-color="#B17B57"/>
</radialGradient>
<radialGradient id="paint38_radial_69_4039" cx="0" cy="0" r="1" gradientUnits="userSpaceOnUse" gradientTransform="translate(40.0213 27.3511) rotate(-90) scale(2.04603 2.51819)">
<stop stop-color="#FFBA0D"/>
<stop offset="1" stop-color="#FFBA0D" stop-opacity="0"/>
</radialGradient>
<radialGradient id="paint39_radial_69_4039" cx="0" cy="0" r="1" gradientUnits="userSpaceOnUse" gradientTransform="translate(32.8865 27.2986) rotate(-90) scale(2.17719 2.70753)">
<stop stop-color="#EE911A"/>
<stop offset="1" stop-color="#EE911A" stop-opacity="0"/>
</radialGradient>
<radialGradient id="paint40_radial_69_4039" cx="0" cy="0" r="1" gradientUnits="userSpaceOnUse" gradientTransform="translate(42.1293 17.2685) rotate(127.807) scale(8.7756 14.9237)">
<stop stop-color="#FFE336"/>
<stop offset="1" stop-color="#FFE336" stop-opacity="0"/>
</radialGradient>
<linearGradient id="paint41_linear_69_4039" x1="28.7405" y1="28.9235" x2="33.2831" y2="20.8543" gradientUnits="userSpaceOnUse">
<stop stop-color="#E07027"/>
<stop offset="1" stop-color="#E07027" stop-opacity="0"/>
</linearGradient>
<radialGradient id="paint42_radial_69_4039" cx="0" cy="0" r="1" gradientUnits="userSpaceOnUse" gradientTransform="translate(29.8745 23.646) rotate(-95.29) scale(3.1323 1.53834)">
<stop offset="0.222" stop-color="#FFB42C"/>
<stop offset="1" stop-color="#FFB42C" stop-opacity="0"/>
</radialGradient>
<radialGradient id="paint43_radial_69_4039" cx="0" cy="0" r="1" gradientUnits="userSpaceOnUse" gradientTransform="translate(42.9654 26.6214) rotate(-66.4) scale(3.35917 2.73968)">
<stop offset="0.479" stop-color="#E57D1C"/>
<stop offset="1" stop-color="#E57D1C" stop-opacity="0"/>
</radialGradient>
<radialGradient id="paint44_radial_69_4039" cx="0" cy="0" r="1" gradientUnits="userSpaceOnUse" gradientTransform="translate(35.135 15.8786) rotate(51.134) scale(2.47657 2.18663)">
<stop stop-color="#FFCE2C"/>
<stop offset="1" stop-color="#FFCE2C" stop-opacity="0"/>
</radialGradient>
<radialGradient id="paint45_radial_69_4039" cx="0" cy="0" r="1" gradientUnits="userSpaceOnUse" gradientTransform="translate(42.9063 22.7364) rotate(-64.4528) scale(5.26674 1.81972)">
<stop stop-color="#FFD93A"/>
<stop offset="1" stop-color="#FFD93A" stop-opacity="0"/>
</radialGradient>
<radialGradient id="paint46_radial_69_4039" cx="0" cy="0" r="1" gradientUnits="userSpaceOnUse" gradientTransform="translate(37.4384 15.8773) rotate(75.5691) scale(1.64043 2.69695)">
<stop offset="0.208" stop-color="#DDB13B"/>
<stop offset="1" stop-color="#FFC926" stop-opacity="0"/>
</radialGradient>
<radialGradient id="paint47_radial_69_4039" cx="0" cy="0" r="1" gradientUnits="userSpaceOnUse" gradientTransform="translate(29.4899 17.8513) rotate(55.305) scale(3.04414 6.33482)">
<stop offset="0.288" stop-color="#C9993E"/>
<stop offset="1" stop-color="#F29322" stop-opacity="0"/>
</radialGradient>
<radialGradient id="paint48_radial_69_4039" cx="0" cy="0" r="1" gradientUnits="userSpaceOnUse" gradientTransform="translate(38.1538 22.5107) rotate(155.748) scale(12.3742 15.4837)">
<stop offset="0.756" stop-color="#CF7D35" stop-opacity="0"/>
<stop offset="0.959" stop-color="#CF7D35"/>
</radialGradient>
<linearGradient id="paint49_linear_69_4039" x1="34.9974" y1="30.9828" x2="36.4648" y2="30.9828" gradientUnits="userSpaceOnUse">
<stop stop-color="#FAA416"/>
<stop offset="1" stop-color="#FAA416" stop-opacity="0"/>
</linearGradient>
<linearGradient id="paint50_linear_69_4039" x1="37.8179" y1="31.4881" x2="36.2128" y2="31.4645" gradientUnits="userSpaceOnUse">
<stop stop-color="#FFE721"/>
<stop offset="1" stop-color="#FFE721" stop-opacity="0"/>
</linearGradient>
<linearGradient id="paint51_linear_69_4039" x1="36.6538" y1="32.6497" x2="36.6538" y2="31.7532" gradientUnits="userSpaceOnUse">
<stop stop-color="#EB8A1C"/>
<stop offset="1" stop-color="#EB8A1C" stop-opacity="0"/>
</linearGradient>
<linearGradient id="paint52_linear_69_4039" x1="36.5461" y1="32.7153" x2="36.5461" y2="32.4528" gradientUnits="userSpaceOnUse">
<stop stop-color="#E88613"/>
<stop offset="1" stop-color="#E88613" stop-opacity="0"/>
</linearGradient>
<radialGradient id="paint53_radial_69_4039" cx="0" cy="0" r="1" gradientUnits="userSpaceOnUse" gradientTransform="translate(36.2155 35.6226) rotate(-87.7541) scale(0.982648 2.94792)">
<stop stop-color="#FFD069"/>
<stop offset="1" stop-color="#FFBE30" stop-opacity="0"/>
</radialGradient>
<radialGradient id="paint54_radial_69_4039" cx="0" cy="0" r="1" gradientUnits="userSpaceOnUse" gradientTransform="translate(39.7588 28.7949) rotate(90) scale(1.41313 1.6721)">
<stop offset="0.75" stop-color="#925C51"/>
<stop offset="1" stop-color="#85534D"/>
</radialGradient>
<radialGradient id="paint55_radial_69_4039" cx="0" cy="0" r="1" gradientUnits="userSpaceOnUse" gradientTransform="translate(39.4019 28.4051) rotate(-127.812) scale(0.592015 0.815057)">
<stop offset="0.766" stop-color="#FFE6E2" stop-opacity="0"/>
<stop offset="0.966" stop-color="#FFE6E2"/>
</radialGradient>
<linearGradient id="paint56_linear_69_4039" x1="40.9772" y1="28.3579" x2="40.4863" y2="28.661" gradientUnits="userSpaceOnUse">
<stop stop-color="#B4948D"/>
<stop offset="1" stop-color="#B4948D" stop-opacity="0"/>
</linearGradient>
<radialGradient id="paint57_radial_69_4039" cx="0" cy="0" r="1" gradientUnits="userSpaceOnUse" gradientTransform="translate(32.9304 28.7949) rotate(90) scale(1.41319 1.67219)">
<stop offset="0.75" stop-color="#925C51"/>
<stop offset="1" stop-color="#85534D"/>
</radialGradient>
<linearGradient id="paint58_linear_69_4039" x1="34.0946" y1="28.3579" x2="33.6038" y2="28.6611" gradientUnits="userSpaceOnUse">
<stop stop-color="#B4948D"/>
<stop offset="1" stop-color="#B4948D" stop-opacity="0"/>
</linearGradient>
<radialGradient id="paint59_radial_69_4039" cx="0" cy="0" r="1" gradientUnits="userSpaceOnUse" gradientTransform="translate(32.7155 28.5701) rotate(-118.811) scale(0.773327 0.929574)">
<stop offset="0.766" stop-color="#FFE6E2" stop-opacity="0"/>
<stop offset="0.966" stop-color="#FFE6E2"/>
</radialGradient>
<radialGradient id="paint60_radial_69_4039" cx="0" cy="0" r="1" gradientUnits="userSpaceOnUse" gradientTransform="translate(40.187 25.8995) rotate(-76.373) scale(1.30749 2.86843)">
<stop offset="0.657" stop-color="#C64F38"/>
<stop offset="1" stop-color="#BB4F29"/>
</radialGradient>
<radialGradient id="paint61_radial_69_4039" cx="0" cy="0" r="1" gradientUnits="userSpaceOnUse" gradientTransform="translate(32.5128 25.8995) rotate(-103.627) scale(1.30749 2.86844)">
<stop offset="0.657" stop-color="#C64F38"/>
<stop offset="1" stop-color="#BB4F29"/>
</radialGradient>
</defs>
</svg>
