<svg width="281" height="241" viewBox="0 0 281 241" fill="none" xmlns="http://www.w3.org/2000/svg">
<g clip-path="url(#clip0_44_669)">
<path d="M236.95 71.8953C236.95 71.8953 227.469 33.819 170.072 9.80614C112.675 -14.2068 61.3249 8.03345 49.6184 36.1714C37.912 64.3093 50.1804 79.5038 42.3686 103.534C34.5568 127.563 -5.57559 157.997 10.6213 194.903C26.8181 231.809 102.609 242.349 163.94 234.735C225.272 227.121 273.188 142.769 236.95 71.8953Z" fill="#1A4199"/>
<path opacity="0.7" d="M236.95 71.8953C236.95 71.8953 227.469 33.819 170.072 9.80614C112.675 -14.2068 61.3249 8.03345 49.6184 36.1714C37.912 64.3093 50.1804 79.5038 42.3686 103.534C34.5568 127.563 -5.57559 157.997 10.6213 194.903C26.8181 231.809 102.609 242.349 163.94 234.735C225.272 227.121 273.188 142.769 236.95 71.8953Z" fill="white"/>
<path d="M86.0343 41.2881H30.8522C29.0889 41.2881 27.3978 41.8821 26.151 42.9396C24.9042 43.997 24.2037 45.4312 24.2037 46.9266V64.4059C24.2037 65.9014 24.9042 67.3355 26.151 68.393C27.3978 69.4504 29.0889 70.0444 30.8522 70.0444H85.7019L92.6827 77.9383V46.9266C92.6827 45.4312 91.9823 43.997 90.7354 42.9396C89.4886 41.8821 87.7976 41.2881 86.0343 41.2881Z" fill="#263238"/>
<path d="M166.295 42.1254C166.295 42.1254 164.216 41.3881 163.744 43.2509C163.272 45.1136 166.026 45.8058 166.363 45.8058C166.7 45.8058 167.234 45.3387 166.897 44.2638C166.559 43.189 166.295 42.1254 166.295 42.1254Z" fill="#263238" stroke="#263238" stroke-linecap="round" stroke-linejoin="round"/>
<path d="M178.097 37.5557C178.097 37.5557 177.895 40.2457 177.895 41.3205C177.895 42.3954 179.019 42.8006 179.581 42.8006C180.143 42.8006 180.39 44.078 180.053 45.423C179.716 46.768 178.575 47.5728 175.821 47.5728C173.067 47.5728 171.393 46.3628 171.325 45.4906C171.258 44.6183 171.927 40.8478 173.073 39.863C174.22 38.8781 178.097 37.5557 178.097 37.5557Z" fill="#263238" stroke="#263238" stroke-linecap="round" stroke-linejoin="round"/>
<path d="M168.043 45.8226V46.8637C168.043 47.0275 168.091 47.1878 168.179 47.3254C168.268 47.4631 168.394 47.5724 168.543 47.6403C169.026 47.8446 169.538 47.9682 170.061 48.0061C171.113 48.0063 172.153 47.7758 173.107 47.3308C173.239 47.2744 173.351 47.1802 173.43 47.0601C173.509 46.94 173.551 46.7993 173.551 46.6555V45.5693C173.549 45.5031 173.532 45.4382 173.5 45.3803C173.468 45.3224 173.422 45.2732 173.367 45.2371C173.311 45.201 173.248 45.1791 173.182 45.1732C173.116 45.1674 173.05 45.1778 172.989 45.2036L172.77 45.3161C172.77 45.3161 169.454 45.7382 168.043 45.8226Z" fill="#1A4199" stroke="#263238" stroke-linecap="round" stroke-linejoin="round"/>
<path d="M166.571 37.0154C166.203 38.4938 165.955 39.9993 165.829 41.5175C165.627 44.0049 165.829 46.2897 166.835 46.3572C167.525 46.3585 168.201 46.1633 168.785 45.7945C168.785 45.7945 171.134 46.0646 171.938 45.665L172.747 45.2598L173.348 41.3205C173.348 41.3205 173.416 35.2033 172.275 34.7982C171.134 34.393 166.571 37.0154 166.571 37.0154Z" fill="white" stroke="#263238" stroke-linecap="round" stroke-linejoin="round"/>
<path d="M168.38 39.7729L167.846 41.1855C167.846 41.1855 166.767 41.4556 166.902 41.9902C167.037 42.5248 167.751 42.4461 167.751 42.4461" stroke="#263238" stroke-linecap="round" stroke-linejoin="round"/>
<path d="M170.106 40.3863C169.999 40.679 169.78 40.8703 169.628 40.814C169.476 40.7578 169.431 40.4707 169.544 40.1725C169.656 39.8742 169.87 39.6829 170.027 39.7448C170.184 39.8067 170.229 40.1106 170.106 40.3863Z" fill="#263238"/>
<path d="M167.577 39.7054C167.464 40.0036 167.251 40.195 167.093 40.1387C166.936 40.0824 166.902 39.7898 167.009 39.4971C167.116 39.2045 167.335 39.0075 167.492 39.0638C167.65 39.1201 167.683 39.4127 167.577 39.7054Z" fill="#263238"/>
<path d="M169.589 38.4955C169.589 38.4955 170.864 38.1578 170.999 39.3734" stroke="#263238" stroke-linecap="round" stroke-linejoin="round"/>
<path d="M167.914 38.1579C167.914 38.1579 166.79 37.7584 166.436 38.7207" stroke="#263238" stroke-linecap="round" stroke-linejoin="round"/>
<path d="M168.785 45.8227L170.595 45.0854" stroke="#263238" stroke-linecap="round" stroke-linejoin="round"/>
<path d="M167.419 33.9203C167.419 33.9203 165.273 31.3654 163.66 33.245C162.047 35.1246 162.536 37.9553 165.407 38.0904C168.279 38.2254 171.516 35.4004 171.516 35.4004C171.516 35.4004 171.179 39.0977 171.983 40.3752C172.786 41.6526 173.393 42.5249 173.393 42.5249C173.393 42.5249 174.517 43.2621 176.417 41.7877C178.317 40.3133 178.766 36.7229 177.423 34.3199C176.08 31.9169 173.731 30.555 170.909 31.5061C168.088 32.4572 167.419 33.9203 167.419 33.9203Z" fill="#263238" stroke="#263238" stroke-linecap="round" stroke-linejoin="round"/>
<path d="M172.073 42.4629C172.073 42.4629 174.489 40.2456 174.489 41.5231C174.489 42.8005 173.365 43.9429 172.477 43.6728" fill="white"/>
<path d="M172.073 42.4629C172.073 42.4629 174.489 40.2456 174.489 41.5231C174.489 42.8005 173.365 43.9429 172.477 43.6728" stroke="#263238" stroke-linecap="round" stroke-linejoin="round"/>
<path d="M166.902 43.4871C167.22 43.716 167.601 43.8392 167.993 43.8392C168.384 43.8392 168.765 43.716 169.083 43.4871" stroke="#263238" stroke-linecap="round" stroke-linejoin="round"/>
<path d="M179.374 47.7365C183.665 43.1636 183.442 35.973 178.875 31.6758C174.309 27.3786 167.128 27.6021 162.836 32.1749C158.545 36.7478 158.768 43.9384 163.335 48.2356C167.901 52.5328 175.082 52.3094 179.374 47.7365Z" stroke="#263238" stroke-linecap="round" stroke-linejoin="round"/>
<path d="M248.322 132.385C254.772 130.875 258.778 124.415 257.27 117.957C255.762 111.498 249.311 107.487 242.861 108.997C236.411 110.507 232.405 116.967 233.913 123.425C235.421 129.883 241.872 133.895 248.322 132.385Z" stroke="#263238" stroke-linecap="round" stroke-linejoin="round"/>
<path d="M249.685 124.232C249.685 125.022 249.451 125.794 249.012 126.452C248.574 127.109 247.951 127.621 247.222 127.923C246.493 128.226 245.69 128.305 244.916 128.15C244.142 127.996 243.431 127.616 242.873 127.057C242.315 126.498 241.935 125.786 241.781 125.011C241.627 124.236 241.706 123.433 242.008 122.703C242.31 121.973 242.822 121.349 243.478 120.909C244.134 120.47 244.905 120.236 245.695 120.236C246.753 120.236 247.768 120.657 248.516 121.406C249.264 122.156 249.685 123.172 249.685 124.232Z" fill="#1A4199" stroke="#263238" stroke-linecap="round" stroke-linejoin="round"/>
<path d="M251.399 126.894C252.26 125.818 252.8 124.52 252.956 123.151C253.113 121.781 252.88 120.395 252.284 119.152C251.688 117.91 250.753 116.861 249.588 116.127C248.423 115.393 247.074 115.003 245.697 115.003C244.321 115.003 242.972 115.393 241.807 116.127C240.642 116.861 239.707 117.91 239.111 119.152C238.515 120.395 238.282 121.781 238.439 123.151C238.595 124.52 239.135 125.818 239.996 126.894H251.399Z" fill="white" stroke="#263238" stroke-linecap="round" stroke-linejoin="round"/>
<path d="M248.544 124.823H242.666C242.322 124.823 241.981 124.755 241.663 124.623C241.346 124.491 241.057 124.298 240.814 124.054C240.571 123.811 240.378 123.522 240.246 123.204C240.114 122.885 240.047 122.544 240.047 122.2C240.046 121.855 240.113 121.514 240.244 121.196C240.376 120.877 240.569 120.588 240.812 120.344C241.055 120.1 241.344 119.907 241.662 119.776C241.981 119.644 242.321 119.577 242.666 119.578H248.544C248.888 119.577 249.229 119.644 249.547 119.776C249.865 119.907 250.154 120.1 250.398 120.344C250.641 120.588 250.834 120.877 250.965 121.196C251.096 121.514 251.164 121.855 251.163 122.2C251.163 122.896 250.887 123.563 250.396 124.054C249.905 124.546 249.239 124.823 248.544 124.823Z" fill="#1A4199" stroke="#263238" stroke-linecap="round" stroke-linejoin="round"/>
<path d="M241.249 121.986C241.37 121.649 241.589 121.355 241.879 121.145C242.169 120.934 242.516 120.816 242.874 120.807C243.232 120.797 243.584 120.896 243.885 121.09C244.186 121.285 244.421 121.566 244.559 121.896" stroke="#263238" stroke-width="2" stroke-linecap="round" stroke-linejoin="round"/>
<path d="M246.746 121.986C246.866 121.649 247.086 121.355 247.375 121.145C247.665 120.934 248.012 120.816 248.37 120.807C248.728 120.797 249.08 120.896 249.381 121.09C249.682 121.285 249.917 121.566 250.056 121.896" stroke="#263238" stroke-width="2" stroke-linecap="round" stroke-linejoin="round"/>
<path d="M244.734 123.202C244.76 123.449 244.877 123.678 245.061 123.845C245.246 124.011 245.486 124.103 245.734 124.103C245.982 124.103 246.222 124.011 246.407 123.845C246.591 123.678 246.708 123.449 246.734 123.202H244.734Z" fill="white" stroke="#263238" stroke-linecap="round" stroke-linejoin="round"/>
<path d="M255.142 123.618C255.042 123.618 254.942 123.598 254.849 123.56C254.757 123.522 254.672 123.465 254.601 123.394C254.53 123.323 254.474 123.239 254.436 123.146C254.397 123.053 254.378 122.953 254.378 122.853V121.114C254.378 121.013 254.397 120.914 254.436 120.821C254.474 120.728 254.53 120.644 254.601 120.573C254.672 120.502 254.757 120.445 254.849 120.407C254.942 120.368 255.042 120.349 255.142 120.349C255.242 120.349 255.342 120.368 255.434 120.407C255.527 120.445 255.611 120.502 255.682 120.573C255.753 120.644 255.81 120.728 255.848 120.821C255.886 120.914 255.906 121.013 255.906 121.114V122.836C255.908 122.938 255.89 123.039 255.853 123.134C255.816 123.229 255.76 123.315 255.688 123.388C255.617 123.461 255.532 123.519 255.438 123.558C255.344 123.598 255.244 123.618 255.142 123.618Z" fill="#263238" stroke="#263238" stroke-linecap="round" stroke-linejoin="round"/>
<path d="M236.045 123.618C235.945 123.618 235.845 123.598 235.753 123.56C235.66 123.522 235.576 123.465 235.505 123.394C235.434 123.323 235.377 123.239 235.339 123.146C235.301 123.053 235.281 122.953 235.281 122.853V121.114C235.281 121.013 235.301 120.914 235.339 120.821C235.377 120.728 235.434 120.644 235.505 120.573C235.576 120.502 235.66 120.445 235.753 120.407C235.845 120.368 235.945 120.349 236.045 120.349C236.146 120.349 236.245 120.368 236.338 120.407C236.43 120.445 236.515 120.502 236.586 120.573C236.657 120.644 236.713 120.728 236.751 120.821C236.79 120.914 236.81 121.013 236.81 121.114V122.836C236.812 122.938 236.794 123.039 236.756 123.134C236.719 123.229 236.663 123.315 236.592 123.388C236.521 123.461 236.435 123.519 236.342 123.558C236.248 123.598 236.147 123.618 236.045 123.618Z" fill="#263238" stroke="#263238" stroke-linecap="round" stroke-linejoin="round"/>
<path d="M237.456 121.221C237.244 121.22 237.041 121.134 236.891 120.983C236.742 120.833 236.658 120.629 236.658 120.416V119.156C236.655 117.79 237.063 116.455 237.827 115.323C237.882 115.227 237.956 115.143 238.045 115.076C238.133 115.01 238.235 114.963 238.343 114.938C238.451 114.913 238.563 114.91 238.672 114.93C238.781 114.951 238.884 114.993 238.976 115.055C239.068 115.118 239.146 115.198 239.205 115.292C239.264 115.386 239.303 115.491 239.32 115.601C239.336 115.711 239.33 115.823 239.301 115.93C239.273 116.037 239.222 116.137 239.153 116.224C238.569 117.089 238.257 118.111 238.259 119.156V120.416C238.259 120.63 238.175 120.834 238.024 120.985C237.873 121.136 237.669 121.221 237.456 121.221Z" fill="#263238"/>
<path d="M252.978 116.179C252.912 116.179 252.847 116.163 252.789 116.131C252.731 116.1 252.682 116.054 252.647 115.999C252.131 115.229 251.435 114.599 250.618 114.165C249.801 113.73 248.89 113.503 247.965 113.506H243.503C242.578 113.503 241.667 113.73 240.85 114.165C240.033 114.599 239.337 115.229 238.821 115.999C238.761 116.087 238.668 116.149 238.563 116.169C238.457 116.189 238.348 116.166 238.259 116.106C238.215 116.076 238.177 116.038 238.147 115.994C238.118 115.949 238.097 115.899 238.087 115.847C238.077 115.794 238.078 115.74 238.089 115.688C238.1 115.636 238.122 115.587 238.153 115.543C238.742 114.666 239.538 113.947 240.47 113.45C241.402 112.954 242.441 112.694 243.497 112.695H247.96C249.017 112.695 250.058 112.955 250.991 113.452C251.924 113.95 252.72 114.67 253.31 115.549C253.34 115.593 253.361 115.642 253.372 115.695C253.383 115.747 253.383 115.801 253.373 115.854C253.362 115.906 253.341 115.956 253.311 116C253.281 116.045 253.242 116.082 253.197 116.111C253.132 116.154 253.056 116.178 252.978 116.179Z" fill="#263238"/>
<path d="M254.012 121.221C253.799 121.221 253.595 121.136 253.444 120.985C253.293 120.834 253.209 120.63 253.209 120.416V119.156C253.211 118.111 252.899 117.089 252.315 116.224C252.248 116.136 252.199 116.036 252.173 115.93C252.146 115.823 252.141 115.712 252.159 115.603C252.176 115.494 252.216 115.39 252.276 115.298C252.335 115.205 252.413 115.126 252.504 115.064C252.595 115.003 252.698 114.961 252.806 114.941C252.915 114.921 253.026 114.924 253.133 114.949C253.24 114.973 253.341 115.02 253.429 115.085C253.518 115.151 253.592 115.234 253.647 115.329C254.409 116.459 254.815 117.792 254.81 119.156V120.416C254.81 120.629 254.726 120.832 254.577 120.983C254.427 121.134 254.224 121.219 254.012 121.221Z" fill="#263238"/>
<path d="M237.557 124.755C237.137 124.755 236.733 124.588 236.436 124.29C236.139 123.993 235.972 123.589 235.972 123.168V120.647C235.972 120.226 236.139 119.822 236.436 119.525C236.733 119.227 237.137 119.06 237.557 119.06C237.977 119.06 238.38 119.227 238.678 119.525C238.975 119.822 239.142 120.226 239.142 120.647V123.168C239.142 123.589 238.975 123.993 238.678 124.29C238.38 124.588 237.977 124.755 237.557 124.755Z" fill="white" stroke="#263238" stroke-linecap="round" stroke-linejoin="round"/>
<path d="M237.72 119.06H237.394V124.755H237.72V119.06Z" fill="#1A4199" stroke="#263238" stroke-linecap="round" stroke-linejoin="round"/>
<path d="M255.305 120.647C255.305 119.771 254.595 119.06 253.72 119.06C252.845 119.06 252.135 119.771 252.135 120.647V123.168C252.135 124.045 252.845 124.755 253.72 124.755C254.595 124.755 255.305 124.045 255.305 123.168V120.647Z" fill="white" stroke="#263238" stroke-linecap="round" stroke-linejoin="round"/>
<path d="M253.883 119.06H253.557V124.755H253.883V119.06Z" fill="#1A4199" stroke="#263238" stroke-linecap="round" stroke-linejoin="round"/>
<path d="M245.723 118.542C246.281 118.54 246.83 118.399 247.321 118.132C247.811 117.865 248.228 117.48 248.533 117.012L249.224 115.937C248.128 115.329 246.895 115.016 245.642 115.025C244.39 115.035 243.161 115.369 242.075 115.993L243.11 117.287C243.425 117.678 243.823 117.993 244.275 118.21C244.727 118.427 245.221 118.541 245.723 118.542Z" fill="#1A4199" stroke="#263238" stroke-linecap="round" stroke-linejoin="round"/>
<path d="M245.779 125.47C245.844 125.47 245.897 125.417 245.897 125.352C245.897 125.286 245.844 125.233 245.779 125.233C245.714 125.233 245.661 125.286 245.661 125.352C245.661 125.417 245.714 125.47 245.779 125.47Z" fill="#263238"/>
<path d="M245.897 125.762C245.896 125.732 245.883 125.703 245.861 125.682C245.839 125.661 245.809 125.65 245.779 125.65C245.764 125.649 245.749 125.651 245.734 125.657C245.72 125.662 245.707 125.67 245.696 125.681C245.685 125.691 245.676 125.704 245.67 125.718C245.664 125.732 245.661 125.747 245.661 125.762C245.661 125.794 245.673 125.824 245.696 125.846C245.718 125.868 245.748 125.881 245.779 125.881C245.81 125.881 245.84 125.868 245.862 125.846C245.885 125.824 245.897 125.794 245.897 125.762Z" fill="#263238"/>
<path d="M245.431 125.701C245.46 125.692 245.485 125.671 245.5 125.644C245.515 125.616 245.518 125.584 245.509 125.554C245.498 125.525 245.476 125.501 245.448 125.486C245.42 125.472 245.388 125.468 245.358 125.476C245.328 125.485 245.303 125.505 245.288 125.532C245.273 125.56 245.27 125.592 245.279 125.622C245.29 125.651 245.312 125.675 245.34 125.69C245.368 125.704 245.4 125.708 245.431 125.701Z" fill="#263238"/>
<path d="M246.167 125.701C246.196 125.691 246.221 125.671 246.236 125.644C246.251 125.616 246.254 125.584 246.245 125.554C246.235 125.524 246.214 125.499 246.185 125.484C246.157 125.47 246.124 125.466 246.094 125.475C246.079 125.48 246.065 125.487 246.054 125.497C246.042 125.507 246.032 125.519 246.026 125.533C246.019 125.547 246.015 125.561 246.014 125.577C246.013 125.592 246.015 125.607 246.021 125.622C246.03 125.652 246.05 125.676 246.078 125.691C246.105 125.706 246.137 125.709 246.167 125.701Z" fill="#263238"/>
<path d="M230.858 59.3288H186.14V39.379V34.0891L191.428 39.379H230.858V59.3288Z" fill="#D6D6D6" stroke="#263238" stroke-linecap="round" stroke-linejoin="round"/>
<path d="M230.858 88.2265H186.14V68.2824V62.9924L191.428 68.2824H230.858V88.2265Z" fill="#D6D6D6" stroke="#263238" stroke-linecap="round" stroke-linejoin="round"/>
<path d="M215.999 46.2446H226.525" stroke="#263238" stroke-linecap="round" stroke-linejoin="round"/>
<path d="M201.269 46.2446H213.295" stroke="#263238" stroke-linecap="round" stroke-linejoin="round"/>
<path d="M192.249 46.2446H199.161" stroke="#263238" stroke-linecap="round" stroke-linejoin="round"/>
<path d="M211.188 49.5593H226.525" stroke="#263238" stroke-linecap="round" stroke-linejoin="round"/>
<path d="M192.249 49.5593H208.485" stroke="#263238" stroke-linecap="round" stroke-linejoin="round"/>
<path d="M223.518 52.8684H226.525" stroke="#263238" stroke-linecap="round" stroke-linejoin="round"/>
<path d="M206.681 52.8684H221.113" stroke="#263238" stroke-linecap="round" stroke-linejoin="round"/>
<path d="M192.249 52.8684H204.275" stroke="#263238" stroke-linecap="round" stroke-linejoin="round"/>
<path d="M215.999 74.2419H226.525" stroke="#263238" stroke-linecap="round" stroke-linejoin="round"/>
<path d="M201.269 74.2419H213.295" stroke="#263238" stroke-linecap="round" stroke-linejoin="round"/>
<path d="M192.249 74.2419H199.161" stroke="#263238" stroke-linecap="round" stroke-linejoin="round"/>
<path d="M211.188 77.5566H226.525" stroke="#263238" stroke-linecap="round" stroke-linejoin="round"/>
<path d="M192.249 77.5566H208.485" stroke="#263238" stroke-linecap="round" stroke-linejoin="round"/>
<path d="M223.518 80.8655H226.525" stroke="#263238" stroke-linecap="round" stroke-linejoin="round"/>
<path d="M206.681 80.8655H221.113" stroke="#263238" stroke-linecap="round" stroke-linejoin="round"/>
<path d="M192.249 80.8655H204.275" stroke="#263238" stroke-linecap="round" stroke-linejoin="round"/>
<path d="M186.14 169.494H230.858V121.249V115.959L225.569 121.249H186.14V169.494Z" fill="#1A4199" stroke="white" stroke-linecap="round" stroke-linejoin="round"/>
<path d="M215.999 127.833H226.525" stroke="white" stroke-linecap="round" stroke-linejoin="round"/>
<path d="M201.269 127.833H213.295" stroke="white" stroke-linecap="round" stroke-linejoin="round"/>
<path d="M192.249 127.833H199.161" stroke="white" stroke-linecap="round" stroke-linejoin="round"/>
<path d="M211.188 131.142H226.525" stroke="white" stroke-linecap="round" stroke-linejoin="round"/>
<path d="M192.249 131.142H208.485" stroke="white" stroke-linecap="round" stroke-linejoin="round"/>
<path d="M223.518 134.457H226.525" stroke="white" stroke-linecap="round" stroke-linejoin="round"/>
<path d="M206.681 134.457H221.113" stroke="white" stroke-linecap="round" stroke-linejoin="round"/>
<path d="M192.249 134.457H204.275" stroke="white" stroke-linecap="round" stroke-linejoin="round"/>
<path d="M215.999 137.164H226.525" stroke="white" stroke-linecap="round" stroke-linejoin="round"/>
<path d="M201.269 137.164H213.295" stroke="white" stroke-linecap="round" stroke-linejoin="round"/>
<path d="M192.249 137.164H199.161" stroke="white" stroke-linecap="round" stroke-linejoin="round"/>
<path d="M211.188 140.479H226.525" stroke="white" stroke-linecap="round" stroke-linejoin="round"/>
<path d="M192.249 140.479H208.485" stroke="white" stroke-linecap="round" stroke-linejoin="round"/>
<path d="M223.518 143.788H226.525" stroke="white" stroke-linecap="round" stroke-linejoin="round"/>
<path d="M206.681 143.788H221.113" stroke="white" stroke-linecap="round" stroke-linejoin="round"/>
<path d="M192.249 143.788H204.275" stroke="white" stroke-linecap="round" stroke-linejoin="round"/>
<path d="M215.999 146.5H226.525" stroke="white" stroke-linecap="round" stroke-linejoin="round"/>
<path d="M201.269 146.5H213.295" stroke="white" stroke-linecap="round" stroke-linejoin="round"/>
<path d="M192.249 146.5H199.161" stroke="white" stroke-linecap="round" stroke-linejoin="round"/>
<path d="M211.188 149.809H226.525" stroke="white" stroke-linecap="round" stroke-linejoin="round"/>
<path d="M192.249 149.809H208.485" stroke="white" stroke-linecap="round" stroke-linejoin="round"/>
<path d="M223.518 153.124H226.525" stroke="white" stroke-linecap="round" stroke-linejoin="round"/>
<path d="M206.681 153.124H221.113" stroke="white" stroke-linecap="round" stroke-linejoin="round"/>
<path d="M192.249 153.124H204.275" stroke="white" stroke-linecap="round" stroke-linejoin="round"/>
<path d="M215.999 155.831H226.525" stroke="white" stroke-linecap="round" stroke-linejoin="round"/>
<path d="M201.269 155.831H213.295" stroke="white" stroke-linecap="round" stroke-linejoin="round"/>
<path d="M192.249 155.831H199.161" stroke="white" stroke-linecap="round" stroke-linejoin="round"/>
<path d="M211.188 159.145H226.525" stroke="white" stroke-linecap="round" stroke-linejoin="round"/>
<path d="M192.249 159.145H208.485" stroke="white" stroke-linecap="round" stroke-linejoin="round"/>
<path d="M223.518 162.454H226.525" stroke="white" stroke-linecap="round" stroke-linejoin="round"/>
<path d="M206.681 162.454H221.113" stroke="white" stroke-linecap="round" stroke-linejoin="round"/>
<path d="M192.249 162.454H204.275" stroke="white" stroke-linecap="round" stroke-linejoin="round"/>
<path d="M245.594 196.321C252.217 196.321 257.587 190.944 257.587 184.312C257.587 177.679 252.217 172.302 245.594 172.302C238.97 172.302 233.6 177.679 233.6 184.312C233.6 190.944 238.97 196.321 245.594 196.321Z" stroke="#263238" stroke-linecap="round" stroke-linejoin="round"/>
<path d="M249.685 187.852C249.686 188.642 249.453 189.415 249.015 190.073C248.577 190.731 247.955 191.244 247.226 191.547C246.497 191.85 245.694 191.93 244.92 191.777C244.145 191.623 243.434 191.243 242.875 190.684C242.317 190.126 241.936 189.414 241.782 188.639C241.627 187.864 241.706 187.06 242.008 186.329C242.31 185.599 242.821 184.975 243.477 184.535C244.134 184.096 244.905 183.862 245.695 183.862C246.752 183.862 247.766 184.282 248.514 185.03C249.262 185.778 249.683 186.793 249.685 187.852Z" fill="#1A4199" stroke="#263238" stroke-linecap="round" stroke-linejoin="round"/>
<path d="M251.399 190.514C252.26 189.438 252.8 188.14 252.956 186.771C253.113 185.401 252.88 184.015 252.284 182.772C251.688 181.53 250.753 180.481 249.588 179.747C248.423 179.013 247.074 178.623 245.697 178.623C244.321 178.623 242.972 179.013 241.807 179.747C240.642 180.481 239.707 181.53 239.111 182.772C238.515 184.015 238.282 185.401 238.439 186.771C238.595 188.14 239.135 189.438 239.996 190.514H251.399Z" fill="white" stroke="#263238" stroke-linecap="round" stroke-linejoin="round"/>
<path d="M248.544 188.442H242.666C242.322 188.442 241.981 188.375 241.663 188.243C241.346 188.111 241.057 187.918 240.814 187.674C240.57 187.431 240.378 187.142 240.246 186.824C240.114 186.505 240.047 186.164 240.047 185.82C240.047 185.476 240.114 185.135 240.246 184.816C240.378 184.498 240.57 184.209 240.814 183.966C241.057 183.722 241.346 183.529 241.663 183.397C241.981 183.265 242.322 183.198 242.666 183.198H248.544C248.888 183.198 249.229 183.265 249.546 183.397C249.864 183.529 250.153 183.722 250.396 183.966C250.639 184.209 250.832 184.498 250.964 184.816C251.095 185.135 251.163 185.476 251.163 185.82C251.163 186.515 250.887 187.183 250.396 187.674C249.905 188.166 249.239 188.442 248.544 188.442Z" fill="#1A4199" stroke="#263238" stroke-linecap="round" stroke-linejoin="round"/>
<path d="M241.249 185.606C241.37 185.268 241.589 184.975 241.879 184.765C242.169 184.554 242.516 184.436 242.874 184.426C243.232 184.417 243.584 184.516 243.885 184.71C244.186 184.904 244.421 185.185 244.559 185.516" stroke="#263238" stroke-width="2" stroke-linecap="round" stroke-linejoin="round"/>
<path d="M246.746 185.606C246.866 185.268 247.086 184.975 247.375 184.765C247.665 184.554 248.012 184.436 248.37 184.426C248.728 184.417 249.08 184.516 249.381 184.71C249.682 184.904 249.917 185.185 250.056 185.516" stroke="#263238" stroke-width="2" stroke-linecap="round" stroke-linejoin="round"/>
<path d="M244.734 186.822C244.76 187.069 244.877 187.298 245.061 187.464C245.246 187.631 245.486 187.723 245.734 187.723C245.982 187.723 246.222 187.631 246.407 187.464C246.591 187.298 246.708 187.069 246.734 186.822H244.734Z" fill="white" stroke="#263238" stroke-linecap="round" stroke-linejoin="round"/>
<path d="M255.142 187.238C254.939 187.238 254.745 187.157 254.601 187.014C254.458 186.87 254.378 186.676 254.378 186.473V184.739C254.378 184.536 254.458 184.342 254.601 184.198C254.745 184.055 254.939 183.974 255.142 183.974C255.345 183.974 255.539 184.055 255.682 184.198C255.826 184.342 255.906 184.536 255.906 184.739V186.478C255.905 186.68 255.824 186.874 255.68 187.016C255.537 187.158 255.344 187.238 255.142 187.238Z" fill="#263238" stroke="#263238" stroke-linecap="round" stroke-linejoin="round"/>
<path d="M236.045 187.238C235.842 187.238 235.648 187.157 235.505 187.014C235.361 186.87 235.281 186.676 235.281 186.473V184.739C235.281 184.536 235.361 184.342 235.505 184.198C235.648 184.055 235.842 183.974 236.045 183.974C236.248 183.974 236.442 184.055 236.586 184.198C236.729 184.342 236.81 184.536 236.81 184.739V186.478C236.808 186.68 236.727 186.874 236.584 187.016C236.441 187.158 236.247 187.238 236.045 187.238Z" fill="#263238" stroke="#263238" stroke-linecap="round" stroke-linejoin="round"/>
<path d="M237.456 184.846C237.244 184.845 237.041 184.759 236.891 184.609C236.742 184.458 236.658 184.254 236.658 184.042V182.775C236.656 181.41 237.063 180.075 237.827 178.943C237.953 178.785 238.134 178.68 238.334 178.65C238.534 178.619 238.738 178.666 238.906 178.779C239.073 178.893 239.191 179.066 239.237 179.263C239.283 179.46 239.253 179.667 239.153 179.843C238.569 180.709 238.257 181.731 238.259 182.775V184.042C238.259 184.255 238.175 184.46 238.024 184.611C237.873 184.762 237.669 184.846 237.456 184.846Z" fill="#263238"/>
<path d="M252.978 179.799C252.913 179.798 252.849 179.783 252.791 179.752C252.733 179.722 252.684 179.678 252.647 179.624C252.132 178.854 251.436 178.223 250.619 177.787C249.802 177.351 248.891 177.124 247.965 177.126H243.503C242.578 177.126 241.668 177.354 240.852 177.788C240.036 178.223 239.339 178.851 238.821 179.619C238.792 179.662 238.754 179.7 238.71 179.728C238.666 179.757 238.617 179.777 238.565 179.787C238.514 179.797 238.461 179.797 238.409 179.786C238.357 179.776 238.309 179.755 238.265 179.725C238.221 179.696 238.184 179.658 238.155 179.614C238.126 179.57 238.106 179.521 238.096 179.469C238.087 179.417 238.087 179.364 238.097 179.313C238.108 179.261 238.129 179.212 238.158 179.168C238.747 178.291 239.543 177.572 240.475 177.076C241.407 176.579 242.447 176.32 243.503 176.321H247.965C249.022 176.321 250.063 176.582 250.996 177.079C251.929 177.577 252.725 178.296 253.315 179.174C253.346 179.218 253.367 179.268 253.378 179.32C253.389 179.373 253.389 179.427 253.378 179.479C253.368 179.532 253.347 179.582 253.317 179.626C253.287 179.67 253.248 179.708 253.203 179.737C253.136 179.779 253.058 179.801 252.978 179.799Z" fill="#263238"/>
<path d="M254.012 184.846C253.799 184.846 253.595 184.762 253.444 184.611C253.293 184.46 253.209 184.255 253.209 184.042V182.775C253.21 181.732 252.899 180.713 252.315 179.849C252.254 179.762 252.21 179.663 252.188 179.558C252.165 179.454 252.163 179.346 252.183 179.241C252.202 179.136 252.242 179.035 252.301 178.946C252.359 178.856 252.435 178.78 252.523 178.72C252.612 178.66 252.711 178.618 252.816 178.598C252.921 178.577 253.028 178.577 253.133 178.598C253.238 178.619 253.337 178.661 253.425 178.722C253.513 178.782 253.589 178.859 253.647 178.949C254.409 180.079 254.814 181.412 254.81 182.775V184.042C254.81 184.254 254.726 184.458 254.577 184.609C254.427 184.759 254.224 184.845 254.012 184.846Z" fill="#263238"/>
<path d="M237.557 188.381C237.137 188.381 236.733 188.213 236.436 187.916C236.139 187.618 235.972 187.215 235.972 186.794V184.267C235.972 183.846 236.139 183.442 236.436 183.145C236.733 182.847 237.137 182.68 237.557 182.68C237.977 182.68 238.38 182.847 238.678 183.145C238.975 183.442 239.142 183.846 239.142 184.267V186.794C239.14 187.214 238.973 187.617 238.676 187.914C238.379 188.212 237.977 188.379 237.557 188.381Z" fill="white" stroke="#263238" stroke-linecap="round" stroke-linejoin="round"/>
<path d="M237.72 182.68H237.394V188.375H237.72V182.68Z" fill="#1A4199" stroke="#263238" stroke-linecap="round" stroke-linejoin="round"/>
<path d="M255.305 184.267C255.305 183.39 254.595 182.68 253.72 182.68C252.845 182.68 252.135 183.39 252.135 184.267V186.788C252.135 187.665 252.845 188.375 253.72 188.375C254.595 188.375 255.305 187.665 255.305 186.788V184.267Z" fill="white" stroke="#263238" stroke-linecap="round" stroke-linejoin="round"/>
<path d="M253.883 182.68H253.557V188.375H253.883V182.68Z" fill="#1A4199" stroke="#263238" stroke-linecap="round" stroke-linejoin="round"/>
<path d="M245.723 182.162C246.281 182.16 246.83 182.019 247.321 181.752C247.811 181.484 248.228 181.099 248.533 180.631L249.224 179.562C248.128 178.957 246.895 178.643 245.643 178.652C244.391 178.661 243.163 178.992 242.075 179.613L243.11 180.907C243.425 181.298 243.823 181.613 244.275 181.83C244.727 182.047 245.221 182.161 245.723 182.162Z" fill="#1A4199" stroke="#263238" stroke-linecap="round" stroke-linejoin="round"/>
<path d="M245.779 189.09C245.844 189.09 245.897 189.037 245.897 188.971C245.897 188.906 245.844 188.853 245.779 188.853C245.714 188.853 245.661 188.906 245.661 188.971C245.661 189.037 245.714 189.09 245.779 189.09Z" fill="#263238"/>
<path d="M245.779 189.506C245.844 189.506 245.897 189.453 245.897 189.388C245.897 189.323 245.844 189.27 245.779 189.27C245.714 189.27 245.661 189.323 245.661 189.388C245.661 189.453 245.714 189.506 245.779 189.506Z" fill="#263238"/>
<path d="M245.431 189.321C245.46 189.311 245.485 189.291 245.5 189.264C245.515 189.236 245.518 189.204 245.509 189.174C245.498 189.145 245.476 189.121 245.448 189.106C245.42 189.092 245.388 189.088 245.358 189.095C245.329 189.106 245.305 189.126 245.29 189.153C245.276 189.18 245.272 189.212 245.279 189.242C245.283 189.257 245.291 189.271 245.301 189.284C245.311 189.296 245.324 189.306 245.338 189.314C245.352 189.321 245.368 189.325 245.384 189.327C245.399 189.328 245.415 189.326 245.431 189.321Z" fill="#263238"/>
<path d="M246.167 189.32C246.196 189.311 246.221 189.291 246.236 189.263C246.251 189.236 246.254 189.204 246.245 189.174C246.235 189.144 246.214 189.119 246.185 189.104C246.157 189.09 246.124 189.086 246.094 189.095C246.079 189.1 246.065 189.107 246.054 189.117C246.042 189.127 246.032 189.139 246.026 189.153C246.019 189.166 246.015 189.181 246.014 189.197C246.013 189.212 246.015 189.227 246.021 189.242C246.024 189.257 246.031 189.271 246.041 189.283C246.051 189.296 246.063 189.306 246.076 189.313C246.09 189.321 246.105 189.325 246.121 189.326C246.136 189.328 246.152 189.326 246.167 189.32Z" fill="#263238"/>
<path d="M186.14 213.345H230.858V184.869V179.579L225.569 184.869H186.14V213.345Z" fill="#1A4199" stroke="white" stroke-linecap="round" stroke-linejoin="round"/>
<path d="M215.999 191.453H226.525" stroke="white" stroke-linecap="round" stroke-linejoin="round"/>
<path d="M201.269 191.453H213.295" stroke="white" stroke-linecap="round" stroke-linejoin="round"/>
<path d="M192.249 191.453H199.161" stroke="white" stroke-linecap="round" stroke-linejoin="round"/>
<path d="M211.188 194.768H226.525" stroke="white" stroke-linecap="round" stroke-linejoin="round"/>
<path d="M192.249 194.768H208.485" stroke="white" stroke-linecap="round" stroke-linejoin="round"/>
<path d="M223.518 198.077H226.525" stroke="white" stroke-linecap="round" stroke-linejoin="round"/>
<path d="M206.681 198.077H221.113" stroke="white" stroke-linecap="round" stroke-linejoin="round"/>
<path d="M192.249 198.077H204.275" stroke="white" stroke-linecap="round" stroke-linejoin="round"/>
<path d="M215.999 200.79H226.525" stroke="white" stroke-linecap="round" stroke-linejoin="round"/>
<path d="M201.269 200.79H213.295" stroke="white" stroke-linecap="round" stroke-linejoin="round"/>
<path d="M192.249 200.79H199.161" stroke="white" stroke-linecap="round" stroke-linejoin="round"/>
<path d="M211.188 204.098H226.525" stroke="white" stroke-linecap="round" stroke-linejoin="round"/>
<path d="M192.249 204.098H208.485" stroke="white" stroke-linecap="round" stroke-linejoin="round"/>
<path d="M223.518 207.407H226.525" stroke="white" stroke-linecap="round" stroke-linejoin="round"/>
<path d="M206.681 207.407H221.113" stroke="white" stroke-linecap="round" stroke-linejoin="round"/>
<path d="M192.249 207.407H204.275" stroke="white" stroke-linecap="round" stroke-linejoin="round"/>
<path d="M253.405 12.8618H230.206C229.963 14.1484 229.279 15.3098 228.273 16.1459C227.266 16.9821 226 17.4406 224.693 17.4427H191.479C190.171 17.4406 188.905 16.9821 187.899 16.1459C186.892 15.3098 186.209 14.1484 185.965 12.8618H162.794C160.856 12.8618 158.998 13.6326 157.628 15.0046C156.258 16.3766 155.488 18.2374 155.488 20.1777V216.58C155.488 218.521 156.258 220.382 157.628 221.754C158.998 223.126 160.856 223.896 162.794 223.896H253.405C255.343 223.896 257.201 223.126 258.571 221.754C259.942 220.382 260.711 218.521 260.711 216.58V20.1777C260.711 18.2374 259.942 16.3766 258.571 15.0046C257.201 13.6326 255.343 12.8618 253.405 12.8618Z" stroke="#263238" stroke-width="2" stroke-linecap="round" stroke-linejoin="round"/>
<path d="M260.711 26.1148V20.1833C260.711 18.243 259.942 16.3822 258.571 15.0102C257.201 13.6382 255.343 12.8674 253.405 12.8674H230.206C229.963 14.154 229.279 15.3154 228.273 16.1515C227.266 16.9877 226 17.4463 224.693 17.4483H191.479C190.17 17.446 188.903 16.9866 187.897 16.1494C186.891 15.3121 186.207 14.1494 185.965 12.8618H162.794C160.856 12.8618 158.998 13.6326 157.628 15.0046C156.258 16.3766 155.488 18.2374 155.488 20.1777V26.1148H260.711Z" stroke="#263238" stroke-width="2" stroke-linecap="round" stroke-linejoin="round"/>
<path d="M165.126 18.1631C165.126 19.6037 163.508 20.1215 163.502 21.2188V21.292H165.07V21.7816H162.979V21.3708C162.979 19.8513 164.609 19.5249 164.609 18.1631C164.609 17.6678 164.446 17.409 164.047 17.409C163.648 17.409 163.485 17.6904 163.485 18.1124V18.5345H162.991V18.1631C162.991 17.4315 163.322 16.9475 164.059 16.9475C164.795 16.9475 165.126 17.4315 165.126 18.1631Z" fill="#263238"/>
<path d="M167.734 18.163V18.2869C167.758 18.4889 167.716 18.6933 167.615 18.8697C167.514 19.0461 167.358 19.1851 167.172 19.266C167.36 19.3475 167.517 19.4883 167.619 19.667C167.72 19.8457 167.761 20.0527 167.734 20.2565V20.6223C167.734 21.3539 167.391 21.8322 166.661 21.8322C165.93 21.8322 165.587 21.3539 165.587 20.6223V20.2959H166.087V20.6561C166.087 21.0894 166.262 21.3483 166.649 21.3483C167.037 21.3483 167.211 21.095 167.211 20.611V20.2452C167.211 19.7725 167.009 19.5474 166.61 19.5305H166.295V19.0578H166.61C166.693 19.059 166.774 19.042 166.85 19.0079C166.925 18.9739 166.992 18.9236 167.045 18.8608C167.099 18.7979 167.138 18.724 167.16 18.6442C167.182 18.5645 167.186 18.4809 167.172 18.3994V18.163C167.172 17.6734 166.998 17.4202 166.61 17.4202C166.222 17.4202 166.048 17.6847 166.048 18.118V18.3656H165.548V18.163C165.548 17.4315 165.891 16.9587 166.621 16.9587C167.352 16.9587 167.734 17.4258 167.734 18.163Z" fill="#263238"/>
<path d="M168.763 18.5176V19.1816H168.251V18.5176H168.763ZM168.763 21.1175V21.7816H168.251V21.1175H168.763Z" fill="#263238"/>
<path d="M169.842 18.9452C169.911 18.8201 170.015 18.717 170.14 18.6474C170.265 18.5778 170.407 18.5445 170.55 18.5513C171.162 18.5513 171.438 19.0015 171.438 19.6768V20.6109C171.438 21.3425 171.089 21.8209 170.359 21.8209C169.628 21.8209 169.291 21.3425 169.291 20.6109V20.2902H169.785V20.6447C169.785 21.078 169.965 21.3369 170.347 21.3369C170.729 21.3369 170.909 21.078 170.909 20.6447V19.7274C170.909 19.2941 170.735 19.0352 170.347 19.0352C170.276 19.0281 170.204 19.0361 170.136 19.0586C170.068 19.0812 170.006 19.1178 169.953 19.1661C169.9 19.2143 169.857 19.2732 169.828 19.3389C169.8 19.4046 169.785 19.4756 169.785 19.5473V19.6543H169.285L169.414 17.0037H171.297V17.482H169.892L169.842 18.9452Z" fill="#263238"/>
<path d="M174.085 18.1631V18.2475H173.601V18.1237C173.601 17.696 173.421 17.4428 173.039 17.4428C172.657 17.4428 172.477 17.7016 172.477 18.2138V19.2886C172.532 19.1308 172.637 18.9953 172.776 18.9028C172.915 18.8103 173.081 18.766 173.247 18.7765C173.86 18.7765 174.135 19.2155 174.135 19.902V20.6224C174.135 21.3539 173.776 21.8323 173.045 21.8323C172.314 21.8323 171.915 21.3483 171.915 20.6167V18.1631C171.915 17.4034 172.252 16.9307 173.011 16.9307C173.77 16.9307 174.085 17.4203 174.085 18.1631ZM172.444 19.947V20.6618C172.444 21.0951 172.623 21.3539 173.006 21.3539C173.388 21.3539 173.568 21.0951 173.568 20.6618V19.9358C173.568 19.5081 173.382 19.2492 173.006 19.2492C172.629 19.2492 172.444 19.5081 172.444 19.9358V19.947Z" fill="#263238"/>
<path d="M232.988 18.3599H231.639V21.7308H232.988V18.3599Z" fill="#263238"/>
<path d="M234.786 17.6846H233.438V21.7308H234.786V17.6846Z" fill="#263238"/>
<path d="M236.579 17.2063H235.23V21.7309H236.579V17.2063Z" fill="#263238"/>
<path d="M238.378 16.3679H237.029V21.731H238.378V16.3679Z" fill="#263238"/>
<path d="M255.041 21.6351H246.959V16.6941H255.041V21.6351ZM247.409 21.1905H254.591V17.1443H247.409V21.1905Z" fill="#263238"/>
<path d="M252.349 17.634H248.083V20.7011H252.349V17.634Z" fill="#263238"/>
<path d="M255.777 18.585H254.76V19.7499H255.777V18.585Z" fill="#263238"/>
<path d="M243.997 20.5603C243.944 20.5612 243.892 20.5476 243.846 20.5209C242.199 19.5417 241.114 20.4477 241.069 20.4871C241.04 20.5169 241.005 20.5403 240.966 20.5558C240.928 20.5714 240.886 20.5788 240.844 20.5776C240.803 20.5764 240.762 20.5665 240.724 20.5487C240.686 20.5309 240.653 20.5055 240.625 20.4741C240.598 20.4427 240.577 20.406 240.564 20.3662C240.551 20.3264 240.547 20.2844 240.551 20.2428C240.556 20.2013 240.568 20.161 240.589 20.1246C240.609 20.0882 240.637 20.0565 240.67 20.0313C240.727 19.9806 242.12 18.7876 244.155 19.9975C244.222 20.0405 244.27 20.1078 244.289 20.1854C244.308 20.263 244.296 20.3449 244.256 20.414C244.229 20.4589 244.192 20.496 244.146 20.5217C244.101 20.5474 244.05 20.5607 243.997 20.5603Z" fill="#263238"/>
<path d="M244.604 19.5475C244.551 19.5465 244.498 19.5309 244.453 19.5025C242.075 18.09 240.474 19.4575 240.457 19.4687C240.427 19.4946 240.393 19.5144 240.356 19.527C240.319 19.5395 240.279 19.5447 240.24 19.5421C240.201 19.5394 240.163 19.5291 240.128 19.5117C240.093 19.4943 240.061 19.4701 240.035 19.4406C240.009 19.411 239.99 19.3767 239.977 19.3394C239.965 19.3022 239.959 19.2629 239.962 19.2237C239.965 19.1845 239.975 19.1462 239.992 19.111C240.01 19.0758 240.034 19.0444 240.063 19.0185C240.063 19.0185 242.008 17.3302 244.762 18.9847C244.83 19.0267 244.879 19.094 244.898 19.1721C244.917 19.2501 244.904 19.3325 244.863 19.4012C244.836 19.4457 244.798 19.4825 244.753 19.5082C244.707 19.5338 244.656 19.5473 244.604 19.5475Z" fill="#263238"/>
<path d="M245.161 18.3712C245.105 18.3701 245.051 18.3546 245.003 18.3262C241.991 16.5367 239.99 18.2249 239.906 18.2981C239.845 18.3443 239.768 18.3657 239.692 18.3579C239.616 18.35 239.545 18.3136 239.495 18.2559C239.444 18.1982 239.418 18.1234 239.42 18.0467C239.422 17.97 239.453 17.8969 239.507 17.8423C239.535 17.8423 241.912 15.7826 245.312 17.8085C245.347 17.8288 245.377 17.8557 245.401 17.8876C245.425 17.9195 245.442 17.9559 245.452 17.9945C245.462 18.0332 245.464 18.0735 245.459 18.113C245.453 18.1525 245.44 18.1906 245.419 18.2249C245.392 18.2691 245.354 18.3056 245.309 18.3312C245.264 18.3568 245.213 18.3706 245.161 18.3712Z" fill="#263238"/>
<path d="M243.087 21.0669C243.088 21.2176 243.044 21.3653 242.961 21.491C242.879 21.6168 242.76 21.7151 242.621 21.7733C242.482 21.8315 242.329 21.847 242.182 21.8179C242.034 21.7887 241.898 21.7163 241.792 21.6097C241.685 21.5031 241.613 21.3672 241.584 21.2193C241.555 21.0714 241.57 20.9182 241.628 20.7791C241.687 20.6401 241.785 20.5215 241.91 20.4385C242.036 20.3554 242.183 20.3117 242.334 20.3128C242.534 20.3128 242.725 20.3922 242.866 20.5336C243.008 20.6751 243.087 20.8669 243.087 21.0669Z" fill="#263238"/>
<path d="M252.281 232.861H264.083" stroke="#263238" stroke-linecap="round" stroke-linejoin="round"/>
<path d="M29.7294 232.861H248.347" stroke="#263238" stroke-linecap="round" stroke-linejoin="round"/>
<path d="M14.3586 232.861H22.4233" stroke="#263238" stroke-linecap="round" stroke-linejoin="round"/>
<path d="M95.3034 157.074H86.7161V231.809H95.3034V157.074Z" fill="#263238" stroke="#263238" stroke-linecap="round" stroke-linejoin="round"/>
<path d="M27.2114 184.137V189.394H61.4372V184.137H27.2114Z" fill="#263238" stroke="#263238" stroke-linecap="round" stroke-linejoin="round"/>
<path d="M30.7295 165.994H25.4805V187.024H30.7295V165.994Z" fill="#263238" stroke="#263238" stroke-linecap="round" stroke-linejoin="round"/>
<path d="M32.9157 187.114C32.9157 187.747 32.7913 188.373 32.5494 188.957C32.3076 189.541 31.9531 190.072 31.5064 190.519C31.0596 190.966 30.5292 191.32 29.9456 191.561C29.3619 191.803 28.7365 191.927 28.105 191.926C27.9476 191.926 27.7903 191.926 27.6385 191.926C26.7632 191.839 25.9284 191.514 25.2248 190.985C24.5212 190.457 23.9758 189.745 23.6479 188.928C23.32 188.111 23.2222 187.219 23.365 186.35C23.5079 185.481 23.8859 184.668 24.4581 183.999C25.0303 183.33 25.7746 182.831 26.6103 182.556C27.4459 182.281 28.3409 182.24 29.1978 182.439C30.0547 182.638 30.8407 183.068 31.4705 183.683C32.1002 184.298 32.5496 185.074 32.7696 185.927C32.8656 186.316 32.9146 186.714 32.9157 187.114Z" fill="white" stroke="#263238" stroke-linecap="round" stroke-linejoin="round"/>
<path d="M33.2699 169.236C33.2669 170.512 32.7589 171.735 31.8572 172.637C30.9555 173.539 29.7336 174.046 28.4592 174.047C28.3018 174.047 28.1444 174.047 27.9871 174.047C27.1113 173.963 26.2753 173.64 25.5701 173.114C24.8649 172.587 24.3173 171.877 23.9871 171.06C23.6569 170.244 23.5566 169.352 23.6972 168.482C23.8377 167.613 24.2138 166.798 24.7843 166.128C25.3549 165.457 26.0982 164.956 26.9334 164.679C27.7685 164.402 28.6635 164.36 29.5211 164.557C30.3786 164.753 31.1658 165.182 31.797 165.796C32.4283 166.409 32.8794 167.185 33.1013 168.037C33.2092 168.428 33.2659 168.83 33.2699 169.236Z" fill="white" stroke="#263238" stroke-linecap="round" stroke-linejoin="round"/>
<path d="M41.8836 156.179L34.8867 159.952L36.3361 162.647L43.333 158.875L41.8836 156.179Z" fill="#263238" stroke="#263238" stroke-linecap="round" stroke-linejoin="round"/>
<path d="M44.4929 159.168L41.0479 161.025L38.8448 156.934L42.2955 155.071C42.5663 154.922 42.864 154.83 43.1711 154.798C43.4783 154.766 43.7887 154.796 44.084 154.886C44.3793 154.977 44.6537 155.125 44.8909 155.323C45.1281 155.521 45.3234 155.764 45.4652 156.039C45.7472 156.584 45.8033 157.218 45.6213 157.804C45.4392 158.389 45.0338 158.88 44.4929 159.168Z" fill="white" stroke="#263238" stroke-linecap="round" stroke-linejoin="round"/>
<path d="M29.3921 141.818L29.1448 156.09L26.0931 156.039L26.3348 141.767L29.3921 141.818Z" fill="#263238" stroke="#263238" stroke-linecap="round" stroke-linejoin="round"/>
<path d="M30.2182 140.957L30.1564 144.896L25.5143 144.784L25.5761 140.844C25.5812 140.539 25.6463 140.238 25.7677 139.958C25.8892 139.678 26.0645 139.425 26.2836 139.212C26.5028 139 26.7616 138.833 27.0452 138.721C27.3288 138.609 27.6317 138.554 27.9365 138.56C28.2445 138.564 28.5485 138.63 28.8307 138.753C29.113 138.877 29.3678 139.055 29.5803 139.278C29.7927 139.502 29.9586 139.765 30.0682 140.053C30.1777 140.342 30.2287 140.649 30.2182 140.957Z" fill="white" stroke="#263238" stroke-linecap="round" stroke-linejoin="round"/>
<path d="M40.8119 146.995L34.1073 159.59L31.4097 158.155L38.1087 145.56L40.8119 146.995Z" fill="#263238" stroke="#263238" stroke-linecap="round" stroke-linejoin="round"/>
<path d="M41.9359 146.607L40.0982 150.068L36.0012 147.89L37.8333 144.424C38.1232 143.881 38.6156 143.475 39.2032 143.295C39.7907 143.115 40.4256 143.175 40.9693 143.461C41.5136 143.751 41.9211 144.244 42.1023 144.834C42.2835 145.424 42.2237 146.062 41.9359 146.607Z" fill="white" stroke="#263238" stroke-linecap="round" stroke-linejoin="round"/>
<path d="M18.5567 146.939L25.1996 159.568L22.4964 160.997L15.8535 148.369L18.5567 146.939Z" fill="#263238" stroke="#263238" stroke-linecap="round" stroke-linejoin="round"/>
<path d="M24.7892 156.095C24.6907 155.511 24.4214 154.969 24.0153 154.539C23.6092 154.108 23.0847 153.807 22.508 153.675C21.9313 153.543 21.3285 153.585 20.7757 153.796C20.223 154.007 19.7452 154.378 19.4029 154.861C19.0605 155.344 18.869 155.918 18.8525 156.51C18.836 157.102 18.9953 157.686 19.3102 158.188C19.6252 158.689 20.0816 159.086 20.6217 159.327C21.1619 159.569 21.7614 159.645 22.3445 159.545C23.1252 159.411 23.8211 158.973 24.2795 158.326C24.7378 157.68 24.9211 156.877 24.7892 156.095Z" fill="white" stroke="#263238" stroke-linecap="round" stroke-linejoin="round"/>
<path d="M27.7116 156.489C29.3629 156.489 30.7015 155.149 30.7015 153.495C30.7015 151.842 29.3629 150.501 27.7116 150.501C26.0604 150.501 24.7218 151.842 24.7218 153.495C24.7218 155.149 26.0604 156.489 27.7116 156.489Z" fill="white" stroke="#263238" stroke-linecap="round" stroke-linejoin="round"/>
<path d="M37.468 155.223C37.5579 154.638 37.4725 154.039 37.2224 153.502C36.9723 152.965 36.5688 152.515 36.063 152.207C35.5572 151.9 34.9718 151.75 34.3809 151.777C33.79 151.803 33.2201 152.004 32.7433 152.354C32.2665 152.705 31.9043 153.189 31.7025 153.746C31.5007 154.303 31.4683 154.907 31.6095 155.482C31.7507 156.057 32.0591 156.578 32.4957 156.977C32.9323 157.377 33.4775 157.638 34.0622 157.727C34.4501 157.787 34.846 157.77 35.2273 157.676C35.6085 157.583 35.9676 157.415 36.2839 157.183C36.6003 156.95 36.8677 156.657 37.0709 156.321C37.2741 155.985 37.409 155.612 37.468 155.223Z" fill="white" stroke="#263238" stroke-linecap="round" stroke-linejoin="round"/>
<path d="M18.8658 145.786L20.6979 149.252L16.5953 151.43L14.7632 147.958C14.6201 147.688 14.5316 147.393 14.5027 147.089C14.4738 146.785 14.5052 146.478 14.595 146.187C14.6849 145.895 14.8313 145.624 15.0261 145.389C15.2208 145.154 15.46 144.96 15.7298 144.818C16.2742 144.531 16.9096 144.472 17.4972 144.654C18.0849 144.835 18.5769 145.242 18.8658 145.786Z" fill="white" stroke="#263238" stroke-linecap="round" stroke-linejoin="round"/>
<path d="M36.8947 161.875C36.8947 164.114 36.0065 166.261 34.4256 167.844C32.8447 169.427 30.7005 170.316 28.4647 170.316C28.1837 170.316 27.9027 170.316 27.6386 170.283C26.1051 170.13 24.6426 169.56 23.4101 168.634C22.1776 167.708 21.2222 166.461 20.6478 165.029C20.0733 163.597 19.9018 162.035 20.1519 160.512C20.402 158.99 21.0641 157.565 22.0662 156.393C23.0684 155.22 24.3722 154.346 25.8361 153.864C27.2999 153.381 28.8677 153.31 30.3691 153.658C31.8705 154.005 33.248 154.759 34.3519 155.835C35.4559 156.912 36.244 158.271 36.6306 159.765C36.8049 160.454 36.8936 161.163 36.8947 161.875Z" fill="white" stroke="#263238" stroke-linecap="round" stroke-linejoin="round"/>
<path d="M36.8948 161.875C36.8948 164.114 36.0066 166.261 34.4257 167.844C32.8448 169.427 30.7006 170.316 28.4648 170.316C28.1838 170.316 27.9028 170.316 27.6387 170.282C27.3157 169.033 27.2829 167.727 27.5429 166.463C27.8028 165.2 28.3486 164.013 29.1382 162.993C29.9278 161.974 30.9403 161.149 32.0979 160.582C33.2555 160.016 34.5273 159.723 35.8158 159.725C36.0911 159.725 36.3778 159.725 36.6419 159.765C36.8124 160.455 36.8973 161.164 36.8948 161.875Z" fill="white" stroke="#263238" stroke-linecap="round" stroke-linejoin="round"/>
<path d="M79.3431 187.267C80.7744 181.141 76.9759 175.014 70.859 173.581C64.7421 172.148 58.623 175.951 57.1916 182.076C55.7603 188.202 59.5587 194.329 65.6757 195.762C71.7926 197.195 77.9117 193.392 79.3431 187.267Z" fill="white" stroke="#263238" stroke-linecap="round" stroke-linejoin="round"/>
<path d="M70.3806 189.765C73.1909 188.591 74.5188 185.359 73.3467 182.545C72.1747 179.731 68.9463 178.401 66.1361 179.575C63.3259 180.748 61.9979 183.981 63.17 186.795C64.3421 189.609 67.5704 190.939 70.3806 189.765Z" fill="#263238" stroke="#263238" stroke-linecap="round" stroke-linejoin="round"/>
<path d="M66.3098 232.861H116.777L117.502 229.44C117.793 228.073 117.532 226.646 116.776 225.472C116.02 224.297 114.83 223.47 113.467 223.171C106.313 221.561 90.8243 220.981 90.8243 220.981C87.0926 221.1 76.7068 221.544 69.5526 223.176C68.1989 223.486 67.0214 224.316 66.2746 225.488C65.5279 226.661 65.272 228.08 65.5624 229.44L66.3098 232.861Z" fill="white" stroke="#263238" stroke-linecap="round" stroke-linejoin="round"/>
<path d="M103.688 221.814C97.2255 221.218 90.8412 220.981 90.8412 220.981C88.492 221.055 83.5014 221.263 78.3423 221.814C79.8484 226.964 84.9514 230.757 91.0154 230.757C97.0794 230.757 102.182 226.947 103.688 221.814Z" fill="#1A4199" stroke="#263238" stroke-linecap="round" stroke-linejoin="round"/>
<path d="M143.727 208.731L146.866 204.518L119.436 184.022L116.296 188.234L143.727 208.731Z" fill="#263238" stroke="#263238" stroke-linecap="round" stroke-linejoin="round"/>
<path d="M130.077 221.167L134.283 224.31L146.844 207.455L142.637 204.312L130.077 221.167Z" fill="#263238" stroke="#263238" stroke-linecap="round" stroke-linejoin="round"/>
<path d="M140.932 202.928C141.311 202.42 141.785 201.992 142.329 201.668C142.873 201.344 143.475 201.13 144.102 201.039C144.728 200.948 145.366 200.982 145.979 201.138C146.593 201.294 147.169 201.569 147.676 201.949L148.041 202.247C148.691 202.841 149.166 203.602 149.415 204.447C149.663 205.292 149.675 206.189 149.45 207.04C149.224 207.892 148.77 208.665 148.136 209.276C147.503 209.887 146.714 210.313 145.855 210.506C144.997 210.699 144.102 210.653 143.268 210.373C142.434 210.093 141.693 209.589 141.125 208.916C140.557 208.243 140.185 207.427 140.048 206.557C139.91 205.687 140.014 204.796 140.348 203.98C140.499 203.607 140.695 203.253 140.932 202.928Z" fill="white" stroke="#263238" stroke-linecap="round" stroke-linejoin="round"/>
<path d="M129.956 216.395C130.669 215.335 131.773 214.602 133.025 214.358C134.277 214.113 135.575 214.376 136.633 215.089C136.762 215.174 136.886 215.269 137.009 215.365C137.688 215.926 138.2 216.662 138.49 217.494C138.779 218.326 138.836 219.221 138.652 220.083C138.469 220.945 138.054 221.74 137.451 222.381C136.848 223.023 136.081 223.487 135.233 223.722C134.385 223.958 133.489 223.956 132.642 223.717C131.795 223.478 131.03 223.011 130.43 222.367C129.83 221.723 129.417 220.926 129.238 220.064C129.058 219.201 129.118 218.306 129.411 217.475C129.547 217.094 129.73 216.731 129.956 216.395Z" fill="white" stroke="#263238" stroke-linecap="round" stroke-linejoin="round"/>
<path d="M115.511 222.424L123.419 223.202L123.718 220.155L115.809 219.377L115.511 222.424Z" fill="#263238" stroke="#263238" stroke-linecap="round" stroke-linejoin="round"/>
<path d="M115.03 218.505L118.93 218.888L118.475 223.514L114.574 223.131C113.962 223.071 113.398 222.77 113.007 222.294C112.616 221.818 112.43 221.206 112.489 220.593C112.551 219.979 112.852 219.414 113.328 219.023C113.805 218.632 114.416 218.445 115.03 218.505Z" fill="white" stroke="#263238" stroke-linecap="round" stroke-linejoin="round"/>
<path d="M122.841 220.475C123.459 219.553 124.252 218.762 125.176 218.148C126.099 217.534 127.134 217.108 128.222 216.894C129.31 216.681 130.429 216.685 131.515 216.905C132.602 217.126 133.634 217.558 134.554 218.179C134.784 218.336 135.003 218.5 135.217 218.674C136.405 219.657 137.301 220.948 137.808 222.406C138.315 223.863 138.413 225.432 138.091 226.942C137.77 228.451 137.041 229.844 135.985 230.967C134.928 232.091 133.584 232.903 132.099 233.316C130.613 233.728 129.043 233.725 127.56 233.306C126.076 232.887 124.736 232.069 123.684 230.941C122.632 229.813 121.91 228.417 121.595 226.906C121.28 225.395 121.384 223.827 121.897 222.371C122.13 221.702 122.447 221.064 122.841 220.475Z" fill="white" stroke="#263238" stroke-linecap="round" stroke-linejoin="round"/>
<path d="M113.76 229.243L124.213 221.415L125.893 223.66L115.44 231.482L113.76 229.243Z" fill="#263238" stroke="#263238" stroke-linecap="round" stroke-linejoin="round"/>
<path d="M112.675 229.124L115.547 226.947L118.098 230.323L115.226 232.478C114.775 232.816 114.209 232.961 113.651 232.881C113.094 232.801 112.591 232.502 112.253 232.051C111.93 231.604 111.792 231.048 111.871 230.502C111.95 229.956 112.238 229.461 112.675 229.124Z" fill="white" stroke="#263238" stroke-linecap="round" stroke-linejoin="round"/>
<path d="M127.259 223.829C127.392 223.251 127.35 222.646 127.139 222.092C126.929 221.538 126.558 221.059 126.075 220.716C125.592 220.373 125.018 220.181 124.426 220.165C123.834 220.149 123.251 220.309 122.75 220.625C122.249 220.942 121.853 221.4 121.613 221.942C121.372 222.484 121.298 223.085 121.399 223.67C121.501 224.254 121.773 224.795 122.182 225.224C122.591 225.653 123.118 225.951 123.696 226.08C124.466 226.252 125.273 226.111 125.94 225.69C126.608 225.268 127.082 224.599 127.259 223.829Z" fill="white" stroke="#263238" stroke-linecap="round" stroke-linejoin="round"/>
<path d="M132.8 237.11L134.351 226.373L136.65 226.699L135.104 237.436L132.8 237.11Z" fill="#263238" stroke="#263238" stroke-linecap="round" stroke-linejoin="round"/>
<path d="M132.098 237.678L132.519 234.724L136.009 235.225L135.588 238.174C135.555 238.403 135.478 238.625 135.36 238.825C135.242 239.025 135.086 239.199 134.901 239.339C134.716 239.478 134.505 239.58 134.28 239.638C134.056 239.696 133.822 239.709 133.592 239.676C133.13 239.609 132.713 239.361 132.432 238.987C132.152 238.612 132.032 238.142 132.098 237.678Z" fill="white" stroke="#263238" stroke-linecap="round" stroke-linejoin="round"/>
<path d="M137.549 225.996C137.284 225.583 136.904 225.258 136.455 225.061C136.006 224.865 135.509 224.807 135.026 224.893C134.544 224.98 134.098 225.207 133.745 225.547C133.392 225.887 133.148 226.324 133.042 226.804C132.937 227.283 132.976 227.782 133.155 228.239C133.333 228.696 133.642 229.09 134.044 229.371C134.446 229.652 134.921 229.807 135.411 229.817C135.901 229.828 136.383 229.692 136.796 229.428C137.35 229.073 137.74 228.512 137.882 227.868C138.023 227.224 137.903 226.551 137.549 225.996Z" fill="white" stroke="#263238" stroke-linecap="round" stroke-linejoin="round"/>
<path d="M122.454 235.68L129.422 224.628L131.788 226.114L124.825 237.172L122.454 235.68Z" fill="#263238" stroke="#263238" stroke-linecap="round" stroke-linejoin="round"/>
<path d="M121.403 235.951L123.308 232.912L126.91 235.163L124.999 238.207C124.699 238.684 124.222 239.022 123.673 239.147C123.125 239.272 122.549 239.175 122.071 238.877C121.596 238.577 121.259 238.101 121.134 237.552C121.008 237.004 121.105 236.428 121.403 235.951Z" fill="white" stroke="#263238" stroke-linecap="round" stroke-linejoin="round"/>
<path d="M133.137 225.787C133.054 225.201 132.799 224.653 132.404 224.213C132.009 223.772 131.492 223.459 130.919 223.313C130.347 223.167 129.743 223.194 129.186 223.392C128.629 223.59 128.143 223.949 127.79 224.423C127.437 224.898 127.232 225.467 127.202 226.058C127.173 226.649 127.319 227.236 127.623 227.744C127.926 228.252 128.374 228.658 128.908 228.911C129.443 229.163 130.04 229.251 130.625 229.164C131.405 229.048 132.107 228.628 132.578 227.995C133.049 227.362 133.25 226.568 133.137 225.787Z" fill="white" stroke="#263238" stroke-linecap="round" stroke-linejoin="round"/>
<path d="M120.227 194.447C125.509 191.042 127.035 183.994 123.635 178.704C120.234 173.415 113.196 171.887 107.913 175.292C102.631 178.697 101.105 185.745 104.506 191.035C107.906 196.324 114.945 197.852 120.227 194.447Z" fill="white" stroke="#263238" stroke-linecap="round" stroke-linejoin="round"/>
<path d="M119.086 187.175C120.356 184.404 119.141 181.126 116.373 179.855C113.606 178.584 110.333 179.8 109.064 182.572C107.794 185.343 109.009 188.62 111.776 189.891C114.544 191.162 117.817 189.946 119.086 187.175Z" fill="#263238" stroke="#263238" stroke-linecap="round" stroke-linejoin="round"/>
<path d="M91.0098 162.297C101.1 162.297 109.28 154.106 109.28 144.002C109.28 133.897 101.1 125.706 91.0098 125.706C80.9192 125.706 72.7391 133.897 72.7391 144.002C72.7391 154.106 80.9192 162.297 91.0098 162.297Z" fill="#1A4199" stroke="#263238" stroke-linecap="round" stroke-linejoin="round"/>
<path d="M117.131 156.185C121.055 151.259 123.511 145.324 124.216 139.063C124.921 132.802 123.846 126.468 121.116 120.791C118.387 115.114 114.112 110.324 108.784 106.971C103.456 103.619 97.291 101.84 90.9985 101.84C84.7059 101.84 78.5412 103.619 73.2132 106.971C67.8852 110.324 63.6104 115.114 60.8804 120.791C58.1505 126.468 57.0762 132.802 57.7811 139.063C58.4861 145.324 60.9417 151.259 64.8655 156.185H117.131Z" fill="white" stroke="#263238" stroke-linecap="round" stroke-linejoin="round"/>
<path d="M111.455 122.679H69.7212C67.1822 122.679 65.124 124.74 65.124 127.282V142.094C65.124 144.636 67.1822 146.697 69.7212 146.697H111.455C113.994 146.697 116.052 144.636 116.052 142.094V127.282C116.052 124.74 113.994 122.679 111.455 122.679Z" fill="#1A4199" stroke="#263238" stroke-linecap="round" stroke-linejoin="round"/>
<path d="M70.6316 133.714C71.1835 132.167 72.1895 130.823 73.5176 129.857C74.8457 128.892 76.4341 128.352 78.0744 128.306C79.7148 128.26 81.3306 128.712 82.7102 129.602C84.0898 130.492 85.1687 131.778 85.8056 133.292" stroke="#263238" stroke-width="5" stroke-linecap="round" stroke-linejoin="round"/>
<path d="M95.8036 133.714C96.3555 132.167 97.3615 130.823 98.6896 129.857C100.018 128.892 101.606 128.352 103.246 128.306C104.887 128.26 106.503 128.712 107.882 129.602C109.262 130.492 110.341 131.778 110.978 133.292" stroke="#263238" stroke-width="5" stroke-linecap="round" stroke-linejoin="round"/>
<path d="M86.6036 139.28C86.7447 140.396 87.2875 141.422 88.1303 142.166C88.973 142.91 90.0578 143.32 91.1811 143.32C92.3045 143.32 93.3893 142.91 94.232 142.166C95.0747 141.422 95.6175 140.396 95.7586 139.28H86.6036Z" fill="white" stroke="#263238" stroke-linecap="round" stroke-linejoin="round"/>
<path d="M134.261 141.182C133.334 141.182 132.445 140.813 131.789 140.157C131.134 139.501 130.766 138.61 130.766 137.682V129.719C130.765 129.259 130.855 128.803 131.03 128.378C131.205 127.952 131.463 127.566 131.787 127.24C132.112 126.914 132.498 126.656 132.922 126.48C133.347 126.304 133.802 126.213 134.261 126.213C134.721 126.212 135.176 126.302 135.601 126.478C136.025 126.653 136.411 126.911 136.737 127.236C137.062 127.561 137.32 127.947 137.496 128.372C137.672 128.797 137.763 129.253 137.763 129.713V137.676C137.763 138.137 137.673 138.593 137.498 139.019C137.322 139.445 137.064 139.831 136.739 140.157C136.413 140.483 136.027 140.741 135.602 140.917C135.177 141.093 134.721 141.183 134.261 141.182Z" fill="#263238" stroke="#263238" stroke-linecap="round" stroke-linejoin="round"/>
<path d="M46.8028 141.182C46.3432 141.183 45.8881 141.093 45.4633 140.917C45.0386 140.742 44.6525 140.484 44.3274 140.159C44.0022 139.834 43.7442 139.448 43.5681 139.023C43.3921 138.598 43.3015 138.142 43.3015 137.682V129.719C43.3008 129.258 43.3908 128.802 43.5665 128.376C43.7422 127.951 44.0001 127.564 44.3254 127.238C44.6506 126.912 45.0369 126.654 45.462 126.478C45.8872 126.302 46.3428 126.212 46.8028 126.213C47.2618 126.213 47.7164 126.303 48.1405 126.479C48.5646 126.655 48.95 126.913 49.2746 127.238C49.5992 127.563 49.8567 127.949 50.0323 128.374C50.208 128.798 50.2984 129.254 50.2984 129.713V137.676C50.2992 138.136 50.2093 138.592 50.0339 139.018C49.8586 139.443 49.6012 139.829 49.2766 140.155C48.9519 140.481 48.5663 140.739 48.1418 140.915C47.7173 141.092 47.2623 141.182 46.8028 141.182Z" fill="#263238" stroke="#263238" stroke-linecap="round" stroke-linejoin="round"/>
<path d="M58.0091 105.25C54.917 109.825 53.2684 115.224 53.277 120.748V126.534" stroke="#263238" stroke-width="14" stroke-linecap="round" stroke-linejoin="round"/>
<path d="M124.37 105.273C121.84 101.497 118.42 98.4042 114.413 96.2656C110.407 94.127 105.936 93.0089 101.395 93.01H80.9667C76.4326 93.0069 71.9673 94.12 67.9639 96.2515C63.9605 98.383 60.5419 101.467 58.009 105.233" stroke="#263238" stroke-width="7" stroke-linecap="round" stroke-linejoin="round"/>
<path d="M129.08 126.533V120.748C129.088 115.235 127.448 109.844 124.37 105.272" stroke="#263238" stroke-width="14" stroke-linecap="round" stroke-linejoin="round"/>
<path d="M56.0645 120.304H51.3775C48.6647 120.304 46.4656 122.506 46.4656 125.222V141.48C46.4656 144.197 48.6647 146.399 51.3775 146.399H56.0645C58.7773 146.399 60.9764 144.197 60.9764 141.48V125.222C60.9764 122.506 58.7773 120.304 56.0645 120.304Z" fill="white" stroke="#263238" stroke-linecap="round" stroke-linejoin="round"/>
<path d="M54.4628 120.304H52.9847V146.399H54.4628V120.304Z" fill="#1A4199" stroke="#263238" stroke-linecap="round" stroke-linejoin="round"/>
<path d="M130.091 120.304H125.404C122.691 120.304 120.492 122.506 120.492 125.222V141.48C120.492 144.197 122.691 146.399 125.404 146.399H130.091C132.804 146.399 135.003 144.197 135.003 141.48V125.222C135.003 122.506 132.804 120.304 130.091 120.304Z" fill="white" stroke="#263238" stroke-linecap="round" stroke-linejoin="round"/>
<path d="M128.49 120.304H127.011V146.399H128.49V120.304Z" fill="#1A4199" stroke="#263238" stroke-linecap="round" stroke-linejoin="round"/>
<path d="M91.1277 117.935C93.6878 117.935 96.2074 117.294 98.4564 116.069C100.705 114.844 102.612 113.075 104.003 110.923L107.173 106.01C102.15 103.232 96.4978 101.796 90.7602 101.841C85.0226 101.885 79.3931 103.408 74.4138 106.263L79.1852 112.194C80.6206 113.985 82.4386 115.429 84.5054 116.423C86.5722 117.416 88.8351 117.933 91.1277 117.935Z" fill="#1A4199" stroke="#263238" stroke-linecap="round" stroke-linejoin="round"/>
<path d="M91.9201 149.128C91.9201 149.017 91.8872 148.908 91.8254 148.816C91.7637 148.723 91.6759 148.651 91.5732 148.608C91.4705 148.566 91.3575 148.555 91.2485 148.576C91.1395 148.598 91.0393 148.652 90.9608 148.73C90.8822 148.809 90.8286 148.909 90.8069 149.018C90.7853 149.128 90.7964 149.241 90.8389 149.344C90.8815 149.446 90.9535 149.534 91.0459 149.596C91.1383 149.658 91.247 149.691 91.3581 149.691C91.5072 149.691 91.6501 149.632 91.7555 149.526C91.8609 149.421 91.9201 149.277 91.9201 149.128Z" fill="#263238"/>
<path d="M91.9201 151.019C91.9201 150.908 91.8872 150.799 91.8254 150.706C91.7637 150.614 91.6759 150.542 91.5732 150.499C91.4705 150.457 91.3575 150.445 91.2485 150.467C91.1395 150.489 91.0393 150.542 90.9608 150.621C90.8822 150.7 90.8286 150.8 90.8069 150.909C90.7853 151.018 90.7964 151.132 90.8389 151.234C90.8815 151.337 90.9535 151.425 91.0459 151.487C91.1383 151.549 91.247 151.582 91.3581 151.582C91.5072 151.582 91.6501 151.523 91.7555 151.417C91.8609 151.311 91.9201 151.168 91.9201 151.019Z" fill="#263238"/>
<path d="M89.779 150.726C89.8816 150.66 89.9599 150.562 90.0019 150.447C90.0439 150.332 90.0474 150.207 90.0118 150.09C89.9762 149.973 89.9035 149.871 89.8047 149.799C89.7059 149.727 89.5864 149.689 89.4642 149.691C89.3616 149.757 89.2833 149.855 89.2413 149.97C89.1993 150.085 89.1958 150.211 89.2314 150.328C89.267 150.445 89.3396 150.547 89.4385 150.619C89.5373 150.691 89.6568 150.729 89.779 150.726Z" fill="#263238"/>
<path d="M93.1566 150.727C93.2435 150.725 93.329 150.703 93.4061 150.663C93.4832 150.623 93.55 150.565 93.6012 150.495C93.6523 150.424 93.6864 150.343 93.7009 150.257C93.7153 150.171 93.7096 150.083 93.6843 150C93.659 149.917 93.6147 149.84 93.555 149.777C93.4952 149.714 93.4216 149.665 93.3399 149.635C93.2583 149.605 93.1708 149.595 93.0844 149.605C92.9979 149.614 92.9149 149.644 92.8419 149.691C92.7549 149.693 92.6695 149.714 92.5924 149.754C92.5152 149.795 92.4485 149.852 92.3973 149.923C92.3462 149.993 92.312 150.074 92.2976 150.16C92.2832 150.246 92.2888 150.334 92.3141 150.418C92.3395 150.501 92.3837 150.577 92.4435 150.64C92.5033 150.704 92.5769 150.752 92.6585 150.782C92.7402 150.812 92.8277 150.823 92.9141 150.813C93.0005 150.803 93.0835 150.774 93.1566 150.727Z" fill="#263238"/>
<path d="M113.467 170.243C106.313 168.628 90.8242 168.048 90.8242 168.048C87.0925 168.167 76.7068 168.611 69.5525 170.249C68.1981 170.557 67.0196 171.387 66.2726 172.56C65.5257 173.732 65.2704 175.152 65.5623 176.512L72.1883 207.554C72.5138 209.059 73.3433 210.408 74.5393 211.376C75.7352 212.344 77.2257 212.874 78.7637 212.878H104.307C105.845 212.874 107.335 212.344 108.531 211.376C109.727 210.408 110.556 209.059 110.882 207.554L117.502 176.512C117.793 175.145 117.532 173.719 116.776 172.544C116.02 171.37 114.83 170.542 113.467 170.243Z" fill="white" stroke="#263238" stroke-linecap="round" stroke-linejoin="round"/>
<path d="M110.208 169.647C102.446 168.487 90.8411 168.048 90.8411 168.048C85.1587 168.211 79.4893 168.681 73.8574 169.455L81.3657 212.878H101.772L110.208 169.647Z" fill="#1A4199" stroke="#263238" stroke-linecap="round" stroke-linejoin="round"/>
<path d="M97.5402 177.486H85.1088C82.5698 177.486 80.5116 179.547 80.5116 182.089V188.167C80.5116 190.709 82.5698 192.77 85.1088 192.77H97.5402C100.079 192.77 102.137 190.709 102.137 188.167V182.089C102.137 179.547 100.079 177.486 97.5402 177.486Z" fill="white" stroke="#263238" stroke-linecap="round" stroke-linejoin="round"/>
<path d="M87.6939 183.783H84.1926V187.289H87.6939V183.783Z" fill="white" stroke="#263238" stroke-linecap="round" stroke-linejoin="round"/>
<path d="M93.0723 183.783H89.571V187.289H93.0723V183.783Z" fill="white" stroke="#263238" stroke-linecap="round" stroke-linejoin="round"/>
<path d="M98.4562 183.783H94.955V187.289H98.4562V183.783Z" fill="white" stroke="#263238" stroke-linecap="round" stroke-linejoin="round"/>
<path d="M42.127 203.063H104.419C105.164 203.063 105.879 203.359 106.406 203.887C106.933 204.415 107.229 205.131 107.229 205.877V240.92H39.317V205.877C39.317 205.131 39.6131 204.415 40.14 203.887C40.667 203.359 41.3818 203.063 42.127 203.063Z" fill="white" stroke="#263238" stroke-linecap="round" stroke-linejoin="round"/>
<path d="M107.229 215.657C98.6979 217.824 89.942 223.339 73.6271 231.105C57.8911 238.601 45.0101 238.472 39.317 237.892V240.92H107.229V215.657Z" fill="#263238" stroke="#263238" stroke-linecap="round" stroke-linejoin="round"/>
<path d="M107.229 238.821H39.317V240.925H107.229V238.821Z" fill="white" stroke="#263238" stroke-linecap="round" stroke-linejoin="round"/>
<path d="M76.7744 221.994C76.7744 222.688 76.569 223.366 76.1843 223.942C75.7996 224.519 75.2528 224.968 74.613 225.233C73.9732 225.499 73.2692 225.568 72.5901 225.433C71.9109 225.298 71.287 224.964 70.7973 224.473C70.3077 223.983 69.9742 223.358 69.8391 222.678C69.704 221.998 69.7734 221.293 70.0384 220.653C70.3034 220.012 70.7521 219.464 71.3279 219.079C71.9037 218.694 72.5806 218.488 73.2731 218.488C74.2017 218.488 75.0923 218.858 75.7489 219.515C76.4055 220.173 76.7744 221.064 76.7744 221.994Z" fill="white" stroke="#263238" stroke-linecap="round" stroke-linejoin="round"/>
<path d="M30.7595 51.2H34.9595V52.6H32.2995V55.19H34.4135V56.59H32.2995V59.6H34.9595V61H30.7595V51.2ZM37.0355 51.2H39.1215L40.7175 61H39.1775L38.8975 59.054V59.082H37.1475L36.8675 61H35.4395L37.0355 51.2ZM38.7155 57.752L38.0295 52.908H38.0015L37.3295 57.752H38.7155ZM43.4256 61.14C42.6789 61.14 42.1143 60.93 41.7316 60.51C41.3489 60.0807 41.1576 59.4693 41.1576 58.676V58.116H42.6136V58.788C42.6136 59.4227 42.8796 59.74 43.4116 59.74C43.6729 59.74 43.8689 59.6653 43.9996 59.516C44.1396 59.3573 44.2096 59.1053 44.2096 58.76C44.2096 58.3493 44.1163 57.99 43.9296 57.682C43.7429 57.3647 43.3976 56.9867 42.8936 56.548C42.2589 55.988 41.8156 55.484 41.5636 55.036C41.3116 54.5787 41.1856 54.0653 41.1856 53.496C41.1856 52.7213 41.3816 52.124 41.7736 51.704C42.1656 51.2747 42.7349 51.06 43.4816 51.06C44.2189 51.06 44.7743 51.2747 45.1476 51.704C45.5303 52.124 45.7216 52.7307 45.7216 53.524V53.93H44.2656V53.426C44.2656 53.09 44.2003 52.8473 44.0696 52.698C43.9389 52.5393 43.7476 52.46 43.4956 52.46C42.9823 52.46 42.7256 52.7727 42.7256 53.398C42.7256 53.7527 42.8189 54.084 43.0056 54.392C43.2016 54.7 43.5516 55.0733 44.0556 55.512C44.6996 56.072 45.1429 56.5807 45.3856 57.038C45.6283 57.4953 45.7496 58.032 45.7496 58.648C45.7496 59.4507 45.5489 60.0667 45.1476 60.496C44.7556 60.9253 44.1816 61.14 43.4256 61.14ZM47.9646 56.828L46.1026 51.2H47.7406L48.7906 54.798H48.8186L49.8686 51.2H51.3666L49.5046 56.828V61H47.9646V56.828ZM56.4725 61.14C55.7352 61.14 55.1705 60.93 54.7785 60.51C54.3958 60.09 54.2045 59.4973 54.2045 58.732V53.468C54.2045 52.7027 54.3958 52.11 54.7785 51.69C55.1705 51.27 55.7352 51.06 56.4725 51.06C57.2098 51.06 57.7698 51.27 58.1525 51.69C58.5445 52.11 58.7405 52.7027 58.7405 53.468V54.504H57.2845V53.37C57.2845 52.7633 57.0278 52.46 56.5145 52.46C56.0012 52.46 55.7445 52.7633 55.7445 53.37V58.844C55.7445 59.4413 56.0012 59.74 56.5145 59.74C57.0278 59.74 57.2845 59.4413 57.2845 58.844V57.346H58.7405V58.732C58.7405 59.4973 58.5445 60.09 58.1525 60.51C57.7698 60.93 57.2098 61.14 56.4725 61.14ZM60.8519 51.2H62.9379L64.5339 61H62.9939L62.7139 59.054V59.082H60.9639L60.6839 61H59.2559L60.8519 51.2ZM62.5319 57.752L61.8459 52.908H61.8179L61.1459 57.752H62.5319ZM65.281 51.2H67.563C68.3564 51.2 68.935 51.3867 69.299 51.76C69.663 52.124 69.845 52.6887 69.845 53.454V54.056C69.845 55.0733 69.509 55.7173 68.837 55.988V56.016C69.2104 56.128 69.4717 56.3567 69.621 56.702C69.7797 57.0473 69.859 57.5093 69.859 58.088V59.81C69.859 60.09 69.8684 60.3187 69.887 60.496C69.9057 60.664 69.9524 60.832 70.027 61H68.459C68.403 60.8413 68.3657 60.692 68.347 60.552C68.3284 60.412 68.319 60.16 68.319 59.796V58.004C68.319 57.556 68.2444 57.2433 68.095 57.066C67.955 56.8887 67.7077 56.8 67.353 56.8H66.821V61H65.281V51.2ZM67.381 55.4C67.689 55.4 67.9177 55.3207 68.067 55.162C68.2257 55.0033 68.305 54.7373 68.305 54.364V53.608C68.305 53.2533 68.2397 52.9967 68.109 52.838C67.9877 52.6793 67.7917 52.6 67.521 52.6H66.821V55.4H67.381ZM70.9275 51.2H73.2095C74.0028 51.2 74.5815 51.3867 74.9455 51.76C75.3095 52.124 75.4915 52.6887 75.4915 53.454V54.056C75.4915 55.0733 75.1555 55.7173 74.4835 55.988V56.016C74.8568 56.128 75.1182 56.3567 75.2675 56.702C75.4262 57.0473 75.5055 57.5093 75.5055 58.088V59.81C75.5055 60.09 75.5148 60.3187 75.5335 60.496C75.5522 60.664 75.5988 60.832 75.6735 61H74.1055C74.0495 60.8413 74.0122 60.692 73.9935 60.552C73.9748 60.412 73.9655 60.16 73.9655 59.796V58.004C73.9655 57.556 73.8908 57.2433 73.7415 57.066C73.6015 56.8887 73.3542 56.8 72.9995 56.8H72.4675V61H70.9275V51.2ZM73.0275 55.4C73.3355 55.4 73.5642 55.3207 73.7135 55.162C73.8722 55.0033 73.9515 54.7373 73.9515 54.364V53.608C73.9515 53.2533 73.8862 52.9967 73.7555 52.838C73.6342 52.6793 73.4382 52.6 73.1675 52.6H72.4675V55.4H73.0275ZM78.8 61.14C78.044 61.14 77.4653 60.9253 77.064 60.496C76.6627 60.0667 76.462 59.46 76.462 58.676V53.524C76.462 52.74 76.6627 52.1333 77.064 51.704C77.4653 51.2747 78.044 51.06 78.8 51.06C79.556 51.06 80.1347 51.2747 80.536 51.704C80.9373 52.1333 81.138 52.74 81.138 53.524V58.676C81.138 59.46 80.9373 60.0667 80.536 60.496C80.1347 60.9253 79.556 61.14 78.8 61.14ZM78.8 59.74C79.332 59.74 79.598 59.418 79.598 58.774V53.426C79.598 52.782 79.332 52.46 78.8 52.46C78.268 52.46 78.002 52.782 78.002 53.426V58.774C78.002 59.418 78.268 59.74 78.8 59.74ZM84.1815 61.14C83.4348 61.14 82.8701 60.93 82.4875 60.51C82.1048 60.0807 81.9135 59.4693 81.9135 58.676V58.116H83.3695V58.788C83.3695 59.4227 83.6355 59.74 84.1675 59.74C84.4288 59.74 84.6248 59.6653 84.7555 59.516C84.8955 59.3573 84.9655 59.1053 84.9655 58.76C84.9655 58.3493 84.8721 57.99 84.6855 57.682C84.4988 57.3647 84.1535 56.9867 83.6495 56.548C83.0148 55.988 82.5715 55.484 82.3195 55.036C82.0675 54.5787 81.9415 54.0653 81.9415 53.496C81.9415 52.7213 82.1375 52.124 82.5295 51.704C82.9215 51.2747 83.4908 51.06 84.2375 51.06C84.9748 51.06 85.5301 51.2747 85.9035 51.704C86.2861 52.124 86.4775 52.7307 86.4775 53.524V53.93H85.0215V53.426C85.0215 53.09 84.9561 52.8473 84.8255 52.698C84.6948 52.5393 84.5035 52.46 84.2515 52.46C83.7381 52.46 83.4815 52.7727 83.4815 53.398C83.4815 53.7527 83.5748 54.084 83.7615 54.392C83.9575 54.7 84.3075 55.0733 84.8115 55.512C85.4555 56.072 85.8988 56.5807 86.1415 57.038C86.3841 57.4953 86.5055 58.032 86.5055 58.648C86.5055 59.4507 86.3048 60.0667 85.9035 60.496C85.5115 60.9253 84.9375 61.14 84.1815 61.14Z" fill="white"/>
</g>
<defs>
<clipPath id="clip0_44_669">
<rect width="281" height="240" fill="white" transform="translate(0 0.5)"/>
</clipPath>
</defs>
</svg>
