<svg width="48" height="49" viewBox="0 0 48 49" fill="none" xmlns="http://www.w3.org/2000/svg">
<rect y="0.5" width="48" height="48" rx="24" fill="#E4E4E7"/>
<path opacity="0.2" d="M33 15.5C33 18.5759 30.0338 21.8216 27.5025 24.0359C26.7907 22.7628 25.7408 21.7113 24.4688 20.9975C26.6784 18.4663 29.9241 15.5 33 15.5Z" fill="#18181B"/>
<path d="M33.75 15.5C33.75 15.3011 33.6709 15.1103 33.5303 14.9697C33.3896 14.829 33.1989 14.75 33 14.75C28.8675 14.75 24.6271 19.4103 22.2721 22.4966C21.4311 22.239 20.5413 22.1822 19.6744 22.3309C18.8074 22.4795 17.9874 22.8294 17.2802 23.3525C16.573 23.8755 15.9983 24.5571 15.6023 25.3426C15.2062 26.128 15 26.9954 15 27.875C15 30.77 13.1681 32.0684 13.0809 32.1284C12.9479 32.2183 12.8471 32.3484 12.7936 32.4998C12.74 32.6511 12.7364 32.8156 12.7833 32.9692C12.8303 33.1227 12.9252 33.2571 13.0542 33.3527C13.1832 33.4482 13.3394 33.4999 13.5 33.5H20.625C21.5046 33.5 22.3719 33.2937 23.1574 32.8977C23.9428 32.5017 24.6244 31.927 25.1475 31.2198C25.6705 30.5126 26.0204 29.6926 26.1691 28.8256C26.3177 27.9586 26.261 27.0689 26.0034 26.2278C29.0906 23.8728 33.75 19.6325 33.75 15.5ZM20.625 32H15.2465C15.8793 31.1009 16.5 29.7425 16.5 27.875C16.5 27.0592 16.7419 26.2616 17.1951 25.5833C17.6484 24.9049 18.2926 24.3762 19.0464 24.064C19.8001 23.7518 20.6295 23.6701 21.4297 23.8293C22.2299 23.9884 22.9649 24.3813 23.5418 24.9582C24.1187 25.5351 24.5115 26.2701 24.6707 27.0703C24.8299 27.8704 24.7482 28.6998 24.436 29.4536C24.1237 30.2073 23.595 30.8516 22.9167 31.3048C22.2383 31.7581 21.4408 32 20.625 32ZM23.6643 23.1453C23.9856 22.7291 24.3009 22.3369 24.6103 21.9688C25.3675 22.4804 26.0196 23.1324 26.5312 23.8897C26.1625 24.1984 25.7703 24.5138 25.3546 24.8356C24.9176 24.1586 24.3414 23.5824 23.6643 23.1453ZM27.6675 22.8941C27.1012 22.0951 26.4039 21.3978 25.605 20.8316C28.5843 17.5944 30.8315 16.6128 32.1581 16.34C31.8909 17.6675 30.9046 19.9147 27.6675 22.8941Z" fill="#18181B"/>
</svg>
