<svg width="48" height="49" viewBox="0 0 48 49" fill="none" xmlns="http://www.w3.org/2000/svg">
<rect y="0.5" width="48" height="48" rx="24" fill="#1A4199"/>
<path opacity="0.2" d="M32.25 17H15.75C15.5511 17 15.3603 17.079 15.2197 17.2197C15.079 17.3603 15 17.5511 15 17.75V31.25C15 31.4489 15.079 31.6397 15.2197 31.7803C15.3603 31.921 15.5511 32 15.75 32H32.25C32.4489 32 32.6397 31.921 32.7803 31.7803C32.921 31.6397 33 31.4489 33 31.25V17.75C33 17.5511 32.921 17.3603 32.7803 17.2197C32.6397 17.079 32.4489 17 32.25 17ZM21 26C20.555 26 20.12 25.868 19.75 25.6208C19.38 25.3736 19.0916 25.0222 18.9213 24.611C18.751 24.1999 18.7064 23.7475 18.7932 23.311C18.88 22.8746 19.0943 22.4737 19.409 22.159C19.7237 21.8443 20.1246 21.63 20.561 21.5432C20.9975 21.4564 21.4499 21.501 21.861 21.6713C22.2722 21.8416 22.6236 22.13 22.8708 22.5C23.118 22.87 23.25 23.305 23.25 23.75C23.25 24.3467 23.0129 24.919 22.591 25.341C22.169 25.7629 21.5967 26 21 26Z" fill="#F4F4F5"/>
<path d="M30.75 23C30.75 23.1989 30.671 23.3897 30.5303 23.5303C30.3897 23.671 30.1989 23.75 30 23.75H26.25C26.0511 23.75 25.8603 23.671 25.7197 23.5303C25.579 23.3897 25.5 23.1989 25.5 23C25.5 22.8011 25.579 22.6103 25.7197 22.4697C25.8603 22.329 26.0511 22.25 26.25 22.25H30C30.1989 22.25 30.3897 22.329 30.5303 22.4697C30.671 22.6103 30.75 22.8011 30.75 23ZM30 25.25H26.25C26.0511 25.25 25.8603 25.329 25.7197 25.4697C25.579 25.6103 25.5 25.8011 25.5 26C25.5 26.1989 25.579 26.3897 25.7197 26.5303C25.8603 26.671 26.0511 26.75 26.25 26.75H30C30.1989 26.75 30.3897 26.671 30.5303 26.5303C30.671 26.3897 30.75 26.1989 30.75 26C30.75 25.8011 30.671 25.6103 30.5303 25.4697C30.3897 25.329 30.1989 25.25 30 25.25ZM33.75 17.75V31.25C33.75 31.6478 33.592 32.0294 33.3107 32.3107C33.0294 32.592 32.6478 32.75 32.25 32.75H15.75C15.3522 32.75 14.9706 32.592 14.6893 32.3107C14.408 32.0294 14.25 31.6478 14.25 31.25V17.75C14.25 17.3522 14.408 16.9706 14.6893 16.6893C14.9706 16.408 15.3522 16.25 15.75 16.25H32.25C32.6478 16.25 33.0294 16.408 33.3107 16.6893C33.592 16.9706 33.75 17.3522 33.75 17.75ZM32.25 31.25V17.75H15.75V31.25H32.25ZM24.7256 28.0625C24.7754 28.2552 24.7465 28.4598 24.6454 28.6312C24.5443 28.8026 24.3793 28.9268 24.1866 28.9766C23.9939 29.0263 23.7893 28.9974 23.6179 28.8963C23.4465 28.7952 23.3222 28.6302 23.2725 28.4375C23.0259 27.4756 22.0481 26.75 20.9991 26.75C19.95 26.75 18.9731 27.4756 18.7256 28.4375C18.6759 28.6302 18.5517 28.7952 18.3802 28.8963C18.2088 28.9974 18.0043 29.0263 17.8116 28.9766C17.6189 28.9268 17.4538 28.8026 17.3527 28.6312C17.2516 28.4598 17.2228 28.2552 17.2725 28.0625C17.5159 27.1566 18.0912 26.3755 18.8841 25.8744C18.4627 25.4555 18.1752 24.921 18.058 24.3386C17.9408 23.7562 17.9992 23.152 18.2257 22.6028C18.4523 22.0536 18.8368 21.584 19.3305 21.2536C19.8242 20.9232 20.405 20.7468 20.9991 20.7468C21.5932 20.7468 22.1739 20.9232 22.6676 21.2536C23.1614 21.584 23.5459 22.0536 23.7724 22.6028C23.9989 23.152 24.0573 23.7562 23.9401 24.3386C23.8229 24.921 23.5354 25.4555 23.1141 25.8744C23.9078 26.3748 24.4836 27.1562 24.7266 28.0625H24.7256ZM21 25.25C21.2967 25.25 21.5867 25.162 21.8334 24.9972C22.08 24.8324 22.2723 24.5981 22.3858 24.324C22.4994 24.0499 22.5291 23.7483 22.4712 23.4574C22.4133 23.1664 22.2704 22.8991 22.0607 22.6893C21.8509 22.4796 21.5836 22.3367 21.2926 22.2788C21.0017 22.2209 20.7001 22.2506 20.426 22.3642C20.1519 22.4777 19.9176 22.67 19.7528 22.9166C19.588 23.1633 19.5 23.4533 19.5 23.75C19.5 24.1478 19.658 24.5294 19.9393 24.8107C20.2206 25.092 20.6022 25.25 21 25.25Z" fill="#F4F4F5"/>
</svg>
