<svg width="16" height="9" viewBox="0 0 16 9" fill="none" xmlns="http://www.w3.org/2000/svg">
<path d="M14.9132 1.6633L8.66325 7.9133C8.57615 8.0007 8.47266 8.07004 8.3587 8.11736C8.24475 8.16468 8.12257 8.18904 7.99918 8.18904C7.8758 8.18904 7.75362 8.16468 7.63967 8.11736C7.52571 8.07004 7.42222 8.0007 7.33512 7.9133L1.08512 1.6633C0.909002 1.48718 0.810059 1.24831 0.810059 0.999233C0.810059 0.750162 0.909002 0.511291 1.08512 0.335171C1.26124 0.159051 1.50011 0.0601076 1.74918 0.0601076C1.99826 0.0601076 2.23713 0.159051 2.41325 0.335171L7.99997 5.92189L13.5867 0.33439C13.7628 0.15827 14.0017 0.0593262 14.2507 0.0593262C14.4998 0.0593262 14.7387 0.15827 14.9148 0.33439C15.0909 0.510511 15.1899 0.749381 15.1899 0.998453C15.1899 1.24752 15.0909 1.48639 14.9148 1.66252L14.9132 1.6633Z" fill="#27272A"/>
</svg>
