<svg width="64" height="65" viewBox="0 0 64 65" fill="none" xmlns="http://www.w3.org/2000/svg">
<rect y="0.5" width="64" height="64" rx="32" fill="#E4E4E7"/>
<path d="M38.7332 19.2306H22.9832L23.2194 18.7581C23.9452 17.3544 25.044 16.178 26.3949 15.3581C27.7457 14.5382 29.2965 14.1066 30.8767 14.1107C32.457 14.1148 34.0055 14.5544 35.3521 15.3812C36.6988 16.208 37.7914 17.3901 38.51 18.7975L38.7332 19.2306Z" fill="url(#paint0_radial_29_1931)"/>
<path d="M23.2194 18.7581L22.9832 19.2306H38.7332L38.51 18.7975C38.1163 18.0231 37.6175 17.3406 37.04 16.7369H24.6763C24.1119 17.3275 23.6132 18.01 23.2194 18.7581Z" fill="url(#paint1_radial_29_1931)"/>
<path d="M23.2194 18.7581L22.9832 19.2306H38.7332L38.51 18.7975C38.1163 18.0231 37.6175 17.3406 37.04 16.7369H24.6763C24.1119 17.3275 23.6132 18.01 23.2194 18.7581Z" fill="url(#paint2_linear_29_1931)"/>
<g filter="url(#filter0_dd_29_1931)">
<path d="M25.141 17.7869C24.0266 17.8262 21.6261 18.0861 19.7584 19.5391C18.1335 20.803 17.8198 22.3176 17.8198 23.5894V24.2155C17.6965 26.5531 19.7164 30.6861 26.8538 30.6861H35.0753C42.2113 30.6861 44.2313 26.5531 44.1092 24.2155V23.5881C44.1092 22.3163 43.7942 20.8017 42.1706 19.5377C40.3016 18.0848 37.9011 17.8262 36.7868 17.7842H25.141V17.7869Z" fill="url(#paint3_linear_29_1931)"/>
<path d="M25.141 17.7869C24.0266 17.8262 21.6261 18.0861 19.7584 19.5391C18.1335 20.803 17.8198 22.3176 17.8198 23.5894V24.2155C17.6965 26.5531 19.7164 30.6861 26.8538 30.6861H35.0753C42.2113 30.6861 44.2313 26.5531 44.1092 24.2155V23.5881C44.1092 22.3163 43.7942 20.8017 42.1706 19.5377C40.3016 18.0848 37.9011 17.8262 36.7868 17.7842H25.141V17.7869Z" fill="url(#paint4_radial_29_1931)"/>
</g>
<path d="M30.8713 31.8175C22.9044 31.8175 16.4469 38.2619 16.4469 46.2288V50.8225H45.2956V46.2288C45.2956 38.2619 38.8382 31.8175 30.8713 31.8175Z" fill="#45BB85"/>
<path d="M30.8713 31.8175C22.9044 31.8175 16.4469 38.2619 16.4469 46.2288V50.8225H45.2956V46.2288C45.2956 38.2619 38.8382 31.8175 30.8713 31.8175Z" fill="url(#paint5_radial_29_1931)"/>
<path d="M21.6969 50.8225V35.1119H21.6891C20.048 36.4622 18.7267 38.1596 17.8205 40.0819C16.9143 42.0042 16.4456 44.1035 16.4483 46.2288V50.8225H21.6983H21.6969Z" fill="url(#paint6_linear_29_1931)"/>
<path d="M21.6969 50.8225V35.1119H21.6891C20.048 36.4622 18.7267 38.1596 17.8205 40.0819C16.9143 42.0042 16.4456 44.1035 16.4483 46.2288V50.8225H21.6983H21.6969Z" fill="url(#paint7_radial_29_1931)"/>
<path d="M40.0981 50.8225V35.1119H40.1073C41.7487 36.4621 43.0701 38.1594 43.9766 40.0817C44.8831 42.004 45.3519 44.1034 45.3495 46.2288V50.8225H40.0981Z" fill="url(#paint8_linear_29_1931)"/>
<path d="M40.0981 50.8225V35.1119H40.1073C41.7487 36.4621 43.0701 38.1594 43.9766 40.0817C44.8831 42.004 45.3519 44.1034 45.3495 46.2288V50.8225H40.0981Z" fill="url(#paint9_radial_29_1931)"/>
<g filter="url(#filter1_d_29_1931)">
<path d="M26.9797 39.6571L30.9645 36.8706L34.8849 39.6059C35.4362 40.0324 36.2145 40.2162 36.2145 39.1413V32.8281C34.587 32.1981 32.8151 31.8175 30.9645 31.8175C29.1139 31.8175 27.342 32.1325 25.7145 32.7625V38.9181C25.7145 40.1703 26.4941 39.9983 26.9797 39.6571Z" fill="url(#paint10_radial_29_1931)"/>
<path d="M26.9797 39.6571L30.9645 36.8706L34.8849 39.6059C35.4362 40.0324 36.2145 40.2162 36.2145 39.1413V32.8281C34.587 32.1981 32.8151 31.8175 30.9645 31.8175C29.1139 31.8175 27.342 32.1325 25.7145 32.7625V38.9181C25.7145 40.1703 26.4941 39.9983 26.9797 39.6571Z" fill="url(#paint11_linear_29_1931)"/>
<path d="M26.9797 39.6571L30.9645 36.8706L34.8849 39.6059C35.4362 40.0324 36.2145 40.2162 36.2145 39.1413V32.8281C34.587 32.1981 32.8151 31.8175 30.9645 31.8175C29.1139 31.8175 27.342 32.1325 25.7145 32.7625V38.9181C25.7145 40.1703 26.4941 39.9983 26.9797 39.6571Z" fill="url(#paint12_radial_29_1931)"/>
</g>
<path d="M26.9797 39.6571L30.9645 36.8706L34.8849 39.6059C35.4362 40.0324 36.2145 40.2162 36.2145 39.1413V32.8281C34.587 32.1981 32.8151 31.8175 30.9645 31.8175C29.1139 31.8175 27.342 32.1325 25.7145 32.7625V38.9181C25.7145 40.1703 26.4941 39.9983 26.9797 39.6571Z" fill="url(#paint13_linear_29_1931)"/>
<path d="M26.9797 39.6571L30.9645 36.8706L34.8849 39.6059C35.4362 40.0324 36.2145 40.2162 36.2145 39.1413V32.8281C34.587 32.1981 32.8151 31.8175 30.9645 31.8175C29.1139 31.8175 27.342 32.1325 25.7145 32.7625V38.9181C25.7145 40.1703 26.4941 39.9983 26.9797 39.6571Z" fill="url(#paint14_radial_29_1931)"/>
<path d="M32.0788 37.3169L31.2257 38.0781C31.0157 38.2619 30.7138 38.2619 30.5038 38.0781L29.6507 37.3169C29.1817 36.8942 28.8063 36.3781 28.5486 35.8017C28.2909 35.2253 28.1566 34.6014 28.1544 33.97V29.9144C28.1544 28.4181 29.3619 27.2106 30.8582 27.2106C32.3544 27.2106 33.5619 28.4181 33.5619 29.9144V33.97C33.5619 35.2431 33.0238 36.4637 32.0788 37.3169Z" fill="url(#paint15_radial_29_1931)"/>
<path d="M30.8712 35.9781C29.375 35.9781 28.1675 34.7706 28.1675 33.2744V29.9144C28.1675 28.4181 29.375 27.2106 30.8712 27.2106C32.3675 27.2106 33.575 28.4181 33.575 29.9144V33.2744C33.5715 33.9904 33.2856 34.6761 32.7793 35.1824C32.273 35.6887 31.5872 35.9747 30.8712 35.9781Z" fill="url(#paint16_radial_29_1931)"/>
<path d="M30.8712 35.9781C29.375 35.9781 28.1675 34.7706 28.1675 33.2744V29.9144C28.1675 28.4181 29.375 27.2106 30.8712 27.2106C32.3675 27.2106 33.575 28.4181 33.575 29.9144V33.2744C33.5715 33.9904 33.2856 34.6761 32.7793 35.1824C32.273 35.6887 31.5872 35.9747 30.8712 35.9781Z" fill="url(#paint17_radial_29_1931)"/>
<path d="M34.1656 24.9269V31.9488L36.6463 31.0956C37.8013 30.7019 38.5625 29.6125 38.5625 28.3919V25.0713C37.0925 25.0188 35.6225 24.9663 34.1656 24.9269Z" fill="url(#paint18_radial_29_1931)"/>
<path d="M23.18 24.8481L23.1669 28.3787C23.1669 29.5994 23.9412 30.6756 25.0831 31.0825L27.5637 31.9356V24.8087C26.12 24.8087 24.65 24.8087 23.18 24.8481Z" fill="url(#paint19_radial_29_1931)"/>
<path d="M23.18 24.8481L23.1669 28.3787C23.1669 29.5994 23.9412 30.6756 25.0831 31.0825L27.5637 31.9356V24.8087C26.12 24.8087 24.65 24.8087 23.18 24.8481Z" fill="url(#paint20_linear_29_1931)"/>
<path d="M24.44 27.565C25.0214 27.565 25.5789 27.3341 25.9899 26.923C26.401 26.512 26.6319 25.9544 26.6319 25.3731C26.6319 24.7918 26.401 24.2343 25.9899 23.8232C25.5789 23.4122 25.0214 23.1812 24.44 23.1812C23.8587 23.1812 23.3012 23.4122 22.8902 23.8232C22.4791 24.2343 22.2482 24.7918 22.2482 25.3731C22.2482 25.9544 22.4791 26.512 22.8902 26.923C23.3012 27.3341 23.8587 27.565 24.44 27.565Z" fill="url(#paint21_radial_29_1931)"/>
<g filter="url(#filter2_f_29_1931)">
<path d="M24.44 26.8431C24.8298 26.8431 25.2037 26.6882 25.4794 26.4126C25.7551 26.1369 25.91 25.763 25.91 25.3731C25.91 24.9833 25.7551 24.6094 25.4794 24.3337C25.2037 24.058 24.8298 23.9031 24.44 23.9031C24.0501 23.9031 23.6762 24.058 23.4005 24.3337C23.1248 24.6094 22.97 24.9833 22.97 25.3731C22.97 25.763 23.1248 26.1369 23.4005 26.4126C23.6762 26.6882 24.0501 26.8431 24.44 26.8431Z" fill="#DA821C"/>
</g>
<g filter="url(#filter3_d_29_1931)">
<path d="M37.2894 27.565C37.8707 27.565 38.4282 27.3341 38.8393 26.923C39.2504 26.512 39.4813 25.9544 39.4813 25.3731C39.4813 24.7918 39.2504 24.2343 38.8393 23.8232C38.4282 23.4122 37.8707 23.1812 37.2894 23.1812C36.7081 23.1812 36.1506 23.4122 35.7395 23.8232C35.3285 24.2343 35.0975 24.7918 35.0975 25.3731C35.0975 25.9544 35.3285 26.512 35.7395 26.923C36.1506 27.3341 36.7081 27.565 37.2894 27.565Z" fill="url(#paint22_linear_29_1931)"/>
<path d="M37.2894 27.565C37.8707 27.565 38.4282 27.3341 38.8393 26.923C39.2504 26.512 39.4813 25.9544 39.4813 25.3731C39.4813 24.7918 39.2504 24.2343 38.8393 23.8232C38.4282 23.4122 37.8707 23.1812 37.2894 23.1812C36.7081 23.1812 36.1506 23.4122 35.7395 23.8232C35.3285 24.2343 35.0975 24.7918 35.0975 25.3731C35.0975 25.9544 35.3285 26.512 35.7395 26.923C36.1506 27.3341 36.7081 27.565 37.2894 27.565Z" fill="url(#paint23_radial_29_1931)"/>
</g>
<g filter="url(#filter4_f_29_1931)">
<path d="M37.2894 26.8996C37.6942 26.8996 38.0825 26.7387 38.3687 26.4525C38.655 26.1662 38.8158 25.778 38.8158 25.3731C38.8158 24.9683 38.655 24.58 38.3687 24.2938C38.0825 24.0075 37.6942 23.8467 37.2894 23.8467C36.8845 23.8467 36.4963 24.0075 36.21 24.2938C35.9238 24.58 35.7629 24.9683 35.7629 25.3731C35.7629 25.778 35.9238 26.1662 36.21 26.4525C36.4963 26.7387 36.8845 26.8996 37.2894 26.8996Z" fill="#FFBF34"/>
<path d="M37.2894 26.8996C37.6942 26.8996 38.0825 26.7387 38.3687 26.4525C38.655 26.1662 38.8158 25.778 38.8158 25.3731C38.8158 24.9683 38.655 24.58 38.3687 24.2938C38.0825 24.0075 37.6942 23.8467 37.2894 23.8467C36.8845 23.8467 36.4963 24.0075 36.21 24.2938C35.9238 24.58 35.7629 24.9683 35.7629 25.3731C35.7629 25.778 35.9238 26.1662 36.21 26.4525C36.4963 26.7387 36.8845 26.8996 37.2894 26.8996Z" fill="url(#paint24_radial_29_1931)"/>
<path d="M37.2894 26.8996C37.6942 26.8996 38.0825 26.7387 38.3687 26.4525C38.655 26.1662 38.8158 25.778 38.8158 25.3731C38.8158 24.9683 38.655 24.58 38.3687 24.2938C38.0825 24.0075 37.6942 23.8467 37.2894 23.8467C36.8845 23.8467 36.4963 24.0075 36.21 24.2938C35.9238 24.58 35.7629 24.9683 35.7629 25.3731C35.7629 25.778 35.9238 26.1662 36.21 26.4525C36.4963 26.7387 36.8845 26.8996 37.2894 26.8996Z" fill="url(#paint25_radial_29_1931)"/>
</g>
<path d="M40.0982 35.1512C39.2713 34.4556 38.3525 33.8519 37.3813 33.3662V41.11C37.3813 41.4119 37.145 41.6481 36.8432 41.6481H24.9388C24.6369 41.6481 24.4007 41.4119 24.4007 41.11V33.34C23.4294 33.8256 22.5238 34.4162 21.6969 35.1119V50.8225H40.0982V35.1512Z" fill="url(#paint26_linear_29_1931)"/>
<path d="M40.0982 35.1512C39.2713 34.4556 38.3525 33.8519 37.3813 33.3662V41.11C37.3813 41.4119 37.145 41.6481 36.8432 41.6481H24.9388C24.6369 41.6481 24.4007 41.4119 24.4007 41.11V33.34C23.4294 33.8256 22.5238 34.4162 21.6969 35.1119V50.8225H40.0982V35.1512Z" fill="url(#paint27_radial_29_1931)"/>
<path d="M40.0982 35.1512C39.2713 34.4556 38.3525 33.8519 37.3813 33.3662V41.11C37.3813 41.4119 37.145 41.6481 36.8432 41.6481H24.9388C24.6369 41.6481 24.4007 41.4119 24.4007 41.11V33.34C23.4294 33.8256 22.5238 34.4162 21.6969 35.1119V50.8225H40.0982V35.1512Z" fill="url(#paint28_linear_29_1931)"/>
<path d="M40.0982 35.1512C39.2713 34.4556 38.3525 33.8519 37.3813 33.3662V41.11C37.3813 41.4119 37.145 41.6481 36.8432 41.6481H24.9388C24.6369 41.6481 24.4007 41.4119 24.4007 41.11V33.34C23.4294 33.8256 22.5238 34.4162 21.6969 35.1119V50.8225H40.0982V35.1512Z" fill="url(#paint29_linear_29_1931)"/>
<path d="M40.0982 35.1512C39.2713 34.4556 38.3525 33.8519 37.3813 33.3662V41.11C37.3813 41.4119 37.145 41.6481 36.8432 41.6481H24.9388C24.6369 41.6481 24.4007 41.4119 24.4007 41.11V33.34C23.4294 33.8256 22.5238 34.4162 21.6969 35.1119V50.8225H40.0982V35.1512Z" fill="url(#paint30_radial_29_1931)"/>
<g filter="url(#filter5_f_29_1931)">
<path d="M35.4519 45.3494H26.3431C26.2574 45.3476 26.1721 45.3631 26.0924 45.3948C26.0127 45.4265 25.9401 45.4738 25.8789 45.534C25.8178 45.5941 25.7693 45.6659 25.7363 45.7451C25.7033 45.8243 25.6865 45.9093 25.6869 45.9951V50.7464H36.1213V45.9951C36.1142 45.8221 36.0407 45.6584 35.916 45.5381C35.7913 45.4178 35.6251 45.3502 35.4519 45.3494Z" fill="#3661C6"/>
</g>
<g filter="url(#filter6_d_29_1931)">
<path d="M35.4519 45.3494H26.3431C25.9756 45.3494 25.6869 45.6381 25.6869 46.0056V50.8356H36.1213V46.0056C36.1155 45.8311 36.0428 45.6655 35.9181 45.5433C35.7934 45.4211 35.6265 45.3516 35.4519 45.3494Z" fill="url(#paint31_linear_29_1931)"/>
</g>
<g filter="url(#filter7_d_29_1931)">
<path d="M37.7487 23.2337L37.7619 23.0894C37.8144 21.6587 36.6725 20.4119 35.2287 20.4119H26.6975C25.2012 20.4119 24.0331 21.685 24.1644 23.1681L24.5581 29.2712C24.7232 30.5183 25.3362 31.6627 26.2829 32.491C27.2295 33.3194 28.4452 33.7751 29.7031 33.7731H32.1969C34.7956 33.7731 37.0006 31.8437 37.3419 29.2712L37.7487 23.2337Z" fill="url(#paint32_radial_29_1931)"/>
</g>
<path d="M37.7487 23.2337L37.7619 23.0894C37.8144 21.6587 36.6725 20.4119 35.2287 20.4119H26.6975C25.2012 20.4119 24.0331 21.685 24.1644 23.1681L24.5581 29.2712C24.7232 30.5183 25.3362 31.6627 26.2829 32.491C27.2295 33.3194 28.4452 33.7751 29.7031 33.7731H32.1969C34.7956 33.7731 37.0006 31.8437 37.3419 29.2712L37.7487 23.2337Z" fill="url(#paint33_radial_29_1931)"/>
<path d="M37.7487 23.2337L37.7619 23.0894C37.8144 21.6587 36.6725 20.4119 35.2287 20.4119H26.6975C25.2012 20.4119 24.0331 21.685 24.1644 23.1681L24.5581 29.2712C24.7232 30.5183 25.3362 31.6627 26.2829 32.491C27.2295 33.3194 28.4452 33.7751 29.7031 33.7731H32.1969C34.7956 33.7731 37.0006 31.8437 37.3419 29.2712L37.7487 23.2337Z" fill="url(#paint34_radial_29_1931)"/>
<path d="M37.7487 23.2337L37.7619 23.0894C37.8144 21.6587 36.6725 20.4119 35.2287 20.4119H26.6975C25.2012 20.4119 24.0331 21.685 24.1644 23.1681L24.5581 29.2712C24.7232 30.5183 25.3362 31.6627 26.2829 32.491C27.2295 33.3194 28.4452 33.7751 29.7031 33.7731H32.1969C34.7956 33.7731 37.0006 31.8437 37.3419 29.2712L37.7487 23.2337Z" fill="url(#paint35_radial_29_1931)"/>
<g filter="url(#filter8_f_29_1931)">
<path d="M30.2124 25.3009L29.5168 27.5453C29.3724 28.0047 29.7137 28.4641 30.1993 28.4641H31.2231C31.7087 28.4641 32.0499 28.0047 31.9056 27.5453L31.2231 25.3009C31.1897 25.193 31.1226 25.0986 31.0317 25.0315C30.9407 24.9645 30.8307 24.9283 30.7177 24.9283C30.6048 24.9283 30.4948 24.9645 30.4038 25.0315C30.3129 25.0986 30.2458 25.193 30.2124 25.3009Z" fill="#F1901C"/>
</g>
<g filter="url(#filter9_f_29_1931)">
<path d="M30.4644 25.0056L29.7688 27.25C29.6244 27.7094 29.9656 28.1687 30.4513 28.1687H31.475C31.9606 28.1687 32.3019 27.7094 32.1575 27.25L31.475 25.0056C31.4416 24.8977 31.3746 24.8033 31.2836 24.7362C31.1927 24.6692 31.0827 24.633 30.9697 24.633C30.8567 24.633 30.7467 24.6692 30.6558 24.7362C30.5648 24.8033 30.4978 24.8977 30.4644 25.0056Z" fill="#FFCC28"/>
<path d="M30.4644 25.0056L29.7688 27.25C29.6244 27.7094 29.9656 28.1687 30.4513 28.1687H31.475C31.9606 28.1687 32.3019 27.7094 32.1575 27.25L31.475 25.0056C31.4416 24.8977 31.3746 24.8033 31.2836 24.7362C31.1927 24.6692 31.0827 24.633 30.9697 24.633C30.8567 24.633 30.7467 24.6692 30.6558 24.7362C30.5648 24.8033 30.4978 24.8977 30.4644 25.0056Z" fill="url(#paint36_linear_29_1931)"/>
<path d="M30.4644 25.0056L29.7688 27.25C29.6244 27.7094 29.9656 28.1687 30.4513 28.1687H31.475C31.9606 28.1687 32.3019 27.7094 32.1575 27.25L31.475 25.0056C31.4416 24.8977 31.3746 24.8033 31.2836 24.7362C31.1927 24.6692 31.0827 24.633 30.9697 24.633C30.8567 24.633 30.7467 24.6692 30.6558 24.7362C30.5648 24.8033 30.4978 24.8977 30.4644 25.0056Z" fill="url(#paint37_linear_29_1931)"/>
<path d="M30.4644 25.0056L29.7688 27.25C29.6244 27.7094 29.9656 28.1687 30.4513 28.1687H31.475C31.9606 28.1687 32.3019 27.7094 32.1575 27.25L31.475 25.0056C31.4416 24.8977 31.3746 24.8033 31.2836 24.7362C31.1927 24.6692 31.0827 24.633 30.9697 24.633C30.8567 24.633 30.7467 24.6692 30.6558 24.7362C30.5648 24.8033 30.4978 24.8977 30.4644 25.0056Z" fill="url(#paint38_linear_29_1931)"/>
</g>
<path d="M30.4644 25.0056L29.7688 27.25C29.6244 27.7094 29.9656 28.1687 30.4513 28.1687H31.475C31.9606 28.1687 32.3019 27.7094 32.1575 27.25L31.475 25.0056C31.4416 24.8977 31.3746 24.8033 31.2836 24.7362C31.1927 24.6692 31.0827 24.633 30.9697 24.633C30.8567 24.633 30.7467 24.6692 30.6558 24.7362C30.5648 24.8033 30.4978 24.8977 30.4644 25.0056Z" fill="url(#paint39_linear_29_1931)"/>
<g filter="url(#filter10_f_29_1931)">
<path d="M30.8844 29.4419C30.1757 29.4419 29.5063 29.2712 28.9419 28.9694C28.745 28.8644 28.5482 29.0875 28.6663 29.2712C29.1388 29.9931 29.9525 30.4787 30.8844 30.4787C31.8163 30.4787 32.63 29.9931 33.1025 29.2712C33.2207 29.0875 33.0107 28.8775 32.8269 28.9694C32.2625 29.2712 31.5932 29.4419 30.8844 29.4419Z" stroke="url(#paint40_radial_29_1931)" stroke-width="0.2"/>
</g>
<path d="M30.8844 29.4419C30.1757 29.4419 29.5063 29.2712 28.9419 28.9694C28.745 28.8644 28.5482 29.0875 28.6663 29.2712C29.1388 29.9931 29.9525 30.4787 30.8844 30.4787C31.8163 30.4787 32.63 29.9931 33.1025 29.2712C33.2207 29.0875 33.0107 28.8775 32.8269 28.9694C32.2625 29.2712 31.5932 29.4419 30.8844 29.4419Z" fill="#89004E"/>
<g filter="url(#filter11_d_29_1931)">
<path d="M35.5897 22.3386C35.5897 22.3386 34.7694 21.7178 33.365 21.8871" stroke="#B44115" stroke-width="0.5" stroke-miterlimit="10" stroke-linecap="round" stroke-linejoin="round"/>
</g>
<g filter="url(#filter12_f_29_1931)">
<path d="M35.5897 22.2572C35.5897 22.2572 34.7694 21.6364 33.365 21.8057" stroke="#C76C5B" stroke-width="0.1" stroke-miterlimit="10" stroke-linecap="round" stroke-linejoin="round"/>
</g>
<g filter="url(#filter13_d_29_1931)">
<path d="M26.3301 22.3386C26.3301 22.3386 27.1504 21.7178 28.5561 21.8871" stroke="#B44115" stroke-width="0.5" stroke-miterlimit="10" stroke-linecap="round" stroke-linejoin="round"/>
</g>
<g filter="url(#filter14_f_29_1931)">
<path d="M26.3301 22.2572C26.3301 22.2572 27.1504 21.6364 28.5561 21.8057" stroke="#C76C5B" stroke-width="0.1" stroke-miterlimit="10" stroke-linecap="round" stroke-linejoin="round"/>
</g>
<g filter="url(#filter15_d_29_1931)">
<path d="M34.1262 21.4619H37.2671C36.8077 20.8319 36.0569 20.4119 35.2301 20.4119H31.8832C32.4344 21.0681 33.26 21.4619 34.1262 21.4619Z" fill="url(#paint41_radial_29_1931)"/>
</g>
<path d="M45.1027 41.8187C45.8245 41.8187 46.4152 42.4094 46.4152 43.1312V46.1369H43.7902V43.1312C43.7902 42.4094 44.3677 41.8187 45.1027 41.8187Z" fill="url(#paint42_radial_29_1931)"/>
<path d="M45.1027 41.8187C45.8245 41.8187 46.4152 42.4094 46.4152 43.1312V46.1369H43.7902V43.1312C43.7902 42.4094 44.3677 41.8187 45.1027 41.8187Z" fill="url(#paint43_radial_29_1931)"/>
<path d="M45.1027 41.8187C45.8245 41.8187 46.4152 42.4094 46.4152 43.1312V46.1369H43.7902V43.1312C43.7902 42.4094 44.3677 41.8187 45.1027 41.8187Z" fill="url(#paint44_radial_29_1931)"/>
<path d="M44.2378 40.0469H42.9253V43.9844H44.2378V40.0469Z" fill="url(#paint45_linear_29_1931)"/>
<path d="M44.2378 40.0469H42.9253V43.9844H44.2378V40.0469Z" fill="url(#paint46_radial_29_1931)"/>
<path d="M42.6143 37.7093H44.6145V39.9852C44.6145 40.0722 44.5799 40.1557 44.5184 40.2172C44.4569 40.2787 44.3734 40.3133 44.2864 40.3133H42.9424C42.8554 40.3133 42.7719 40.2787 42.7104 40.2172C42.6488 40.1557 42.6143 40.0722 42.6143 39.9852V37.7093Z" fill="url(#paint47_radial_29_1931)"/>
<path d="M42.6143 37.7093H44.6145V39.9852C44.6145 40.0722 44.5799 40.1557 44.5184 40.2172C44.4569 40.2787 44.3734 40.3133 44.2864 40.3133H42.9424C42.8554 40.3133 42.7719 40.2787 42.7104 40.2172C42.6488 40.1557 42.6143 40.0722 42.6143 39.9852V37.7093Z" fill="url(#paint48_radial_29_1931)"/>
<path d="M42.6143 37.7093H44.6145V39.9852C44.6145 40.0722 44.5799 40.1557 44.5184 40.2172C44.4569 40.2787 44.3734 40.3133 44.2864 40.3133H42.9424C42.8554 40.3133 42.7719 40.2787 42.7104 40.2172C42.6488 40.1557 42.6143 40.0722 42.6143 39.9852V37.7093Z" fill="url(#paint49_linear_29_1931)"/>
<g filter="url(#filter16_ddd_29_1931)">
<path d="M39.8304 25.969C39.6211 25.969 39.4203 26.0521 39.2722 26.2C39.124 26.3478 39.0406 26.5485 39.0403 26.7578V35.7511C39.0403 36.2732 39.2477 36.774 39.6169 37.1432C39.9861 37.5124 40.4869 37.7198 41.009 37.7198H46.4231C46.9452 37.7198 47.446 37.5124 47.8152 37.1432C48.1844 36.774 48.3918 36.2732 48.3918 35.7511V26.7578C48.3918 26.5484 48.3087 26.3476 48.1606 26.1996C48.0126 26.0515 47.8118 25.9683 47.6024 25.9683C47.393 25.9683 47.1922 26.0515 47.0441 26.1996C46.8961 26.3476 46.8129 26.5484 46.8129 26.7578V32.5984C46.8129 32.9044 46.6914 33.1979 46.475 33.4142C46.2586 33.6306 45.9652 33.7521 45.6592 33.7521C45.3532 33.7521 45.0598 33.6306 44.8434 33.4142C44.6271 33.1979 44.5055 32.9044 44.5055 32.5984V26.7578C44.4972 26.554 44.4104 26.3613 44.2633 26.22C44.1161 26.0788 43.92 25.9999 43.7161 25.9999C43.5121 25.9999 43.316 26.0788 43.1689 26.22C43.0217 26.3613 42.9349 26.554 42.9266 26.7578V32.5984C42.9266 32.9044 42.805 33.1979 42.5887 33.4142C42.3723 33.6306 42.0789 33.7521 41.7729 33.7521C41.4669 33.7521 41.1735 33.6306 40.9571 33.4142C40.7408 33.1979 40.6192 32.9044 40.6192 32.5984V26.7578C40.6189 26.5487 40.5357 26.3483 40.3878 26.2004C40.2399 26.0526 40.0395 25.9693 39.8304 25.969Z" fill="#C7B3DB"/>
</g>
<path d="M34.1485 23.5619C35.0174 23.5619 35.7524 24.1617 35.9519 24.9715C35.9655 25.0255 35.9666 25.0819 35.9551 25.1363C35.9436 25.1908 35.9197 25.2419 35.8854 25.2857C35.8511 25.3296 35.8071 25.365 35.757 25.3892C35.7069 25.4135 35.6519 25.4259 35.5962 25.4256H32.6247C32.5798 25.4256 32.5353 25.4157 32.4946 25.3966C32.4539 25.3775 32.4179 25.3497 32.3891 25.3151C32.3603 25.2806 32.3394 25.2401 32.328 25.1966C32.3165 25.1531 32.3148 25.1076 32.3229 25.0634C32.4895 24.2102 33.2429 23.5619 34.1485 23.5619Z" fill="white"/>
<path d="M33.873 23.9241C34.0556 23.9243 34.2358 23.9666 34.3994 24.0477C34.5631 24.1288 34.7058 24.2466 34.8165 24.3919C34.9272 24.5371 35.003 24.706 35.0378 24.8853C35.0727 25.0645 35.0657 25.2495 35.0175 25.4256H32.7206C32.6733 25.249 32.6673 25.0639 32.703 24.8845C32.7386 24.7052 32.815 24.5364 32.9263 24.3913C33.0375 24.2462 33.1806 24.1286 33.3446 24.0476C33.5085 23.9666 33.6901 23.9243 33.873 23.9241Z" fill="url(#paint50_radial_29_1931)"/>
<path d="M33.1918 25.1119C33.1918 24.7339 33.4937 24.4321 33.8717 24.4321C33.9891 24.4308 34.1047 24.46 34.2074 24.5168C34.3101 24.5737 34.3962 24.6563 34.4573 24.7565C34.5185 24.8566 34.5525 24.971 34.5562 25.0883C34.5598 25.2056 34.5329 25.3219 34.4781 25.4256H33.2732C33.2185 25.3302 33.1904 25.2219 33.1918 25.1119Z" fill="black"/>
<g filter="url(#filter17_f_29_1931)">
<path d="M33.785 24.1748C33.869 24.2877 33.6931 24.4268 33.491 24.5764C33.2902 24.7274 33.1406 24.8337 33.0566 24.7208C32.9713 24.6066 33.0658 24.3927 33.2666 24.2418C33.4687 24.0921 33.6997 24.0619 33.785 24.1761V24.1748Z" fill="#C7A7A3"/>
<path d="M33.785 24.1748C33.869 24.2877 33.6931 24.4268 33.491 24.5764C33.2902 24.7274 33.1406 24.8337 33.0566 24.7208C32.9713 24.6066 33.0658 24.3927 33.2666 24.2418C33.4687 24.0921 33.6997 24.0619 33.785 24.1761V24.1748Z" fill="url(#paint51_radial_29_1931)"/>
</g>
<g filter="url(#filter18_f_29_1931)">
<path d="M34.9308 24.9557C34.8956 24.7228 34.7876 24.5069 34.6224 24.3389L34.2772 24.7195L34.4334 25.024L34.9308 24.9557Z" fill="url(#paint52_linear_29_1931)"/>
</g>
<path d="M27.7804 23.5619C26.9102 23.5619 26.1752 24.1617 25.9757 24.9715C25.962 25.0256 25.961 25.0821 25.9726 25.1367C25.9842 25.1912 26.0081 25.2424 26.0426 25.2863C26.0771 25.3301 26.1212 25.3655 26.1715 25.3896C26.2217 25.4138 26.2769 25.4261 26.3327 25.4256H29.3042C29.3492 25.4258 29.3938 25.4161 29.4346 25.397C29.4755 25.378 29.5116 25.3502 29.5404 25.3156C29.5693 25.281 29.5901 25.2404 29.6015 25.1968C29.6128 25.1532 29.6144 25.1077 29.6061 25.0634C29.5218 24.6408 29.294 24.2604 28.9612 23.9868C28.6284 23.7131 28.2112 23.563 27.7804 23.5619Z" fill="white"/>
<path d="M28.056 23.9241C27.8733 23.9244 27.6932 23.9667 27.5295 24.0478C27.3658 24.1289 27.223 24.2466 27.1122 24.3919C27.0014 24.5371 26.9255 24.7059 26.8905 24.8851C26.8555 25.0644 26.8622 25.2494 26.9102 25.4256H29.207C29.2346 25.3233 29.2487 25.2179 29.249 25.1119C29.2466 24.7965 29.1198 24.4948 28.8962 24.2724C28.6725 24.05 28.3714 23.9248 28.056 23.9241Z" fill="url(#paint53_radial_29_1931)"/>
<path d="M28.7358 25.1119C28.7361 25.0226 28.7188 24.934 28.6848 24.8514C28.6507 24.7687 28.6006 24.6936 28.5374 24.6304C28.4742 24.5672 28.3992 24.5172 28.3165 24.4831C28.2339 24.4491 28.1453 24.4317 28.0559 24.4321C27.9387 24.431 27.8232 24.4604 27.7207 24.5173C27.6182 24.5743 27.5322 24.6569 27.4713 24.757C27.4103 24.8572 27.3763 24.9714 27.3728 25.0886C27.3692 25.2058 27.3961 25.322 27.4509 25.4256H28.6557C28.7074 25.3291 28.7349 25.2214 28.7358 25.1119Z" fill="black"/>
<g filter="url(#filter19_f_29_1931)">
<path d="M29.1414 24.9728C29.1414 24.5882 28.829 24.3323 28.745 24.2549L28.3605 24.6263L28.5967 25.108L29.1414 24.9728Z" fill="url(#paint54_linear_29_1931)"/>
</g>
<g filter="url(#filter20_f_29_1931)">
<path d="M27.8206 24.664C28.0736 24.53 28.2237 24.3175 28.1558 24.1894C28.088 24.0613 27.8278 24.0661 27.5748 24.2001C27.3218 24.3341 27.1717 24.5467 27.2396 24.6748C27.3075 24.8029 27.5676 24.7981 27.8206 24.664Z" fill="#C7A7A3" fill-opacity="0.9"/>
<path d="M27.8206 24.664C28.0736 24.53 28.2237 24.3175 28.1558 24.1894C28.088 24.0613 27.8278 24.0661 27.5748 24.2001C27.3218 24.3341 27.1717 24.5467 27.2396 24.6748C27.3075 24.8029 27.5676 24.7981 27.8206 24.664Z" fill="url(#paint55_radial_29_1931)"/>
</g>
<g filter="url(#filter21_d_29_1931)">
<path d="M40.7478 44.6879C40.7471 44.434 40.8472 44.1902 41.0261 44.0101C41.205 43.8299 41.4481 43.7282 41.702 43.7271H44.8402C45.2579 43.7271 45.6585 43.8931 45.9539 44.1884C46.2492 44.4838 46.4152 44.8844 46.4152 45.3021V49.51C46.4152 49.8581 46.2769 50.1919 46.0307 50.4381C45.7846 50.6842 45.4508 50.8225 45.1027 50.8225H41.702C41.4846 50.823 41.2735 50.7496 41.1033 50.6144C40.9331 50.4793 40.8138 50.2903 40.765 50.0785C40.7162 49.8666 40.7407 49.6445 40.8347 49.4485C40.9286 49.2525 41.0863 49.0941 41.282 48.9994C41.122 48.9192 40.9875 48.7961 40.8935 48.6438C40.7996 48.4915 40.7498 48.3161 40.7498 48.1371C40.7498 47.9582 40.7996 47.7827 40.8935 47.6305C40.9875 47.4782 41.122 47.355 41.282 47.2748C41.122 47.1946 40.9875 47.0714 40.8935 46.9192C40.7996 46.7669 40.7498 46.5915 40.7498 46.4125C40.7498 46.2335 40.7996 46.0581 40.8935 45.9058C40.9875 45.7536 41.122 45.6304 41.282 45.5502C41.1217 45.4702 40.9868 45.3472 40.8924 45.1949C40.7981 45.0426 40.748 44.867 40.7478 44.6879Z" fill="url(#paint56_linear_29_1931)"/>
<path d="M40.7478 44.6879C40.7471 44.434 40.8472 44.1902 41.0261 44.0101C41.205 43.8299 41.4481 43.7282 41.702 43.7271H44.8402C45.2579 43.7271 45.6585 43.8931 45.9539 44.1884C46.2492 44.4838 46.4152 44.8844 46.4152 45.3021V49.51C46.4152 49.8581 46.2769 50.1919 46.0307 50.4381C45.7846 50.6842 45.4508 50.8225 45.1027 50.8225H41.702C41.4846 50.823 41.2735 50.7496 41.1033 50.6144C40.9331 50.4793 40.8138 50.2903 40.765 50.0785C40.7162 49.8666 40.7407 49.6445 40.8347 49.4485C40.9286 49.2525 41.0863 49.0941 41.282 48.9994C41.122 48.9192 40.9875 48.7961 40.8935 48.6438C40.7996 48.4915 40.7498 48.3161 40.7498 48.1371C40.7498 47.9582 40.7996 47.7827 40.8935 47.6305C40.9875 47.4782 41.122 47.355 41.282 47.2748C41.122 47.1946 40.9875 47.0714 40.8935 46.9192C40.7996 46.7669 40.7498 46.5915 40.7498 46.4125C40.7498 46.2335 40.7996 46.0581 40.8935 45.9058C40.9875 45.7536 41.122 45.6304 41.282 45.5502C41.1217 45.4702 40.9868 45.3472 40.8924 45.1949C40.7981 45.0426 40.748 44.867 40.7478 44.6879Z" fill="url(#paint57_radial_29_1931)"/>
</g>
<g filter="url(#filter22_f_29_1931)">
<path d="M41.4303 45.5436H43.7889" stroke="url(#paint58_linear_29_1931)" stroke-width="0.05" stroke-linecap="round"/>
</g>
<g filter="url(#filter23_f_29_1931)">
<path d="M41.328 47.2551H43.6866" stroke="url(#paint59_linear_29_1931)" stroke-width="0.05" stroke-linecap="round"/>
</g>
<g filter="url(#filter24_f_29_1931)">
<path d="M41.4303 48.9679H43.7889" stroke="url(#paint60_linear_29_1931)" stroke-width="0.05" stroke-linecap="round"/>
</g>
<defs>
<filter id="filter0_dd_29_1931" x="16.5646" y="17.2842" width="28.0498" height="14.4019" filterUnits="userSpaceOnUse" color-interpolation-filters="sRGB">
<feFlood flood-opacity="0" result="BackgroundImageFix"/>
<feColorMatrix in="SourceAlpha" type="matrix" values="0 0 0 0 0 0 0 0 0 0 0 0 0 0 0 0 0 0 127 0" result="hardAlpha"/>
<feOffset dy="0.5"/>
<feGaussianBlur stdDeviation="0.25"/>
<feComposite in2="hardAlpha" operator="out"/>
<feColorMatrix type="matrix" values="0 0 0 0 0.478431 0 0 0 0 0.384314 0 0 0 0 0.368627 0 0 0 1 0"/>
<feBlend mode="normal" in2="BackgroundImageFix" result="effect1_dropShadow_29_1931"/>
<feColorMatrix in="SourceAlpha" type="matrix" values="0 0 0 0 0 0 0 0 0 0 0 0 0 0 0 0 0 0 127 0" result="hardAlpha"/>
<feOffset dx="-0.5" dy="0.25"/>
<feGaussianBlur stdDeviation="0.375"/>
<feComposite in2="hardAlpha" operator="out"/>
<feColorMatrix type="matrix" values="0 0 0 0 0.388235 0 0 0 0 0.243137 0 0 0 0 0.25098 0 0 0 1 0"/>
<feBlend mode="normal" in2="effect1_dropShadow_29_1931" result="effect2_dropShadow_29_1931"/>
<feBlend mode="normal" in="SourceGraphic" in2="effect2_dropShadow_29_1931" result="shape"/>
</filter>
<filter id="filter1_d_29_1931" x="25.3645" y="31.2175" width="11.2" height="8.82416" filterUnits="userSpaceOnUse" color-interpolation-filters="sRGB">
<feFlood flood-opacity="0" result="BackgroundImageFix"/>
<feColorMatrix in="SourceAlpha" type="matrix" values="0 0 0 0 0 0 0 0 0 0 0 0 0 0 0 0 0 0 127 0" result="hardAlpha"/>
<feOffset dy="-0.25"/>
<feGaussianBlur stdDeviation="0.175"/>
<feComposite in2="hardAlpha" operator="out"/>
<feColorMatrix type="matrix" values="0 0 0 0 0.109804 0 0 0 0 0.47451 0 0 0 0 0.333333 0 0 0 1 0"/>
<feBlend mode="normal" in2="BackgroundImageFix" result="effect1_dropShadow_29_1931"/>
<feBlend mode="normal" in="SourceGraphic" in2="effect1_dropShadow_29_1931" result="shape"/>
</filter>
<filter id="filter2_f_29_1931" x="22.47" y="23.4031" width="3.93994" height="3.94" filterUnits="userSpaceOnUse" color-interpolation-filters="sRGB">
<feFlood flood-opacity="0" result="BackgroundImageFix"/>
<feBlend mode="normal" in="SourceGraphic" in2="BackgroundImageFix" result="shape"/>
<feGaussianBlur stdDeviation="0.25" result="effect1_foregroundBlur_29_1931"/>
</filter>
<filter id="filter3_d_29_1931" x="34.8475" y="22.4312" width="5.38379" height="5.38374" filterUnits="userSpaceOnUse" color-interpolation-filters="sRGB">
<feFlood flood-opacity="0" result="BackgroundImageFix"/>
<feColorMatrix in="SourceAlpha" type="matrix" values="0 0 0 0 0 0 0 0 0 0 0 0 0 0 0 0 0 0 127 0" result="hardAlpha"/>
<feOffset dx="0.25" dy="-0.25"/>
<feGaussianBlur stdDeviation="0.25"/>
<feComposite in2="hardAlpha" operator="out"/>
<feColorMatrix type="matrix" values="0 0 0 0 0.85098 0 0 0 0 0.560784 0 0 0 0 0.376471 0 0 0 1 0"/>
<feBlend mode="normal" in2="BackgroundImageFix" result="effect1_dropShadow_29_1931"/>
<feBlend mode="normal" in="SourceGraphic" in2="effect1_dropShadow_29_1931" result="shape"/>
</filter>
<filter id="filter4_f_29_1931" x="35.2629" y="23.3467" width="4.05286" height="4.05287" filterUnits="userSpaceOnUse" color-interpolation-filters="sRGB">
<feFlood flood-opacity="0" result="BackgroundImageFix"/>
<feBlend mode="normal" in="SourceGraphic" in2="BackgroundImageFix" result="shape"/>
<feGaussianBlur stdDeviation="0.25" result="effect1_foregroundBlur_29_1931"/>
</filter>
<filter id="filter5_f_29_1931" x="25.4369" y="45.0992" width="10.9343" height="5.89714" filterUnits="userSpaceOnUse" color-interpolation-filters="sRGB">
<feFlood flood-opacity="0" result="BackgroundImageFix"/>
<feBlend mode="normal" in="SourceGraphic" in2="BackgroundImageFix" result="shape"/>
<feGaussianBlur stdDeviation="0.125" result="effect1_foregroundBlur_29_1931"/>
</filter>
<filter id="filter6_d_29_1931" x="25.3869" y="45.2494" width="10.8343" height="5.88625" filterUnits="userSpaceOnUse" color-interpolation-filters="sRGB">
<feFlood flood-opacity="0" result="BackgroundImageFix"/>
<feColorMatrix in="SourceAlpha" type="matrix" values="0 0 0 0 0 0 0 0 0 0 0 0 0 0 0 0 0 0 127 0" result="hardAlpha"/>
<feOffset dx="-0.1" dy="0.1"/>
<feGaussianBlur stdDeviation="0.1"/>
<feComposite in2="hardAlpha" operator="out"/>
<feColorMatrix type="matrix" values="0 0 0 0 0.258824 0 0 0 0 0.67451 0 0 0 0 1 0 0 0 1 0"/>
<feBlend mode="normal" in2="BackgroundImageFix" result="effect1_dropShadow_29_1931"/>
<feBlend mode="normal" in="SourceGraphic" in2="effect1_dropShadow_29_1931" result="shape"/>
</filter>
<filter id="filter7_d_29_1931" x="23.6543" y="19.4119" width="15.6093" height="15.3613" filterUnits="userSpaceOnUse" color-interpolation-filters="sRGB">
<feFlood flood-opacity="0" result="BackgroundImageFix"/>
<feColorMatrix in="SourceAlpha" type="matrix" values="0 0 0 0 0 0 0 0 0 0 0 0 0 0 0 0 0 0 127 0" result="hardAlpha"/>
<feOffset dx="0.5"/>
<feGaussianBlur stdDeviation="0.5"/>
<feComposite in2="hardAlpha" operator="out"/>
<feColorMatrix type="matrix" values="0 0 0 0 0.823529 0 0 0 0 0.623529 0 0 0 0 0.313726 0 0 0 1 0"/>
<feBlend mode="normal" in2="BackgroundImageFix" result="effect1_dropShadow_29_1931"/>
<feBlend mode="normal" in="SourceGraphic" in2="effect1_dropShadow_29_1931" result="shape"/>
</filter>
<filter id="filter8_f_29_1931" x="28.7334" y="24.1783" width="3.95557" height="5.03575" filterUnits="userSpaceOnUse" color-interpolation-filters="sRGB">
<feFlood flood-opacity="0" result="BackgroundImageFix"/>
<feBlend mode="normal" in="SourceGraphic" in2="BackgroundImageFix" result="shape"/>
<feGaussianBlur stdDeviation="0.375" result="effect1_foregroundBlur_29_1931"/>
</filter>
<filter id="filter9_f_29_1931" x="29.4854" y="24.383" width="2.95557" height="4.03575" filterUnits="userSpaceOnUse" color-interpolation-filters="sRGB">
<feFlood flood-opacity="0" result="BackgroundImageFix"/>
<feBlend mode="normal" in="SourceGraphic" in2="BackgroundImageFix" result="shape"/>
<feGaussianBlur stdDeviation="0.125" result="effect1_foregroundBlur_29_1931"/>
</filter>
<filter id="filter10_f_29_1931" x="28.4308" y="28.7412" width="4.90618" height="1.93756" filterUnits="userSpaceOnUse" color-interpolation-filters="sRGB">
<feFlood flood-opacity="0" result="BackgroundImageFix"/>
<feBlend mode="normal" in="SourceGraphic" in2="BackgroundImageFix" result="shape"/>
<feGaussianBlur stdDeviation="0.05" result="effect1_foregroundBlur_29_1931"/>
</filter>
<filter id="filter11_d_29_1931" x="32.965" y="21.2579" width="3.02473" height="1.33077" filterUnits="userSpaceOnUse" color-interpolation-filters="sRGB">
<feFlood flood-opacity="0" result="BackgroundImageFix"/>
<feColorMatrix in="SourceAlpha" type="matrix" values="0 0 0 0 0 0 0 0 0 0 0 0 0 0 0 0 0 0 127 0" result="hardAlpha"/>
<feOffset dy="-0.2"/>
<feGaussianBlur stdDeviation="0.075"/>
<feComposite in2="hardAlpha" operator="out"/>
<feColorMatrix type="matrix" values="0 0 0 0 0.717647 0 0 0 0 0.262745 0 0 0 0 0.294118 0 0 0 1 0"/>
<feBlend mode="normal" in2="BackgroundImageFix" result="effect1_dropShadow_29_1931"/>
<feBlend mode="normal" in="SourceGraphic" in2="effect1_dropShadow_29_1931" result="shape"/>
</filter>
<filter id="filter12_f_29_1931" x="33.1649" y="21.5765" width="2.62471" height="0.880765" filterUnits="userSpaceOnUse" color-interpolation-filters="sRGB">
<feFlood flood-opacity="0" result="BackgroundImageFix"/>
<feBlend mode="normal" in="SourceGraphic" in2="BackgroundImageFix" result="shape"/>
<feGaussianBlur stdDeviation="0.075" result="effect1_foregroundBlur_29_1931"/>
</filter>
<filter id="filter13_d_29_1931" x="25.9301" y="21.2579" width="3.02607" height="1.33077" filterUnits="userSpaceOnUse" color-interpolation-filters="sRGB">
<feFlood flood-opacity="0" result="BackgroundImageFix"/>
<feColorMatrix in="SourceAlpha" type="matrix" values="0 0 0 0 0 0 0 0 0 0 0 0 0 0 0 0 0 0 127 0" result="hardAlpha"/>
<feOffset dy="-0.2"/>
<feGaussianBlur stdDeviation="0.075"/>
<feComposite in2="hardAlpha" operator="out"/>
<feColorMatrix type="matrix" values="0 0 0 0 0.717647 0 0 0 0 0.262745 0 0 0 0 0.294118 0 0 0 1 0"/>
<feBlend mode="normal" in2="BackgroundImageFix" result="effect1_dropShadow_29_1931"/>
<feBlend mode="normal" in="SourceGraphic" in2="effect1_dropShadow_29_1931" result="shape"/>
</filter>
<filter id="filter14_f_29_1931" x="26.13" y="21.5765" width="2.62605" height="0.880765" filterUnits="userSpaceOnUse" color-interpolation-filters="sRGB">
<feFlood flood-opacity="0" result="BackgroundImageFix"/>
<feBlend mode="normal" in="SourceGraphic" in2="BackgroundImageFix" result="shape"/>
<feGaussianBlur stdDeviation="0.075" result="effect1_foregroundBlur_29_1931"/>
</filter>
<filter id="filter15_d_29_1931" x="31.7832" y="20.2619" width="5.58391" height="1.25" filterUnits="userSpaceOnUse" color-interpolation-filters="sRGB">
<feFlood flood-opacity="0" result="BackgroundImageFix"/>
<feColorMatrix in="SourceAlpha" type="matrix" values="0 0 0 0 0 0 0 0 0 0 0 0 0 0 0 0 0 0 127 0" result="hardAlpha"/>
<feOffset dy="-0.05"/>
<feGaussianBlur stdDeviation="0.05"/>
<feComposite in2="hardAlpha" operator="out"/>
<feColorMatrix type="matrix" values="0 0 0 0 0.94902 0 0 0 0 0.552941 0 0 0 0 0.133333 0 0 0 1 0"/>
<feBlend mode="normal" in2="BackgroundImageFix" result="effect1_dropShadow_29_1931"/>
<feBlend mode="normal" in="SourceGraphic" in2="effect1_dropShadow_29_1931" result="shape"/>
</filter>
<filter id="filter16_ddd_29_1931" x="38.2403" y="24.8183" width="11.1016" height="13.9015" filterUnits="userSpaceOnUse" color-interpolation-filters="sRGB">
<feFlood flood-opacity="0" result="BackgroundImageFix"/>
<feColorMatrix in="SourceAlpha" type="matrix" values="0 0 0 0 0 0 0 0 0 0 0 0 0 0 0 0 0 0 127 0" result="hardAlpha"/>
<feOffset dx="0.2" dy="-0.4"/>
<feGaussianBlur stdDeviation="0.375"/>
<feComposite in2="hardAlpha" operator="out"/>
<feColorMatrix type="matrix" values="0 0 0 0 0.643137 0 0 0 0 0.490196 0 0 0 0 0.776471 0 0 0 1 0"/>
<feBlend mode="normal" in2="BackgroundImageFix" result="effect1_dropShadow_29_1931"/>
<feColorMatrix in="SourceAlpha" type="matrix" values="0 0 0 0 0 0 0 0 0 0 0 0 0 0 0 0 0 0 127 0" result="hardAlpha"/>
<feOffset dx="-0.3" dy="0.5"/>
<feGaussianBlur stdDeviation="0.25"/>
<feComposite in2="hardAlpha" operator="out"/>
<feColorMatrix type="matrix" values="0 0 0 0 0.831373 0 0 0 0 0.788235 0 0 0 0 0.87451 0 0 0 1 0"/>
<feBlend mode="normal" in2="effect1_dropShadow_29_1931" result="effect2_dropShadow_29_1931"/>
<feColorMatrix in="SourceAlpha" type="matrix" values="0 0 0 0 0 0 0 0 0 0 0 0 0 0 0 0 0 0 127 0" result="hardAlpha"/>
<feOffset dy="0.1"/>
<feGaussianBlur stdDeviation="0.2"/>
<feComposite in2="hardAlpha" operator="out"/>
<feColorMatrix type="matrix" values="0 0 0 0 0.6 0 0 0 0 0.552941 0 0 0 0 0.545098 0 0 0 1 0"/>
<feBlend mode="normal" in2="effect2_dropShadow_29_1931" result="effect3_dropShadow_29_1931"/>
<feBlend mode="normal" in="SourceGraphic" in2="effect3_dropShadow_29_1931" result="shape"/>
</filter>
<filter id="filter17_f_29_1931" x="32.9251" y="24.0068" width="0.981372" height="0.861209" filterUnits="userSpaceOnUse" color-interpolation-filters="sRGB">
<feFlood flood-opacity="0" result="BackgroundImageFix"/>
<feBlend mode="normal" in="SourceGraphic" in2="BackgroundImageFix" result="shape"/>
<feGaussianBlur stdDeviation="0.05" result="effect1_foregroundBlur_29_1931"/>
</filter>
<filter id="filter18_f_29_1931" x="34.0772" y="24.1389" width="1.05356" height="1.08512" filterUnits="userSpaceOnUse" color-interpolation-filters="sRGB">
<feFlood flood-opacity="0" result="BackgroundImageFix"/>
<feBlend mode="normal" in="SourceGraphic" in2="BackgroundImageFix" result="shape"/>
<feGaussianBlur stdDeviation="0.1" result="effect1_foregroundBlur_29_1931"/>
</filter>
<filter id="filter19_f_29_1931" x="28.1605" y="24.0549" width="1.18088" height="1.25312" filterUnits="userSpaceOnUse" color-interpolation-filters="sRGB">
<feFlood flood-opacity="0" result="BackgroundImageFix"/>
<feBlend mode="normal" in="SourceGraphic" in2="BackgroundImageFix" result="shape"/>
<feGaussianBlur stdDeviation="0.1" result="effect1_foregroundBlur_29_1931"/>
</filter>
<filter id="filter20_f_29_1931" x="27.1233" y="23.9963" width="1.14885" height="0.871448" filterUnits="userSpaceOnUse" color-interpolation-filters="sRGB">
<feFlood flood-opacity="0" result="BackgroundImageFix"/>
<feBlend mode="normal" in="SourceGraphic" in2="BackgroundImageFix" result="shape"/>
<feGaussianBlur stdDeviation="0.05" result="effect1_foregroundBlur_29_1931"/>
</filter>
<filter id="filter21_d_29_1931" x="40.4405" y="42.9771" width="6.87468" height="8.29537" filterUnits="userSpaceOnUse" color-interpolation-filters="sRGB">
<feFlood flood-opacity="0" result="BackgroundImageFix"/>
<feColorMatrix in="SourceAlpha" type="matrix" values="0 0 0 0 0 0 0 0 0 0 0 0 0 0 0 0 0 0 127 0" result="hardAlpha"/>
<feOffset dx="0.3" dy="-0.15"/>
<feGaussianBlur stdDeviation="0.3"/>
<feComposite in2="hardAlpha" operator="out"/>
<feColorMatrix type="matrix" values="0 0 0 0 0.905882 0 0 0 0 0.521569 0 0 0 0 0.364706 0 0 0 1 0"/>
<feBlend mode="normal" in2="BackgroundImageFix" result="effect1_dropShadow_29_1931"/>
<feBlend mode="normal" in="SourceGraphic" in2="effect1_dropShadow_29_1931" result="shape"/>
</filter>
<filter id="filter22_f_29_1931" x="41.3053" y="45.4186" width="2.60857" height="0.249988" filterUnits="userSpaceOnUse" color-interpolation-filters="sRGB">
<feFlood flood-opacity="0" result="BackgroundImageFix"/>
<feBlend mode="normal" in="SourceGraphic" in2="BackgroundImageFix" result="shape"/>
<feGaussianBlur stdDeviation="0.05" result="effect1_foregroundBlur_29_1931"/>
</filter>
<filter id="filter23_f_29_1931" x="41.203" y="47.1301" width="2.60857" height="0.249988" filterUnits="userSpaceOnUse" color-interpolation-filters="sRGB">
<feFlood flood-opacity="0" result="BackgroundImageFix"/>
<feBlend mode="normal" in="SourceGraphic" in2="BackgroundImageFix" result="shape"/>
<feGaussianBlur stdDeviation="0.05" result="effect1_foregroundBlur_29_1931"/>
</filter>
<filter id="filter24_f_29_1931" x="41.3053" y="48.8429" width="2.60857" height="0.249988" filterUnits="userSpaceOnUse" color-interpolation-filters="sRGB">
<feFlood flood-opacity="0" result="BackgroundImageFix"/>
<feBlend mode="normal" in="SourceGraphic" in2="BackgroundImageFix" result="shape"/>
<feGaussianBlur stdDeviation="0.05" result="effect1_foregroundBlur_29_1931"/>
</filter>
<radialGradient id="paint0_radial_29_1931" cx="0" cy="0" r="1" gradientUnits="userSpaceOnUse" gradientTransform="translate(35.9769 16.6712) rotate(-147.637) scale(6.65246 6.19571)">
<stop stop-color="#7F5F58"/>
<stop offset="1" stop-color="#644841"/>
</radialGradient>
<radialGradient id="paint1_radial_29_1931" cx="0" cy="0" r="1" gradientUnits="userSpaceOnUse" gradientTransform="translate(35.8115 18.1964) rotate(-90) scale(2.83008 11.0332)">
<stop stop-color="#6E5980"/>
<stop offset="1" stop-color="#4F3B60"/>
</radialGradient>
<linearGradient id="paint2_linear_29_1931" x1="30.8595" y1="16.7369" x2="30.8595" y2="16.8064" gradientUnits="userSpaceOnUse">
<stop stop-color="#4E2D3A"/>
<stop offset="1" stop-color="#4E2D3A" stop-opacity="0"/>
</linearGradient>
<linearGradient id="paint3_linear_29_1931" x1="30.9645" y1="17.7856" x2="30.9645" y2="30.9526" gradientUnits="userSpaceOnUse">
<stop stop-color="#6A3D3E"/>
<stop offset="1" stop-color="#6E4E4C"/>
</linearGradient>
<radialGradient id="paint4_radial_29_1931" cx="0" cy="0" r="1" gradientUnits="userSpaceOnUse" gradientTransform="translate(23.343 30.2142) rotate(-115.388) scale(5.35722 8.43595)">
<stop stop-color="#6E4F4B"/>
<stop offset="1" stop-color="#6E4F4B" stop-opacity="0"/>
</radialGradient>
<radialGradient id="paint5_radial_29_1931" cx="0" cy="0" r="1" gradientUnits="userSpaceOnUse" gradientTransform="translate(30.8713 32.8478) rotate(90) scale(9.40307 11.8042)">
<stop offset="0.53" stop-color="#399967"/>
<stop offset="1" stop-color="#399967" stop-opacity="0"/>
</radialGradient>
<linearGradient id="paint6_linear_29_1931" x1="21.6983" y1="48.7934" x2="16.9851" y2="48.7934" gradientUnits="userSpaceOnUse">
<stop stop-color="#399965"/>
<stop offset="1" stop-color="#5CC585"/>
</linearGradient>
<radialGradient id="paint7_radial_29_1931" cx="0" cy="0" r="1" gradientUnits="userSpaceOnUse" gradientTransform="translate(14.9349 44.6104) rotate(9.24611) scale(3.57378 17.4654)">
<stop stop-color="#63C890"/>
<stop offset="1" stop-color="#63C890" stop-opacity="0"/>
</radialGradient>
<linearGradient id="paint8_linear_29_1931" x1="44.7483" y1="41.4828" x2="40.0995" y2="49.7594" gradientUnits="userSpaceOnUse">
<stop stop-color="#63D591"/>
<stop offset="1" stop-color="#368D6E"/>
</linearGradient>
<radialGradient id="paint9_radial_29_1931" cx="0" cy="0" r="1" gradientUnits="userSpaceOnUse" gradientTransform="translate(40.0981 43.9056) rotate(-1.28787) scale(1.04354 10.2649)">
<stop offset="0.249" stop-color="#28A96B"/>
<stop offset="1" stop-color="#28A96B" stop-opacity="0"/>
</radialGradient>
<radialGradient id="paint10_radial_29_1931" cx="0" cy="0" r="1" gradientUnits="userSpaceOnUse" gradientTransform="translate(30.9632 32.6746) rotate(90) scale(7.20569 4.90441)">
<stop offset="0.232" stop-color="#387C46"/>
<stop offset="1" stop-color="#3D8F6C"/>
</radialGradient>
<linearGradient id="paint11_linear_29_1931" x1="36.2145" y1="35.7511" x2="34.9873" y2="35.7511" gradientUnits="userSpaceOnUse">
<stop stop-color="#5AA37A"/>
<stop offset="1" stop-color="#5AA37A" stop-opacity="0"/>
</linearGradient>
<radialGradient id="paint12_radial_29_1931" cx="0" cy="0" r="1" gradientUnits="userSpaceOnUse" gradientTransform="translate(29.8423 37.1344) rotate(145.66) scale(3.61691 2.25069)">
<stop stop-color="#519473"/>
<stop offset="1" stop-color="#519473" stop-opacity="0"/>
</radialGradient>
<linearGradient id="paint13_linear_29_1931" x1="25.7145" y1="35.7511" x2="26.1529" y2="35.7511" gradientUnits="userSpaceOnUse">
<stop offset="0.143" stop-color="#6A9E7E"/>
<stop offset="1" stop-color="#6A9E7E" stop-opacity="0"/>
</linearGradient>
<radialGradient id="paint14_radial_29_1931" cx="0" cy="0" r="1" gradientUnits="userSpaceOnUse" gradientTransform="translate(30.1678 32.4344) rotate(90) scale(4.31713 5.88959)">
<stop offset="0.344" stop-color="#2A5923"/>
<stop offset="0.987" stop-color="#2A5923" stop-opacity="0"/>
</radialGradient>
<radialGradient id="paint15_radial_29_1931" cx="0" cy="0" r="1" gradientUnits="userSpaceOnUse" gradientTransform="translate(30.8582 37.267) rotate(-90) scale(6.01132 7.0243)">
<stop offset="0.027" stop-color="#E9CEE6"/>
<stop offset="0.737" stop-color="#9C8F92"/>
</radialGradient>
<radialGradient id="paint16_radial_29_1931" cx="0" cy="0" r="1" gradientUnits="userSpaceOnUse" gradientTransform="translate(31.7624 33.2284) rotate(90) scale(1.88044 5.64135)">
<stop stop-color="#CD8A31"/>
<stop offset="1" stop-color="#C6912A"/>
</radialGradient>
<radialGradient id="paint17_radial_29_1931" cx="0" cy="0" r="1" gradientUnits="userSpaceOnUse" gradientTransform="translate(30.8712 31.5944) rotate(90) scale(5.75616 3.63262)">
<stop offset="0.715" stop-color="#9A6904" stop-opacity="0"/>
<stop offset="1" stop-color="#9A6904"/>
</radialGradient>
<radialGradient id="paint18_radial_29_1931" cx="0" cy="0" r="1" gradientUnits="userSpaceOnUse" gradientTransform="translate(38.3341 27.3419) rotate(110.556) scale(4.20525 2.10289)">
<stop offset="0.219" stop-color="#FFC034"/>
<stop offset="0.805" stop-color="#D6922A"/>
</radialGradient>
<radialGradient id="paint19_radial_29_1931" cx="0" cy="0" r="1" gradientUnits="userSpaceOnUse" gradientTransform="translate(24.5936 27.6503) rotate(87.3629) scale(3.12049 1.70506)">
<stop offset="0.355" stop-color="#CA7320"/>
<stop offset="1" stop-color="#D2883B"/>
</radialGradient>
<linearGradient id="paint20_linear_29_1931" x1="25.3666" y1="31.1573" x2="24.4098" y2="29.6807" gradientUnits="userSpaceOnUse">
<stop stop-color="#B37641"/>
<stop offset="1" stop-color="#B37641" stop-opacity="0"/>
</linearGradient>
<radialGradient id="paint21_radial_29_1931" cx="0" cy="0" r="1" gradientUnits="userSpaceOnUse" gradientTransform="translate(22.2482 25.3731) scale(2.304 4.03203)">
<stop offset="0.351" stop-color="#E6962B"/>
<stop offset="1" stop-color="#CA8F29"/>
</radialGradient>
<linearGradient id="paint22_linear_29_1931" x1="38.7161" y1="23.9399" x2="37.6425" y2="27.2697" gradientUnits="userSpaceOnUse">
<stop stop-color="#FFE446"/>
<stop offset="1" stop-color="#FFC339"/>
</linearGradient>
<radialGradient id="paint23_radial_29_1931" cx="0" cy="0" r="1" gradientUnits="userSpaceOnUse" gradientTransform="translate(37.779 25.0253) rotate(-36.0603) scale(1.34265 1.53248)">
<stop offset="0.543" stop-color="#FFC532"/>
<stop offset="1" stop-color="#FFC532" stop-opacity="0"/>
</radialGradient>
<radialGradient id="paint24_radial_29_1931" cx="0" cy="0" r="1" gradientUnits="userSpaceOnUse" gradientTransform="translate(37.2264 26.6331) rotate(-61.4676) scale(2.63868 1.54442)">
<stop offset="0.69" stop-color="#F4A51A" stop-opacity="0"/>
<stop offset="1" stop-color="#F4A51A"/>
</radialGradient>
<radialGradient id="paint25_radial_29_1931" cx="0" cy="0" r="1" gradientUnits="userSpaceOnUse" gradientTransform="translate(37.2894 25.3731) rotate(44.7075) scale(0.559898 0.721794)">
<stop stop-color="#E59B1F"/>
<stop offset="1" stop-color="#E59B1F" stop-opacity="0"/>
</radialGradient>
<linearGradient id="paint26_linear_29_1931" x1="32.4896" y1="49.6964" x2="30.8988" y2="40.3448" gradientUnits="userSpaceOnUse">
<stop stop-color="#3560C5"/>
<stop offset="1" stop-color="#329FEA"/>
</linearGradient>
<radialGradient id="paint27_radial_29_1931" cx="0" cy="0" r="1" gradientUnits="userSpaceOnUse" gradientTransform="translate(40.4882 35.3813) rotate(154.069) scale(4.97119 14.7147)">
<stop stop-color="#47B2F6"/>
<stop offset="1" stop-color="#47B2F6" stop-opacity="0"/>
</radialGradient>
<linearGradient id="paint28_linear_29_1931" x1="40.169" y1="50.3933" x2="39.8724" y2="50.3933" gradientUnits="userSpaceOnUse">
<stop stop-color="#356EBB"/>
<stop offset="1" stop-color="#356EBB" stop-opacity="0"/>
</linearGradient>
<linearGradient id="paint29_linear_29_1931" x1="21.6982" y1="50.3933" x2="21.861" y2="50.3933" gradientUnits="userSpaceOnUse">
<stop stop-color="#356EBB"/>
<stop offset="1" stop-color="#356EBB" stop-opacity="0"/>
</linearGradient>
<radialGradient id="paint30_radial_29_1931" cx="0" cy="0" r="1" gradientUnits="userSpaceOnUse" gradientTransform="translate(21.6969 36.1619) rotate(-37.2891) scale(4.12975 6.50746)">
<stop stop-color="#3DA0DB"/>
<stop offset="1" stop-color="#3AA1E0" stop-opacity="0"/>
</radialGradient>
<linearGradient id="paint31_linear_29_1931" x1="28.0599" y1="48.6713" x2="36.6318" y2="48.6713" gradientUnits="userSpaceOnUse">
<stop stop-color="#3CA9FF"/>
<stop offset="1" stop-color="#389DFF"/>
</linearGradient>
<radialGradient id="paint32_radial_29_1931" cx="0" cy="0" r="1" gradientUnits="userSpaceOnUse" gradientTransform="translate(35.5817 24.9524) rotate(168.69) scale(8.13372 13.7096)">
<stop stop-color="#FFE846"/>
<stop offset="1" stop-color="#F5A129"/>
</radialGradient>
<radialGradient id="paint33_radial_29_1931" cx="0" cy="0" r="1" gradientUnits="userSpaceOnUse" gradientTransform="translate(28.4077 24.3061) rotate(-90) scale(1.8457)">
<stop offset="0.179" stop-color="#F59732"/>
<stop offset="1" stop-color="#F59732" stop-opacity="0"/>
</radialGradient>
<radialGradient id="paint34_radial_29_1931" cx="0" cy="0" r="1" gradientUnits="userSpaceOnUse" gradientTransform="translate(34.2116 24.0829) rotate(-90) scale(1.75937 1.95813)">
<stop offset="0.313" stop-color="#FFBD38"/>
<stop offset="1" stop-color="#FFBD38" stop-opacity="0"/>
</radialGradient>
<radialGradient id="paint35_radial_29_1931" cx="0" cy="0" r="1" gradientUnits="userSpaceOnUse" gradientTransform="translate(30.9605 22.3832) rotate(90) scale(11.6694 14.6597)">
<stop offset="0.582" stop-color="#F99E3C" stop-opacity="0"/>
<stop offset="1" stop-color="#C38035"/>
</radialGradient>
<linearGradient id="paint36_linear_29_1931" x1="29.8331" y1="26.7644" x2="31.0603" y2="26.7644" gradientUnits="userSpaceOnUse">
<stop stop-color="#FAA416"/>
<stop offset="1" stop-color="#FAA416" stop-opacity="0"/>
</linearGradient>
<linearGradient id="paint37_linear_29_1931" x1="32.1916" y1="27.1896" x2="30.8503" y2="27.1699" gradientUnits="userSpaceOnUse">
<stop stop-color="#FFE721"/>
<stop offset="1" stop-color="#FFE721" stop-opacity="0"/>
</linearGradient>
<linearGradient id="paint38_linear_29_1931" x1="31.2191" y1="28.1687" x2="31.2191" y2="27.4127" gradientUnits="userSpaceOnUse">
<stop stop-color="#EB8A1C"/>
<stop offset="1" stop-color="#EB8A1C" stop-opacity="0"/>
</linearGradient>
<linearGradient id="paint39_linear_29_1931" x1="31.1285" y1="28.2239" x2="31.1285" y2="28.0034" gradientUnits="userSpaceOnUse">
<stop stop-color="#E88613"/>
<stop offset="1" stop-color="#E88613" stop-opacity="0"/>
</linearGradient>
<radialGradient id="paint40_radial_29_1931" cx="0" cy="0" r="1" gradientUnits="userSpaceOnUse" gradientTransform="translate(29.6231 30.2425) rotate(-69.3667) scale(1.07723 2.709)">
<stop stop-color="#FFB032"/>
<stop offset="1" stop-color="#FFB032" stop-opacity="0"/>
</radialGradient>
<radialGradient id="paint41_radial_29_1931" cx="0" cy="0" r="1" gradientUnits="userSpaceOnUse" gradientTransform="translate(34.4373 20.7597) scale(2.46094 1.20997)">
<stop stop-color="#FFC032"/>
<stop offset="1" stop-color="#FFA62C"/>
</radialGradient>
<radialGradient id="paint42_radial_29_1931" cx="0" cy="0" r="1" gradientUnits="userSpaceOnUse" gradientTransform="translate(46.4148 42.5186) rotate(137.811) scale(2.17296 1.71465)">
<stop stop-color="#FFD740"/>
<stop offset="1" stop-color="#FFCA2C"/>
</radialGradient>
<radialGradient id="paint43_radial_29_1931" cx="0" cy="0" r="1" gradientUnits="userSpaceOnUse" gradientTransform="translate(44.2928 44.4871) rotate(-90) scale(1.90723 1.8865)">
<stop offset="0.13" stop-color="#CF9826"/>
<stop offset="1" stop-color="#CF9826" stop-opacity="0"/>
</radialGradient>
<radialGradient id="paint44_radial_29_1931" cx="0" cy="0" r="1" gradientUnits="userSpaceOnUse" gradientTransform="translate(46.0148 43.6667) rotate(180) scale(2.35839 4.06055)">
<stop offset="0.417" stop-color="#CD9D3E" stop-opacity="0"/>
<stop offset="0.922" stop-color="#CD9D3E"/>
</radialGradient>
<linearGradient id="paint45_linear_29_1931" x1="43.5776" y1="39.8119" x2="43.5776" y2="43.9844" gradientUnits="userSpaceOnUse">
<stop stop-color="#784853"/>
<stop offset="0.997" stop-color="#7D5248"/>
</linearGradient>
<radialGradient id="paint46_radial_29_1931" cx="0" cy="0" r="1" gradientUnits="userSpaceOnUse" gradientTransform="translate(44.2378 43.9844) rotate(-90) scale(3.74228 0.982131)">
<stop stop-color="#88625F"/>
<stop offset="1" stop-color="#88625F" stop-opacity="0"/>
</radialGradient>
<radialGradient id="paint47_radial_29_1931" cx="0" cy="0" r="1" gradientUnits="userSpaceOnUse" gradientTransform="translate(44.268 39.8106) rotate(-90) scale(2.39942 1.49706)">
<stop stop-color="#D2C4E1"/>
<stop offset="1" stop-color="#B198C9"/>
</radialGradient>
<radialGradient id="paint48_radial_29_1931" cx="0" cy="0" r="1" gradientUnits="userSpaceOnUse" gradientTransform="translate(43.6157 40.3133) rotate(-90) scale(2.81983 2.63977)">
<stop offset="0.76" stop-color="#947CA9" stop-opacity="0"/>
<stop offset="1" stop-color="#947CA9"/>
</radialGradient>
<linearGradient id="paint49_linear_29_1931" x1="43.6144" y1="40.7346" x2="43.6144" y2="39.955" gradientUnits="userSpaceOnUse">
<stop stop-color="#9E83BE"/>
<stop offset="1" stop-color="#9E83BE" stop-opacity="0"/>
</linearGradient>
<radialGradient id="paint50_radial_29_1931" cx="0" cy="0" r="1" gradientUnits="userSpaceOnUse" gradientTransform="translate(33.8691 24.5594) rotate(90) scale(1.0804 1.71848)">
<stop offset="0.802" stop-color="#925C51"/>
<stop offset="1" stop-color="#85534D"/>
</radialGradient>
<radialGradient id="paint51_radial_29_1931" cx="0" cy="0" r="1" gradientUnits="userSpaceOnUse" gradientTransform="translate(33.5658 24.6709) rotate(-127.812) scale(0.503748 0.693537)">
<stop offset="0.766" stop-color="#FFE6E2" stop-opacity="0"/>
<stop offset="0.966" stop-color="#FFE6E2"/>
</radialGradient>
<linearGradient id="paint52_linear_29_1931" x1="34.9059" y1="24.6316" x2="34.4872" y2="24.8888" gradientUnits="userSpaceOnUse">
<stop stop-color="#B4948D"/>
<stop offset="1" stop-color="#B4948D" stop-opacity="0"/>
</linearGradient>
<radialGradient id="paint53_radial_29_1931" cx="0" cy="0" r="1" gradientUnits="userSpaceOnUse" gradientTransform="translate(28.0586 24.5594) rotate(90) scale(1.08045 1.71857)">
<stop offset="0.802" stop-color="#925C51"/>
<stop offset="1" stop-color="#85534D"/>
</radialGradient>
<linearGradient id="paint54_linear_29_1931" x1="29.0495" y1="24.6316" x2="28.6308" y2="24.8888" gradientUnits="userSpaceOnUse">
<stop stop-color="#B4948D"/>
<stop offset="1" stop-color="#B4948D" stop-opacity="0"/>
</linearGradient>
<radialGradient id="paint55_radial_29_1931" cx="0" cy="0" r="1" gradientUnits="userSpaceOnUse" gradientTransform="translate(27.8752 24.8119) rotate(-118.811) scale(0.658038 0.79097)">
<stop offset="0.766" stop-color="#FFE6E2" stop-opacity="0"/>
<stop offset="0.966" stop-color="#FFE6E2"/>
</radialGradient>
<linearGradient id="paint56_linear_29_1931" x1="46.0345" y1="48.2802" x2="40.7478" y2="48.2802" gradientUnits="userSpaceOnUse">
<stop stop-color="#FFE132"/>
<stop offset="0.861" stop-color="#DF9E26"/>
</linearGradient>
<radialGradient id="paint57_radial_29_1931" cx="0" cy="0" r="1" gradientUnits="userSpaceOnUse" gradientTransform="translate(46.4152 43.7271) rotate(121.171) scale(3.66711 3.03384)">
<stop stop-color="#FFE136"/>
<stop offset="1" stop-color="#FFE136" stop-opacity="0"/>
</radialGradient>
<linearGradient id="paint58_linear_29_1931" x1="-nan" y1="-nan" x2="-nan" y2="-nan" gradientUnits="userSpaceOnUse">
<stop stop-color="#C07200"/>
<stop offset="1" stop-color="#C88714"/>
</linearGradient>
<linearGradient id="paint59_linear_29_1931" x1="-nan" y1="-nan" x2="-nan" y2="-nan" gradientUnits="userSpaceOnUse">
<stop stop-color="#C07200"/>
<stop offset="1" stop-color="#C88714"/>
</linearGradient>
<linearGradient id="paint60_linear_29_1931" x1="-nan" y1="-nan" x2="-nan" y2="-nan" gradientUnits="userSpaceOnUse">
<stop stop-color="#C07200"/>
<stop offset="1" stop-color="#C88714"/>
</linearGradient>
</defs>
</svg>
