<svg width="48" height="49" viewBox="0 0 48 49" fill="none" xmlns="http://www.w3.org/2000/svg">
<rect y="0.5" width="48" height="48" rx="24" fill="#1A4199"/>
<path opacity="0.2" d="M24 14.75C22.0109 14.75 20.1032 15.5402 18.6967 16.9467C17.2902 18.3532 16.5 20.2609 16.5 22.25C16.5 29 24 34.25 24 34.25C24 34.25 31.5 29 31.5 22.25C31.5 20.2609 30.7098 18.3532 29.3033 16.9467C27.8968 15.5402 25.9891 14.75 24 14.75ZM24 25.25C23.4067 25.25 22.8266 25.0741 22.3333 24.7444C21.8399 24.4148 21.4554 23.9462 21.2284 23.3981C21.0013 22.8499 20.9419 22.2467 21.0576 21.6647C21.1734 21.0828 21.4591 20.5482 21.8787 20.1287C22.2982 19.7091 22.8328 19.4234 23.4147 19.3076C23.9967 19.1919 24.5999 19.2513 25.1481 19.4784C25.6962 19.7054 26.1648 20.0899 26.4944 20.5833C26.8241 21.0766 27 21.6567 27 22.25C27 23.0456 26.6839 23.8087 26.1213 24.3713C25.5587 24.9339 24.7956 25.25 24 25.25Z" fill="#F4F4F5"/>
<path d="M24 18.5C23.2583 18.5 22.5333 18.7199 21.9166 19.132C21.2999 19.544 20.8193 20.1297 20.5355 20.8149C20.2516 21.5002 20.1774 22.2542 20.3221 22.9816C20.4667 23.709 20.8239 24.3772 21.3483 24.9017C21.8728 25.4261 22.541 25.7833 23.2684 25.9279C23.9958 26.0726 24.7498 25.9984 25.4351 25.7145C26.1203 25.4307 26.706 24.9501 27.118 24.3334C27.5301 23.7167 27.75 22.9917 27.75 22.25C27.75 21.2554 27.3549 20.3016 26.6517 19.5983C25.9484 18.8951 24.9946 18.5 24 18.5ZM24 24.5C23.555 24.5 23.12 24.368 22.75 24.1208C22.38 23.8736 22.0916 23.5222 21.9213 23.111C21.751 22.6999 21.7064 22.2475 21.7932 21.811C21.88 21.3746 22.0943 20.9737 22.409 20.659C22.7237 20.3443 23.1246 20.13 23.561 20.0432C23.9975 19.9564 24.4499 20.001 24.861 20.1713C25.2722 20.3416 25.6236 20.63 25.8708 21C26.118 21.37 26.25 21.805 26.25 22.25C26.25 22.8467 26.0129 23.419 25.591 23.841C25.169 24.2629 24.5967 24.5 24 24.5ZM24 14C21.8127 14.0025 19.7157 14.8725 18.1691 16.4191C16.6225 17.9657 15.7525 20.0627 15.75 22.25C15.75 25.1938 17.1103 28.3138 19.6875 31.2734C20.8455 32.6108 22.1489 33.8151 23.5734 34.8641C23.6995 34.9524 23.8498 34.9998 24.0037 34.9998C24.1577 34.9998 24.308 34.9524 24.4341 34.8641C25.856 33.8147 27.1568 32.6104 28.3125 31.2734C30.8859 28.3138 32.25 25.1938 32.25 22.25C32.2475 20.0627 31.3775 17.9657 29.8309 16.4191C28.2843 14.8725 26.1873 14.0025 24 14ZM24 33.3125C22.4503 32.0938 17.25 27.6172 17.25 22.25C17.25 20.4598 17.9612 18.7429 19.227 17.477C20.4929 16.2112 22.2098 15.5 24 15.5C25.7902 15.5 27.5071 16.2112 28.773 17.477C30.0388 18.7429 30.75 20.4598 30.75 22.25C30.75 27.6153 25.5497 32.0938 24 33.3125Z" fill="#F4F4F5"/>
</svg>
