<svg width="48" height="49" viewBox="0 0 48 49" fill="none" xmlns="http://www.w3.org/2000/svg">
<rect y="0.5" width="48" height="48" rx="24" fill="#E4E4E7"/>
<path opacity="0.2" d="M34.5 24.125C34.5003 25.0558 34.2119 25.9638 33.6746 26.7239C33.1374 27.484 32.3776 28.0588 31.5 28.3691V29C31.5 29.9946 31.1049 30.9484 30.4016 31.6516C29.6984 32.3549 28.7446 32.75 27.75 32.75C26.7554 32.75 25.8016 32.3549 25.0983 31.6516C24.3951 30.9484 24 29.9946 24 29C24 29.9946 23.6049 30.9484 22.9016 31.6516C22.1984 32.3549 21.2446 32.75 20.25 32.75C19.2554 32.75 18.3016 32.3549 17.5983 31.6516C16.8951 30.9484 16.5 29.9946 16.5 29V28.3691C15.6217 28.0595 14.861 27.485 14.323 26.7248C13.7849 25.9647 13.496 25.0563 13.496 24.125C13.496 23.1937 13.7849 22.2853 14.323 21.5252C14.861 20.765 15.6217 20.1905 16.5 19.8809V19.25C16.5 18.2554 16.8951 17.3016 17.5983 16.5983C18.3016 15.8951 19.2554 15.5 20.25 15.5C21.2446 15.5 22.1984 15.8951 22.9016 16.5983C23.6049 17.3016 24 18.2554 24 19.25C24 18.2554 24.3951 17.3016 25.0983 16.5983C25.8016 15.8951 26.7554 15.5 27.75 15.5C28.7446 15.5 29.6984 15.8951 30.4016 16.5983C31.1049 17.3016 31.5 18.2554 31.5 19.25V19.8809C32.3776 20.1912 33.1374 20.766 33.6746 21.5261C34.2119 22.2862 34.5003 23.1942 34.5 24.125Z" fill="#18181B"/>
<path d="M35.25 24.1249C35.249 23.1314 34.9667 22.1586 34.4358 21.3189C33.9049 20.4792 33.147 19.8071 32.25 19.3802V19.2499C32.2491 18.2835 31.9372 17.3431 31.3603 16.5678C30.7835 15.7925 29.9724 15.2235 29.0471 14.9449C28.1217 14.6664 27.1313 14.6931 26.2223 15.0211C25.3134 15.3492 24.5341 15.9611 24 16.7664C23.4658 15.9611 22.6866 15.3492 21.7776 15.0211C20.8686 14.6931 19.8782 14.6664 18.9529 14.9449C18.0275 15.2235 17.2164 15.7925 16.6396 16.5678C16.0628 17.3431 15.7508 18.2835 15.75 19.2499V19.3802C14.8522 19.8059 14.0936 20.4776 13.5624 21.3174C13.0312 22.1571 12.7493 23.1303 12.7493 24.1239C12.7493 25.1176 13.0312 26.0908 13.5624 26.9305C14.0936 27.7702 14.8522 28.442 15.75 28.8677V28.9999C15.7508 29.9662 16.0628 30.9066 16.6396 31.682C17.2164 32.4573 18.0275 33.0263 18.9529 33.3049C19.8782 33.5834 20.8686 33.5567 21.7776 33.2286C22.6866 32.9006 23.4658 32.2886 24 31.4833C24.5341 32.2886 25.3134 32.9006 26.2223 33.2286C27.1313 33.5567 28.1217 33.5834 29.0471 33.3049C29.9724 33.0263 30.7835 32.4573 31.3603 31.682C31.9372 30.9066 32.2491 29.9662 32.25 28.9999V28.8677C33.1469 28.4411 33.9046 27.7693 34.4356 26.9299C34.9665 26.0906 35.2488 25.118 35.25 24.1249ZM20.25 31.9999C19.5102 31.9998 18.7966 31.7264 18.2462 31.2322C17.6957 30.738 17.3473 30.0578 17.2678 29.3224C17.5103 29.357 17.755 29.3745 18 29.3749H18.75C18.9489 29.3749 19.1396 29.2959 19.2803 29.1552C19.421 29.0146 19.5 28.8238 19.5 28.6249C19.5 28.426 19.421 28.2352 19.2803 28.0945C19.1396 27.9539 18.9489 27.8749 18.75 27.8749H18C17.1146 27.8759 16.2573 27.5636 15.5801 26.9933C14.9028 26.423 14.4492 25.6314 14.2995 24.7587C14.1499 23.886 14.3138 22.9886 14.7624 22.2252C15.2109 21.4618 15.9151 20.8817 16.7503 20.5877C16.8964 20.536 17.0229 20.4402 17.1124 20.3136C17.2019 20.187 17.2499 20.0358 17.25 19.8808V19.2499C17.25 18.4542 17.566 17.6912 18.1287 17.1286C18.6913 16.5659 19.4543 16.2499 20.25 16.2499C21.0456 16.2499 21.8087 16.5659 22.3713 17.1286C22.9339 17.6912 23.25 18.4542 23.25 19.2499V25.6493C22.4264 24.9085 21.3577 24.4991 20.25 24.4999C20.0511 24.4999 19.8603 24.5789 19.7196 24.7195C19.579 24.8602 19.5 25.051 19.5 25.2499C19.5 25.4488 19.579 25.6396 19.7196 25.7802C19.8603 25.9209 20.0511 25.9999 20.25 25.9999C21.0456 25.9999 21.8087 26.3159 22.3713 26.8786C22.9339 27.4412 23.25 28.2042 23.25 28.9999C23.25 29.7955 22.9339 30.5586 22.3713 31.1212C21.8087 31.6838 21.0456 31.9999 20.25 31.9999ZM30 27.8749H29.25C29.0511 27.8749 28.8603 27.9539 28.7196 28.0945C28.579 28.2352 28.5 28.426 28.5 28.6249C28.5 28.8238 28.579 29.0146 28.7196 29.1552C28.8603 29.2959 29.0511 29.3749 29.25 29.3749H30C30.245 29.3745 30.4896 29.357 30.7322 29.3224C30.6699 29.8986 30.4419 30.4445 30.076 30.894C29.7101 31.3435 29.2217 31.6773 28.6701 31.8552C28.1184 32.033 27.5271 32.0472 26.9675 31.8962C26.408 31.7451 25.9041 31.4351 25.517 31.0038C25.1298 30.5724 24.8759 30.0382 24.7859 29.4656C24.6959 28.893 24.7737 28.3066 25.0099 27.7773C25.2462 27.248 25.6306 26.7985 26.1169 26.4831C26.6031 26.1676 27.1704 25.9998 27.75 25.9999C27.9489 25.9999 28.1396 25.9209 28.2803 25.7802C28.421 25.6396 28.5 25.4488 28.5 25.2499C28.5 25.051 28.421 24.8602 28.2803 24.7195C28.1396 24.5789 27.9489 24.4999 27.75 24.4999C26.6423 24.4991 25.5736 24.9085 24.75 25.6493V19.2499C24.75 18.4542 25.066 17.6912 25.6287 17.1286C26.1913 16.5659 26.9543 16.2499 27.75 16.2499C28.5456 16.2499 29.3087 16.5659 29.8713 17.1286C30.4339 17.6912 30.75 18.4542 30.75 19.2499V19.8808C30.75 20.0358 30.7981 20.187 30.8875 20.3136C30.977 20.4402 31.1035 20.536 31.2497 20.5877C32.0848 20.8817 32.789 21.4618 33.2376 22.2252C33.6861 22.9886 33.8501 23.886 33.7004 24.7587C33.5507 25.6314 33.0971 26.423 32.4199 26.9933C31.7426 27.5636 30.8854 27.8759 30 27.8749ZM31.5 22.9999C31.5 23.1988 31.421 23.3896 31.2803 23.5302C31.1397 23.6709 30.9489 23.7499 30.75 23.7499H30.375C29.4799 23.7499 28.6214 23.3943 27.9885 22.7614C27.3556 22.1284 27 21.27 27 20.3749V19.9999C27 19.801 27.079 19.6102 27.2196 19.4695C27.3603 19.3289 27.5511 19.2499 27.75 19.2499C27.9489 19.2499 28.1396 19.3289 28.2803 19.4695C28.421 19.6102 28.5 19.801 28.5 19.9999V20.3749C28.5 20.8722 28.6975 21.3491 29.0491 21.7007C29.4008 22.0523 29.8777 22.2499 30.375 22.2499H30.75C30.9489 22.2499 31.1397 22.3289 31.2803 22.4695C31.421 22.6102 31.5 22.801 31.5 22.9999ZM17.625 23.7499H17.25C17.0511 23.7499 16.8603 23.6709 16.7196 23.5302C16.579 23.3896 16.5 23.1988 16.5 22.9999C16.5 22.801 16.579 22.6102 16.7196 22.4695C16.8603 22.3289 17.0511 22.2499 17.25 22.2499H17.625C18.1223 22.2499 18.5992 22.0523 18.9508 21.7007C19.3024 21.3491 19.5 20.8722 19.5 20.3749V19.9999C19.5 19.801 19.579 19.6102 19.7196 19.4695C19.8603 19.3289 20.0511 19.2499 20.25 19.2499C20.4489 19.2499 20.6396 19.3289 20.7803 19.4695C20.921 19.6102 21 19.801 21 19.9999V20.3749C21 21.27 20.6444 22.1284 20.0115 22.7614C19.3785 23.3943 18.5201 23.7499 17.625 23.7499Z" fill="#18181B"/>
</svg>
