<svg width="64" height="65" viewBox="0 0 64 65" fill="none" xmlns="http://www.w3.org/2000/svg">
<rect y="0.5" width="64" height="64" rx="32" fill="#E4E4E7"/>
<g filter="url(#filter0_dd_29_1727)">
<path d="M44.7129 50.6952C46.2147 50.6952 47.6551 50.0986 48.7171 49.0366C49.779 47.9746 50.3757 46.5343 50.3757 45.0324C50.3757 43.5305 49.779 42.0902 48.7171 41.0282C47.6551 39.9662 46.2147 39.3696 44.7129 39.3696C43.2108 39.3696 41.7703 39.9663 40.7082 41.0284C39.6461 42.0905 39.0494 43.531 39.0494 45.0331C39.0494 46.5351 39.6461 47.9756 40.7082 49.0377C41.7703 50.0998 43.2108 50.6952 44.7129 50.6952Z" fill="url(#paint0_linear_29_1727)"/>
<path d="M44.7129 50.6952C46.2147 50.6952 47.6551 50.0986 48.7171 49.0366C49.779 47.9746 50.3757 46.5343 50.3757 45.0324C50.3757 43.5305 49.779 42.0902 48.7171 41.0282C47.6551 39.9662 46.2147 39.3696 44.7129 39.3696C43.2108 39.3696 41.7703 39.9663 40.7082 41.0284C39.6461 42.0905 39.0494 43.531 39.0494 45.0331C39.0494 46.5351 39.6461 47.9756 40.7082 49.0377C41.7703 50.0998 43.2108 50.6952 44.7129 50.6952Z" fill="url(#paint1_radial_29_1727)"/>
<path d="M44.7129 50.6952C46.2147 50.6952 47.6551 50.0986 48.7171 49.0366C49.779 47.9746 50.3757 46.5343 50.3757 45.0324C50.3757 43.5305 49.779 42.0902 48.7171 41.0282C47.6551 39.9662 46.2147 39.3696 44.7129 39.3696C43.2108 39.3696 41.7703 39.9663 40.7082 41.0284C39.6461 42.0905 39.0494 43.531 39.0494 45.0331C39.0494 46.5351 39.6461 47.9756 40.7082 49.0377C41.7703 50.0998 43.2108 50.6952 44.7129 50.6952Z" fill="url(#paint2_radial_29_1727)"/>
</g>
<g filter="url(#filter1_dd_29_1727)">
<path d="M19.5771 50.6952C21.079 50.6952 22.5193 50.0986 23.5813 49.0366C24.6433 47.9746 25.2399 46.5343 25.2399 45.0324C25.2399 43.5305 24.6433 42.0902 23.5813 41.0282C22.5193 39.9662 21.079 39.3696 19.5771 39.3696C18.0751 39.3696 16.6346 39.9663 15.5725 41.0284C14.5104 42.0905 13.9137 43.531 13.9137 45.0331C13.9137 46.5351 14.5104 47.9756 15.5725 49.0377C16.6346 50.0998 18.0751 50.6952 19.5771 50.6952Z" fill="url(#paint3_linear_29_1727)"/>
<path d="M19.5771 50.6952C21.079 50.6952 22.5193 50.0986 23.5813 49.0366C24.6433 47.9746 25.2399 46.5343 25.2399 45.0324C25.2399 43.5305 24.6433 42.0902 23.5813 41.0282C22.5193 39.9662 21.079 39.3696 19.5771 39.3696C18.0751 39.3696 16.6346 39.9663 15.5725 41.0284C14.5104 42.0905 13.9137 43.531 13.9137 45.0331C13.9137 46.5351 14.5104 47.9756 15.5725 49.0377C16.6346 50.0998 18.0751 50.6952 19.5771 50.6952Z" fill="url(#paint4_radial_29_1727)"/>
<path d="M19.5771 50.6952C21.079 50.6952 22.5193 50.0986 23.5813 49.0366C24.6433 47.9746 25.2399 46.5343 25.2399 45.0324C25.2399 43.5305 24.6433 42.0902 23.5813 41.0282C22.5193 39.9662 21.079 39.3696 19.5771 39.3696C18.0751 39.3696 16.6346 39.9663 15.5725 41.0284C14.5104 42.0905 13.9137 43.531 13.9137 45.0331C13.9137 46.5351 14.5104 47.9756 15.5725 49.0377C16.6346 50.0998 18.0751 50.6952 19.5771 50.6952Z" fill="url(#paint5_radial_29_1727)"/>
</g>
<g filter="url(#filter2_f_29_1727)">
<path d="M45.0226 48.5309C47.1269 48.5309 48.8328 46.825 48.8328 44.7207C48.8328 42.6164 47.1269 40.9105 45.0226 40.9105C42.9183 40.9105 41.2124 42.6164 41.2124 44.7207C41.2124 46.825 42.9183 48.5309 45.0226 48.5309Z" stroke="url(#paint6_linear_29_1727)" stroke-width="0.75"/>
</g>
<g filter="url(#filter3_f_29_1727)">
<path d="M19.7175 48.5309C21.8218 48.5309 23.5277 46.825 23.5277 44.7207C23.5277 42.6164 21.8218 40.9105 19.7175 40.9105C17.6132 40.9105 15.9073 42.6164 15.9073 44.7207C15.9073 46.825 17.6132 48.5309 19.7175 48.5309Z" stroke="url(#paint7_linear_29_1727)" stroke-width="0.75"/>
</g>
<path d="M30.0772 36.4375L20.8962 45.625L19.5785 42.9974L28.1097 34.4688L30.0772 36.4375Z" fill="url(#paint8_radial_29_1727)"/>
<path d="M30.0772 36.4375L20.8962 45.625L19.5785 42.9974L28.1097 34.4688L30.0772 36.4375Z" fill="url(#paint9_linear_29_1727)"/>
<path d="M30.0772 36.4375L20.8962 45.625L19.5785 42.9974L28.1097 34.4688L30.0772 36.4375Z" fill="url(#paint10_radial_29_1727)"/>
<path d="M44.7404 44.3125H33.3584V46.9375H44.7404V44.3125Z" fill="url(#paint11_linear_29_1727)"/>
<path d="M44.7404 44.3125H33.3584V46.9375H44.7404V44.3125Z" fill="url(#paint12_linear_29_1727)"/>
<path d="M34.1853 36.133L43.5959 45.5436L45.4466 43.693L36.0359 34.2824L34.1853 36.133Z" fill="url(#paint13_linear_29_1727)"/>
<path d="M34.1853 36.133L43.5959 45.5436L45.4466 43.693L36.0359 34.2824L34.1853 36.133Z" fill="url(#paint14_radial_29_1727)"/>
<g filter="url(#filter4_dd_29_1727)">
<path d="M19.5771 47.0609C20.132 47.0609 20.6641 46.8405 21.0565 46.4481C21.4488 46.0558 21.6692 45.5236 21.6692 44.9688C21.6692 44.4139 21.4488 43.8817 21.0565 43.4894C20.6641 43.097 20.132 42.8766 19.5771 42.8766C19.0222 42.8766 18.4901 43.097 18.0978 43.4894C17.7054 43.8817 17.485 44.4139 17.485 44.9688C17.485 45.5236 17.7054 46.0558 18.0978 46.4481C18.4901 46.8405 19.0222 47.0609 19.5771 47.0609Z" fill="url(#paint15_linear_29_1727)"/>
</g>
<g filter="url(#filter5_dd_29_1727)">
<path d="M18.9209 33.8125L20.8897 31.1875H29.4209C30.8647 31.1875 32.0459 32.3687 32.0459 33.8125H41.2334V32.4606C41.2334 31.765 41.7978 31.1875 42.5065 31.1875H47.8222C48.5309 31.1875 49.1084 31.765 49.1215 32.4606V32.605C49.1215 33.3794 48.8197 34.1144 48.2684 34.6656C46.6278 36.3062 44.5934 37.435 42.4278 38.2487C40.7084 38.8919 39.2778 40.1256 38.3722 41.6875H38.342C37.6451 42.8425 37.2959 44.1944 37.2959 45.625V45.7694C37.2959 47.1344 36.0937 48.25 34.6709 48.25H29.4209C27.9995 48.25 26.7959 46.99 26.7959 45.625C26.7959 44.1681 26.3956 42.8976 25.7853 41.6875H25.7722C24.9254 40.0814 23.5997 38.7786 21.979 37.96L21.2703 37.6056C20.5629 37.2567 19.9676 36.7162 19.5523 36.0456C19.1369 35.375 18.9182 34.6013 18.9209 33.8125Z" fill="url(#paint16_linear_29_1727)"/>
</g>
<g filter="url(#filter6_d_29_1727)">
<path d="M25.7866 41.6875C26.3956 42.8976 26.7972 44.1681 26.7972 45.625C26.7972 46.99 27.9995 48.25 29.4222 48.25H34.6722C36.0924 48.25 37.2972 47.1344 37.2972 45.7694V45.625C37.2972 44.1944 37.6451 42.8425 38.342 41.6875H25.7866Z" fill="url(#paint17_linear_29_1727)"/>
<path d="M25.7866 41.6875C26.3956 42.8976 26.7972 44.1681 26.7972 45.625C26.7972 46.99 27.9995 48.25 29.4222 48.25H34.6722C36.0924 48.25 37.2972 47.1344 37.2972 45.7694V45.625C37.2972 44.1944 37.6451 42.8425 38.342 41.6875H25.7866Z" fill="url(#paint18_linear_29_1727)"/>
</g>
<g filter="url(#filter7_f_29_1727)">
<path d="M25.4072 36.6606H24.1393C23.4424 36.6606 22.8715 36.0739 22.8715 35.356C22.8715 34.6381 23.4424 34.0501 24.1393 34.0501H25.4072V36.6606Z" fill="#B31E61"/>
</g>
<g filter="url(#filter8_d_29_1727)">
<path d="M25.4965 36.4375H24.184C23.4621 36.4375 22.8715 35.8469 22.8715 35.125C22.8715 34.4031 23.4621 33.8125 24.184 33.8125H25.4965V36.4375Z" fill="url(#paint19_radial_29_1727)"/>
</g>
<path d="M46.4834 33.8256C45.7615 33.8256 45.1709 34.4163 45.1709 35.1381C45.1709 35.7419 45.5778 36.2144 46.129 36.3719C46.8903 35.8731 47.6121 35.3219 48.2553 34.6656C48.5046 34.4162 48.6884 34.1275 48.8328 33.8125H46.4834V33.8256Z" fill="url(#paint20_linear_29_1727)"/>
<path d="M39.9603 36.4375H33.319C32.9814 36.4375 32.6575 36.3034 32.4188 36.0646C32.18 35.8259 32.0459 35.502 32.0459 35.1644V33.8125H41.2334V35.1644C41.2334 35.8731 40.6559 36.4375 39.9603 36.4375Z" fill="url(#paint21_linear_29_1727)"/>
<path d="M21.2571 37.6056C21.4278 37.2512 21.5459 36.8575 21.5459 36.4375C21.5459 34.9937 20.3646 33.8125 18.9209 33.8125C18.9209 35.4269 19.8265 36.8969 21.2571 37.6056Z" fill="#EDB42B"/>
<g filter="url(#filter9_d_29_1727)">
<path d="M18.9196 33.8125C19.7464 33.8125 20.5339 33.445 21.0721 32.8019L25.2721 27.775C25.8496 27.0794 25.1539 26.0556 24.3008 26.3444C21.1639 27.3944 18.9196 30.3475 18.9196 33.8125Z" fill="url(#paint22_radial_29_1727)"/>
<path d="M18.9196 33.8125C19.7464 33.8125 20.5339 33.445 21.0721 32.8019L25.2721 27.775C25.8496 27.0794 25.1539 26.0556 24.3008 26.3444C21.1639 27.3944 18.9196 30.3475 18.9196 33.8125Z" fill="url(#paint23_radial_29_1727)"/>
</g>
<g filter="url(#filter10_d_29_1727)">
<path d="M24.8402 31.1875H22.2152C21.8477 31.1875 21.559 30.8987 21.559 30.5312C21.559 30.1637 21.8477 29.875 22.2152 29.875H24.8402C25.2077 29.875 25.4965 30.1637 25.4965 30.5312C25.4965 30.8987 25.1946 31.1875 24.8402 31.1875Z" fill="url(#paint24_radial_29_1727)"/>
</g>
<g filter="url(#filter11_dd_29_1727)">
<path d="M44.7129 47.0609C45.2677 47.0609 45.7999 46.8405 46.1922 46.4481C46.5846 46.0558 46.805 45.5236 46.805 44.9688C46.805 44.4139 46.5846 43.8817 46.1922 43.4894C45.7999 43.097 45.2677 42.8766 44.7129 42.8766C44.158 42.8766 43.6258 43.097 43.2335 43.4894C42.8411 43.8817 42.6207 44.4139 42.6207 44.9688C42.6207 45.5236 42.8411 46.0558 43.2335 46.4481C43.6258 46.8405 44.158 47.0609 44.7129 47.0609Z" fill="url(#paint25_linear_29_1727)"/>
</g>
<g filter="url(#filter12_f_29_1727)">
<path d="M31.601 33.7836V35.5594C31.601 35.9075 31.7392 36.2414 31.9854 36.4875C32.2315 36.7337 32.5654 36.8719 32.9135 36.8719H39.8828" stroke="url(#paint26_linear_29_1727)" stroke-width="0.25" stroke-linecap="round"/>
</g>
<defs>
<filter id="filter0_dd_29_1727" x="38.0494" y="38.3696" width="13.3262" height="13.3256" filterUnits="userSpaceOnUse" color-interpolation-filters="sRGB">
<feFlood flood-opacity="0" result="BackgroundImageFix"/>
<feColorMatrix in="SourceAlpha" type="matrix" values="0 0 0 0 0 0 0 0 0 0 0 0 0 0 0 0 0 0 127 0" result="hardAlpha"/>
<feOffset/>
<feGaussianBlur stdDeviation="0.5"/>
<feComposite in2="hardAlpha" operator="out"/>
<feColorMatrix type="matrix" values="0 0 0 0 0.145098 0 0 0 0 0.0823529 0 0 0 0 0.215686 0 0 0 1 0"/>
<feBlend mode="normal" in2="BackgroundImageFix" result="effect1_dropShadow_29_1727"/>
<feColorMatrix in="SourceAlpha" type="matrix" values="0 0 0 0 0 0 0 0 0 0 0 0 0 0 0 0 0 0 127 0" result="hardAlpha"/>
<feOffset dy="0.15"/>
<feGaussianBlur stdDeviation="0.125"/>
<feComposite in2="hardAlpha" operator="out"/>
<feColorMatrix type="matrix" values="0 0 0 0 0.207843 0 0 0 0 0.0313726 0 0 0 0 0.235294 0 0 0 1 0"/>
<feBlend mode="normal" in2="effect1_dropShadow_29_1727" result="effect2_dropShadow_29_1727"/>
<feBlend mode="normal" in="SourceGraphic" in2="effect2_dropShadow_29_1727" result="shape"/>
</filter>
<filter id="filter1_dd_29_1727" x="12.9137" y="38.3696" width="13.3262" height="13.3256" filterUnits="userSpaceOnUse" color-interpolation-filters="sRGB">
<feFlood flood-opacity="0" result="BackgroundImageFix"/>
<feColorMatrix in="SourceAlpha" type="matrix" values="0 0 0 0 0 0 0 0 0 0 0 0 0 0 0 0 0 0 127 0" result="hardAlpha"/>
<feOffset/>
<feGaussianBlur stdDeviation="0.5"/>
<feComposite in2="hardAlpha" operator="out"/>
<feColorMatrix type="matrix" values="0 0 0 0 0.145098 0 0 0 0 0.0823529 0 0 0 0 0.215686 0 0 0 1 0"/>
<feBlend mode="normal" in2="BackgroundImageFix" result="effect1_dropShadow_29_1727"/>
<feColorMatrix in="SourceAlpha" type="matrix" values="0 0 0 0 0 0 0 0 0 0 0 0 0 0 0 0 0 0 127 0" result="hardAlpha"/>
<feOffset dy="0.15"/>
<feGaussianBlur stdDeviation="0.125"/>
<feComposite in2="hardAlpha" operator="out"/>
<feColorMatrix type="matrix" values="0 0 0 0 0.207843 0 0 0 0 0.0313726 0 0 0 0 0.235294 0 0 0 1 0"/>
<feBlend mode="normal" in2="effect1_dropShadow_29_1727" result="effect2_dropShadow_29_1727"/>
<feBlend mode="normal" in="SourceGraphic" in2="effect2_dropShadow_29_1727" result="shape"/>
</filter>
<filter id="filter2_f_29_1727" x="40.0874" y="39.7855" width="9.87036" height="9.87038" filterUnits="userSpaceOnUse" color-interpolation-filters="sRGB">
<feFlood flood-opacity="0" result="BackgroundImageFix"/>
<feBlend mode="normal" in="SourceGraphic" in2="BackgroundImageFix" result="shape"/>
<feGaussianBlur stdDeviation="0.375" result="effect1_foregroundBlur_29_1727"/>
</filter>
<filter id="filter3_f_29_1727" x="14.7823" y="39.7855" width="9.87036" height="9.87038" filterUnits="userSpaceOnUse" color-interpolation-filters="sRGB">
<feFlood flood-opacity="0" result="BackgroundImageFix"/>
<feBlend mode="normal" in="SourceGraphic" in2="BackgroundImageFix" result="shape"/>
<feGaussianBlur stdDeviation="0.375" result="effect1_foregroundBlur_29_1727"/>
</filter>
<filter id="filter4_dd_29_1727" x="17.335" y="42.7266" width="4.4842" height="4.48425" filterUnits="userSpaceOnUse" color-interpolation-filters="sRGB">
<feFlood flood-opacity="0" result="BackgroundImageFix"/>
<feColorMatrix in="SourceAlpha" type="matrix" values="0 0 0 0 0 0 0 0 0 0 0 0 0 0 0 0 0 0 127 0" result="hardAlpha"/>
<feOffset dx="0.05" dy="-0.05"/>
<feGaussianBlur stdDeviation="0.05"/>
<feComposite in2="hardAlpha" operator="out"/>
<feColorMatrix type="matrix" values="0 0 0 0 0.478431 0 0 0 0 0.364706 0 0 0 0 0.584314 0 0 0 1 0"/>
<feBlend mode="normal" in2="BackgroundImageFix" result="effect1_dropShadow_29_1727"/>
<feColorMatrix in="SourceAlpha" type="matrix" values="0 0 0 0 0 0 0 0 0 0 0 0 0 0 0 0 0 0 127 0" result="hardAlpha"/>
<feOffset dx="-0.05" dy="0.05"/>
<feGaussianBlur stdDeviation="0.05"/>
<feComposite in2="hardAlpha" operator="out"/>
<feColorMatrix type="matrix" values="0 0 0 0 0.886062 0 0 0 0 0.835486 0 0 0 0 0.945833 0 0 0 1 0"/>
<feBlend mode="normal" in2="effect1_dropShadow_29_1727" result="effect2_dropShadow_29_1727"/>
<feBlend mode="normal" in="SourceGraphic" in2="effect2_dropShadow_29_1727" result="shape"/>
</filter>
<filter id="filter5_dd_29_1727" x="18.5209" y="30.2875" width="31.5007" height="18.7125" filterUnits="userSpaceOnUse" color-interpolation-filters="sRGB">
<feFlood flood-opacity="0" result="BackgroundImageFix"/>
<feColorMatrix in="SourceAlpha" type="matrix" values="0 0 0 0 0 0 0 0 0 0 0 0 0 0 0 0 0 0 127 0" result="hardAlpha"/>
<feOffset dx="0.25" dy="-0.25"/>
<feGaussianBlur stdDeviation="0.325"/>
<feComposite in2="hardAlpha" operator="out"/>
<feColorMatrix type="matrix" values="0 0 0 0 0.643137 0 0 0 0 0.117647 0 0 0 0 0.34902 0 0 0 1 0"/>
<feBlend mode="normal" in2="BackgroundImageFix" result="effect1_dropShadow_29_1727"/>
<feColorMatrix in="SourceAlpha" type="matrix" values="0 0 0 0 0 0 0 0 0 0 0 0 0 0 0 0 0 0 127 0" result="hardAlpha"/>
<feOffset dx="0.25" dy="0.25"/>
<feGaussianBlur stdDeviation="0.25"/>
<feComposite in2="hardAlpha" operator="out"/>
<feColorMatrix type="matrix" values="0 0 0 0 0.901961 0 0 0 0 0.101961 0 0 0 0 0.243137 0 0 0 1 0"/>
<feBlend mode="normal" in2="effect1_dropShadow_29_1727" result="effect2_dropShadow_29_1727"/>
<feBlend mode="normal" in="SourceGraphic" in2="effect2_dropShadow_29_1727" result="shape"/>
</filter>
<filter id="filter6_d_29_1727" x="25.3866" y="40.7875" width="13.8554" height="7.8625" filterUnits="userSpaceOnUse" color-interpolation-filters="sRGB">
<feFlood flood-opacity="0" result="BackgroundImageFix"/>
<feColorMatrix in="SourceAlpha" type="matrix" values="0 0 0 0 0 0 0 0 0 0 0 0 0 0 0 0 0 0 127 0" result="hardAlpha"/>
<feOffset dx="0.25" dy="-0.25"/>
<feGaussianBlur stdDeviation="0.325"/>
<feComposite in2="hardAlpha" operator="out"/>
<feColorMatrix type="matrix" values="0 0 0 0 0.741176 0 0 0 0 0.180392 0 0 0 0 0.211765 0 0 0 1 0"/>
<feBlend mode="normal" in2="BackgroundImageFix" result="effect1_dropShadow_29_1727"/>
<feBlend mode="normal" in="SourceGraphic" in2="effect1_dropShadow_29_1727" result="shape"/>
</filter>
<filter id="filter7_f_29_1727" x="22.6215" y="33.8001" width="3.03577" height="3.11056" filterUnits="userSpaceOnUse" color-interpolation-filters="sRGB">
<feFlood flood-opacity="0" result="BackgroundImageFix"/>
<feBlend mode="normal" in="SourceGraphic" in2="BackgroundImageFix" result="shape"/>
<feGaussianBlur stdDeviation="0.125" result="effect1_foregroundBlur_29_1727"/>
</filter>
<filter id="filter8_d_29_1727" x="22.5715" y="33.2125" width="3.425" height="3.425" filterUnits="userSpaceOnUse" color-interpolation-filters="sRGB">
<feFlood flood-opacity="0" result="BackgroundImageFix"/>
<feColorMatrix in="SourceAlpha" type="matrix" values="0 0 0 0 0 0 0 0 0 0 0 0 0 0 0 0 0 0 127 0" result="hardAlpha"/>
<feOffset dx="0.1" dy="-0.2"/>
<feGaussianBlur stdDeviation="0.2"/>
<feComposite in2="hardAlpha" operator="out"/>
<feColorMatrix type="matrix" values="0 0 0 0 0.807843 0 0 0 0 0.345098 0 0 0 0 0.223529 0 0 0 1 0"/>
<feBlend mode="normal" in2="BackgroundImageFix" result="effect1_dropShadow_29_1727"/>
<feBlend mode="normal" in="SourceGraphic" in2="effect1_dropShadow_29_1727" result="shape"/>
</filter>
<filter id="filter9_d_29_1727" x="18.8696" y="26.0443" width="7.06445" height="8.01821" filterUnits="userSpaceOnUse" color-interpolation-filters="sRGB">
<feFlood flood-opacity="0" result="BackgroundImageFix"/>
<feColorMatrix in="SourceAlpha" type="matrix" values="0 0 0 0 0 0 0 0 0 0 0 0 0 0 0 0 0 0 127 0" result="hardAlpha"/>
<feOffset dx="0.2"/>
<feGaussianBlur stdDeviation="0.125"/>
<feComposite in2="hardAlpha" operator="out"/>
<feColorMatrix type="matrix" values="0 0 0 0 0.360784 0 0 0 0 0.623529 0 0 0 0 0.768627 0 0 0 1 0"/>
<feBlend mode="normal" in2="BackgroundImageFix" result="effect1_dropShadow_29_1727"/>
<feBlend mode="normal" in="SourceGraphic" in2="effect1_dropShadow_29_1727" result="shape"/>
</filter>
<filter id="filter10_d_29_1727" x="21.359" y="29.475" width="4.5375" height="1.9125" filterUnits="userSpaceOnUse" color-interpolation-filters="sRGB">
<feFlood flood-opacity="0" result="BackgroundImageFix"/>
<feColorMatrix in="SourceAlpha" type="matrix" values="0 0 0 0 0 0 0 0 0 0 0 0 0 0 0 0 0 0 127 0" result="hardAlpha"/>
<feOffset dx="0.1" dy="-0.1"/>
<feGaussianBlur stdDeviation="0.15"/>
<feComposite in2="hardAlpha" operator="out"/>
<feColorMatrix type="matrix" values="0 0 0 0 0.282353 0 0 0 0 0.0352941 0 0 0 0 0.286275 0 0 0 1 0"/>
<feBlend mode="normal" in2="BackgroundImageFix" result="effect1_dropShadow_29_1727"/>
<feBlend mode="normal" in="SourceGraphic" in2="effect1_dropShadow_29_1727" result="shape"/>
</filter>
<filter id="filter11_dd_29_1727" x="42.4707" y="42.7266" width="4.4842" height="4.48425" filterUnits="userSpaceOnUse" color-interpolation-filters="sRGB">
<feFlood flood-opacity="0" result="BackgroundImageFix"/>
<feColorMatrix in="SourceAlpha" type="matrix" values="0 0 0 0 0 0 0 0 0 0 0 0 0 0 0 0 0 0 127 0" result="hardAlpha"/>
<feOffset dx="0.05" dy="-0.05"/>
<feGaussianBlur stdDeviation="0.05"/>
<feComposite in2="hardAlpha" operator="out"/>
<feColorMatrix type="matrix" values="0 0 0 0 0.478431 0 0 0 0 0.364706 0 0 0 0 0.584314 0 0 0 1 0"/>
<feBlend mode="normal" in2="BackgroundImageFix" result="effect1_dropShadow_29_1727"/>
<feColorMatrix in="SourceAlpha" type="matrix" values="0 0 0 0 0 0 0 0 0 0 0 0 0 0 0 0 0 0 127 0" result="hardAlpha"/>
<feOffset dx="-0.05" dy="0.05"/>
<feGaussianBlur stdDeviation="0.05"/>
<feComposite in2="hardAlpha" operator="out"/>
<feColorMatrix type="matrix" values="0 0 0 0 0.886062 0 0 0 0 0.835486 0 0 0 0 0.945833 0 0 0 1 0"/>
<feBlend mode="normal" in2="effect1_dropShadow_29_1727" result="effect2_dropShadow_29_1727"/>
<feBlend mode="normal" in="SourceGraphic" in2="effect2_dropShadow_29_1727" result="shape"/>
</filter>
<filter id="filter12_f_29_1727" x="31.226" y="33.4086" width="9.03186" height="3.83831" filterUnits="userSpaceOnUse" color-interpolation-filters="sRGB">
<feFlood flood-opacity="0" result="BackgroundImageFix"/>
<feBlend mode="normal" in="SourceGraphic" in2="BackgroundImageFix" result="shape"/>
<feGaussianBlur stdDeviation="0.125" result="effect1_foregroundBlur_29_1727"/>
</filter>
<linearGradient id="paint0_linear_29_1727" x1="42.101" y1="43.609" x2="50.6073" y2="43.609" gradientUnits="userSpaceOnUse">
<stop offset="0.239" stop-color="#34214F"/>
<stop offset="1" stop-color="#241337"/>
</linearGradient>
<radialGradient id="paint1_radial_29_1727" cx="0" cy="0" r="1" gradientUnits="userSpaceOnUse" gradientTransform="translate(44.7134 44.5273) rotate(-65.537) scale(3.08974 3.22712)">
<stop offset="0.523" stop-color="#2D114D"/>
<stop offset="1" stop-color="#2B1249" stop-opacity="0"/>
</radialGradient>
<radialGradient id="paint2_radial_29_1727" cx="0" cy="0" r="1" gradientUnits="userSpaceOnUse" gradientTransform="translate(46.2564 45.4242) rotate(33.4863) scale(1.25377 1.40884)">
<stop stop-color="#392A49"/>
<stop offset="1" stop-color="#392A49" stop-opacity="0"/>
</radialGradient>
<linearGradient id="paint3_linear_29_1727" x1="16.9666" y1="43.609" x2="25.4716" y2="43.609" gradientUnits="userSpaceOnUse">
<stop offset="0.239" stop-color="#34214F"/>
<stop offset="1" stop-color="#241337"/>
</linearGradient>
<radialGradient id="paint4_radial_29_1727" cx="0" cy="0" r="1" gradientUnits="userSpaceOnUse" gradientTransform="translate(19.5776 44.5266) rotate(-65.537) scale(3.08974 3.22712)">
<stop offset="0.523" stop-color="#2D114D"/>
<stop offset="1" stop-color="#2B1249" stop-opacity="0"/>
</radialGradient>
<radialGradient id="paint5_radial_29_1727" cx="0" cy="0" r="1" gradientUnits="userSpaceOnUse" gradientTransform="translate(21.1219 45.4242) rotate(33.4863) scale(1.25377 1.40884)">
<stop stop-color="#392A49"/>
<stop offset="1" stop-color="#392A49" stop-opacity="0"/>
</radialGradient>
<linearGradient id="paint6_linear_29_1727" x1="47.8681" y1="40.9118" x2="42.122" y2="47.6935" gradientUnits="userSpaceOnUse">
<stop offset="0.083" stop-color="#615B6B"/>
<stop offset="0.391" stop-color="#615B6B" stop-opacity="0"/>
<stop offset="0.692" stop-color="#615B6B" stop-opacity="0"/>
<stop offset="0.935" stop-color="#615B6B"/>
</linearGradient>
<linearGradient id="paint7_linear_29_1727" x1="22.563" y1="40.9118" x2="16.8169" y2="47.6935" gradientUnits="userSpaceOnUse">
<stop offset="0.083" stop-color="#615B6B"/>
<stop offset="0.391" stop-color="#615B6B" stop-opacity="0"/>
<stop offset="0.692" stop-color="#615B6B" stop-opacity="0"/>
<stop offset="0.935" stop-color="#615B6B"/>
</linearGradient>
<radialGradient id="paint8_radial_29_1727" cx="0" cy="0" r="1" gradientUnits="userSpaceOnUse" gradientTransform="translate(21.6142 41.2413) rotate(42.436) scale(2.38853 6.79645)">
<stop stop-color="#7E7782"/>
<stop offset="1" stop-color="#4D3859"/>
</radialGradient>
<linearGradient id="paint9_linear_29_1727" x1="24.5201" y1="42.5078" x2="23.6787" y2="41.6875" gradientUnits="userSpaceOnUse">
<stop stop-color="#350B32"/>
<stop offset="1" stop-color="#350B32" stop-opacity="0"/>
</linearGradient>
<radialGradient id="paint10_radial_29_1727" cx="0" cy="0" r="1" gradientUnits="userSpaceOnUse" gradientTransform="translate(19.9879 42.8362) rotate(-31.884) scale(6.13455 5.85484)">
<stop offset="0.768" stop-color="#350B32" stop-opacity="0"/>
<stop offset="1" stop-color="#350B32"/>
</radialGradient>
<linearGradient id="paint11_linear_29_1727" x1="39.5875" y1="46.9375" x2="39.5875" y2="44.9688" gradientUnits="userSpaceOnUse">
<stop stop-color="#594561"/>
<stop offset="1" stop-color="#9D909F"/>
</linearGradient>
<linearGradient id="paint12_linear_29_1727" x1="39.7161" y1="47.0609" x2="39.7161" y2="45.9938" gradientUnits="userSpaceOnUse">
<stop stop-color="#3A1950"/>
<stop offset="1" stop-color="#3A1950" stop-opacity="0"/>
</linearGradient>
<linearGradient id="paint13_linear_29_1727" x1="41.6666" y1="40.6139" x2="40.2018" y2="42.0708" gradientUnits="userSpaceOnUse">
<stop stop-color="#868089"/>
<stop offset="1" stop-color="#362040"/>
</linearGradient>
<radialGradient id="paint14_radial_29_1727" cx="0" cy="0" r="1" gradientUnits="userSpaceOnUse" gradientTransform="translate(42.1167 43.3964) rotate(-123.97) scale(4.77846 5.68998)">
<stop offset="0.768" stop-color="#350B32" stop-opacity="0"/>
<stop offset="0.979" stop-color="#350B32"/>
</radialGradient>
<linearGradient id="paint15_linear_29_1727" x1="20.3935" y1="43.1207" x2="18.6912" y2="46.444" gradientUnits="userSpaceOnUse">
<stop stop-color="#DFCAF6"/>
<stop offset="1" stop-color="#DDC5F6"/>
</linearGradient>
<linearGradient id="paint16_linear_29_1727" x1="18.0192" y1="36.4441" x2="49.6833" y2="36.4441" gradientUnits="userSpaceOnUse">
<stop stop-color="#DE367F"/>
<stop offset="0.689" stop-color="#F63551"/>
<stop offset="1" stop-color="#FD4C61"/>
</linearGradient>
<linearGradient id="paint17_linear_29_1727" x1="25.7866" y1="44.9753" x2="37.5781" y2="44.9753" gradientUnits="userSpaceOnUse">
<stop stop-color="#FC444F"/>
<stop offset="1" stop-color="#FF714D"/>
</linearGradient>
<linearGradient id="paint18_linear_29_1727" x1="38.0244" y1="44.2219" x2="34.205" y2="44.2219" gradientUnits="userSpaceOnUse">
<stop stop-color="#FF7A4A"/>
<stop offset="1" stop-color="#FF7A4A" stop-opacity="0"/>
</linearGradient>
<radialGradient id="paint19_radial_29_1727" cx="0" cy="0" r="1" gradientUnits="userSpaceOnUse" gradientTransform="translate(23.7311 34.054) scale(1.62742 2.29044)">
<stop stop-color="#FFDE49"/>
<stop offset="1" stop-color="#FF8947"/>
</radialGradient>
<linearGradient id="paint20_linear_29_1727" x1="45.8153" y1="34.6446" x2="47.2328" y2="35.9073" gradientUnits="userSpaceOnUse">
<stop stop-color="#B6015E"/>
<stop offset="1" stop-color="#D40B4F"/>
</linearGradient>
<linearGradient id="paint21_linear_29_1727" x1="32.0406" y1="35.1316" x2="41.2281" y2="35.1316" gradientUnits="userSpaceOnUse">
<stop stop-color="#513469"/>
<stop offset="1" stop-color="#1C1C1C"/>
</linearGradient>
<radialGradient id="paint22_radial_29_1727" cx="0" cy="0" r="1" gradientUnits="userSpaceOnUse" gradientTransform="translate(24.8179 26.9481) rotate(133.531) scale(6.76278 3.82693)">
<stop stop-color="#79F9FF"/>
<stop offset="1" stop-color="#309CE5"/>
</radialGradient>
<radialGradient id="paint23_radial_29_1727" cx="0" cy="0" r="1" gradientUnits="userSpaceOnUse" gradientTransform="translate(24.499 29.4445) rotate(-140.332) scale(1.09231 3.12099)">
<stop stop-color="#5488BB"/>
<stop offset="1" stop-color="#5488BB" stop-opacity="0"/>
</radialGradient>
<radialGradient id="paint24_radial_29_1727" cx="0" cy="0" r="1" gradientUnits="userSpaceOnUse" gradientTransform="translate(24.5357 30.2136) rotate(90) scale(0.589851 2.57242)">
<stop stop-color="#423B6B"/>
<stop offset="1" stop-color="#41175C"/>
</radialGradient>
<linearGradient id="paint25_linear_29_1727" x1="45.5279" y1="43.1207" x2="43.8256" y2="46.444" gradientUnits="userSpaceOnUse">
<stop stop-color="#DFCAF6"/>
<stop offset="1" stop-color="#DDC5F6"/>
</linearGradient>
<linearGradient id="paint26_linear_29_1727" x1="32.7835" y1="36.6698" x2="34.1393" y2="34.8573" gradientUnits="userSpaceOnUse">
<stop stop-color="#FF4D61"/>
<stop offset="1" stop-color="#FF4D61" stop-opacity="0"/>
</linearGradient>
</defs>
</svg>
