<svg width="25" height="24" viewBox="0 0 25 24" fill="none" xmlns="http://www.w3.org/2000/svg">
  <g id="ph:lightbulb">
    <path id="Vector"
      d="M17.4956 21.75C17.4956 21.9489 17.4166 22.1396 17.2759 22.2803C17.1353 22.4209 16.9445 22.5 16.7456 22.5H9.24561C9.04669 22.5 8.85593 22.4209 8.71528 22.2803C8.57462 22.1396 8.49561 21.9489 8.49561 21.75C8.49561 21.551 8.57462 21.3603 8.71528 21.2196C8.85593 21.079 9.04669 21 9.24561 21H16.7456C16.9445 21 17.1353 21.079 17.2759 21.2196C17.4166 21.3603 17.4956 21.551 17.4956 21.75ZM21.2456 9.74995C21.2488 11.0002 20.9664 12.2347 20.4198 13.3592C19.8733 14.4837 19.077 15.4685 18.0919 16.2384C17.9077 16.3796 17.7582 16.561 17.6548 16.7688C17.5515 16.9767 17.497 17.2054 17.4956 17.4375V18C17.4956 18.3978 17.3376 18.7793 17.0563 19.0606C16.775 19.3419 16.3934 19.5 15.9956 19.5H9.99561C9.59778 19.5 9.21625 19.3419 8.93495 19.0606C8.65364 18.7793 8.49561 18.3978 8.49561 18V17.4375C8.49545 17.2081 8.44272 16.9819 8.34147 16.7762C8.24022 16.5704 8.09314 16.3906 7.91154 16.2506C6.92886 15.4852 6.13315 14.5064 5.58465 13.3881C5.03615 12.2698 4.74923 11.0414 4.74561 9.79589C4.72123 5.32777 8.33248 1.60683 12.7969 1.49995C13.8969 1.47345 14.9911 1.66725 16.0151 2.06997C17.0391 2.47269 17.9721 3.07617 18.7594 3.84491C19.5467 4.61365 20.1722 5.53211 20.5992 6.54622C21.0261 7.56034 21.2459 8.64962 21.2456 9.74995ZM19.7456 9.74995C19.7459 8.84964 19.566 7.95836 19.2166 7.1286C18.8673 6.29883 18.3554 5.54735 17.7113 4.91837C17.0671 4.2894 16.3036 3.79564 15.4657 3.46618C14.6278 3.13671 13.7325 2.9782 12.8325 2.99995C9.17623 3.0862 6.22592 6.13027 6.24561 9.78652C6.24903 10.8052 6.4841 11.8097 6.93303 12.7242C7.38196 13.6386 8.03299 14.4389 8.83686 15.0646C9.19821 15.3456 9.4905 15.7054 9.69134 16.1167C9.89219 16.528 9.99626 16.9798 9.99561 17.4375V18H15.9956V17.4375C15.9966 16.9785 16.1025 16.5258 16.3051 16.1139C16.5077 15.702 16.8017 15.3419 17.1647 15.0609C17.971 14.4307 18.6227 13.6247 19.07 12.7042C19.5173 11.7838 19.7484 10.7733 19.7456 9.74995ZM18.2353 8.87433C18.0408 7.78804 17.5182 6.78742 16.7378 6.00717C15.9574 5.22692 14.9566 4.70451 13.8703 4.51027C13.7732 4.49389 13.6737 4.49681 13.5777 4.51886C13.4817 4.5409 13.391 4.58164 13.3107 4.63875C13.2305 4.69586 13.1622 4.76821 13.1099 4.85169C13.0576 4.93517 13.0223 5.02813 13.0059 5.12527C12.9895 5.2224 12.9925 5.32181 13.0145 5.41782C13.0366 5.51383 13.0773 5.60456 13.1344 5.68482C13.1915 5.76509 13.2639 5.83332 13.3473 5.88562C13.4308 5.93792 13.5238 5.97327 13.6209 5.98964C15.1744 6.2512 16.4925 7.56933 16.7559 9.12558C16.7856 9.30026 16.8762 9.45879 17.0115 9.57307C17.1469 9.68736 17.3184 9.75002 17.4956 9.74995C17.538 9.7497 17.5803 9.74625 17.6222 9.73964C17.8182 9.70617 17.9929 9.59621 18.1079 9.43394C18.2229 9.27167 18.2687 9.07038 18.2353 8.87433Z"
      fill="#FAFAFA" />
  </g>
</svg>