<svg width="64" height="65" viewBox="0 0 64 65" fill="none" xmlns="http://www.w3.org/2000/svg">
<rect y="0.5" width="64" height="64" rx="32" fill="#E4E4E7"/>
<path d="M13.835 36.8312L18.2581 28.4181C18.6388 27.6963 19.3869 27.25 20.2006 27.25H29.375L30.6875 39.0625L13.625 37.75C13.625 37.3956 13.6906 37.1594 13.835 36.8312Z" fill="#E6E6E6"/>
<path d="M14.0319 36.4375H22.6812C23.4819 36.4375 24.125 35.7944 24.125 34.9937V30.0194C24.125 29.2187 23.4819 28.5756 22.6812 28.5756H18.1925L14.0319 36.4375Z" fill="#26C9FC"/>
<path d="M13.625 37.75V44.6144C13.625 45.9006 14.675 46.9506 15.9613 46.9506H48.0125C49.3119 46.9506 50.375 45.8875 50.375 44.5881V37.75L40.5312 33.8125L29.375 37.75H13.625Z" fill="#FF822D"/>
<path d="M26.75 46.2812C26.75 47.4996 26.266 48.668 25.4045 49.5295C24.543 50.391 23.3746 50.875 22.1562 50.875C20.9379 50.875 19.7695 50.391 18.908 49.5295C18.0465 48.668 17.5625 47.4996 17.5625 46.2812C17.5625 45.0629 18.0465 43.8945 18.908 43.033C19.7695 42.1715 20.9379 41.6875 22.1562 41.6875C23.3746 41.6875 24.543 42.1715 25.4045 43.033C26.266 43.8945 26.75 45.0629 26.75 46.2812ZM46.4375 46.2812C46.4375 47.4996 45.9535 48.668 45.092 49.5295C44.2305 50.391 43.0621 50.875 41.8438 50.875C40.6254 50.875 39.457 50.391 38.5955 49.5295C37.734 48.668 37.25 47.4996 37.25 46.2812C37.25 45.0629 37.734 43.8945 38.5955 43.033C39.457 42.1715 40.6254 41.6875 41.8438 41.6875C43.0621 41.6875 44.2305 42.1715 45.092 43.033C45.9535 43.8945 46.4375 45.0629 46.4375 46.2812Z" fill="#321B41"/>
<path d="M24.125 46.2812C24.125 46.8034 23.9176 47.3042 23.5484 47.6734C23.1792 48.0426 22.6784 48.25 22.1562 48.25C21.6341 48.25 21.1333 48.0426 20.7641 47.6734C20.3949 47.3042 20.1875 46.8034 20.1875 46.2812C20.1875 45.7591 20.3949 45.2583 20.7641 44.8891C21.1333 44.5199 21.6341 44.3125 22.1562 44.3125C22.6784 44.3125 23.1792 44.5199 23.5484 44.8891C23.9176 45.2583 24.125 45.7591 24.125 46.2812ZM43.8125 46.2812C43.8125 46.5398 43.7616 46.7958 43.6626 47.0347C43.5637 47.2735 43.4187 47.4906 43.2359 47.6734C43.0531 47.8562 42.836 48.0012 42.5972 48.1001C42.3583 48.1991 42.1023 48.25 41.8438 48.25C41.5852 48.25 41.3292 48.1991 41.0903 48.1001C40.8515 48.0012 40.6344 47.8562 40.4516 47.6734C40.2688 47.4906 40.1238 47.2735 40.0249 47.0347C39.9259 46.7958 39.875 46.5398 39.875 46.2812C39.875 45.7591 40.0824 45.2583 40.4516 44.8891C40.8208 44.5199 41.3216 44.3125 41.8438 44.3125C42.3659 44.3125 42.8667 44.5199 43.2359 44.8891C43.6051 45.2583 43.8125 45.7591 43.8125 46.2812Z" fill="#F4F4F4"/>
<path d="M50.375 40.375H49.7187C48.6031 40.375 47.6975 41.3069 47.75 42.4356C47.8025 43.4987 48.7212 44.3125 49.7843 44.3125H50.375V40.375Z" fill="#CA0B4A"/>
<path d="M33.3125 20.6875H46.4375C48.6162 20.6875 50.375 22.4463 50.375 24.625V37.75H29.375V24.625C29.375 22.4463 31.1338 20.6875 33.3125 20.6875ZM13.625 44.3125H14.8194C15.6069 44.3125 16.25 43.6694 16.25 42.8819V40.4931C16.25 39.7056 15.6069 39.0625 14.8194 39.0625H13.625V44.3125Z" fill="#FCD53F"/>
</svg>
