<svg width="48" height="49" viewBox="0 0 48 49" fill="none" xmlns="http://www.w3.org/2000/svg">
<rect y="0.5" width="48" height="48" rx="24" fill="#E4E4E7"/>
<path opacity="0.2" d="M30 21.5C30 22.6867 29.6481 23.8467 28.9888 24.8334C28.3295 25.8201 27.3925 26.5892 26.2961 27.0433C25.1997 27.4974 23.9933 27.6162 22.8295 27.3847C21.6656 27.1532 20.5965 26.5818 19.7574 25.7426C18.9182 24.9035 18.3468 23.8344 18.1153 22.6705C17.8838 21.5067 18.0026 20.3003 18.4567 19.2039C18.9109 18.1075 19.6799 17.1705 20.6666 16.5112C21.6533 15.8519 22.8133 15.5 24 15.5C25.5913 15.5 27.1174 16.1321 28.2426 17.2574C29.3679 18.3826 30 19.9087 30 21.5Z" fill="#18181B"/>
<path d="M33.6488 32.3751C32.2209 29.9067 30.0206 28.1367 27.4528 27.2976C28.723 26.5415 29.7098 25.3893 30.2618 24.018C30.8137 22.6468 30.9003 21.1322 30.5082 19.707C30.1161 18.2818 29.267 17.0247 28.0912 16.1287C26.9155 15.2328 25.4782 14.7476 24 14.7476C22.5218 14.7476 21.0845 15.2328 19.9088 16.1287C18.7331 17.0247 17.8839 18.2818 17.4918 19.707C17.0997 21.1322 17.1863 22.6468 17.7382 24.018C18.2902 25.3893 19.277 26.5415 20.5472 27.2976C17.9794 28.1357 15.7791 29.9057 14.3513 32.3751C14.2989 32.4605 14.2642 32.5555 14.2491 32.6545C14.2341 32.7535 14.239 32.8545 14.2636 32.9516C14.2883 33.0487 14.3321 33.1399 14.3925 33.2197C14.4529 33.2996 14.5287 33.3666 14.6155 33.4167C14.7022 33.4667 14.7981 33.499 14.8975 33.5114C14.9968 33.5238 15.0977 33.5163 15.1941 33.4891C15.2905 33.4619 15.3805 33.4157 15.4587 33.3532C15.537 33.2907 15.6019 33.2131 15.6497 33.1251C17.4159 30.0726 20.5378 28.2501 24 28.2501C27.4622 28.2501 30.5841 30.0726 32.3503 33.1251C32.3981 33.2131 32.4631 33.2907 32.5413 33.3532C32.6196 33.4157 32.7095 33.4619 32.8059 33.4891C32.9023 33.5163 33.0032 33.5238 33.1026 33.5114C33.2019 33.499 33.2978 33.4667 33.3845 33.4167C33.4713 33.3666 33.5471 33.2996 33.6075 33.2197C33.6679 33.1399 33.7118 33.0487 33.7364 32.9516C33.761 32.8545 33.766 32.7535 33.7509 32.6545C33.7358 32.5555 33.7011 32.4605 33.6488 32.3751ZM18.75 21.5001C18.75 20.4618 19.0579 19.4467 19.6348 18.5834C20.2117 17.72 21.0316 17.0471 21.9909 16.6497C22.9502 16.2524 24.0058 16.1484 25.0242 16.351C26.0426 16.5536 26.9781 17.0536 27.7123 17.7878C28.4465 18.522 28.9466 19.4575 29.1491 20.4759C29.3517 21.4943 29.2477 22.5499 28.8504 23.5092C28.453 24.4685 27.7801 25.2884 26.9168 25.8653C26.0534 26.4422 25.0384 26.7501 24 26.7501C22.6081 26.7486 21.2736 26.195 20.2893 25.2108C19.3051 24.2265 18.7515 22.892 18.75 21.5001Z" fill="#18181B"/>
</svg>
