<svg width="48" height="49" viewBox="0 0 48 49" fill="none" xmlns="http://www.w3.org/2000/svg">
<rect y="0.5" width="48" height="48" rx="24" fill="#E4E4E7"/>
<path opacity="0.2" d="M30 21.5C30 22.6867 29.6481 23.8467 28.9888 24.8334C28.3295 25.8201 27.3925 26.5892 26.2961 27.0433C25.1997 27.4974 23.9933 27.6162 22.8295 27.3847C21.6656 27.1532 20.5965 26.5818 19.7574 25.7426C18.9182 24.9035 18.3468 23.8344 18.1153 22.6705C17.8838 21.5067 18.0026 20.3003 18.4567 19.2039C18.9109 18.1075 19.6799 17.1705 20.6666 16.5112C21.6533 15.8519 22.8133 15.5 24 15.5C25.5913 15.5 27.1174 16.1321 28.2426 17.2574C29.3679 18.3826 30 19.9087 30 21.5Z" fill="#18181B"/>
<path d="M33.6488 32.375C32.2209 29.9065 30.0206 28.1365 27.4528 27.2975C28.723 26.5414 29.7098 25.3892 30.2618 24.0179C30.8137 22.6467 30.9003 21.1321 30.5082 19.7069C30.1161 18.2817 29.267 17.0245 28.0912 16.1286C26.9155 15.2327 25.4782 14.7474 24 14.7474C22.5218 14.7474 21.0845 15.2327 19.9088 16.1286C18.7331 17.0245 17.8839 18.2817 17.4918 19.7069C17.0997 21.1321 17.1863 22.6467 17.7382 24.0179C18.2902 25.3892 19.277 26.5414 20.5472 27.2975C17.9794 28.1356 15.7791 29.9056 14.3513 32.375C14.2989 32.4604 14.2642 32.5554 14.2491 32.6544C14.2341 32.7534 14.239 32.8544 14.2636 32.9515C14.2883 33.0486 14.3321 33.1397 14.3925 33.2196C14.4529 33.2995 14.5287 33.3664 14.6155 33.4165C14.7022 33.4666 14.7981 33.4988 14.8975 33.5113C14.9968 33.5237 15.0977 33.5161 15.1941 33.489C15.2905 33.4618 15.3805 33.4156 15.4587 33.3531C15.537 33.2906 15.6019 33.213 15.6497 33.125C17.4159 30.0725 20.5378 28.25 24 28.25C27.4622 28.25 30.5841 30.0725 32.3503 33.125C32.3981 33.213 32.4631 33.2906 32.5413 33.3531C32.6196 33.4156 32.7095 33.4618 32.8059 33.489C32.9023 33.5161 33.0032 33.5237 33.1026 33.5113C33.2019 33.4988 33.2978 33.4666 33.3845 33.4165C33.4713 33.3664 33.5471 33.2995 33.6075 33.2196C33.6679 33.1397 33.7118 33.0486 33.7364 32.9515C33.761 32.8544 33.766 32.7534 33.7509 32.6544C33.7358 32.5554 33.7011 32.4604 33.6488 32.375ZM18.75 21.5C18.75 20.4616 19.0579 19.4466 19.6348 18.5832C20.2117 17.7199 21.0316 17.047 21.9909 16.6496C22.9502 16.2523 24.0058 16.1483 25.0242 16.3509C26.0426 16.5534 26.9781 17.0535 27.7123 17.7877C28.4465 18.5219 28.9466 19.4574 29.1491 20.4758C29.3517 21.4942 29.2477 22.5498 28.8504 23.5091C28.453 24.4684 27.7801 25.2883 26.9168 25.8652C26.0534 26.4421 25.0384 26.75 24 26.75C22.6081 26.7485 21.2736 26.1949 20.2893 25.2107C19.3051 24.2264 18.7515 22.8919 18.75 21.5Z" fill="#18181B"/>
</svg>
